<svg width="230" height="312" viewBox="0 0 230 312" fill="none" xmlns="http://www.w3.org/2000/svg">
<path d="M7 108C7 48.3532 55.3532 0 115 0C174.647 0 223 48.3533 223 108V312H7V108Z" fill="#FFE0E3"/>
<path d="M71.3125 229H78.9375V215.641L82.4531 229H88.8594L92.3281 215.422V229H99.9531V206.594H89.1719L85.7812 219.766L82.4219 206.594H71.3125V229ZM107.547 229.5C110.031 229.5 112 228.375 113.219 226.531C113.297 227.438 113.438 228.234 113.594 229H121.312C120.938 227.531 120.734 226.438 120.734 224.938V217.703C120.734 213.375 117.141 211.219 111.797 211.219C106.531 211.219 102.656 213.188 102.453 217.25H110.312C110.312 216.047 110.766 215.438 111.734 215.438C112.594 215.438 113 215.922 113 216.938V217.828L108.797 218.312C103.875 218.875 101.859 220.375 101.859 223.969C101.859 227.766 104.297 229.5 107.547 229.5ZM109.797 223.047C109.797 221.875 110.375 221.359 112 220.906L113 220.625V223.156C113 224.297 112.219 224.781 111.453 224.781C110.547 224.781 109.797 224.266 109.797 223.047ZM123.062 229H130.797V218.891C130.797 218.016 131.25 217.609 131.812 217.609C132.359 217.609 132.719 217.938 132.719 218.781V222.062H139.688V216.562C139.688 212.938 138.359 211.234 135.766 211.234C133.406 211.234 131.453 212.828 130.484 215.328V211.719H123.062V229ZM150.203 229.484C155.281 229.484 159.484 228.062 159.484 223.734C159.484 220.453 156.594 219.219 153.266 218.281L150.516 217.5C149.297 217.156 148.703 216.906 148.703 216.109C148.703 215.375 149.312 214.922 150.203 214.922C151.062 214.922 151.75 215.406 151.75 216.75H159.141C158.891 212.875 154.734 211.234 150.125 211.234C145.062 211.234 140.891 213.109 140.891 217.141C140.891 220.297 143.5 221.406 147.266 222.422L149.797 223.109C150.906 223.406 151.641 223.734 151.641 224.625C151.641 225.438 151 225.781 150.219 225.781C149.172 225.781 148.422 225.188 148.422 223.781H140.734C140.891 227.656 144.672 229.484 150.203 229.484Z" fill="#CD4C66"/>
<rect x="30" y="247" width="161" height="48" rx="24" fill="#B43D52"/>
<path d="M78.0469 276.234C80.7188 276.234 82.7266 275.078 82.7266 271.695H79.1484V272.188C79.1484 273.055 78.9219 273.688 78.1016 273.688C77.2422 273.688 76.9844 273.039 76.9844 272.258V268.539C76.9844 267.703 77.2734 267.102 78.0859 267.102C78.8984 267.102 79.1484 267.695 79.1484 268.547V268.828H82.7266C82.7266 265.867 80.7734 264.562 78.1172 264.562C75.2891 264.562 73.3594 266.07 73.3594 269.008V271.859C73.3594 274.742 75.1406 276.234 78.0469 276.234ZM87.25 276.219C89.6719 276.219 91.3125 274.938 91.3125 272.406V270.891C91.3125 268.375 89.6562 267.141 87.25 267.141C84.8438 267.141 83.2031 268.383 83.2031 270.891V272.406C83.2031 274.938 84.8281 276.219 87.25 276.219ZM86.5 273.016V270.344C86.5 269.797 86.7422 269.406 87.2578 269.406C87.7734 269.406 88.0156 269.797 88.0156 270.344V273.016C88.0156 273.562 87.7734 273.953 87.2578 273.953C86.7422 273.953 86.5 273.562 86.5 273.016ZM92.1172 276H95.3047V270.305C95.3047 269.742 95.5938 269.539 95.8984 269.539C96.1953 269.539 96.4062 269.719 96.4062 270.203V276H99.6016V270.305C99.6016 269.734 99.8906 269.539 100.195 269.539C100.492 269.539 100.711 269.719 100.711 270.203V276H103.898V269.734C103.898 268.016 103.141 267.141 101.789 267.141C100.656 267.141 99.8359 267.812 99.4688 268.703C99.2188 267.672 98.5391 267.141 97.5312 267.141C96.3906 267.141 95.5781 267.812 95.1953 268.664V267.359H92.1172V276ZM110.344 276.219C111.867 276.219 112.781 275.242 112.781 273.211V270.031C112.781 268.078 111.898 267.141 110.359 267.141C109.391 267.141 108.531 267.68 108.086 268.406V267.359H104.852V278.562H108.086V274.906C108.477 275.656 109.297 276.219 110.344 276.219ZM108.031 272.969V270.406C108.031 269.844 108.227 269.438 108.758 269.438C109.289 269.438 109.484 269.844 109.484 270.406V272.969C109.484 273.547 109.289 273.938 108.758 273.938C108.227 273.938 108.031 273.547 108.031 272.969ZM113.664 276H116.898V264.797H113.664V276ZM121.742 276.219C124.062 276.219 125.734 275.047 125.734 272.977H122.492C122.492 273.617 122.305 273.984 121.727 273.984C121.133 273.984 120.914 273.562 120.914 272.93V272.391H125.75V271C125.75 268.469 124.211 267.141 121.781 267.141C119.328 267.141 117.695 268.477 117.695 271.117V272.336C117.695 274.969 119.273 276.219 121.742 276.219ZM120.258 266.719H123.133L123.961 264.641H120.75L120.258 266.719ZM120.922 270.633V270.328C120.922 269.703 121.148 269.305 121.734 269.305C122.281 269.305 122.5 269.703 122.5 270.328V270.633H120.922ZM129.781 276.125C130.594 276.125 131.219 275.953 131.633 275.75V273.812C131.445 273.875 131.227 273.922 130.984 273.922C130.594 273.922 130.297 273.781 130.297 273.281V269.5H131.633V267.359H130.297V264.875L127.078 265.781V267.359H125.961V269.5H127.07V273.727C127.07 275.516 128.305 276.125 129.781 276.125ZM136.07 276.219C138.391 276.219 140.062 275.047 140.062 272.977H136.82C136.82 273.617 136.633 273.984 136.055 273.984C135.461 273.984 135.242 273.562 135.242 272.93V272.391H140.078V271C140.078 268.469 138.539 267.141 136.109 267.141C133.656 267.141 132.023 268.477 132.023 271.117V272.336C132.023 274.969 133.602 276.219 136.07 276.219ZM135.25 270.633V270.328C135.25 269.703 135.477 269.305 136.062 269.305C136.609 269.305 136.828 269.703 136.828 270.328V270.633H135.25ZM140.883 276H144.102V270.445C144.102 270.086 144.281 269.922 144.516 269.922C144.734 269.922 144.875 270.047 144.875 270.375V272.312H147.797V269.438C147.797 267.875 147.25 267.172 146.156 267.172C145.172 267.172 144.375 267.828 143.969 268.93V267.359H140.883V276Z" fill="#ECE9FF"/>
<g clip-path="url(#clip0_345_3066)">
<rect x="34" y="25" width="161" height="161" rx="80.5" fill="#CD4C66"/>
<path fill-rule="evenodd" clip-rule="evenodd" d="M38.0879 43.5527C38.0879 37.9085 42.6634 33.333 48.3076 33.333H104.28C109.924 33.333 114.5 37.9085 114.5 43.5527C114.5 49.1969 109.924 53.7725 104.28 53.7725H48.3076C42.6634 53.7725 38.0879 49.1969 38.0879 43.5527ZM14.8184 96.6167C14.8184 85.8927 23.5119 77.1992 34.2358 77.1992H95.0825C105.806 77.1992 114.5 85.8927 114.5 96.6167C114.5 107.341 105.806 116.034 95.0825 116.034H34.2358C23.5119 116.034 14.8184 107.341 14.8184 96.6167ZM69.376 129.241C69.376 127.244 67.7569 125.625 65.7598 125.625H35.8867C33.8895 125.625 32.2705 127.244 32.2705 129.241C32.2705 131.238 33.8895 132.857 35.8867 132.857H40.6821C42.4622 132.857 43.9053 134.3 43.9053 136.081C43.9053 137.861 45.3483 139.304 47.1284 139.304H54.8325C56.6126 139.304 58.0557 137.861 58.0557 136.081C58.0557 134.3 59.4987 132.857 61.2788 132.857H65.7598C67.7569 132.857 69.376 131.238 69.376 129.241ZM176.447 112.418C176.447 110.421 178.066 108.802 180.063 108.802H209.937C211.934 108.802 213.553 110.421 213.553 112.418C213.553 114.415 211.934 116.034 209.937 116.034H201.761C199.764 116.034 198.145 117.653 198.145 119.65C198.145 121.648 196.525 123.267 194.528 123.267H164.655C162.658 123.267 161.039 121.648 161.039 119.65C161.039 117.653 162.658 116.034 164.655 116.034H172.831C174.828 116.034 176.447 114.415 176.447 112.418ZM228.332 71.5391C228.332 66.1554 223.968 61.791 218.584 61.791H138.398C133.015 61.791 128.65 66.1554 128.65 71.5391C128.65 76.9228 133.015 81.2871 138.398 81.2871H152.706C158.09 81.2871 162.454 85.6515 162.454 91.0352C162.454 96.4189 166.818 100.783 172.202 100.783H252.388C257.771 100.783 262.136 96.4189 262.136 91.0352C262.136 85.6515 257.771 81.2871 252.388 81.2871H238.08C232.696 81.2871 228.332 76.9228 228.332 71.5391ZM103.651 189.145C103.651 183.761 108.016 179.396 113.399 179.396H193.585C198.969 179.396 203.333 183.761 203.333 189.145C203.333 194.528 198.969 198.893 193.585 198.893H113.399C108.016 198.893 103.651 194.528 103.651 189.145ZM82.7402 143.627C82.7402 140.284 85.4504 137.574 88.7935 137.574H108.447C111.79 137.574 114.5 140.284 114.5 143.627C114.5 146.971 111.79 149.681 108.447 149.681H102.472C99.1291 149.681 96.4189 152.391 96.4189 155.734C96.4189 159.077 93.7088 161.787 90.3657 161.787H70.7124C67.3693 161.787 64.6592 159.077 64.6592 155.734C64.6592 152.391 67.3693 149.681 70.7124 149.681H76.687C80.0301 149.681 82.7402 146.971 82.7402 143.627ZM158.838 143.392C158.838 140.179 161.442 137.574 164.655 137.574H184.544C187.888 137.574 190.598 140.284 190.598 143.627C190.598 146.971 187.888 149.681 184.544 149.681H182.343C177.784 149.681 174.089 153.376 174.089 157.935V160.136C174.089 165.911 169.408 170.592 163.633 170.592H153.021C147.116 170.592 142.329 165.805 142.329 159.9V157.463C142.329 152.905 146.025 149.209 150.583 149.209H153.021C156.233 149.209 158.838 146.604 158.838 143.392Z" fill="#DD5761"/>
<circle cx="124.405" cy="125.625" r="4.87402" fill="#B82E3E"/>
<circle cx="83.998" cy="73.2686" r="10.377" fill="#B82E3E"/>
<circle cx="78.6523" cy="147.322" r="5.03125" fill="#B82E3E"/>
<circle cx="158.13" cy="142.212" r="2.90869" fill="#B82E3E"/>
<circle cx="136.433" cy="90.7993" r="7.15381" fill="#B82E3E"/>
<circle cx="130.773" cy="44.103" r="7.15381" fill="#B82E3E"/>
<path fill-rule="evenodd" clip-rule="evenodd" d="M74.3601 160.544C118.819 160.544 154.86 124.503 154.86 80.0445C154.86 60.1203 147.622 41.8868 135.631 27.8301C169.816 37.1275 194.953 68.3858 194.953 105.515C194.953 149.974 158.912 186.015 114.453 186.015C89.918 186.015 67.9468 175.039 53.1816 157.73C59.9298 159.565 67.0305 160.544 74.3601 160.544Z" fill="#4F0000" fill-opacity="0.2"/>
<path d="M110.255 83.6455C110.255 98.3204 98.3585 110.217 83.6836 110.217C69.0087 110.217 57.1123 98.3204 57.1123 83.6455C57.1123 68.9706 69.0087 57.0742 83.6836 57.0742C98.3585 57.0742 110.255 68.9706 110.255 83.6455Z" fill="#EEC3C3" fill-opacity="0.2"/>
</g>
<defs>
<clipPath id="clip0_345_3066">
<rect x="34" y="25" width="161" height="161" rx="80.5" fill="white"/>
</clipPath>
</defs>
</svg>
