<svg width="375" height="333" viewBox="0 0 375 333" fill="none" xmlns="http://www.w3.org/2000/svg">
<rect x="37.3018" y="76.4461" width="80" height="16" transform="rotate(35.0787 37.3018 76.4461)" fill="#7F79BB"/>
<rect x="30.7666" y="97.3209" width="64" height="17" transform="rotate(-90 30.7666 97.3209)" fill="#7F79BB"/>
<circle cx="39.2511" cy="87.5906" r="12.5" transform="rotate(35.0787 39.2511 87.5906)" fill="#D2CBF4" stroke="#7F79BB" stroke-width="3"/>
<rect width="80" height="16" transform="matrix(-0.866025 -0.5 -0.5 0.866025 356.322 133.278)" fill="#7F79BB"/>
<rect width="58.2239" height="17" transform="matrix(0.5 -0.866025 -0.866025 -0.5 325.378 188.313)" fill="#7F79BB"/>
<circle r="12.5" transform="matrix(-0.818363 0.574702 0.574702 0.818363 344.384 134.87)" fill="#D2CBF4" stroke="#7F79BB" stroke-width="3"/>
<rect x="203.765" y="205" width="58" height="33" transform="rotate(90 203.765 205)" fill="#D2CBF4"/>
<rect x="203.765" y="221" width="4" height="33" transform="rotate(90 203.765 221)" fill="#ABA6E1"/>
<rect x="203.765" y="231" width="4" height="33" transform="rotate(90 203.765 231)" fill="#ABA6E1"/>
<rect x="203.765" y="240" width="5" height="33" transform="rotate(90 203.765 240)" fill="#ABA6E1"/>
<rect x="203.765" y="250" width="5" height="33" transform="rotate(90 203.765 250)" fill="#ABA6E1"/>
<rect x="203.765" y="211" width="4" height="33" transform="rotate(90 203.765 211)" fill="#ABA6E1"/>
<rect opacity="0.4" x="203.765" y="198" width="77" height="16" rx="8" transform="rotate(90 203.765 198)" fill="#7F79BB"/>
<rect x="99.4541" y="8.00002" width="199.69" height="196.837" rx="16" fill="#7F79BB"/>
<rect x="88.5771" y="8.00002" width="199.69" height="196.837" rx="16" fill="#ABA6E1"/>
<rect x="100.853" y="19.3607" width="176.829" height="175.492" rx="12" fill="#D2CBF4"/>
<path d="M207.779 142H210.779L207.779 140V142Z" fill="#7F79BB"/>
<path d="M168.781 149C168.781 154.57 170.994 159.911 174.932 163.849C178.87 167.788 184.212 170 189.781 170C195.351 170 200.692 167.788 204.63 163.849C208.569 159.911 210.781 154.57 210.781 149L189.781 149L168.781 149Z" fill="#7F79BB"/>
<rect x="168.779" y="142" width="42" height="7" fill="#7F79BB"/>
<path d="M165.781 147C165.781 149.758 166.324 152.489 167.38 155.036C168.435 157.584 169.982 159.899 171.932 161.849C173.882 163.799 176.197 165.346 178.745 166.402C181.293 167.457 184.023 168 186.781 168C189.539 168 192.27 167.457 194.818 166.402C197.365 165.346 199.68 163.799 201.63 161.849C203.581 159.899 205.127 157.584 206.183 155.036C207.238 152.489 207.781 149.758 207.781 147H186.781L165.781 147Z" fill="#ABA6E1"/>
<rect x="165.779" y="140" width="42" height="7" fill="#ABA6E1"/>
<path d="M168.781 147C168.781 149.364 169.247 151.704 170.151 153.888C171.056 156.072 172.382 158.056 174.053 159.728C175.725 161.399 177.709 162.725 179.893 163.63C182.077 164.534 184.417 165 186.781 165C189.145 165 191.486 164.534 193.67 163.63C195.853 162.725 197.838 161.399 199.509 159.728C201.181 158.056 202.506 156.072 203.411 153.888C204.316 151.704 204.781 149.364 204.781 147H186.781L168.781 147Z" fill="#6C50E9"/>
<rect x="168.779" y="143" width="36" height="4" fill="#6C50E9"/>
<path fill-rule="evenodd" clip-rule="evenodd" d="M197.363 161.56C196.091 157.192 192.058 154 187.28 154C182.292 154 178.116 157.478 177.046 162.141C177.946 162.72 178.898 163.218 179.892 163.63C182.075 164.534 184.416 165 186.78 165C189.144 165 191.484 164.534 193.668 163.63C194.98 163.087 196.22 162.391 197.363 161.56Z" fill="#513CAF"/>
<circle cx="234.829" cy="77.7498" r="28.6474" fill="#7F79BB"/>
<circle cx="229.847" cy="77.7498" r="28.6474" fill="#ABA6E1"/>
<circle cx="229.846" cy="77.7499" r="22.4197" fill="#6C50E9"/>
<ellipse cx="228.432" cy="70.3775" rx="6.05937" ry="7.57421" fill="#ECE9FF"/>
<path fill-rule="evenodd" clip-rule="evenodd" d="M246.736 92.2935C243.565 94.0107 239.933 94.9858 236.074 94.9858C223.692 94.9858 213.655 84.9481 213.655 72.5661C213.655 66.9208 215.741 61.7628 219.185 57.8212C212.182 61.6136 207.427 69.0257 207.427 77.5486C207.427 89.9306 217.464 99.9683 229.846 99.9683C236.583 99.9683 242.626 96.997 246.736 92.2935Z" fill="#513CAF"/>
<circle cx="148.304" cy="77.7498" r="28.6474" fill="#7F79BB"/>
<circle cx="143.321" cy="77.7498" r="28.6474" fill="#ABA6E1"/>
<circle cx="143.321" cy="77.7499" r="22.4197" fill="#6C50E9"/>
<ellipse cx="141.907" cy="70.3775" rx="6.05937" ry="7.57421" fill="#ECE9FF"/>
<path fill-rule="evenodd" clip-rule="evenodd" d="M160.21 92.2935C157.039 94.0107 153.408 94.9858 149.549 94.9858C137.167 94.9858 127.129 84.9481 127.129 72.5661C127.129 66.9208 129.216 61.7628 132.66 57.8212C125.657 61.6136 120.901 69.0257 120.901 77.5486C120.901 89.9306 130.939 99.9683 143.321 99.9683C150.058 99.9683 156.1 96.997 160.21 92.2935Z" fill="#513CAF"/>
<rect x="178.764" y="259" width="18" height="117" fill="#7F79BB"/>
<ellipse cx="179.151" cy="317.519" rx="46.3566" ry="58.4806" fill="#7F79BB"/>
<ellipse cx="196.267" cy="317.519" rx="46.3566" ry="58.4806" fill="#ABA6E1"/>
<ellipse cx="196.98" cy="317.519" rx="34.2326" ry="47.0698" fill="#ECE9FF"/>
<path d="M219.802 317.519C219.802 312.837 219.211 308.2 218.064 303.873C216.918 299.547 215.236 295.616 213.117 292.305C210.998 288.993 208.482 286.367 205.713 284.575C202.945 282.783 199.977 281.86 196.98 281.86C193.983 281.86 191.015 282.783 188.246 284.575C185.478 286.367 182.962 288.993 180.843 292.305C178.723 295.616 177.042 299.547 175.895 303.873C174.749 308.2 174.158 312.837 174.158 317.519L196.98 317.519H219.802Z" fill="#ABA6E1"/>
<path d="M174.158 317.519C174.158 322.202 174.749 326.839 175.896 331.166C177.042 335.492 178.723 339.423 180.843 342.734C182.962 346.045 185.478 348.672 188.247 350.464C191.015 352.256 193.983 353.178 196.98 353.178C199.977 353.178 202.945 352.256 205.714 350.464C208.482 348.672 210.998 346.045 213.117 342.734C215.237 339.423 216.918 335.492 218.065 331.166C219.211 326.839 219.802 322.202 219.802 317.519L196.98 317.519L174.158 317.519Z" fill="#D2CBF4"/>
<path d="M205.934 317.52C205.934 321.922 204.788 325.815 203.041 328.544C201.28 331.297 199.089 332.636 196.98 332.636C194.87 332.636 192.68 331.297 190.918 328.544C189.171 325.815 188.025 321.922 188.025 317.52C188.025 313.117 189.171 309.224 190.918 306.495C192.68 303.742 194.87 302.403 196.98 302.403C199.089 302.403 201.28 303.742 203.041 306.495C204.788 309.224 205.934 313.117 205.934 317.52Z" fill="#7F79BB" stroke="#ECE9FF" stroke-width="4"/>
<path d="M18.1613 6.98771C16.2031 14.2958 17.2282 22.0824 21.0112 28.6346C24.7941 35.1869 31.025 39.968 38.333 41.9262C45.6411 43.8844 53.4277 42.8592 59.98 39.0763C66.5322 35.2934 71.3133 29.0625 73.2715 21.7544L59.4939 18.0628C58.5148 21.7168 56.1243 24.8322 52.8482 26.7237C49.5721 28.6152 45.6787 29.1277 42.0247 28.1486C38.3707 27.1695 35.2552 24.779 33.3638 21.5029C31.4723 18.2267 30.9597 14.3334 31.9388 10.6794L18.1613 6.98771Z" fill="#D2CBF4"/>
<circle cx="66.3826" cy="19.9087" r="7.13178" transform="rotate(105 66.3826 19.9087)" fill="#D2CBF4"/>
<circle cx="25.0496" cy="8.83355" r="7.13178" transform="rotate(105 25.0496 8.83355)" fill="#D2CBF4"/>
<path d="M284.221 189.705C288.004 183.153 294.235 178.372 301.543 176.414C308.851 174.456 316.638 175.481 323.19 179.264C329.742 183.047 334.524 189.277 336.482 196.586C338.44 203.894 337.415 211.68 333.632 218.232L321.279 211.101C323.171 207.825 323.683 203.931 322.704 200.277C321.725 196.623 319.335 193.508 316.058 191.616C312.782 189.725 308.889 189.212 305.235 190.191C301.581 191.17 298.465 193.561 296.574 196.837L284.221 189.705Z" fill="#D2CBF4"/>
<circle r="7.13178" transform="matrix(0.5 -0.866025 -0.866025 -0.5 327.567 214.472)" fill="#D2CBF4"/>
<circle r="7.13178" transform="matrix(0.5 -0.866025 -0.866025 -0.5 290.51 193.077)" fill="#D2CBF4"/>
</svg>
