<svg width="556" height="622" viewBox="0 0 556 622" fill="none" xmlns="http://www.w3.org/2000/svg">
<circle cx="513.5" cy="242.5" r="23.5" fill="#00BD68"/>
<path d="M524.102 230.853C524.752 230.138 524.705 229.023 523.929 228.447C522.558 227.43 521.043 226.616 519.431 226.036C517.269 225.257 514.974 224.911 512.679 225.019C510.383 225.127 508.131 225.686 506.052 226.664C504.501 227.394 503.069 228.345 501.799 229.487C501.08 230.133 501.138 231.248 501.853 231.898V231.898C502.567 232.549 503.668 232.487 504.402 231.859C505.351 231.047 506.407 230.365 507.541 229.831C509.205 229.049 511.006 228.602 512.843 228.515C514.679 228.429 516.515 228.705 518.245 229.328C519.424 229.753 520.539 230.334 521.56 231.053C522.35 231.609 523.451 231.567 524.102 230.853V230.853Z" fill="#2CE87B"/>
<circle cx="530" cy="250" r="16" fill="#00BD68"/>
<path d="M541.7 250C542.418 250 543.007 249.417 542.935 248.702C542.752 246.874 542.182 245.1 541.258 243.5C540.117 241.524 538.476 239.883 536.5 238.742C534.524 237.601 532.282 237 530 237C528.153 237 526.332 237.394 524.656 238.149C524.002 238.444 523.791 239.246 524.15 239.868V239.868C524.509 240.489 525.302 240.694 525.963 240.415C527.237 239.879 528.609 239.6 530 239.6C531.826 239.6 533.619 240.081 535.2 240.993C536.781 241.906 538.094 243.219 539.007 244.8C539.702 246.004 540.147 247.332 540.319 248.703C540.408 249.416 540.982 250 541.7 250V250Z" fill="#2CE87B"/>
<rect x="10" y="50" width="171" height="572" fill="#240078"/>
<rect x="43" y="88" width="13" height="43" rx="6.5" fill="#511EB0"/>
<rect x="144" y="129" width="13" height="43" rx="6.5" fill="#511EB0"/>
<rect x="63" y="114" width="13" height="30" rx="6.5" fill="#511EB0"/>
<circle cx="25.5" cy="23.5" r="23.5" fill="#008069"/>
<path fill-rule="evenodd" clip-rule="evenodd" d="M2 39V26C2 22.134 5.13401 19 9 19V19C12.866 19 16 22.134 16 26L16 33C16 36.3137 18.6863 39 22 39H25C26.6569 39 28 37.6569 28 36V36C28 34.3431 29.3431 33 31 33L39 33C40.6569 33 42 34.3431 42 36V36C42 37.6569 43.3431 39 45 39L77 39L169 39C180.046 39 189 47.9543 189 59L189 71V81.5156C189 86.7537 184.754 91 179.516 91V91C174.278 91 170.031 95.2463 170.031 100.484V104.098C170.031 111.166 164.302 116.895 157.234 116.895V116.895C150.167 116.895 144.437 111.091 144.437 104.023V104.023C144.437 96.8726 138.64 91 131.489 91L87 91C81.4771 91 77 86.5228 77 81V81C77 75.4772 72.5228 71 67 71H49C45.134 71 42 74.134 42 78V78C42 81.866 38.866 85 35 85V85C31.134 85 28 81.866 28 78V78C28 74.134 24.866 71 21 71H12C6.47715 71 2 66.5228 2 61V61V39Z" fill="#008069"/>
<path d="M25.1117 6.66618C25.2413 5.84795 24.6826 5.07167 23.8555 5.02442C22.3945 4.94095 20.9264 5.07159 19.4982 5.41449C17.5828 5.87436 15.7767 6.70699 14.1831 7.86485C12.5895 9.0227 11.2395 10.4831 10.2103 12.1627C9.44288 13.415 8.86498 14.771 8.49291 16.1863C8.28228 16.9875 8.84795 17.7587 9.66618 17.8883V17.8883C10.4844 18.0179 11.2436 17.4556 11.4742 16.6599C11.7721 15.632 12.2068 14.6464 12.7682 13.7301C13.5916 12.3865 14.6716 11.2182 15.9465 10.2919C17.2214 9.36559 18.6662 8.69949 20.1985 8.33159C21.2435 8.08071 22.3151 7.97186 23.3847 8.00617C24.2127 8.03273 24.9821 7.48441 25.1117 6.66618V6.66618Z" fill="#00BD68"/>
<rect x="95" y="66" width="47" height="4" rx="2" transform="rotate(-180 95 66)" fill="#00BD68"/>
<rect x="165" y="96" width="13" height="4" rx="2" transform="rotate(90 165 96)" fill="#00BD68"/>
<path fill-rule="evenodd" clip-rule="evenodd" d="M188.898 48.1046C188.898 43.0763 184.821 39 179.793 39H88.7465C81.7068 39 76 44.7068 76 51.7465V51.7465C76 58.7862 81.7068 64.493 88.7465 64.493H101.494C106.522 64.493 110.599 68.5693 110.599 73.5976V73.5976C110.599 78.6259 114.675 82.7022 119.703 82.7022H126.075C130.601 82.7022 134.269 86.3708 134.269 90.8964V90.8964C134.269 95.422 137.938 99.0906 142.464 99.0906H144.284C148.81 99.0906 152.479 95.422 152.479 90.8964V82.7029C152.479 82.7025 152.479 82.7022 152.479 82.7022V82.7022C152.48 82.7022 152.48 82.7019 152.48 82.7015V73.5976C152.48 68.5693 156.556 64.493 161.585 64.493V64.493C166.613 64.493 170.689 68.5693 170.689 73.5976V73.5976C170.689 78.6259 174.766 82.7022 179.794 82.7022V82.7022C184.822 82.7022 188.899 78.6259 188.899 73.5975V57.2097C188.899 57.2094 188.898 57.2092 188.898 57.2092V57.2092C188.898 57.2092 188.898 57.2089 188.898 57.2087V48.1046Z" fill="#00BD68"/>
<rect x="148" y="72" width="18" height="4" rx="2" transform="rotate(90 148 72)" fill="#2CE87B"/>
<path fill-rule="evenodd" clip-rule="evenodd" d="M189 48C189 33.6406 177.359 22 163 22H21C10.5066 22 2 30.5066 2 41V41V48V51C2 57.0751 6.92487 62 13 62H15C19.9706 62 24 66.0294 24 71V72.5C24 76.6421 27.3579 80 31.5 80V80C35.6421 80 39 76.6421 39 72.5V62V59V59C39 52.9249 43.9249 48 50 48H63C70.1797 48 76 53.8203 76 61V61C76 68.1797 81.8203 74 89 74H91.5C100.06 74 107 80.9396 107 89.5V102C107 110.284 113.716 117 122 117V117C130.284 117 137 110.284 137 102V74V63.5C137 54.9396 143.94 48 152.5 48H157.5C163.299 48 168 52.701 168 58.5V58.5C168 64.299 172.701 69 178.5 69V69C184.299 69 189 64.299 189 58.5V48V48Z" fill="#2CE87B"/>
<rect x="102" y="25" width="67" height="6" rx="3" fill="#96FF66"/>
<rect x="13" y="35" width="20" height="6" rx="3" transform="rotate(90 13 35)" fill="#96FF66"/>
<rect x="132" y="81" width="22" height="6" rx="3" transform="rotate(90 132 81)" fill="#96FF66"/>
<rect x="184" y="48" width="11" height="6" rx="3" transform="rotate(90 184 48)" fill="#96FF66"/>
<circle cx="48" cy="22" r="19" fill="#2CE87B"/>
<path d="M57.8876 29.2133C58.4637 29.6866 59.3208 29.6065 59.7343 28.9861C61.3296 26.5921 62.1253 23.7393 61.984 20.8424C61.8427 17.9455 60.7733 15.1837 58.9525 12.9562C58.4806 12.379 57.6198 12.3827 57.0925 12.9098V12.9098C56.5653 13.437 56.573 14.2873 57.0303 14.8762C58.3844 16.62 59.1786 18.7471 59.2872 20.9739C59.3958 23.2008 58.8124 25.395 57.6343 27.2623C57.2365 27.8929 57.3116 28.7399 57.8876 29.2133V29.2133Z" fill="#96FF66"/>
<rect x="9" y="150" width="133" height="472" fill="#511EB0"/>
<path fill-rule="evenodd" clip-rule="evenodd" d="M91 254C77.7452 254 67 264.745 67 278V302C67 315.255 77.7452 326 91 326H57C30.4903 326 9 347.49 9 374V574C9 600.51 30.4903 622 57 622H368C394.51 622 416 600.51 416 574V374C416 347.49 437.49 326 464 326H521C534.255 326 545 315.255 545 302V278C545 264.745 534.255 254 521 254H91Z" fill="#511EB0"/>
<rect x="120" y="267" width="13" height="43" rx="6.5" fill="#7424C9"/>
<rect x="23" y="219" width="13" height="66" rx="6.5" fill="#7424C9"/>
<rect x="44" y="219" width="13" height="23" rx="6.5" fill="#7424C9"/>
<rect x="168" y="317" width="13" height="62" rx="6.5" fill="#7424C9"/>
<rect x="271" y="303" width="13" height="27" rx="6.5" fill="#7424C9"/>
<rect x="253" y="317" width="13" height="42" rx="6.5" fill="#7424C9"/>
<rect x="271" y="342" width="13" height="42" rx="6.5" fill="#7424C9"/>
<rect x="343" y="382" width="13" height="42" rx="6.5" fill="#7424C9"/>
<rect x="364" y="349" width="13" height="42" rx="6.5" fill="#7424C9"/>
<rect x="377" y="441" width="13" height="25" rx="6.5" fill="#7424C9"/>
<rect x="517" y="278" width="13" height="25" rx="6.5" fill="#7424C9"/>
<rect x="9" y="335" width="131" height="287" fill="#BC25F7"/>
<rect x="41" y="531" width="13" height="43" rx="6.5" fill="#DD4AED"/>
<rect x="61" y="557" width="13" height="45" rx="6.5" fill="#DD4AED"/>
<rect x="48" y="408" width="13" height="27" rx="6.5" fill="#DD4AED"/>
<rect x="27" y="422" width="13" height="42" rx="6.5" fill="#DD4AED"/>
<rect x="48" y="447" width="13" height="42" rx="6.5" fill="#DD4AED"/>
<rect x="191" y="426" width="131" height="196" rx="16" fill="#BC25F7"/>
<rect x="293" y="452" width="13" height="27" rx="6.5" fill="#DD4AED"/>
<rect x="272" y="452" width="13" height="42" rx="6.5" fill="#DD4AED"/>
<rect x="89" y="498" width="143" height="124" rx="16" fill="#DD4AED"/>
<rect x="202" y="545" width="13" height="27" rx="6.5" fill="#F15EFF"/>
<rect x="181" y="559" width="13" height="42" rx="6.5" fill="#F15EFF"/>
<rect x="277" y="524" width="112" height="98" rx="16" fill="#DD4AED"/>
<rect x="369" y="560" width="13" height="42" rx="6.5" fill="#F15EFF"/>
<circle cx="25" cy="319" r="16" fill="#00BD68"/>
<path d="M25 306.091C25 305.488 24.5109 304.996 23.9103 305.042C21.0933 305.262 18.3991 306.331 16.1899 308.12C13.9808 309.908 12.3753 312.321 11.5743 315.031C11.4036 315.609 11.7838 316.19 12.373 316.315V316.315C12.9623 316.44 13.5366 316.062 13.7157 315.487C14.4072 313.266 15.7421 311.289 17.5627 309.815C19.3833 308.341 21.5942 307.446 23.9108 307.232C24.5106 307.176 25 306.693 25 306.091V306.091Z" fill="#2CE87B"/>
<path fill-rule="evenodd" clip-rule="evenodd" d="M25 340C25 338.895 24.1046 338 23 338H8C3.58172 338 0 341.582 0 346V369C0 373.418 3.58172 377 8 377H17C21.4183 377 25 373.418 25 369V369C25 364.582 28.5817 361 33 361H68C72.4183 361 76 364.582 76 369V393C76 397.418 79.5817 401 84 401H90C94.4183 401 98 397.418 98 393V377C98 372.582 101.582 369 106 369H119H141C145.418 369 149 365.418 149 361V350C149 345.582 145.418 342 141 342H123H119H27C25.8954 342 25 341.105 25 340V340Z" fill="#008069"/>
<path fill-rule="evenodd" clip-rule="evenodd" d="M149 334C149 329.582 145.418 326 141 326H8C3.58172 326 0 329.582 0 334V341V351V360C0 364.418 3.58172 368 8 368H13C17.4183 368 21 364.418 21 360V359C21 354.582 24.5817 351 29 351H59.5C62.5376 351 65 353.462 65 356.5V358C65 360.209 63.2091 362 61 362V362C58.7909 362 57 363.791 57 366V379C57 383.418 60.5817 387 65 387H81C85.4183 387 89 383.418 89 379V370C89 365.582 92.5817 362 97 362H141C145.418 362 149 358.418 149 354V351V344V334Z" fill="#00BD68"/>
<path fill-rule="evenodd" clip-rule="evenodd" d="M0 333C0 329.134 3.134 326 7 326H142C145.866 326 149 329.134 149 333V343C149 346.866 145.866 350 142 350H82C78.134 350 75 353.134 75 357V370C75 373.866 71.866 377 68 377H55C51.134 377 48 373.866 48 370V370C48 366.134 44.866 363 41 363H33.5C29.9101 363 27 360.09 27 356.5V356.5C27 352.91 24.0899 350 20.5 350H7C3.13401 350 0 346.866 0 343V333Z" fill="#2CE87B"/>
<circle cx="33.5" cy="319.5" r="12.5" fill="#2CE87B"/>
<circle cx="121.203" cy="327.125" r="9.33946" fill="#2CE87B"/>
<circle cx="47.5" cy="326.5" r="10.5" fill="#2CE87B"/>
<path d="M42.95 319.5C43.5299 319.5 44.0054 319.029 43.9476 318.452C43.7533 316.515 43.0234 314.663 41.8302 313.108C40.637 311.553 39.0369 310.369 37.2166 309.68C36.6742 309.474 36.0959 309.812 35.9458 310.372V310.372C35.7958 310.932 36.1317 311.502 36.6687 311.721C38.044 312.281 39.2525 313.198 40.1642 314.386C41.0758 315.574 41.6493 316.979 41.8345 318.453C41.9068 319.028 42.3701 319.5 42.95 319.5V319.5Z" fill="#96FF66"/>
<path d="M54.354 323.102C54.7746 322.894 54.9501 322.381 54.7006 321.983C54.082 320.997 53.2655 320.146 52.2997 319.485C51.3338 318.824 50.2445 318.371 49.1011 318.152C48.6401 318.064 48.2257 318.413 48.1838 318.881V318.881C48.1418 319.348 48.4888 319.756 48.9474 319.856C49.8014 320.042 50.6141 320.391 51.3398 320.888C52.0654 321.384 52.6856 322.015 53.1684 322.744C53.4277 323.135 53.9334 323.311 54.354 323.102V323.102Z" fill="#96FF66"/>
<circle cx="131.845" cy="322.845" r="7.84515" fill="#2CE87B"/>
<path d="M128.045 325.112C128.422 325.011 128.649 324.623 128.515 324.256C128.236 323.493 127.843 322.776 127.347 322.13C126.707 321.296 125.91 320.597 125 320.072C124.09 319.547 123.086 319.206 122.044 319.068C121.236 318.962 120.419 318.98 119.619 319.12C119.235 319.187 119.011 319.578 119.112 319.955V319.955C119.213 320.331 119.6 320.551 119.986 320.491C120.605 320.394 121.236 320.387 121.86 320.469C122.718 320.582 123.545 320.862 124.294 321.295C125.043 321.728 125.7 322.303 126.226 322.99C126.609 323.489 126.918 324.039 127.144 324.624C127.285 324.988 127.669 325.213 128.045 325.112V325.112Z" fill="#96FF66"/>
<path d="M136.486 324.503C136.78 324.614 137.112 324.466 137.193 324.163C137.439 323.242 137.451 322.27 137.222 321.338C136.949 320.222 136.343 319.214 135.486 318.448C134.628 317.682 133.559 317.193 132.419 317.046C131.467 316.924 130.503 317.045 129.616 317.393C129.323 317.507 129.213 317.853 129.356 318.133V318.133C129.5 318.413 129.842 318.52 130.138 318.412C130.818 318.165 131.55 318.083 132.273 318.176C133.186 318.293 134.041 318.684 134.727 319.297C135.413 319.91 135.898 320.716 136.116 321.609C136.29 322.318 136.29 323.055 136.121 323.758C136.047 324.064 136.192 324.392 136.486 324.503V324.503Z" fill="#96FF66"/>
<rect x="72" y="330" width="73" height="3" rx="1.5" fill="#96FF66"/>
<rect x="55" y="330" width="11" height="3" rx="1.5" fill="#96FF66"/>
<rect x="7" y="343" width="11" height="3" rx="1.5" fill="#96FF66"/>
<rect x="7" y="352" width="11" height="3" rx="1.5" transform="rotate(90 7 352)" fill="#2CE87B"/>
<rect x="67" y="372" width="18" height="3" rx="1.5" transform="rotate(-90 67 372)" fill="#96FF66"/>
<rect x="81" y="382" width="13" height="3" rx="1.5" transform="rotate(-90 81 382)" fill="#2CE87B"/>
<rect x="137" y="359" width="34" height="3" rx="1.5" transform="rotate(180 137 359)" fill="#2CE87B"/>
<rect x="92" y="395" width="8" height="3" rx="1.5" transform="rotate(-90 92 395)" fill="#00BD68"/>
<rect x="92" y="384" width="11" height="3" rx="1.5" transform="rotate(-90 92 384)" fill="#00BD68"/>
<circle cx="207" cy="391" r="16" fill="#00BD68"/>
<path d="M207 378.091C207 377.488 206.511 376.996 205.91 377.042C203.093 377.262 200.399 378.331 198.19 380.12C195.981 381.908 194.375 384.321 193.574 387.031C193.404 387.609 193.784 388.19 194.373 388.315V388.315C194.962 388.44 195.537 388.062 195.716 387.487C196.407 385.266 197.742 383.289 199.563 381.815C201.383 380.341 203.594 379.446 205.911 379.232C206.511 379.176 207 378.693 207 378.091V378.091Z" fill="#2CE87B"/>
<path fill-rule="evenodd" clip-rule="evenodd" d="M207 412C207 410.895 206.105 410 205 410H190C185.582 410 182 413.582 182 418V441C182 445.418 185.582 449 190 449H201.5C204.538 449 207 446.538 207 443.5V443.5C207 440.462 209.462 438 212.5 438H238C242.418 438 246 441.582 246 446V457C246 461.418 249.582 465 254 465H260C264.418 465 268 461.418 268 457V438.5C268 438.224 268.224 438 268.5 438V438C268.776 438 269 438.224 269 438.5V439.5C269 440.328 269.672 441 270.5 441H301H323C327.418 441 331 437.418 331 433V422C331 417.582 327.418 414 323 414H305H301H209C207.895 414 207 413.105 207 412V412Z" fill="#008069"/>
<path fill-rule="evenodd" clip-rule="evenodd" d="M331 406C331 401.582 327.418 398 323 398H190C185.582 398 182 401.582 182 406V413V428V432C182 436.418 185.582 440 190 440H197C200.314 440 203 437.314 203 434V434C203 430.686 205.686 428 209 428H218C222.418 428 226 431.582 226 436V445C226 449.418 229.582 453 234 453H240C244.418 453 248 449.418 248 445V442C248 437.582 251.582 434 256 434H325C328.314 434 331 431.314 331 428V428V416V406Z" fill="#00BD68"/>
<path fill-rule="evenodd" clip-rule="evenodd" d="M182 405C182 401.134 185.134 398 189 398H324C327.866 398 331 401.134 331 405V415C331 418.866 327.866 422 324 422H310C307.791 422 306 423.791 306 426V426C306 428.209 304.209 430 302 430H291C287.686 430 285 432.686 285 436V436C285 439.314 282.314 442 279 442H265C261.134 442 258 438.866 258 435V429C258 425.134 254.866 422 251 422H189C185.134 422 182 418.866 182 415V405Z" fill="#2CE87B"/>
<circle cx="215.5" cy="391.5" r="12.5" fill="#2CE87B"/>
<circle cx="303.203" cy="399.125" r="9.33946" fill="#2CE87B"/>
<circle cx="229.5" cy="398.5" r="10.5" fill="#2CE87B"/>
<path d="M224.95 391.5C225.53 391.5 226.005 391.029 225.948 390.452C225.753 388.515 225.023 386.663 223.83 385.108C222.637 383.553 221.037 382.369 219.217 381.68C218.674 381.474 218.096 381.812 217.946 382.372V382.372C217.796 382.932 218.132 383.502 218.669 383.721C220.044 384.281 221.253 385.198 222.164 386.386C223.076 387.574 223.649 388.979 223.834 390.453C223.907 391.028 224.37 391.5 224.95 391.5V391.5Z" fill="#96FF66"/>
<path d="M236.354 395.102C236.775 394.894 236.95 394.381 236.701 393.983C236.082 392.997 235.266 392.146 234.3 391.485C233.334 390.824 232.245 390.371 231.101 390.152C230.64 390.064 230.226 390.413 230.184 390.881V390.881C230.142 391.348 230.489 391.756 230.947 391.856C231.801 392.042 232.614 392.391 233.34 392.888C234.065 393.384 234.686 394.015 235.168 394.744C235.428 395.135 235.933 395.311 236.354 395.102V395.102Z" fill="#96FF66"/>
<circle cx="313.845" cy="394.845" r="7.84515" fill="#2CE87B"/>
<path d="M310.045 397.112C310.422 397.011 310.649 396.623 310.515 396.256C310.236 395.493 309.843 394.776 309.347 394.13C308.707 393.296 307.91 392.597 307 392.072C306.09 391.547 305.086 391.206 304.044 391.068C303.236 390.962 302.419 390.98 301.619 391.12C301.235 391.187 301.011 391.578 301.112 391.955V391.955C301.213 392.331 301.6 392.551 301.986 392.491C302.605 392.394 303.236 392.387 303.86 392.469C304.718 392.582 305.545 392.862 306.294 393.295C307.043 393.728 307.7 394.303 308.226 394.99C308.609 395.489 308.918 396.039 309.144 396.624C309.285 396.988 309.669 397.213 310.045 397.112V397.112Z" fill="#96FF66"/>
<path d="M318.486 396.503C318.78 396.614 319.112 396.466 319.193 396.163C319.439 395.242 319.451 394.27 319.222 393.338C318.949 392.222 318.343 391.214 317.486 390.448C316.628 389.682 315.559 389.193 314.419 389.046C313.467 388.924 312.503 389.045 311.616 389.393C311.323 389.507 311.213 389.853 311.356 390.133V390.133C311.5 390.413 311.842 390.52 312.138 390.412C312.818 390.165 313.55 390.083 314.273 390.176C315.186 390.293 316.041 390.684 316.727 391.297C317.413 391.91 317.898 392.716 318.116 393.609C318.29 394.318 318.29 395.055 318.121 395.758C318.047 396.064 318.192 396.392 318.486 396.503V396.503Z" fill="#96FF66"/>
<rect x="254" y="402" width="73" height="3" rx="1.5" fill="#96FF66"/>
<rect x="237" y="402" width="11" height="3" rx="1.5" fill="#96FF66"/>
<rect x="189" y="415" width="11" height="3" rx="1.5" fill="#96FF66"/>
<rect x="189" y="424" width="11" height="3" rx="1.5" transform="rotate(90 189 424)" fill="#2CE87B"/>
<rect x="277" y="438" width="10" height="3" rx="1.5" transform="rotate(-90 277 438)" fill="#96FF66"/>
<rect x="229" y="448" width="13" height="3" rx="1.5" transform="rotate(-90 229 448)" fill="#2CE87B"/>
<rect x="319" y="431" width="34" height="3" rx="1.5" transform="rotate(180 319 431)" fill="#2CE87B"/>
<rect x="262" y="459" width="8" height="3" rx="1.5" transform="rotate(-90 262 459)" fill="#00BD68"/>
<circle cx="292.302" cy="501.993" r="12.9933" fill="#00BD68"/>
<path d="M292.303 491.51C292.303 491.021 291.906 490.621 291.418 490.659C289.13 490.837 286.942 491.705 285.148 493.158C283.354 494.61 282.05 496.57 281.4 498.77C281.261 499.239 281.57 499.711 282.049 499.813V499.813C282.527 499.915 282.994 499.608 283.139 499.14C283.701 497.337 284.785 495.732 286.263 494.534C287.742 493.337 289.537 492.611 291.418 492.437C291.905 492.392 292.303 491.999 292.303 491.51V491.51Z" fill="#2CE87B"/>
<path fill-rule="evenodd" clip-rule="evenodd" d="M292.302 519.047C292.302 518.15 291.575 517.423 290.678 517.423H280C275.582 517.423 272 521.005 272 525.423V541.094C272 545.512 275.582 549.094 280 549.094H285.805C289.393 549.094 292.302 546.185 292.302 542.597V542.597C292.302 539.009 295.211 536.101 298.799 536.101H325.718C330.136 536.101 333.718 539.682 333.718 544.101V560.584C333.718 565.002 337.3 568.584 341.718 568.584H343.584C348.002 568.584 351.584 565.002 351.584 560.584V550.597C351.584 546.179 355.166 542.597 359.584 542.597H368.638H385C389.418 542.597 393 539.016 393 534.597V528.671C393 524.253 389.418 520.671 385 520.671H371.886H368.638H293.926C293.029 520.671 292.302 519.944 292.302 519.047V519.047Z" fill="#008069"/>
<path fill-rule="evenodd" clip-rule="evenodd" d="M393 515.678C393 511.259 389.418 507.678 385 507.678H280C275.582 507.678 272 511.259 272 515.678V519.859V527.98V533.785C272 538.203 275.582 541.785 280 541.785H282.151C285.963 541.785 289.054 538.695 289.054 534.882V534.882C289.054 531.07 292.144 527.98 295.956 527.98H320.319C322.786 527.98 324.785 529.979 324.785 532.446V533.664C324.785 535.458 323.331 536.913 321.537 536.913V536.913C319.743 536.913 318.289 538.367 318.289 540.161V549.215C318.289 553.633 321.87 557.215 326.289 557.215H336.275C340.693 557.215 344.275 553.633 344.275 549.215V544.913C344.275 540.494 347.857 536.913 352.275 536.913H385C389.418 536.913 393 533.331 393 528.913V527.98V522.295V515.678Z" fill="#00BD68"/>
<path fill-rule="evenodd" clip-rule="evenodd" d="M272 514.678C272 510.812 275.134 507.678 279 507.678H386C389.866 507.678 393 510.812 393 514.678V520.168C393 524.034 389.866 527.168 386 527.168H339.906C336.04 527.168 332.906 530.302 332.906 534.168V542.094C332.906 545.96 329.772 549.094 325.906 549.094H316.664C313.525 549.094 310.98 546.549 310.98 543.409V543.409C310.98 540.27 308.435 537.725 305.295 537.725H299.205C296.289 537.725 293.926 535.361 293.926 532.446V532.446C293.926 529.531 291.563 527.168 288.648 527.168H279C275.134 527.168 272 524.034 272 520.168V514.678Z" fill="#2CE87B"/>
<circle cx="299.204" cy="502.399" r="10.151" fill="#2CE87B"/>
<circle cx="370.426" cy="508.591" r="7.58439" fill="#2CE87B"/>
<circle cx="310.574" cy="508.084" r="8.52685" fill="#2CE87B"/>
<path d="M306.879 502.399C307.35 502.399 307.736 502.017 307.689 501.548C307.531 499.975 306.938 498.471 305.969 497.209C305 495.946 303.701 494.984 302.223 494.425C301.782 494.258 301.313 494.532 301.191 494.987V494.987C301.069 495.442 301.342 495.904 301.778 496.082C302.895 496.537 303.876 497.282 304.616 498.247C305.357 499.212 305.822 500.352 305.973 501.549C306.032 502.016 306.408 502.399 306.879 502.399V502.399Z" fill="#96FF66"/>
<path d="M316.141 505.325C316.482 505.155 316.625 504.739 316.422 504.416C315.92 503.615 315.257 502.924 314.472 502.387C313.688 501.85 312.803 501.483 311.875 501.305C311.5 501.233 311.164 501.517 311.13 501.896V501.896C311.096 502.276 311.378 502.607 311.75 502.688C312.443 502.839 313.103 503.123 313.693 503.526C314.282 503.929 314.786 504.442 315.178 505.033C315.388 505.351 315.799 505.494 316.141 505.325V505.325Z" fill="#96FF66"/>
<circle cx="379.068" cy="505.116" r="6.37089" fill="#2CE87B"/>
<path d="M375.984 506.957C376.29 506.875 376.474 506.559 376.365 506.262C376.139 505.642 375.819 505.06 375.416 504.535C374.897 503.858 374.249 503.29 373.511 502.864C372.772 502.437 371.956 502.16 371.11 502.049C370.454 501.963 369.79 501.977 369.141 502.091C368.829 502.146 368.647 502.463 368.729 502.769V502.769C368.811 503.075 369.126 503.253 369.439 503.204C369.941 503.126 370.454 503.119 370.961 503.186C371.657 503.278 372.329 503.506 372.937 503.857C373.545 504.208 374.079 504.676 374.506 505.233C374.817 505.639 375.068 506.086 375.252 506.561C375.366 506.856 375.678 507.039 375.984 506.957V506.957Z" fill="#96FF66"/>
<path d="M382.838 506.462C383.077 506.553 383.346 506.432 383.412 506.186C383.612 505.438 383.621 504.649 383.436 503.892C383.213 502.985 382.722 502.167 382.026 501.545C381.329 500.923 380.461 500.526 379.535 500.407C378.762 500.308 377.979 500.405 377.258 500.688C377.021 500.781 376.931 501.062 377.048 501.289V501.289C377.164 501.517 377.442 501.603 377.682 501.516C378.235 501.315 378.829 501.248 379.417 501.324C380.158 501.419 380.852 501.737 381.41 502.234C381.967 502.732 382.36 503.387 382.538 504.112C382.678 504.688 382.679 505.286 382.541 505.857C382.481 506.106 382.599 506.372 382.838 506.462V506.462Z" fill="#96FF66"/>
<rect x="330.471" y="510.926" width="59.2819" height="2.43624" rx="1.21812" fill="#96FF66"/>
<rect x="316.664" y="510.926" width="8.93289" height="2.43624" rx="1.21812" fill="#96FF66"/>
<rect x="277.684" y="521.483" width="8.93289" height="2.43624" rx="1.21812" fill="#96FF66"/>
<rect x="277.684" y="528.792" width="8.93289" height="2.43624" rx="1.21812" transform="rotate(90 277.684 528.792)" fill="#2CE87B"/>
<rect x="326.41" y="545.033" width="14.6174" height="2.43624" rx="1.21812" transform="rotate(-90 326.41 545.033)" fill="#96FF66"/>
<rect x="337.779" y="553.154" width="10.557" height="2.43624" rx="1.21812" transform="rotate(-90 337.779 553.154)" fill="#2CE87B"/>
<rect x="383.256" y="534.477" width="27.6107" height="2.43624" rx="1.21812" transform="rotate(180 383.256 534.477)" fill="#2CE87B"/>
<rect x="346.711" y="563.711" width="6.49664" height="2.43624" rx="1.21812" transform="rotate(-90 346.711 563.711)" fill="#00BD68"/>
<rect x="346.711" y="554.779" width="8.93289" height="2.43624" rx="1.21812" transform="rotate(-90 346.711 554.779)" fill="#00BD68"/>
<circle cx="108.008" cy="470.671" r="16.6443" fill="#00BD68"/>
<path d="M108.007 457.242C108.007 456.615 107.498 456.103 106.874 456.152C103.943 456.38 101.14 457.492 98.8423 459.353C96.5442 461.214 94.8741 463.724 94.0408 466.542C93.8632 467.143 94.2587 467.748 94.8717 467.878V467.878C95.4846 468.008 96.0821 467.615 96.2684 467.017C96.9877 464.706 98.3764 462.65 100.27 461.116C102.164 459.583 104.464 458.652 106.874 458.429C107.498 458.371 108.007 457.869 108.007 457.242V457.242Z" fill="#2CE87B"/>
<path fill-rule="evenodd" clip-rule="evenodd" d="M108.007 492.517C108.007 491.368 107.075 490.436 105.926 490.436H90C85.5817 490.436 82 494.018 82 498.436V523.007C82 527.425 85.5817 531.007 90 531.007H100.007C104.425 531.007 108.007 527.425 108.007 523.007V522.362C108.007 517.944 111.588 514.362 116.007 514.362H153.06C157.479 514.362 161.06 517.944 161.06 522.362V547.973C161.06 552.391 164.642 555.973 169.06 555.973H175.946C180.365 555.973 183.946 552.391 183.946 547.973V530.685C183.946 526.266 187.528 522.685 191.946 522.685H205.792H229C233.418 522.685 237 519.103 237 514.685V502.597C237 498.179 233.418 494.597 229 494.597H209.953H205.792H110.087C108.938 494.597 108.007 493.666 108.007 492.517V492.517Z" fill="#008069"/>
<path fill-rule="evenodd" clip-rule="evenodd" d="M237 485.953C237 481.535 233.418 477.953 229 477.953H90C85.5817 477.953 82 481.535 82 485.953V493.557V503.96V513.644C82 518.063 85.5817 521.644 90 521.644H95.8456C100.264 521.644 103.846 518.063 103.846 513.644V511.96C103.846 507.542 107.427 503.96 111.846 503.96H143.896C147.056 503.96 149.617 506.521 149.617 509.681V511.242C149.617 513.54 147.754 515.403 145.456 515.403V515.403C143.158 515.403 141.295 517.266 141.295 519.564V533.409C141.295 537.828 144.877 541.409 149.295 541.409H166.584C171.002 541.409 174.584 537.828 174.584 533.409V523.403C174.584 518.984 178.166 515.403 182.584 515.403L229 515.403C233.418 515.403 237 511.821 237 507.403V503.96V496.678V485.953Z" fill="#00BD68"/>
<path fill-rule="evenodd" clip-rule="evenodd" d="M82 484.953C82 481.087 85.134 477.953 89 477.953H230C233.866 477.953 237 481.087 237 484.953V495.92C237 499.786 233.866 502.92 230 502.92H167.02C163.154 502.92 160.02 506.054 160.02 509.92V524.007C160.02 527.873 156.886 531.007 153.02 531.007H138.933C135.067 531.007 131.933 527.873 131.933 524.007V523.443C131.933 519.577 128.799 516.443 124.933 516.443H116.849C113.115 516.443 110.087 513.416 110.087 509.681V509.681C110.087 505.947 107.06 502.92 103.326 502.92H89C85.134 502.92 82 499.786 82 495.92V484.953Z" fill="#2CE87B"/>
<circle cx="116.849" cy="471.191" r="13.0034" fill="#2CE87B"/>
<circle cx="208.083" cy="479.123" r="9.71555" fill="#2CE87B"/>
<circle cx="131.413" cy="478.473" r="10.9228" fill="#2CE87B"/>
<path d="M126.679 471.191C127.282 471.191 127.777 470.701 127.717 470.101C127.515 468.086 126.756 466.16 125.514 464.542C124.273 462.924 122.608 461.692 120.715 460.976C120.151 460.762 119.549 461.113 119.393 461.696V461.696C119.237 462.278 119.586 462.871 120.145 463.099C121.576 463.681 122.833 464.636 123.781 465.872C124.729 467.108 125.326 468.569 125.519 470.102C125.594 470.7 126.076 471.191 126.679 471.191V471.191Z" fill="#96FF66"/>
<path d="M138.543 474.939C138.98 474.722 139.163 474.188 138.903 473.775C138.26 472.749 137.41 471.863 136.406 471.175C135.401 470.488 134.268 470.017 133.078 469.789C132.599 469.697 132.168 470.061 132.124 470.547V470.547C132.08 471.033 132.441 471.457 132.918 471.561C133.807 471.755 134.652 472.119 135.407 472.635C136.162 473.151 136.807 473.808 137.309 474.566C137.579 474.973 138.105 475.155 138.543 474.939V474.939Z" fill="#96FF66"/>
<circle cx="219.155" cy="474.671" r="8.16106" fill="#2CE87B"/>
<path d="M215.202 477.03C215.594 476.924 215.829 476.52 215.69 476.139C215.401 475.346 214.991 474.599 214.475 473.927C213.81 473.06 212.98 472.333 212.034 471.786C211.088 471.24 210.043 470.885 208.959 470.742C208.119 470.632 207.268 470.65 206.436 470.796C206.036 470.866 205.804 471.272 205.909 471.664V471.664C206.014 472.056 206.417 472.285 206.818 472.222C207.462 472.122 208.118 472.114 208.767 472.199C209.66 472.317 210.52 472.609 211.299 473.059C212.079 473.509 212.762 474.108 213.31 474.822C213.708 475.341 214.029 475.913 214.264 476.522C214.411 476.9 214.81 477.135 215.202 477.03V477.03Z" fill="#96FF66"/>
<path d="M223.982 476.396C224.288 476.512 224.633 476.358 224.718 476.042C224.974 475.084 224.986 474.073 224.748 473.104C224.464 471.942 223.834 470.894 222.942 470.097C222.05 469.3 220.938 468.791 219.751 468.639C218.761 468.512 217.759 468.637 216.835 468.999C216.531 469.118 216.417 469.478 216.566 469.769V469.769C216.715 470.06 217.071 470.172 217.378 470.06C218.086 469.803 218.848 469.717 219.6 469.814C220.549 469.936 221.439 470.342 222.153 470.98C222.867 471.617 223.37 472.456 223.598 473.386C223.778 474.122 223.779 474.889 223.603 475.621C223.526 475.939 223.676 476.28 223.982 476.396V476.396Z" fill="#96FF66"/>
<rect x="156.898" y="482.114" width="75.9396" height="3.12081" rx="1.5604" fill="#96FF66"/>
<rect x="139.215" y="482.114" width="11.443" height="3.12081" rx="1.5604" fill="#96FF66"/>
<rect x="89.2812" y="495.638" width="11.443" height="3.12081" rx="1.5604" fill="#96FF66"/>
<rect x="89.2812" y="505" width="11.443" height="3.12081" rx="1.5604" transform="rotate(90 89.2812 505)" fill="#2CE87B"/>
<rect x="151.697" y="525.805" width="18.7248" height="3.12081" rx="1.5604" transform="rotate(-90 151.697 525.805)" fill="#96FF66"/>
<rect x="166.262" y="536.208" width="13.5235" height="3.12081" rx="1.5604" transform="rotate(-90 166.262 536.208)" fill="#2CE87B"/>
<rect x="224.518" y="512.282" width="35.3691" height="3.12081" rx="1.5604" transform="rotate(180 224.518 512.282)" fill="#2CE87B"/>
<rect x="177.705" y="549.731" width="8.32215" height="3.12081" rx="1.5604" transform="rotate(-90 177.705 549.731)" fill="#00BD68"/>
<rect x="177.705" y="538.289" width="11.443" height="3.12081" rx="1.5604" transform="rotate(-90 177.705 538.289)" fill="#00BD68"/>
<path fill-rule="evenodd" clip-rule="evenodd" d="M266 262C266 257.582 269.582 254 274 254H548C552.418 254 556 257.582 556 262C556 266.418 552.418 270 548 270H506C494.402 270 485 279.402 485 291V311.5C485 315.642 481.642 319 477.5 319V319C473.358 319 470 315.642 470 311.5V302C470 298.134 466.866 295 463 295V295C459.134 295 456 291.866 456 288V282.5C456 275.596 450.404 270 443.5 270H442C434.268 270 428 276.268 428 284V284C428 291.732 421.732 298 414 298H382.5C376.701 298 372 302.701 372 308.5V308.5C372 314.299 367.299 319 361.5 319H360C353.373 319 348 313.627 348 307V291C348 279.402 338.598 270 327 270H274C269.582 270 266 266.418 266 262Z" fill="#00BD68"/>
<circle cx="75.5753" cy="148.937" r="24.1417" fill="#00807D"/>
<circle cx="44.5363" cy="135.142" r="24.1417" fill="#00807D"/>
<path d="M75.5757 129.8C75.5757 128.941 74.8779 128.238 74.0209 128.303C70.5735 128.562 67.2452 129.682 64.3419 131.559C63.6201 132.026 63.489 133.007 64.0085 133.692V133.692C64.5281 134.377 65.5011 134.504 66.229 134.047C68.5825 132.57 71.2535 131.671 74.0215 131.425C74.8776 131.349 75.5757 130.66 75.5757 129.8V129.8Z" fill="#00BD68"/>
<path d="M42.2884 116.137C42.1875 115.284 41.4121 114.668 40.5685 114.832C36.826 115.563 33.3471 117.317 30.5258 119.912C27.7044 122.507 25.6671 125.828 24.6268 129.496C24.3923 130.323 24.9416 131.147 25.7837 131.319V131.319C26.6259 131.491 27.441 130.944 27.6865 130.121C28.5888 127.093 30.2936 124.354 32.6329 122.203C34.9721 120.051 37.8433 118.58 40.9356 117.934C41.7769 117.758 42.3893 116.991 42.2884 116.137V116.137Z" fill="#00BD68"/>
<circle cx="46.8339" cy="143.189" r="17.2441" fill="#2CE87B"/>
<path d="M46.8351 131.711C46.8351 131.066 46.3112 130.538 45.6691 130.597C43.4749 130.8 41.3644 131.574 39.5519 132.851C37.7395 134.128 36.3003 135.855 35.3704 137.853C35.0983 138.437 35.4195 139.109 36.0268 139.326V139.326C36.634 139.543 37.2963 139.222 37.5806 138.644C38.3402 137.097 39.4783 135.76 40.8969 134.76C42.3155 133.761 43.958 133.139 45.67 132.945C46.3107 132.872 46.8351 132.356 46.8351 131.711V131.711Z" fill="#96FF66"/>
<path fill-rule="evenodd" clip-rule="evenodd" d="M2 155.189C2 148.562 7.37258 143.189 14 143.189H136C142.627 143.189 148 148.562 148 155.189V168.48V170.78V175.378C148 180.457 143.882 184.575 138.803 184.575H136.504C132.694 184.575 129.606 181.487 129.606 177.677V177.677C129.606 173.868 126.518 170.78 122.709 170.78V170.78C118.899 170.78 115.811 173.868 115.811 177.677V204.764C115.811 211.391 110.368 216.764 103.74 216.764V216.764C97.1127 216.764 91.6693 211.391 91.6693 204.764V182.78C91.6693 176.152 86.2967 170.78 79.6693 170.78H60.6299C56.1855 170.78 52.5827 174.382 52.5827 178.827V178.827C52.5827 183.271 48.9798 186.874 44.5355 186.874H35.3386C32.164 186.874 29.5906 189.447 29.5906 192.622V192.622C29.5906 195.797 27.0171 198.37 23.8425 198.37H14C7.37258 198.37 2 192.997 2 186.37V170.78V170.779V155.189Z" fill="#00807D"/>
<rect x="137.654" y="168.48" width="12.6457" height="4.59842" rx="2.29921" transform="rotate(90 137.654 168.48)" fill="#00BD68"/>
<rect x="100.865" y="196.071" width="12.6457" height="4.59842" rx="2.29921" transform="rotate(90 100.865 196.071)" fill="#00BD68"/>
<path fill-rule="evenodd" clip-rule="evenodd" d="M2 155.189C2 148.562 7.37258 143.189 14 143.189H136C142.627 143.189 148 148.562 148 155.189V158.78C148 165.407 142.557 170.78 135.929 170.78V170.78C129.302 170.78 123.858 176.152 123.858 182.78V186.37C123.858 192.997 118.486 198.37 111.858 198.37H101.37C94.7427 198.37 89.3701 203.743 89.3701 210.37V213.961C89.3701 220.588 83.9266 225.961 77.2992 225.961V225.961C70.6718 225.961 65.2283 220.588 65.2283 213.961V198.37V182.78C65.2283 176.152 59.8558 170.78 53.2284 170.78H14C7.37258 170.78 2 165.407 2 158.78V155.189Z" fill="#2CE87B"/>
<rect x="57.1816" y="147.787" width="77.0236" height="4.59843" rx="2.29921" fill="#96FF66"/>
<rect x="74.4258" y="191.472" width="25.2913" height="4.59842" rx="2.29921" transform="rotate(90 74.4258 191.472)" fill="#96FF66"/>
<rect x="20.3945" y="177.677" width="25.2913" height="4.59842" rx="2.29921" fill="#00BD68"/>
<path fill-rule="evenodd" clip-rule="evenodd" d="M140 254C135.582 254 132 257.582 132 262C132 266.418 135.582 270 140 270H256.5C263.956 270 270 276.044 270 283.5V289.5C270 293.642 273.358 297 277.5 297V297C281.642 297 285 293.642 285 289.5V281C285 274.925 289.925 270 296 270V270C302.075 270 307 274.925 307 281V297.59V297.591V313.11C307 319.777 312.404 325.181 319.071 325.181V325.181C325.737 325.181 331.142 319.777 331.142 313.11V311.386C331.142 303.767 337.318 297.591 344.937 297.591H351.835C359.454 297.591 365.63 291.414 365.63 283.795V283.795C365.63 276.176 371.806 270 379.425 270H414C418.418 270 422 266.418 422 262C422 257.582 418.418 254 414 254H140Z" fill="#2CE87B"/>
<rect x="316.197" y="290.693" width="25.2913" height="4.59842" rx="2.29921" transform="rotate(90 316.197 290.693)" fill="#96FF66"/>
<rect x="309" y="257" width="103" height="5" rx="2.5" fill="#96FF66"/>
<rect x="277" y="278" width="13" height="3" rx="1.5" transform="rotate(90 277 278)" fill="#96FF66"/>
<g clip-path="url(#clip0_266_993)">
<path d="M323.694 120.56L274.079 56.0271L224.463 120.56V253.831H323.694V120.56Z" fill="#FFBD00"/>
<path d="M431.675 120.588H323.627V253.831H431.675V120.588Z" fill="#FCFA00"/>
<path d="M431.692 120.561L384.969 53.7161C383.155 51.1223 380.192 49.5767 377.026 49.5767H274.08L323.695 120.559H431.692V120.561Z" fill="#FF5A74"/>
<path d="M384.441 107.676L360.429 73.9773H311.5L335.513 107.676H384.441Z" fill="#7D00FF"/>
<path d="M358.81 83.49H355.861V89.3866H358.81V83.49Z" fill="#FF0D46"/>
<path d="M358.07 89.3867H356.596V107.598H358.07V89.3867Z" fill="#FF0D46"/>
<path d="M358.222 88.959L356.945 89.6963L366.978 107.074L368.255 106.336L358.222 88.959Z" fill="#FF0D46"/>
<path d="M357.757 89.697L356.48 88.9597L346.448 106.337L347.725 107.074L357.757 89.697Z" fill="#FF0D46"/>
<path d="M384.749 107.676H379.579L355.283 73.9773H360.453L384.749 107.676Z" fill="#FF006A"/>
<path d="M277.703 138.195C286.433 138.195 293.51 131.119 293.51 122.389C293.51 113.659 286.433 106.582 277.703 106.582C268.973 106.582 261.896 113.659 261.896 122.389C261.896 131.119 268.973 138.195 277.703 138.195Z" fill="#7D00FF"/>
<path d="M293.511 122.389C293.511 130.621 287.221 137.383 279.183 138.128C278.696 138.174 278.202 138.197 277.703 138.197C277.204 138.197 276.712 138.174 276.224 138.128C268.187 137.383 261.896 130.621 261.896 122.389C261.896 114.157 268.187 107.396 276.224 106.651C276.712 106.605 277.204 106.582 277.703 106.582C278.202 106.582 278.696 106.605 279.183 106.651C287.221 107.396 293.511 114.158 293.511 122.389V122.389Z" fill="#7D00FF"/>
<path d="M279.317 138.115C278.785 138.17 278.247 138.197 277.703 138.197C268.974 138.197 261.896 131.12 261.896 122.389C261.896 113.658 268.974 106.582 277.703 106.582C278.247 106.582 278.785 106.609 279.317 106.664C271.346 107.474 265.127 114.205 265.127 122.389C265.127 130.572 271.346 137.306 279.317 138.115Z" fill="#FF006A"/>
<path d="M279.183 106.651V138.128C278.697 138.174 278.203 138.197 277.704 138.197C277.205 138.197 276.712 138.174 276.225 138.128V106.651C276.712 106.605 277.205 106.582 277.704 106.582C278.203 106.582 278.697 106.605 279.183 106.651Z" fill="#FF006A"/>
<path d="M261.966 120.91L293.442 120.91C293.489 121.396 293.511 121.891 293.511 122.39C293.511 122.889 293.489 123.381 293.442 123.869L261.966 123.869C261.919 123.381 261.896 122.889 261.896 122.39C261.896 121.891 261.919 121.396 261.966 120.91Z" fill="#FF006A"/>
<path d="M270.969 168.607H251.302C248.626 168.607 246.457 170.776 246.457 173.452V193.117C246.457 195.793 248.626 197.963 251.302 197.963H270.969C273.645 197.963 275.814 195.793 275.814 193.117V173.452C275.814 170.776 273.645 168.607 270.969 168.607Z" fill="#7D00FF"/>
<path d="M262.615 168.607H259.656V197.963H262.615V168.607Z" fill="#FF006A"/>
<path d="M246.457 181.806V184.764H275.813V181.806H246.457Z" fill="#FF006A"/>
<path d="M254.532 197.963H251.302C248.626 197.963 246.457 195.794 246.457 193.117V173.452C246.457 170.776 248.626 168.607 251.302 168.607H254.532C251.856 168.607 249.687 170.776 249.687 173.452V193.117C249.687 195.794 251.856 197.963 254.532 197.963Z" fill="#FF006A"/>
<path d="M308.807 200.062H289.14C286.464 200.062 284.295 202.232 284.295 204.907V224.573C284.295 227.249 286.464 229.418 289.14 229.418H308.807C311.483 229.418 313.652 227.249 313.652 224.573V204.907C313.652 202.232 311.483 200.062 308.807 200.062Z" fill="#7D00FF"/>
<path d="M300.453 200.062H297.494V229.418H300.453V200.062Z" fill="#FF006A"/>
<path d="M284.297 213.262V216.221H313.652V213.262H284.297Z" fill="#FF006A"/>
<path d="M292.37 229.418H289.14C286.464 229.418 284.295 227.249 284.295 224.573V204.907C284.295 202.231 286.464 200.062 289.14 200.062H292.37C289.694 200.062 287.525 202.231 287.525 204.907V224.573C287.525 227.249 289.694 229.418 292.37 229.418Z" fill="#FF006A"/>
<path d="M224.457 127.021C223.083 127.021 221.699 126.585 220.524 125.682C217.696 123.508 217.167 119.451 219.341 116.623L268.957 52.0894C270.18 50.4985 272.073 49.5667 274.078 49.5667C276.084 49.5667 277.977 50.4985 279.2 52.0894L326.877 114.1H429.697C433.265 114.1 436.157 116.993 436.157 120.56C436.157 124.128 433.265 127.021 429.697 127.021H323.693C321.688 127.021 319.795 126.089 318.572 124.498L274.078 66.6266L229.583 124.498C228.311 126.153 226.395 127.021 224.457 127.021Z" fill="#FF006A"/>
<path d="M282.787 52.0898L330.462 114.1H326.765L279.09 52.0898C278.253 51.0012 277.145 49.8351 274.08 49.5783C274.673 49.3991 277.032 49.567 277.666 49.567C279.671 49.567 281.564 50.4989 282.787 52.0898Z" fill="#FF9C95"/>
<path d="M296.198 73.4038C295.743 73.4038 295.313 73.1923 295.037 72.8321L279.09 52.0898C278.253 51.0012 277.145 49.8351 274.08 49.5783C274.673 49.3991 277.032 49.567 277.666 49.567C279.671 49.567 281.564 50.4989 282.787 52.0898L297.36 71.0458C298.101 72.01 297.413 73.4038 296.198 73.4038Z" fill="#FFD588"/>
<path d="M236.428 131.692V140.823" stroke="#FFA900" stroke-width="6.46028" stroke-linecap="round" stroke-linejoin="round"/>
<path d="M280.287 154.929V161.452" stroke="#FFA900" stroke-width="6.46028" stroke-linecap="round" stroke-linejoin="round"/>
<path d="M284.295 237.694V244.215" stroke="#FFA900" stroke-width="6.46028" stroke-linecap="round" stroke-linejoin="round"/>
<path d="M255.61 214.74C262.854 214.74 268.734 220.62 268.734 227.864V253.831H242.486V227.864C242.486 220.62 248.367 214.74 255.61 214.74Z" fill="#7D00FF"/>
<path d="M257.226 214.839C250.741 215.635 245.718 221.163 245.718 227.864V253.831H242.488V227.864C242.488 220.616 248.364 214.74 255.611 214.74C256.158 214.74 256.696 214.774 257.226 214.839Z" fill="#FF006A"/>
<path d="M249.857 236.106C250.863 236.106 251.677 235.291 251.677 234.286C251.677 233.28 250.863 232.465 249.857 232.465C248.852 232.465 248.037 233.28 248.037 234.286C248.037 235.291 248.852 236.106 249.857 236.106Z" fill="#362E78"/>
<path d="M255.1 244.215V247.476" stroke="#8F5FFF" stroke-width="1.61507" stroke-linecap="round" stroke-linejoin="round"/>
<path d="M255.609 220.577V227.099" stroke="#8F5FFF" stroke-width="1.61507" stroke-linecap="round" stroke-linejoin="round"/>
<path d="M265.15 234.286V238.989" stroke="#8F5FFF" stroke-width="1.61507" stroke-linecap="round" stroke-linejoin="round"/>
<path d="M301.791 141.836V153.67" stroke="#FFA900" stroke-width="6.46028" stroke-linecap="round" stroke-linejoin="round"/>
<path d="M236.428 187.197V196.328" stroke="#FFA900" stroke-width="6.46028" stroke-linecap="round" stroke-linejoin="round"/>
<path d="M340.738 156.606V189.229" stroke="#FEE600" stroke-width="6.46028" stroke-linecap="round" stroke-linejoin="round"/>
<path d="M331.34 209.72V219.76" stroke="#FEE600" stroke-width="6.46028" stroke-linecap="round" stroke-linejoin="round"/>
<path d="M305.334 60.7305H321.971" stroke="#FF006A" stroke-width="6.46028" stroke-linecap="round" stroke-linejoin="round"/>
<path d="M351.871 97.1709H393.638" stroke="#66B6FF" stroke-width="4.84521" stroke-linecap="round" stroke-linejoin="round"/>
<path d="M332.418 97.1709H351.87" stroke="#A966FF" stroke-width="4.84521" stroke-linecap="round" stroke-linejoin="round"/>
<path d="M337.539 109.98V98.0786" stroke="#A966FF" stroke-width="4.84521" stroke-linecap="round" stroke-linejoin="round"/>
<path d="M347.703 109.98V98.0786" stroke="#A966FF" stroke-width="4.84521" stroke-linecap="round" stroke-linejoin="round"/>
<path d="M357.867 109.98V98.0786" stroke="#66B6FF" stroke-width="4.84521" stroke-linecap="round" stroke-linejoin="round"/>
<path d="M368.031 109.98V98.0786" stroke="#66B6FF" stroke-width="4.84521" stroke-linecap="round" stroke-linejoin="round"/>
<path d="M378.197 109.98V98.0786" stroke="#66B6FF" stroke-width="4.84521" stroke-linecap="round" stroke-linejoin="round"/>
<path d="M388.361 109.98V98.0786" stroke="#66B6FF" stroke-width="4.84521" stroke-linecap="round" stroke-linejoin="round"/>
<path d="M332.418 110.887H393.637" stroke="#7D00FF" stroke-width="6.46028" stroke-linecap="round" stroke-linejoin="round"/>
<path d="M352.885 110.887H393.638" stroke="#3B99FF" stroke-width="6.46028" stroke-linecap="round" stroke-linejoin="round"/>
<path d="M507.197 93.824H428.627V253.831H507.197V93.824Z" fill="#FFBD00"/>
<path d="M509.373 93.824H488.268V253.831H509.373V93.824Z" fill="#FCFA00"/>
<path d="M511.484 88.2942H424.338V93.8258H511.484V88.2942Z" fill="#8300FF"/>
<path d="M436.355 62.884V88.2939H441.887V62.884H436.355Z" fill="#7D00FF"/>
<path d="M455.549 62.8826V88.2925H461.08V62.8826H455.549Z" fill="#7D00FF"/>
<path d="M474.74 62.8841V88.2939H480.272V62.8841H474.74Z" fill="#7D00FF"/>
<path d="M493.934 62.884V88.2939H499.465V62.884H493.934Z" fill="#7D00FF"/>
<path d="M511.639 64.4992C506.129 59.9495 500.998 58.6607 496.701 64.4992C494.418 62.49 492.136 61.198 489.854 60.623C487.203 59.9544 484.554 60.2516 481.906 61.5162C480.439 62.2139 478.974 63.2087 477.508 64.4992C476.542 63.7433 475.581 63.0973 474.625 62.5627C469.129 59.486 463.78 60.061 458.576 64.2828C458.489 64.3555 458.402 64.4265 458.314 64.4992C451.801 59.2761 445.405 59.3697 439.123 64.4992C434.623 58.7253 429.413 59.977 423.873 64.4992C423.873 40.2618 443.52 20.6145 467.756 20.6145C476.675 20.6145 484.971 23.2745 491.897 27.8452C495.356 30.1289 498.473 32.889 501.154 36.032C502.117 37.1593 503.023 38.3351 503.866 39.556C504.838 40.9595 505.731 42.4228 506.536 43.941C509.793 50.0734 511.639 57.0715 511.639 64.4992V64.4992Z" fill="#399CFF" stroke="#7D00FF" stroke-width="3.23014" stroke-linecap="round" stroke-linejoin="round"/>
<path d="M501.154 36.032L474.625 62.5628C469.129 59.4861 463.78 60.061 458.576 64.2828L457.018 62.7243L491.897 27.8452C495.356 30.1289 498.473 32.8891 501.154 36.032V36.032Z" fill="#61C4FF"/>
<path d="M506.534 43.9411L489.852 60.6231C487.202 59.9545 484.553 60.2517 481.904 61.5163L503.864 39.5562C504.837 40.9596 505.73 42.4229 506.534 43.9411Z" fill="#61C4FF"/>
<path d="M511.639 66.1143C511.271 66.1143 510.906 65.9884 510.61 65.7445C507.427 63.1168 504.814 61.9717 502.622 62.2414C500.952 62.4481 499.442 63.4995 498.001 65.4554C497.733 65.8204 497.325 66.0546 496.874 66.1047C496.425 66.1531 495.974 66.011 495.634 65.7122C493.555 63.8839 491.477 62.6985 489.458 62.1897C487.161 61.6115 484.919 61.8667 482.6 62.9746C481.277 63.6045 479.924 64.5251 478.574 65.7122C477.991 66.2258 477.123 66.25 476.511 65.7719C475.612 65.0678 474.712 64.4637 473.835 63.9728C468.933 61.2288 464.275 61.7391 459.597 65.5329L459.348 65.738C458.758 66.2306 457.902 66.2387 457.302 65.759C454.383 63.4188 451.479 62.2317 448.672 62.2317C448.659 62.2317 448.648 62.2317 448.635 62.2317C445.846 62.2414 442.989 63.4252 440.142 65.7493C439.806 66.0239 439.373 66.1515 438.94 66.103C438.509 66.0546 438.113 65.8333 437.846 65.4909C436.312 63.5222 434.715 62.4691 432.966 62.2721C430.711 62.0201 428.07 63.1555 424.894 65.7493C424.411 66.1434 423.744 66.2242 423.18 65.9577C422.616 65.6896 422.258 65.1227 422.258 64.4993C422.258 52.3459 426.99 40.9192 435.584 32.3255C444.178 23.7317 455.603 18.9995 467.756 18.9995C476.699 18.9995 485.354 21.5917 492.786 26.4967C496.367 28.8595 499.595 31.715 502.383 34.9822C503.384 36.1548 504.331 37.3855 505.195 38.6372C506.208 40.0988 507.139 41.6299 507.963 43.1836C511.424 49.7004 513.254 57.0699 513.254 64.4977C513.254 65.1227 512.892 65.6928 512.327 65.9593C512.107 66.0627 511.873 66.1127 511.639 66.1127V66.1143ZM448.674 59.0016C451.886 59.0016 455.116 60.1612 458.293 62.4546C463.815 58.3216 469.57 57.8823 475.413 61.1545C476.086 61.5308 476.768 61.962 477.45 62.4433C478.698 61.4532 479.959 60.6538 481.211 60.0578C484.194 58.6333 487.235 58.2974 490.247 59.0565C492.333 59.5814 494.422 60.6457 496.48 62.2253C498.192 60.3679 500.119 59.2971 502.225 59.0355C504.584 58.7432 507.114 59.4603 509.896 61.2223C509.447 55.4452 507.815 49.7908 505.109 44.6969C504.345 43.253 503.48 41.8334 502.538 40.4735C501.734 39.309 500.855 38.1672 499.927 37.0786C497.334 34.0407 494.335 31.3871 491.008 29.1906C484.105 24.6345 476.066 22.2264 467.758 22.2264C456.467 22.2264 445.852 26.6226 437.869 34.6059C430.656 41.8188 426.371 51.1798 425.611 61.2481C428.39 59.5087 430.936 58.7916 433.329 59.0597C435.521 59.3068 437.541 60.3905 439.352 62.2882C442.393 60.116 445.507 59.0096 448.627 58.9983H448.676L448.674 59.0016Z" fill="#7D00FF"/>
<path d="M519.279 135.121C510.674 150.931 494.982 162.327 476.468 165.044L464.709 147.346L510.08 112.552H519.279V135.12" fill="#8F5FFF"/>
<path d="M480.274 140.823V147.346H464.71L460.375 140.823H480.274Z" fill="#8200FF"/>
<path d="M485.65 140.823H467.322V142.095H485.65V140.823Z" fill="#8F5FFF"/>
<path d="M488.268 133.285H471.092V140.822H488.268V133.285Z" fill="#8200FF"/>
<path d="M495.95 126.035H479.084V133.285H495.95V126.035Z" fill="#8200FF"/>
<path d="M504.362 119.512H487.215V126.035H504.362V119.512Z" fill="#8200FF"/>
<path d="M511.484 112.552H495.227V119.512H511.484V112.552Z" fill="#8200FF"/>
<path d="M519.28 107.221H499.467V112.553H519.28V107.221Z" fill="#8200FF"/>
<path d="M516.559 102.654H507.195V107.221H516.559V102.654Z" fill="#8200FF"/>
<path d="M489.42 133.285H471.092V134.558H489.42V133.285Z" fill="#8F5FFF"/>
<path d="M497.412 126.035H479.084V127.308H497.412V126.035Z" fill="#8F5FFF"/>
<path d="M507.198 119.512H487.215V120.784H507.198V119.512Z" fill="#8F5FFF"/>
<path d="M515.21 112.552H495.227V113.825H515.21V112.552Z" fill="#8F5FFF"/>
<path d="M519.28 107.221H499.467V108.494H519.28V107.221Z" fill="#8F5FFF"/>
<path d="M516.559 102.654H507.195V103.926H516.559V102.654Z" fill="#8F5FFF"/>
<path d="M516.56 102.868H515.287V107.702H516.56V102.868Z" fill="#8F5FFF"/>
<path d="M519.282 108.355H518.01V113.189H519.282V108.355Z" fill="#8F5FFF"/>
<path d="M496.391 64.499C492.749 43.0864 482.566 29.1904 467.756 20.616C452.946 29.1904 442.765 43.0864 439.121 64.499" stroke="#7D00FF" stroke-width="3.23014" stroke-linecap="round" stroke-linejoin="round"/>
<path d="M458.316 64.499C458.856 49.0638 462.004 34.4361 467.758 20.616" stroke="#7D00FF" stroke-width="3.23014" stroke-linecap="round" stroke-linejoin="round"/>
<path d="M477.196 64.499C476.656 49.0638 473.508 34.4361 467.754 20.616" stroke="#7D00FF" stroke-width="3.23014" stroke-linecap="round" stroke-linejoin="round"/>
<path d="M456.234 104.855V116.689" stroke="#FFA900" stroke-width="6.46028" stroke-linecap="round" stroke-linejoin="round"/>
<path d="M471.725 113.594V125.429" stroke="#FFA900" stroke-width="6.46028" stroke-linecap="round" stroke-linejoin="round"/>
<path d="M495.227 173.67V183.709" stroke="#FEE600" stroke-width="6.46028" stroke-linecap="round" stroke-linejoin="round"/>
<path d="M503.355 209.72V219.759" stroke="#FEE600" stroke-width="6.46028" stroke-linecap="round" stroke-linejoin="round"/>
<path d="M478.669 175.648L442.062 120.56L405.455 175.648V253.831H478.669V175.648Z" fill="#FCFA00"/>
<path d="M405.455 175.649H350.635V253.831H405.455V175.649Z" fill="#FFBD00"/>
<path d="M442.718 114.184L405.455 175.648H350.635L354.551 169.188L377.285 131.691L387.899 114.184H442.718Z" fill="#FF006A"/>
<path d="M443.112 214.74C450.356 214.74 456.236 220.62 456.236 227.864V253.831H429.988V227.864C429.988 220.62 435.869 214.74 443.112 214.74Z" fill="#7D00FF"/>
<path d="M441.5 214.838C447.985 215.634 453.007 221.163 453.007 227.864V253.831H456.238V227.864C456.238 220.615 450.362 214.74 443.115 214.74C442.568 214.74 442.03 214.773 441.5 214.838Z" fill="#362E78"/>
<path d="M437.359 236.105C438.364 236.105 439.179 235.29 439.179 234.285C439.179 233.28 438.364 232.465 437.359 232.465C436.354 232.465 435.539 233.28 435.539 234.285C435.539 235.29 436.354 236.105 437.359 236.105Z" fill="#362E78"/>
<path d="M442.602 244.215V247.476" stroke="#8F5FFF" stroke-width="1.61507" stroke-linecap="round" stroke-linejoin="round"/>
<path d="M443.111 220.576V227.098" stroke="#8F5FFF" stroke-width="1.61507" stroke-linecap="round" stroke-linejoin="round"/>
<path d="M449.422 234.285V238.988" stroke="#8F5FFF" stroke-width="1.61507" stroke-linecap="round" stroke-linejoin="round"/>
<path d="M482.245 192.699C481.147 193.429 479.905 193.779 478.676 193.779C476.584 193.779 474.533 192.765 473.29 190.893L442.062 143.901L410.837 190.893C409.638 192.696 407.619 193.778 405.455 193.778H350.635V187.318L354.551 180.857H401.991L436.681 128.653C437.685 127.145 439.265 126.139 441.024 125.853C441.365 125.798 441.712 125.769 442.062 125.769C444.225 125.769 446.245 126.853 447.442 128.653L484.051 183.742C486.026 186.713 485.217 190.724 482.245 192.699V192.699Z" fill="#FFBD00"/>
<path d="M482.245 181.03C481.147 181.76 479.905 182.11 478.676 182.11C476.584 182.11 474.533 181.096 473.29 179.224L442.062 132.232L410.837 179.224C409.638 181.027 407.619 182.109 405.455 182.109H350.635V175.648L354.551 169.188H401.991L436.681 116.984C437.685 115.476 439.265 114.469 441.024 114.184C441.365 114.129 441.712 114.1 442.062 114.1C444.225 114.1 446.245 115.183 447.442 116.984L484.051 172.073C486.026 175.044 485.217 179.055 482.245 181.03V181.03Z" fill="#FF006A"/>
<path d="M481.541 172.073C481.09 172.073 480.67 171.846 480.42 171.472L444.21 116.984C443.319 115.642 441.97 114.699 440.445 114.305C440.634 114.255 440.826 114.214 441.022 114.184C441.363 114.129 441.71 114.1 442.06 114.1C444.223 114.1 446.243 115.183 447.44 116.984L482.66 169.983C483.254 170.877 482.613 172.073 481.539 172.073H481.541Z" fill="#FF9C95"/>
<path d="M444.212 116.984L452.849 129.982C453.098 130.357 453.52 130.583 453.97 130.583C455.044 130.583 455.685 129.388 455.091 128.493L447.442 116.984C446.245 115.183 444.225 114.1 442.062 114.1C441.712 114.1 441.365 114.129 441.024 114.184C440.828 114.214 440.636 114.255 440.447 114.305C441.972 114.699 443.32 115.642 444.212 116.984L453.25 130.583" fill="#FFD588"/>
<path d="M366.533 223.046V229.568" stroke="#FFA900" stroke-width="6.46028" stroke-linecap="round" stroke-linejoin="round"/>
<path d="M388.035 209.953V221.786" stroke="#FFA900" stroke-width="6.46028" stroke-linecap="round" stroke-linejoin="round"/>
<path d="M415.309 225.188V235.227" stroke="#FEE600" stroke-width="6.46028" stroke-linecap="round" stroke-linejoin="round"/>
<path d="M462.424 208.241V218.28" stroke="#FEE600" stroke-width="6.46028" stroke-linecap="round" stroke-linejoin="round"/>
<path d="M374.262 158.189H390.899" stroke="#FF5A74" stroke-width="6.46028" stroke-linecap="round" stroke-linejoin="round"/>
<path d="M385.318 144.915H401.955" stroke="#FF5A74" stroke-width="6.46028" stroke-linecap="round" stroke-linejoin="round"/>
<path d="M399.217 131.691H415.854" stroke="#FF5A74" stroke-width="6.46028" stroke-linecap="round" stroke-linejoin="round"/>
<path d="M431.994 190.707H418.605C416.783 190.707 415.307 192.184 415.307 194.005V207.392C415.307 209.214 416.783 210.69 418.605 210.69H431.994C433.815 210.69 435.292 209.214 435.292 207.392V194.005C435.292 192.184 433.815 190.707 431.994 190.707Z" fill="#7D00FF"/>
<path d="M426.307 190.707H424.293V210.69H426.307V190.707Z" fill="#FF006A"/>
<path d="M415.307 199.692V201.706H435.29V199.692H415.307Z" fill="#FF006A"/>
<path d="M420.805 210.692H418.607C416.785 210.692 415.309 209.216 415.309 207.394V194.006C415.309 192.185 416.785 190.708 418.607 190.708H420.805C418.983 190.708 417.507 192.185 417.507 194.006V207.394C417.507 209.216 418.983 210.692 420.805 210.692Z" fill="#FF006A"/>
<path d="M447.652 165.328H436.472C434.952 165.328 433.719 166.561 433.719 168.082V179.259C433.719 180.78 434.952 182.013 436.472 182.013H447.652C449.173 182.013 450.406 180.78 450.406 179.259V168.082C450.406 166.561 449.173 165.328 447.652 165.328Z" fill="#7D00FF"/>
<path d="M442.902 165.328H441.221V182.013H442.902V165.328Z" fill="#FF006A"/>
<path d="M433.721 172.83V174.511H450.406V172.83H433.721Z" fill="#FF006A"/>
<path d="M438.309 182.013H436.472C434.951 182.013 433.719 180.781 433.719 179.259V168.082C433.719 166.56 434.951 165.328 436.472 165.328H438.309C436.787 165.328 435.555 166.56 435.555 168.082V179.259C435.555 180.781 436.787 182.013 438.309 182.013Z" fill="#FF006A"/>
</g>
<rect x="478" y="280" width="4" height="33" rx="2" fill="#2CE87B"/>
<rect x="506" y="262" width="4" height="43" rx="2" transform="rotate(-90 506 262)" fill="#2CE87B"/>
<rect x="387" y="292" width="4" height="32" rx="2" transform="rotate(-90 387 292)" fill="#2CE87B"/>
<rect x="354" y="301" width="4" height="10" rx="2" fill="#2CE87B"/>
<defs>
<clipPath id="clip0_266_993">
<rect width="301.28" height="234.831" fill="white" transform="translate(218 19)"/>
</clipPath>
</defs>
</svg>
