<svg width="72" height="72" viewBox="0 0 72 72" fill="none" xmlns="http://www.w3.org/2000/svg">
<g clip-path="url(#clip0_403_3847)">
<rect width="72" height="72" rx="36" fill="#CC0052"/>
<path fill-rule="evenodd" clip-rule="evenodd" d="M1.82812 8.29688C1.82812 5.77276 3.87432 3.72656 6.39844 3.72656H31.4297C33.9538 3.72656 36 5.77276 36 8.29688V8.29688C36 10.821 33.9538 12.8672 31.4297 12.8672H6.39844C3.87432 12.8672 1.82812 10.821 1.82812 8.29688V8.29688ZM-8.57812 32.0273C-8.57812 27.2315 -4.69035 23.3438 0.105469 23.3438H27.3164C32.1122 23.3438 36 27.2315 36 32.0273V32.0273C36 36.8232 32.1122 40.7109 27.3164 40.7109H0.105469C-4.69035 40.7109 -8.57812 36.8232 -8.57812 32.0273V32.0273ZM15.8203 46.6172C15.8203 45.724 15.0963 45 14.2031 45H0.84375C-0.049398 45 -0.773438 45.724 -0.773438 46.6172V46.6172C-0.773438 47.5103 -0.049398 48.2344 0.84375 48.2344H2.98828C3.78435 48.2344 4.42969 48.8797 4.42969 49.6758V49.6758C4.42969 50.4718 5.07503 51.1172 5.87109 51.1172H9.31641C10.1125 51.1172 10.7578 50.4718 10.7578 49.6758V49.6758C10.7578 48.8797 11.4032 48.2344 12.1992 48.2344H14.2031C15.0963 48.2344 15.8203 47.5103 15.8203 46.6172V46.6172ZM63.7031 39.0938C63.7031 38.2006 64.4272 37.4766 65.3203 37.4766H78.6797C79.5728 37.4766 80.2969 38.2006 80.2969 39.0938V39.0938C80.2969 39.9869 79.5728 40.7109 78.6797 40.7109H75.0234C74.1303 40.7109 73.4062 41.435 73.4062 42.3281V42.3281C73.4062 43.2213 72.6822 43.9453 71.7891 43.9453H58.4297C57.5365 43.9453 56.8125 43.2213 56.8125 42.3281V42.3281C56.8125 41.435 57.5365 40.7109 58.4297 40.7109H62.0859C62.9791 40.7109 63.7031 39.9869 63.7031 39.0938V39.0938ZM86.9062 20.8125C86.9062 18.4049 84.9545 16.4531 82.5469 16.4531H46.6875C44.2799 16.4531 42.3281 18.4049 42.3281 20.8125V20.8125C42.3281 23.2201 44.2799 25.1719 46.6875 25.1719H53.0859C55.4936 25.1719 57.4453 27.1236 57.4453 29.5312V29.5312C57.4453 31.9389 59.3971 33.8906 61.8047 33.8906H97.6641C100.072 33.8906 102.023 31.9389 102.023 29.5312V29.5312C102.023 27.1236 100.072 25.1719 97.6641 25.1719H91.2656C88.858 25.1719 86.9062 23.2201 86.9062 20.8125V20.8125ZM31.1484 73.4062C31.1484 70.9986 33.1002 69.0469 35.5078 69.0469H71.3672C73.7748 69.0469 75.7266 70.9986 75.7266 73.4062V73.4062C75.7266 75.8139 73.7748 77.7656 71.3672 77.7656H35.5078C33.1002 77.7656 31.1484 75.8139 31.1484 73.4062V73.4062ZM21.7969 53.0508C21.7969 51.5557 23.0089 50.3438 24.5039 50.3438H33.293C34.788 50.3438 36 51.5557 36 53.0508V53.0508C36 54.5458 34.788 55.7578 33.293 55.7578H30.6211C29.126 55.7578 27.9141 56.9698 27.9141 58.4648V58.4648C27.9141 59.9599 26.7021 61.1719 25.207 61.1719H16.418C14.9229 61.1719 13.7109 59.9599 13.7109 58.4648V58.4648C13.7109 56.9698 14.9229 55.7578 16.418 55.7578H19.0898C20.5849 55.7578 21.7969 54.5458 21.7969 53.0508V53.0508ZM55.8281 52.9453C55.8281 51.5085 56.9929 50.3438 58.4297 50.3438H67.3242C68.8193 50.3438 70.0312 51.5557 70.0312 53.0508V53.0508C70.0312 54.5458 68.8193 55.7578 67.3242 55.7578H66.3398C64.3011 55.7578 62.6484 57.4105 62.6484 59.4492V60.4336C62.6484 63.016 60.555 65.1094 57.9727 65.1094H53.2266C50.586 65.1094 48.4453 62.9687 48.4453 60.3281V59.2383C48.4453 57.1996 50.098 55.5469 52.1367 55.5469H53.2266C54.6634 55.5469 55.8281 54.3821 55.8281 52.9453V52.9453Z" fill="#DD4060"/>
<circle cx="40.4297" cy="45" r="2.17969" fill="#B3003F"/>
<circle cx="22.3594" cy="21.5859" r="4.64062" fill="#B3003F"/>
<circle cx="19.9688" cy="54.7031" r="2.25" fill="#B3003F"/>
<circle cx="55.5117" cy="52.418" r="1.30078" fill="#B3003F"/>
<circle cx="45.8086" cy="29.4258" r="3.19922" fill="#B3003F"/>
<circle cx="43.2773" cy="8.54297" r="3.19922" fill="#B3003F"/>
<path fill-rule="evenodd" clip-rule="evenodd" d="M18.0492 60.6162C37.9315 60.6162 54.0492 44.4984 54.0492 24.6162C54.0492 15.706 50.8122 7.55188 45.45 1.26564C60.7374 5.42347 71.9789 19.4023 71.9789 36.0068C71.9789 55.8891 55.8611 72.0068 35.9789 72.0068C25.0068 72.0068 15.1812 67.0983 8.57812 59.3573C11.5959 60.1781 14.7714 60.6162 18.0492 60.6162Z" fill="#4F0000" fill-opacity="0.2"/>
<path d="M34.1016 26.2266C34.1016 32.7893 28.7814 38.1094 22.2188 38.1094C15.6561 38.1094 10.3359 32.7893 10.3359 26.2266C10.3359 19.6639 15.6561 14.3438 22.2188 14.3438C28.7814 14.3438 34.1016 19.6639 34.1016 26.2266Z" fill="#EEC3C3" fill-opacity="0.2"/>
</g>
<defs>
<clipPath id="clip0_403_3847">
<rect width="72" height="72" rx="36" fill="white"/>
</clipPath>
</defs>
</svg>
