<svg width="1024" height="1024" viewBox="0 0 1024 1024" fill="none" xmlns="http://www.w3.org/2000/svg">
<g clip-path="url(#clip0_171_847)">
<rect width="1024" height="1024" rx="512" fill="#E8E7EF"/>
<circle cx="289.5" cy="345.5" r="110.5" fill="#C4C4C4"/>
<path d="M289.5 251.575C289.5 242.421 282.038 234.873 272.987 236.241C261.774 237.935 250.856 241.351 240.627 246.396C225.426 253.892 212.153 264.785 201.834 278.232C191.516 291.679 184.43 307.319 181.123 323.942C178.898 335.129 178.425 346.559 179.69 357.828C180.711 366.925 189.933 372.179 198.775 369.81C207.618 367.44 212.672 358.317 212.237 349.174C211.939 342.906 212.404 336.604 213.636 330.41C215.951 318.773 220.911 307.825 228.134 298.412C235.357 289 244.648 281.374 255.289 276.127C260.954 273.333 266.92 271.254 273.051 269.919C281.996 267.972 289.5 260.729 289.5 251.575Z" fill="#909090"/>
<path d="M265.19 436.225C262.821 445.067 268.075 454.289 277.172 455.31C295.648 457.384 314.445 454.772 331.787 447.589C354.26 438.28 373.033 421.816 385.196 400.75C397.358 379.684 402.23 355.194 399.055 331.077C396.605 312.467 389.469 294.882 378.435 279.919C373.002 272.551 362.388 272.612 355.915 279.085C349.442 285.558 349.627 295.986 354.575 303.687C360.699 313.219 364.692 324.038 366.188 335.404C368.411 352.286 365.001 369.429 356.487 384.175C347.973 398.921 334.832 410.446 319.101 416.962C308.509 421.349 297.143 423.301 285.827 422.763C276.683 422.328 267.56 427.382 265.19 436.225Z" fill="white"/>
<path d="M256.748 465.77C254.739 473.151 259.088 480.836 266.633 482.099C291.85 486.321 317.844 483.492 341.694 473.789C369.836 462.339 393.433 441.953 408.849 415.772C424.264 389.59 430.643 359.066 427.002 328.903C423.916 303.34 413.78 279.238 397.854 259.235C393.09 253.25 384.259 253.175 378.78 258.513C373.301 263.851 373.268 272.575 377.881 278.676C389.645 294.235 397.145 312.696 399.502 332.222C402.414 356.353 397.311 380.772 384.979 401.717C372.647 422.663 353.769 438.971 331.255 448.131C313.037 455.543 293.255 457.941 273.944 455.203C266.37 454.129 258.758 458.39 256.748 465.77Z" fill="#909090"/>
<path d="M275.427 221.647C274.564 214.047 267.679 208.516 260.203 210.134C245.921 213.225 232.189 218.563 219.528 225.975C202.874 235.725 188.442 248.847 177.156 264.5C165.87 280.153 157.979 297.992 153.991 316.873C150.958 331.227 150.232 345.943 151.811 360.47C152.638 368.074 160.061 372.859 167.544 371.277C175.028 369.695 179.721 362.341 179.084 354.719C178.189 343.996 178.858 333.175 181.093 322.599C184.283 307.494 190.596 293.223 199.625 280.7C208.653 268.177 220.2 257.68 233.523 249.88C242.851 244.419 252.906 240.365 263.363 237.827C270.796 236.022 276.291 229.247 275.427 221.647Z" fill="white"/>
<path d="M221.485 632.515C223.047 630.953 223.063 628.366 221.163 627.239C218.713 625.786 215.897 625 213 625C208.757 625 204.687 626.686 201.686 629.686C198.686 632.687 197 636.757 197 641C197 643.897 197.786 646.713 199.239 649.163C200.366 651.063 202.953 651.047 204.515 649.485C206.077 647.923 205.946 645.372 205.324 643.252C205.111 642.527 205 641.769 205 641C205 638.878 205.843 636.843 207.343 635.343C208.843 633.843 210.878 633 213 633C213.769 633 214.527 633.111 215.252 633.324C217.372 633.946 219.923 634.077 221.485 632.515Z" fill="#C4C4C4"/>
<path d="M196.029 657.971C192.905 661.095 192.874 666.268 196.674 668.522C201.574 671.429 207.206 673 213 673C221.487 673 229.626 669.629 235.627 663.627C241.629 657.626 245 649.487 245 641C245 635.206 243.429 629.574 240.522 624.674C238.268 620.874 233.095 620.905 229.971 624.029C226.846 627.154 227.109 632.256 228.353 636.496C228.778 637.946 229 639.461 229 641C229 645.243 227.314 649.313 224.314 652.314C221.313 655.314 217.243 657 213 657C211.461 657 209.946 656.778 208.496 656.353C204.256 655.109 199.154 654.846 196.029 657.971Z" fill="#C4C4C4"/>
<path d="M791.67 796.796C791.141 798.769 792.318 800.839 794.358 800.965C797.96 801.188 801.578 800.353 804.75 798.521C809 796.068 812.1 792.027 813.37 787.288C814.64 782.549 813.975 777.499 811.522 773.25C809.69 770.078 806.974 767.546 803.743 765.938C801.914 765.027 799.86 766.23 799.331 768.204C798.802 770.178 800.031 772.163 801.723 773.308C803.101 774.241 804.265 775.481 805.113 776.95C806.585 779.499 806.984 782.529 806.222 785.373C805.46 788.216 803.6 790.641 801.05 792.113C799.582 792.961 797.954 793.453 796.294 793.572C794.256 793.718 792.199 794.822 791.67 796.796Z" fill="#909090"/>
<path d="M797.634 774.537C797.929 773.437 797.273 772.285 796.137 772.214C794.13 772.09 792.115 772.555 790.348 773.575C787.981 774.942 786.254 777.193 785.546 779.833C784.839 782.473 785.209 785.286 786.576 787.653C787.596 789.42 789.109 790.83 790.909 791.726C791.928 792.233 793.072 791.563 793.367 790.463C793.661 789.364 792.976 788.258 792.034 787.62C791.266 787.101 790.618 786.41 790.145 785.592C789.326 784.172 789.103 782.484 789.528 780.9C789.952 779.316 790.989 777.965 792.409 777.145C793.227 776.673 794.134 776.399 795.058 776.333C796.194 776.251 797.339 775.636 797.634 774.537Z" fill="#909090"/>
<circle cx="733" cy="521" r="81" fill="#C4C4C4"/>
<path d="M767.425 461.374C770.78 455.563 768.809 448.036 762.562 445.587C748.216 439.963 732.475 438.517 717.198 441.556C697.924 445.39 680.701 456.1 668.738 471.69C656.775 487.281 650.888 506.688 652.173 526.298C653.192 541.841 658.663 556.671 667.808 569.073C671.79 574.474 679.571 574.429 684.316 569.684C689.061 564.939 688.925 557.295 685.298 551.65C680.14 543.621 677.054 534.361 676.421 524.708C675.522 510.982 679.643 497.397 688.017 486.483C696.391 475.57 708.447 468.073 721.938 465.389C731.426 463.502 741.169 464.086 750.259 466.991C756.651 469.033 764.07 467.185 767.425 461.374Z" fill="#909090"/>
<path d="M698.575 580.626C695.22 586.437 697.191 593.964 703.438 596.413C717.784 602.037 733.525 603.483 748.802 600.444C768.076 596.61 785.299 585.9 797.262 570.31C809.225 554.719 815.112 535.312 813.827 515.702C812.808 500.159 807.337 485.329 798.192 472.927C794.21 467.526 786.429 467.571 781.684 472.316C776.939 477.061 777.075 484.705 780.702 490.35C785.86 498.379 788.946 507.639 789.579 517.292C790.478 531.018 786.357 544.603 777.983 555.517C769.609 566.43 757.553 573.927 744.062 576.611C734.574 578.498 724.831 577.914 715.741 575.009C709.349 572.967 701.93 574.815 698.575 580.626Z" fill="white"/>
<path d="M682.035 596.269C678.907 600.887 680.097 607.217 685.005 609.868C703.443 619.826 724.609 623.843 745.567 621.215C769.88 618.166 792.256 606.383 808.525 588.06C824.794 569.737 833.847 546.124 833.998 521.621C834.128 500.499 827.635 479.957 815.565 462.827C812.352 458.267 805.926 457.835 801.71 461.487C797.493 465.139 797.097 471.488 800.194 476.127C809.117 489.488 813.898 505.279 813.798 521.497C813.678 541.099 806.435 559.989 793.42 574.648C780.404 589.306 762.504 598.733 743.054 601.172C726.961 603.19 710.715 600.311 696.393 593.032C691.42 590.505 685.162 591.65 682.035 596.269Z" fill="#909090"/>
<path d="M783.965 445.731C787.093 441.113 785.903 434.783 780.995 432.132C762.557 422.174 741.391 418.157 720.433 420.785C696.12 423.834 673.744 435.617 657.475 453.94C641.206 472.263 632.153 495.876 632.002 520.379C631.872 541.501 638.365 562.043 650.435 579.173C653.648 583.733 660.074 584.165 664.29 580.513C668.507 576.861 668.903 570.512 665.806 565.873C656.883 552.512 652.102 536.721 652.202 520.503C652.322 500.901 659.565 482.011 672.58 467.352C685.596 452.694 703.496 443.267 722.946 440.828C739.039 438.81 755.285 441.689 769.607 448.968C774.58 451.495 780.838 450.35 783.965 445.731Z" fill="white"/>
<path d="M824.437 329.053C821.296 334.494 823.158 341.611 829.206 343.308C837.006 345.496 845.319 345.582 853.276 343.45C864.932 340.326 874.87 332.701 880.904 322.25C886.938 311.799 888.573 299.38 885.45 287.724C883.317 279.766 879.087 272.61 873.292 266.949C868.798 262.56 861.704 264.506 858.563 269.947C855.421 275.387 857.66 282.299 860.928 287.663C862.046 289.499 862.909 291.499 863.475 293.612C865.036 299.44 864.219 305.65 861.202 310.875C858.185 316.1 853.216 319.913 847.388 321.475C845.275 322.041 843.112 322.294 840.963 322.244C834.683 322.095 827.579 323.613 824.437 329.053Z" fill="#909090"/>
<path d="M848.437 287.484C849.715 285.272 848.958 282.378 846.499 281.688C843.327 280.798 839.947 280.763 836.712 281.63C831.973 282.9 827.932 286.001 825.479 290.25C823.025 294.499 822.36 299.549 823.63 304.288C824.497 307.524 826.217 310.433 828.574 312.735C830.401 314.52 833.285 313.728 834.562 311.516C835.84 309.304 834.93 306.494 833.601 304.313C833.146 303.567 832.795 302.753 832.565 301.894C831.93 299.524 832.263 297 833.489 294.875C834.716 292.75 836.736 291.2 839.106 290.565C839.965 290.335 840.845 290.232 841.718 290.253C844.272 290.313 847.16 289.696 848.437 287.484Z" fill="#909090"/>
<circle cx="400.396" cy="760.396" r="91" fill="#C3C3C3"/>
<path d="M361.722 827.383C357.952 833.912 360.166 842.368 367.185 845.119C381.44 850.707 396.949 852.635 412.275 850.618C432.135 848.003 450.579 838.908 464.743 824.743C478.908 810.578 488.004 792.135 490.618 772.274C492.636 756.949 490.708 741.44 485.12 727.185C482.369 720.166 473.913 717.952 467.384 721.721C460.855 725.491 458.779 733.825 461.074 741.006C463.914 749.893 464.784 759.351 463.552 768.711C461.721 782.613 455.355 795.524 445.439 805.439C435.524 815.354 422.614 821.721 408.711 823.551C399.351 824.784 389.894 823.913 381.006 821.073C373.826 818.779 365.491 820.855 361.722 827.383Z" fill="white"/>
<path d="M455.091 705.701C460.422 700.371 460.472 691.63 454.405 687.156C442.082 678.069 427.6 672.192 412.274 670.175C392.414 667.56 372.245 671.572 354.897 681.588C337.548 691.604 323.99 707.065 316.324 725.572C310.408 739.853 308.256 755.333 309.965 770.548C310.806 778.04 318.4 782.367 325.682 780.416C332.964 778.465 337.126 770.951 336.768 763.421C336.325 754.102 337.933 744.741 341.545 736.019C346.912 723.064 356.403 712.242 368.547 705.23C380.69 698.219 394.809 695.411 408.711 697.241C418.071 698.473 426.981 701.762 434.831 706.805C441.173 710.88 449.761 711.032 455.091 705.701Z" fill="#909090"/>
<path d="M472.309 688.484C476.722 684.071 476.755 676.865 471.923 672.915C455.707 659.657 436.06 651.116 415.146 648.363C390.484 645.116 365.439 650.098 343.896 662.535C322.354 674.973 305.517 694.171 295.998 717.153C287.926 736.642 285.498 757.927 288.872 778.6C289.878 784.759 296.134 788.334 302.162 786.718C308.19 785.103 311.692 778.907 310.841 772.724C308.661 756.892 310.71 740.691 316.878 725.802C324.493 707.416 337.962 692.058 355.196 682.108C372.43 672.158 392.466 668.172 412.196 670.77C428.174 672.873 443.229 679.199 455.851 689.003C460.779 692.831 467.896 692.897 472.309 688.484Z" fill="white"/>
<path d="M349.546 848.471C346.425 853.876 348.259 860.844 353.948 863.409C373.043 872.019 394.231 875.183 415.145 872.429C439.808 869.183 462.709 857.889 480.299 840.299C497.888 822.71 509.182 799.808 512.429 775.146C515.182 754.232 512.019 733.043 503.409 713.949C500.843 708.259 493.875 706.426 488.471 709.546C483.066 712.667 481.287 719.558 483.709 725.31C489.912 740.039 492.126 756.217 490.022 772.196C487.425 791.926 478.39 810.247 464.318 824.319C450.247 838.39 431.925 847.425 412.195 850.023C396.217 852.126 380.038 849.913 365.309 843.71C359.558 841.287 352.666 843.066 349.546 848.471Z" fill="#919191"/>
<path d="M485.188 399.166C483.842 401.497 484.639 404.547 487.232 405.275C489.756 405.983 492.413 406.18 495.046 405.833C499.301 405.273 503.254 403.324 506.289 400.289C509.324 397.253 511.273 393.301 511.833 389.045C512.18 386.413 511.983 383.755 511.275 381.231C510.548 378.639 507.498 377.841 505.166 379.187C502.834 380.534 502.184 383.578 502.248 386.27C502.259 386.77 502.233 387.272 502.167 387.773C501.887 389.901 500.912 391.877 499.395 393.394C497.877 394.912 495.901 395.886 493.773 396.167C493.272 396.232 492.77 396.259 492.27 396.247C489.579 396.184 486.534 396.834 485.188 399.166Z" fill="#919191"/>
<path d="M496.438 379.68C497.163 378.425 496.733 376.782 495.337 376.391C493.978 376.009 492.547 375.903 491.13 376.09C488.838 376.392 486.71 377.441 485.076 379.075C483.441 380.71 482.392 382.838 482.09 385.13C481.904 386.547 482.01 387.978 482.391 389.337C482.783 390.733 484.425 391.162 485.68 390.438C486.936 389.713 487.286 388.073 487.252 386.624C487.246 386.355 487.26 386.084 487.295 385.815C487.446 384.669 487.971 383.605 488.788 382.788C489.605 381.971 490.669 381.446 491.815 381.295C492.085 381.259 492.355 381.245 492.624 381.252C494.074 381.286 495.713 380.936 496.438 379.68Z" fill="#919191"/>
<circle cx="529.5" cy="195.5" r="45.5" fill="#C4C4C4"/>
<path d="M538.921 160.34C540.222 155.486 537.326 150.397 532.31 150.087C525.439 149.662 518.521 150.799 512.088 153.463C502.834 157.296 495.104 164.076 490.096 172.75C485.088 181.424 483.082 191.509 484.389 201.439C485.298 208.342 487.773 214.902 491.576 220.64C494.353 224.829 500.208 224.792 503.761 221.239C507.315 217.685 507.138 211.946 504.942 207.425C503.671 204.808 502.818 201.987 502.434 199.063C501.649 193.105 502.853 187.055 505.858 181.85C508.862 176.645 513.501 172.578 519.053 170.278C521.777 169.15 524.647 168.478 527.549 168.27C532.562 167.911 537.62 165.195 538.921 160.34Z" fill="#909090"/>
<path d="M520.079 230.66C518.778 235.514 521.674 240.603 526.69 240.913C533.561 241.338 540.479 240.201 546.912 237.537C556.166 233.704 563.896 226.924 568.904 218.25C573.912 209.576 575.918 199.491 574.611 189.561C573.702 182.658 571.227 176.098 567.424 170.36C564.647 166.171 558.792 166.208 555.239 169.761C551.685 173.315 551.862 179.054 554.058 183.575C555.329 186.192 556.182 189.013 556.566 191.937C557.351 197.895 556.147 203.945 553.142 209.15C550.138 214.355 545.499 218.422 539.947 220.722C537.223 221.85 534.353 222.522 531.451 222.73C526.438 223.089 521.38 225.805 520.079 230.66Z" fill="white"/>
<path d="M517.73 249.047C516.583 254.266 519.892 259.504 525.223 259.858C536.052 260.578 546.943 258.556 556.864 253.908C569.722 247.884 580.232 237.786 586.766 225.179C593.299 212.573 595.491 198.163 593 184.185C591.078 173.398 586.451 163.334 579.62 154.901C576.256 150.749 570.069 151.066 566.466 155.012C562.863 158.958 563.247 165.034 566.337 169.393C570.161 174.789 572.776 180.992 573.95 187.58C575.693 197.364 574.16 207.451 569.586 216.276C565.013 225.1 557.655 232.169 548.655 236.385C542.596 239.224 536.019 240.664 529.407 240.65C524.063 240.639 518.877 243.828 517.73 249.047Z" fill="#909090"/>
<path d="M543.69 142.543C545.073 137.382 542.006 131.999 536.696 131.403C525.911 130.192 514.939 131.717 504.817 135.91C491.699 141.343 480.741 150.954 473.641 163.25C466.542 175.546 463.699 189.842 465.552 203.919C466.982 214.782 471.147 225.046 477.588 233.78C480.759 238.081 486.955 238.045 490.733 234.267C494.511 230.489 494.404 224.402 491.515 219.906C487.941 214.343 485.61 208.028 484.736 201.393C483.439 191.539 485.429 181.532 490.399 172.925C495.368 164.318 503.039 157.59 512.222 153.787C518.404 151.226 525.039 150.087 531.644 150.401C536.982 150.655 542.307 147.704 543.69 142.543Z" fill="white"/>
<path fill-rule="evenodd" clip-rule="evenodd" d="M256.7 862.097C539.47 862.097 768.7 632.867 768.7 350.097C768.7 223.374 722.662 107.405 646.4 18.0002C863.821 77.1339 1023.7 275.945 1023.7 512.097C1023.7 794.867 794.47 1024.1 511.7 1024.1C355.653 1024.1 215.91 954.287 122 844.193C164.92 855.867 210.082 862.097 256.7 862.097Z" fill="black" fill-opacity="0.1"/>
</g>
<defs>
<clipPath id="clip0_171_847">
<rect width="1024" height="1024" rx="512" fill="white"/>
</clipPath>
</defs>
</svg>
