<svg width="64" height="64" viewBox="0 0 64 64" fill="none" xmlns="http://www.w3.org/2000/svg">
<rect width="64" height="64" fill="none"/>
<path d="M25 16C25.625 16.0417 25.9583 16.375 26 17V20H38V17C38.0417 16.375 38.375 16.0417 39 16C39.625 16.0417 39.9583 16.375 40 17V20H42C43.125 20.0417 44.0625 20.4375 44.8125 21.1875C45.5625 21.9375 45.9583 22.875 46 24V44C45.9583 45.125 45.5625 46.0625 44.8125 46.8125C44.0625 47.5625 43.125 47.9583 42 48H22C20.875 47.9583 19.9375 47.5625 19.1875 46.8125C18.4375 46.0625 18.0417 45.125 18 44V24C18.0417 22.875 18.4375 21.9375 19.1875 21.1875C19.9375 20.4375 20.875 20.0417 22 20H24V17C24.0417 16.375 24.375 16.0417 25 16ZM44 28H37.5V32.5H44V28ZM44 34.5H37.5V39.5H44V34.5ZM44 41.5H37.5V46H42C42.5833 46 43.0625 45.8125 43.4375 45.4375C43.8125 45.0625 44 44.5833 44 44V41.5ZM35.5 39.5V34.5H28.5V39.5H35.5ZM28.5 46H35.5V41.5H28.5V46ZM26.5 39.5V34.5H20V39.5H26.5ZM20 41.5V44C20 44.5833 20.1875 45.0625 20.5625 45.4375C20.9375 45.8125 21.4167 46 22 46H26.5V41.5H20ZM20 32.5H26.5V28H20V32.5ZM28.5 32.5H35.5V28H28.5V32.5ZM42 22H22C21.4167 22 20.9375 22.1875 20.5625 22.5625C20.1875 22.9375 20 23.4167 20 24V26H44V24C44 23.4167 43.8125 22.9375 43.4375 22.5625C43.0625 22.1875 42.5833 22 42 22Z" fill="#ECE9FF"/>
</svg>
