<svg width="64" height="64" viewBox="0 0 64 64" fill="none" xmlns="http://www.w3.org/2000/svg">
<rect width="64" height="64" fill="none"/>
<path d="M18.125 42.125C17.375 41.3333 17 40.3958 17 39.3125C17 38.2292 17.375 37.2917 18.125 36.5L36.5 18.125C37.2917 17.375 38.2292 17 39.3125 17C40.3958 17 41.3333 17.375 42.125 18.125L46.5 22.5C47.25 23.2917 47.625 24.2292 47.625 25.3125C47.625 26.3958 47.25 27.3333 46.5 28.125L28.125 46.5C27.3333 47.25 26.3958 47.625 25.3125 47.625C24.2292 47.625 23.2917 47.25 22.5 46.5L18.125 42.125ZM19.5625 40.75L23.875 45.0625C24.2917 45.4375 24.7708 45.625 25.3125 45.625C25.8542 45.625 26.3333 45.4375 26.75 45.0625L45.0625 26.75C45.4375 26.3333 45.625 25.8542 45.625 25.3125C45.625 24.7708 45.4375 24.2917 45.0625 23.875L40.75 19.5625C40.3333 19.1875 39.8542 19 39.3125 19C38.7708 19 38.2917 19.1875 37.875 19.5625L35.4375 22L38 24.625C38.4167 25.0833 38.4167 25.5417 38 26C37.5417 26.4167 37.0833 26.4167 36.625 26L34 23.4375L31.4375 26L34 28.625C34.4167 29.0833 34.4167 29.5417 34 30C33.5417 30.4167 33.0833 30.4167 32.625 30L30 27.4375L27.4375 30L30 32.625C30.4167 33.0833 30.4167 33.5417 30 34C29.5417 34.4167 29.0833 34.4167 28.625 34L26 31.4375L23.4375 34L26 36.625C26.4167 37.0833 26.4167 37.5417 26 38C25.5417 38.4167 25.0833 38.4167 24.625 38L22 35.4375L19.5625 37.875C19.1875 38.2917 19 38.7708 19 39.3125C19 39.8542 19.1875 40.3333 19.5625 40.75Z" fill="#ECE9FF"/>
</svg>
