<svg width="64" height="64" viewBox="0 0 64 64" fill="none" xmlns="http://www.w3.org/2000/svg">
<rect width="64" height="64" fill="none"/>
<path d="M47.6875 32.6875L40.6875 39.6875C40.4792 39.8958 40.25 40 40 40C39.75 40 39.5208 39.8958 39.3125 39.6875C38.8958 39.2292 38.8958 38.7708 39.3125 38.3125L44.5625 33H19.4375L24.6875 38.3125C25.1042 38.7708 25.1042 39.2292 24.6875 39.6875C24.4792 39.8958 24.25 40 24 40C23.75 40 23.5208 39.8958 23.3125 39.6875L16.3125 32.6875C15.8958 32.2292 15.8958 31.7708 16.3125 31.3125L23.3125 24.3125C23.7708 23.8958 24.2292 23.8958 24.6875 24.3125C25.1042 24.7708 25.1042 25.2292 24.6875 25.6875L19.4375 31H44.5625L39.3125 25.6875C38.8958 25.2292 38.8958 24.7708 39.3125 24.3125C39.7708 23.8958 40.2292 23.8958 40.6875 24.3125L47.6875 31.3125C48.1042 31.7708 48.1042 32.2292 47.6875 32.6875Z" fill="#ECE9FF"/>
</svg>
