<svg width="64" height="64" viewBox="0 0 64 64" fill="none" xmlns="http://www.w3.org/2000/svg">
<rect width="64" height="64" fill="none"/>
<path d="M40.16 25.8H39.67C39.76 25.61 39.85 25.42 39.93 25.23C40.9 25.01 41.63 24.13 41.63 23.1V21.23C41.63 20.31 41.05 19.5 40.23 19.18C39.09 15.52 35.7 13 31.82 13C27.94 13 24.6 15.48 23.44 19.09C22.46 19.3 21.72 20.18 21.72 21.23V23.1C21.72 24.25 22.61 25.19 23.73 25.28C23.81 25.45 23.89 25.63 23.97 25.8H23.05C21.92 25.8 21 26.72 21 27.84V38.2C21 39.57 22.11 40.68 23.48 40.68C23.72 40.68 23.95 40.65 24.17 40.58V43.54C23.8 43.92 23.59 44.43 23.59 44.96V49.85C23.59 50.26 23.93 50.6 24.34 50.6H30.38C30.79 50.6 31.13 50.26 31.13 49.85V44.96C31.13 44.43 30.92 43.93 30.56 43.54C30.58 42.99 31.05 42.55 31.61 42.55C32.17 42.55 32.65 43.02 32.65 43.59V43.71C32.37 44.06 32.22 44.5 32.22 44.96V49.85C32.22 50.26 32.56 50.6 32.97 50.6H39.01C39.42 50.6 39.76 50.26 39.76 49.85V44.96C39.76 44.34 39.49 43.78 39.04 43.4V40.58C39.26 40.64 39.49 40.68 39.73 40.68C41.1 40.68 42.21 39.57 42.21 38.2V27.84C42.21 26.72 41.29 25.8 40.16 25.8ZM40.42 38.2C40.42 38.57 40.1 38.89 39.73 38.89C39.36 38.89 39.04 38.57 39.04 38.2V27.59H40.16C40.3 27.59 40.42 27.7 40.42 27.84V38.2V38.2ZM22.79 27.84C22.79 27.7 22.91 27.59 23.05 27.59H24.17V38.2C24.17 38.57 23.85 38.89 23.48 38.89C23.11 38.89 22.79 38.57 22.79 38.2V27.84ZM31.82 14.79C33.54 14.79 35.17 15.43 36.43 16.53C33.55 15.64 29.85 15.7 27.02 16.69C28.3 15.49 30 14.79 31.82 14.79V14.79ZM29.35 44.96V48.81H25.28C25.26 47.99 25.31 46.38 25.38 44.96C25.38 44.9 25.41 44.84 25.52 44.73C25.58 44.7 25.61 44.7 25.64 44.7H29.09C29.09 44.7 29.16 44.7 29.28 44.79C29.32 44.83 29.35 44.9 29.35 44.96ZM31.97 17.81C34.22 17.81 36.4 18.35 37.97 19.31C38.14 19.41 38.31 19.53 38.5 19.67C38.54 19.78 38.57 19.88 38.59 19.97L38.65 20.26C38.77 20.77 38.83 21.29 38.83 21.81C38.83 22.55 38.71 23.28 38.48 23.99L38.4 24.24C38.25 24.63 38.07 25 37.84 25.39C37.51 25.58 37.2 25.73 36.89 25.86L36.19 26.14C33.6 27.03 30.26 27.02 27.74 26.15L27.02 25.87C26.64 25.71 26.28 25.53 25.97 25.34C25.85 25.26 25.73 25.19 25.62 25.11C25.45 24.78 25.3 24.46 25.18 24.13L25.11 23.92C24.89 23.23 24.78 22.53 24.78 21.81C24.78 21.32 24.84 20.81 24.96 20.27C24.97 20.21 24.98 20.16 25.03 20V19.98C25.29 19.75 25.6 19.52 25.95 19.31C27.53 18.35 29.66 17.82 31.95 17.82L31.97 17.81ZM34.01 44.96C34.01 44.91 34.02 44.86 34.02 44.86C34.06 44.8 34.08 44.78 34.14 44.74C34.17 44.71 34.22 44.7 34.27 44.7H37.77C37.77 44.7 37.85 44.76 37.86 44.76C37.89 44.78 37.98 44.85 37.98 44.96V48.81H34.01V44.96V44.96ZM28.85 42.92H25.96V28.37C27.56 29.81 29.63 30.61 31.82 30.61C33.81 30.61 35.72 29.94 37.26 28.73V42.92H34.36C34.06 41.68 32.94 40.76 31.61 40.76C30.28 40.76 29.15 41.68 28.85 42.92V42.92Z" fill="#ECE9FF"/>
</svg>
