<svg width="64" height="64" viewBox="0 0 64 64" fill="none" xmlns="http://www.w3.org/2000/svg">
<rect width="64" height="64" fill="none"/>
<mask id="path-1-outside-1_348_4446" maskUnits="userSpaceOnUse" x="19" y="9" width="26" height="46" fill="black">
<rect fill="white" x="19" y="9" width="26" height="46"/>
<path d="M42.4346 25.5998H40.1919C40.7338 24.8548 41.1778 24.027 41.5014 23.1466C41.5165 23.1466 41.539 23.1466 41.5541 23.1466C42.5174 23.1466 43.3076 22.3564 43.3076 21.3932V19.113C43.3076 18.2175 42.6378 17.4801 41.7723 17.3747C40.6961 13.138 36.8429 10 32.2672 10C27.6914 10 23.8532 13.138 22.762 17.3672C22.7168 17.3672 22.6717 17.3672 22.6265 17.3672C21.6557 17.3672 20.873 18.1573 20.873 19.1206V21.4007C20.873 22.3639 21.6557 23.1541 22.6265 23.1541C22.762 23.1541 22.8899 23.139 23.0179 23.1089C23.3415 24.0044 23.7855 24.8473 24.3424 25.6073H21.5804C20.7074 25.6073 20 26.3147 20 27.1876V39.8074C20 40.9663 20.9407 41.907 22.0997 41.907C22.8297 41.907 23.477 41.5307 23.8532 40.9663V46.7306C23.4318 47.0166 23.1533 47.4982 23.1533 48.04V51.2683C22.8448 51.4038 22.6265 51.7123 22.6265 52.0735V53.1271C22.6265 53.6087 23.0179 54 23.4995 54H30.1675C30.6491 54 31.0405 53.6087 31.0405 53.1271V52.0735C31.0405 51.7123 30.8222 51.4038 30.5136 51.2683V48.04C30.5136 47.4982 30.2352 47.0166 29.8137 46.7306V46.3769C29.8137 45.1654 30.7921 44.1871 32.0038 44.1871C33.2154 44.1871 34.1938 45.1654 34.1938 46.3769V46.8661C33.8702 47.152 33.667 47.5735 33.667 48.04V51.2683C33.3584 51.4038 33.1402 51.7123 33.1402 52.0735V53.1271C33.1402 53.6087 33.5315 54 34.0132 54H40.6736C41.1552 54 41.5466 53.6087 41.5466 53.1271V52.0735C41.5466 51.7123 41.3283 51.4038 41.0198 51.2683V48.04C41.0198 47.423 40.6585 46.8887 40.1468 46.6253V40.9588C40.523 41.5232 41.1703 41.8994 41.9003 41.8994C43.0593 41.8994 44 40.9588 44 39.7999V27.1801C44 26.3072 43.2926 25.5998 42.4196 25.5998H42.4346ZM41.8627 17.7435C42.4873 17.8864 42.9614 18.4433 42.9614 19.113V21.3932C42.9614 22.1457 42.3669 22.7628 41.6218 22.7929C41.9229 21.8522 42.0809 20.8514 42.0809 19.8129C42.0809 19.1055 42.0056 18.4132 41.8627 17.7435ZM32.2672 10.3537C36.0226 10.3537 39.2738 12.5511 40.8015 15.7267C38.7244 14.3646 35.7441 13.5068 32.4403 13.5068C28.8504 13.5068 25.6519 14.5151 23.5673 16.0879C25.0198 12.7166 28.3763 10.3537 32.2672 10.3537ZM22.6265 22.7929C21.8514 22.7929 21.2267 22.1608 21.2267 21.3932V19.113C21.2267 18.338 21.8589 17.7134 22.6265 17.7134C22.6416 17.7134 22.6642 17.7134 22.6792 17.7134C22.5287 18.3906 22.4534 19.0905 22.4534 19.8129C22.4534 20.8439 22.6115 21.8297 22.905 22.7628C22.8147 22.7854 22.7244 22.7929 22.6265 22.7929ZM22.0997 41.5457C21.1289 41.5457 20.3462 40.7556 20.3462 39.7924V27.1801C20.3462 26.5028 20.8956 25.9535 21.5729 25.9535H23.8532V39.7999C23.8532 40.7631 23.063 41.5533 22.0997 41.5533V41.5457ZM30.6867 52.0585V53.112C30.6867 53.398 30.4534 53.6388 30.1599 53.6388H23.5071C23.2135 53.6388 22.9802 53.4055 22.9802 53.112V52.0585C22.9802 51.9005 23.048 51.765 23.1533 51.6672C23.2437 51.5844 23.3716 51.5317 23.5071 51.5317H30.1675C30.3029 51.5317 30.4233 51.5844 30.5212 51.6672C30.6265 51.765 30.6943 51.9005 30.6943 52.0585H30.6867ZM30.1599 48.025V51.178H23.5071V48.025C23.5071 47.6939 23.6425 47.3853 23.8608 47.1671C23.9586 47.0617 24.079 46.979 24.2145 46.9188C24.3725 46.8435 24.5532 46.7984 24.7413 46.7984H28.9483C29.1364 46.7984 29.317 46.8435 29.4751 46.9188C29.603 46.979 29.7234 47.0617 29.8288 47.1671C30.047 47.3853 30.1825 47.6939 30.1825 48.025H30.1599ZM32.0038 43.8184C30.5964 43.8184 29.46 44.9547 29.46 46.3619V46.5425C29.2944 46.4823 29.1214 46.4522 28.9332 46.4522H24.7338C24.5532 46.4522 24.3725 46.4823 24.207 46.5425V25.9535H24.6134C26.412 28.196 29.174 29.6333 32.2672 29.6333C35.3603 29.6333 38.0019 28.2562 39.8081 26.0965V46.4973C39.6952 46.4748 39.5748 46.4597 39.4544 46.4597H35.2474C34.9991 46.4597 34.7582 46.5199 34.5475 46.6253V46.3694C34.5475 44.9622 33.4111 43.8259 32.0038 43.8259V43.8184ZM25.0649 25.9535H25.5691C27.4807 26.8339 29.8589 27.3532 32.4403 27.3532C35.0216 27.3532 37.3998 26.8339 39.3114 25.9535H39.4619C37.7234 27.9928 35.1421 29.2872 32.2596 29.2872C29.3772 29.2872 26.7959 27.9928 25.0574 25.9535H25.0649ZM41.2079 52.066V53.1195C41.2079 53.4055 40.9746 53.6463 40.6811 53.6463H34.0207C33.7272 53.6463 33.4939 53.413 33.4939 53.1195V52.066C33.4939 51.908 33.5616 51.7725 33.667 51.6747C33.7573 51.5919 33.8852 51.5393 34.0207 51.5393H40.6811C40.8166 51.5393 40.937 51.5919 41.0348 51.6747C41.1402 51.7725 41.2079 51.908 41.2079 52.066ZM40.6811 48.0325V51.1856H34.0207V48.0325C34.0207 47.7992 34.0809 47.5885 34.1938 47.4004C34.2841 47.2499 34.4045 47.1219 34.5475 47.0241C34.7432 46.8811 34.984 46.7984 35.2474 46.7984H39.4544C39.5748 46.7984 39.6952 46.8134 39.8081 46.851C39.936 46.8887 40.0564 46.9489 40.1618 47.0241C40.4779 47.2423 40.6886 47.6111 40.6886 48.025L40.6811 48.0325ZM38.8071 25.5998L37.904 25.9535C36.301 26.5103 34.4421 26.8264 32.4403 26.8264C30.4384 26.8264 28.572 26.5028 26.9765 25.9535L26.0734 25.5998C25.5691 25.3816 25.095 25.1408 24.6585 24.8774C24.4327 24.7419 24.222 24.5989 24.0188 24.4484C23.7554 23.9819 23.5296 23.5003 23.349 22.9885C23.3114 22.8757 23.2738 22.7703 23.2361 22.6574C22.9577 21.7619 22.7996 20.8062 22.7996 19.8204C22.7996 19.1206 22.8749 18.4358 23.0254 17.7736C23.048 17.6607 23.0781 17.5478 23.1082 17.4349C23.1383 17.3145 23.1684 17.2016 23.206 17.0888C23.6199 16.6975 24.1016 16.3287 24.6585 15.9901C26.6228 14.7936 29.3772 14.041 32.4403 14.041C35.5033 14.041 38.2578 14.7936 40.222 15.9901C40.5682 16.2008 40.8918 16.4265 41.1853 16.6598C41.2681 16.8931 41.3434 17.1339 41.4111 17.3747C41.4412 17.4876 41.4713 17.608 41.4939 17.7209C41.6519 18.3982 41.7272 19.098 41.7272 19.8204C41.7272 20.8514 41.5616 21.8447 41.2606 22.7703C41.223 22.8832 41.1853 22.9961 41.1477 23.1014C40.9219 23.7185 40.6284 24.2979 40.2897 24.8397C40.2672 24.8548 40.2521 24.8623 40.2295 24.8774C39.793 25.1408 39.3189 25.3816 38.8147 25.5998H38.8071ZM43.6538 39.7999C43.6538 40.7631 42.8636 41.5533 41.9003 41.5533C40.937 41.5533 40.1468 40.7631 40.1468 39.7999V25.9535H42.4271C43.1044 25.9535 43.6538 26.5028 43.6538 27.1801V39.7999Z"/>
</mask>
<path d="M42.4346 25.5998H40.1919C40.7338 24.8548 41.1778 24.027 41.5014 23.1466C41.5165 23.1466 41.539 23.1466 41.5541 23.1466C42.5174 23.1466 43.3076 22.3564 43.3076 21.3932V19.113C43.3076 18.2175 42.6378 17.4801 41.7723 17.3747C40.6961 13.138 36.8429 10 32.2672 10C27.6914 10 23.8532 13.138 22.762 17.3672C22.7168 17.3672 22.6717 17.3672 22.6265 17.3672C21.6557 17.3672 20.873 18.1573 20.873 19.1206V21.4007C20.873 22.3639 21.6557 23.1541 22.6265 23.1541C22.762 23.1541 22.8899 23.139 23.0179 23.1089C23.3415 24.0044 23.7855 24.8473 24.3424 25.6073H21.5804C20.7074 25.6073 20 26.3147 20 27.1876V39.8074C20 40.9663 20.9407 41.907 22.0997 41.907C22.8297 41.907 23.477 41.5307 23.8532 40.9663V46.7306C23.4318 47.0166 23.1533 47.4982 23.1533 48.04V51.2683C22.8448 51.4038 22.6265 51.7123 22.6265 52.0735V53.1271C22.6265 53.6087 23.0179 54 23.4995 54H30.1675C30.6491 54 31.0405 53.6087 31.0405 53.1271V52.0735C31.0405 51.7123 30.8222 51.4038 30.5136 51.2683V48.04C30.5136 47.4982 30.2352 47.0166 29.8137 46.7306V46.3769C29.8137 45.1654 30.7921 44.1871 32.0038 44.1871C33.2154 44.1871 34.1938 45.1654 34.1938 46.3769V46.8661C33.8702 47.152 33.667 47.5735 33.667 48.04V51.2683C33.3584 51.4038 33.1402 51.7123 33.1402 52.0735V53.1271C33.1402 53.6087 33.5315 54 34.0132 54H40.6736C41.1552 54 41.5466 53.6087 41.5466 53.1271V52.0735C41.5466 51.7123 41.3283 51.4038 41.0198 51.2683V48.04C41.0198 47.423 40.6585 46.8887 40.1468 46.6253V40.9588C40.523 41.5232 41.1703 41.8994 41.9003 41.8994C43.0593 41.8994 44 40.9588 44 39.7999V27.1801C44 26.3072 43.2926 25.5998 42.4196 25.5998H42.4346ZM41.8627 17.7435C42.4873 17.8864 42.9614 18.4433 42.9614 19.113V21.3932C42.9614 22.1457 42.3669 22.7628 41.6218 22.7929C41.9229 21.8522 42.0809 20.8514 42.0809 19.8129C42.0809 19.1055 42.0056 18.4132 41.8627 17.7435ZM32.2672 10.3537C36.0226 10.3537 39.2738 12.5511 40.8015 15.7267C38.7244 14.3646 35.7441 13.5068 32.4403 13.5068C28.8504 13.5068 25.6519 14.5151 23.5673 16.0879C25.0198 12.7166 28.3763 10.3537 32.2672 10.3537ZM22.6265 22.7929C21.8514 22.7929 21.2267 22.1608 21.2267 21.3932V19.113C21.2267 18.338 21.8589 17.7134 22.6265 17.7134C22.6416 17.7134 22.6642 17.7134 22.6792 17.7134C22.5287 18.3906 22.4534 19.0905 22.4534 19.8129C22.4534 20.8439 22.6115 21.8297 22.905 22.7628C22.8147 22.7854 22.7244 22.7929 22.6265 22.7929ZM22.0997 41.5457C21.1289 41.5457 20.3462 40.7556 20.3462 39.7924V27.1801C20.3462 26.5028 20.8956 25.9535 21.5729 25.9535H23.8532V39.7999C23.8532 40.7631 23.063 41.5533 22.0997 41.5533V41.5457ZM30.6867 52.0585V53.112C30.6867 53.398 30.4534 53.6388 30.1599 53.6388H23.5071C23.2135 53.6388 22.9802 53.4055 22.9802 53.112V52.0585C22.9802 51.9005 23.048 51.765 23.1533 51.6672C23.2437 51.5844 23.3716 51.5317 23.5071 51.5317H30.1675C30.3029 51.5317 30.4233 51.5844 30.5212 51.6672C30.6265 51.765 30.6943 51.9005 30.6943 52.0585H30.6867ZM30.1599 48.025V51.178H23.5071V48.025C23.5071 47.6939 23.6425 47.3853 23.8608 47.1671C23.9586 47.0617 24.079 46.979 24.2145 46.9188C24.3725 46.8435 24.5532 46.7984 24.7413 46.7984H28.9483C29.1364 46.7984 29.317 46.8435 29.4751 46.9188C29.603 46.979 29.7234 47.0617 29.8288 47.1671C30.047 47.3853 30.1825 47.6939 30.1825 48.025H30.1599ZM32.0038 43.8184C30.5964 43.8184 29.46 44.9547 29.46 46.3619V46.5425C29.2944 46.4823 29.1214 46.4522 28.9332 46.4522H24.7338C24.5532 46.4522 24.3725 46.4823 24.207 46.5425V25.9535H24.6134C26.412 28.196 29.174 29.6333 32.2672 29.6333C35.3603 29.6333 38.0019 28.2562 39.8081 26.0965V46.4973C39.6952 46.4748 39.5748 46.4597 39.4544 46.4597H35.2474C34.9991 46.4597 34.7582 46.5199 34.5475 46.6253V46.3694C34.5475 44.9622 33.4111 43.8259 32.0038 43.8259V43.8184ZM25.0649 25.9535H25.5691C27.4807 26.8339 29.8589 27.3532 32.4403 27.3532C35.0216 27.3532 37.3998 26.8339 39.3114 25.9535H39.4619C37.7234 27.9928 35.1421 29.2872 32.2596 29.2872C29.3772 29.2872 26.7959 27.9928 25.0574 25.9535H25.0649ZM41.2079 52.066V53.1195C41.2079 53.4055 40.9746 53.6463 40.6811 53.6463H34.0207C33.7272 53.6463 33.4939 53.413 33.4939 53.1195V52.066C33.4939 51.908 33.5616 51.7725 33.667 51.6747C33.7573 51.5919 33.8852 51.5393 34.0207 51.5393H40.6811C40.8166 51.5393 40.937 51.5919 41.0348 51.6747C41.1402 51.7725 41.2079 51.908 41.2079 52.066ZM40.6811 48.0325V51.1856H34.0207V48.0325C34.0207 47.7992 34.0809 47.5885 34.1938 47.4004C34.2841 47.2499 34.4045 47.1219 34.5475 47.0241C34.7432 46.8811 34.984 46.7984 35.2474 46.7984H39.4544C39.5748 46.7984 39.6952 46.8134 39.8081 46.851C39.936 46.8887 40.0564 46.9489 40.1618 47.0241C40.4779 47.2423 40.6886 47.6111 40.6886 48.025L40.6811 48.0325ZM38.8071 25.5998L37.904 25.9535C36.301 26.5103 34.4421 26.8264 32.4403 26.8264C30.4384 26.8264 28.572 26.5028 26.9765 25.9535L26.0734 25.5998C25.5691 25.3816 25.095 25.1408 24.6585 24.8774C24.4327 24.7419 24.222 24.5989 24.0188 24.4484C23.7554 23.9819 23.5296 23.5003 23.349 22.9885C23.3114 22.8757 23.2738 22.7703 23.2361 22.6574C22.9577 21.7619 22.7996 20.8062 22.7996 19.8204C22.7996 19.1206 22.8749 18.4358 23.0254 17.7736C23.048 17.6607 23.0781 17.5478 23.1082 17.4349C23.1383 17.3145 23.1684 17.2016 23.206 17.0888C23.6199 16.6975 24.1016 16.3287 24.6585 15.9901C26.6228 14.7936 29.3772 14.041 32.4403 14.041C35.5033 14.041 38.2578 14.7936 40.222 15.9901C40.5682 16.2008 40.8918 16.4265 41.1853 16.6598C41.2681 16.8931 41.3434 17.1339 41.4111 17.3747C41.4412 17.4876 41.4713 17.608 41.4939 17.7209C41.6519 18.3982 41.7272 19.098 41.7272 19.8204C41.7272 20.8514 41.5616 21.8447 41.2606 22.7703C41.223 22.8832 41.1853 22.9961 41.1477 23.1014C40.9219 23.7185 40.6284 24.2979 40.2897 24.8397C40.2672 24.8548 40.2521 24.8623 40.2295 24.8774C39.793 25.1408 39.3189 25.3816 38.8147 25.5998H38.8071ZM43.6538 39.7999C43.6538 40.7631 42.8636 41.5533 41.9003 41.5533C40.937 41.5533 40.1468 40.7631 40.1468 39.7999V25.9535H42.4271C43.1044 25.9535 43.6538 26.5028 43.6538 27.1801V39.7999Z" fill="#ECE9FF"/>
<path d="M42.4346 25.5998H40.1919C40.7338 24.8548 41.1778 24.027 41.5014 23.1466C41.5165 23.1466 41.539 23.1466 41.5541 23.1466C42.5174 23.1466 43.3076 22.3564 43.3076 21.3932V19.113C43.3076 18.2175 42.6378 17.4801 41.7723 17.3747C40.6961 13.138 36.8429 10 32.2672 10C27.6914 10 23.8532 13.138 22.762 17.3672C22.7168 17.3672 22.6717 17.3672 22.6265 17.3672C21.6557 17.3672 20.873 18.1573 20.873 19.1206V21.4007C20.873 22.3639 21.6557 23.1541 22.6265 23.1541C22.762 23.1541 22.8899 23.139 23.0179 23.1089C23.3415 24.0044 23.7855 24.8473 24.3424 25.6073H21.5804C20.7074 25.6073 20 26.3147 20 27.1876V39.8074C20 40.9663 20.9407 41.907 22.0997 41.907C22.8297 41.907 23.477 41.5307 23.8532 40.9663V46.7306C23.4318 47.0166 23.1533 47.4982 23.1533 48.04V51.2683C22.8448 51.4038 22.6265 51.7123 22.6265 52.0735V53.1271C22.6265 53.6087 23.0179 54 23.4995 54H30.1675C30.6491 54 31.0405 53.6087 31.0405 53.1271V52.0735C31.0405 51.7123 30.8222 51.4038 30.5136 51.2683V48.04C30.5136 47.4982 30.2352 47.0166 29.8137 46.7306V46.3769C29.8137 45.1654 30.7921 44.1871 32.0038 44.1871C33.2154 44.1871 34.1938 45.1654 34.1938 46.3769V46.8661C33.8702 47.152 33.667 47.5735 33.667 48.04V51.2683C33.3584 51.4038 33.1402 51.7123 33.1402 52.0735V53.1271C33.1402 53.6087 33.5315 54 34.0132 54H40.6736C41.1552 54 41.5466 53.6087 41.5466 53.1271V52.0735C41.5466 51.7123 41.3283 51.4038 41.0198 51.2683V48.04C41.0198 47.423 40.6585 46.8887 40.1468 46.6253V40.9588C40.523 41.5232 41.1703 41.8994 41.9003 41.8994C43.0593 41.8994 44 40.9588 44 39.7999V27.1801C44 26.3072 43.2926 25.5998 42.4196 25.5998H42.4346ZM41.8627 17.7435C42.4873 17.8864 42.9614 18.4433 42.9614 19.113V21.3932C42.9614 22.1457 42.3669 22.7628 41.6218 22.7929C41.9229 21.8522 42.0809 20.8514 42.0809 19.8129C42.0809 19.1055 42.0056 18.4132 41.8627 17.7435ZM32.2672 10.3537C36.0226 10.3537 39.2738 12.5511 40.8015 15.7267C38.7244 14.3646 35.7441 13.5068 32.4403 13.5068C28.8504 13.5068 25.6519 14.5151 23.5673 16.0879C25.0198 12.7166 28.3763 10.3537 32.2672 10.3537ZM22.6265 22.7929C21.8514 22.7929 21.2267 22.1608 21.2267 21.3932V19.113C21.2267 18.338 21.8589 17.7134 22.6265 17.7134C22.6416 17.7134 22.6642 17.7134 22.6792 17.7134C22.5287 18.3906 22.4534 19.0905 22.4534 19.8129C22.4534 20.8439 22.6115 21.8297 22.905 22.7628C22.8147 22.7854 22.7244 22.7929 22.6265 22.7929ZM22.0997 41.5457C21.1289 41.5457 20.3462 40.7556 20.3462 39.7924V27.1801C20.3462 26.5028 20.8956 25.9535 21.5729 25.9535H23.8532V39.7999C23.8532 40.7631 23.063 41.5533 22.0997 41.5533V41.5457ZM30.6867 52.0585V53.112C30.6867 53.398 30.4534 53.6388 30.1599 53.6388H23.5071C23.2135 53.6388 22.9802 53.4055 22.9802 53.112V52.0585C22.9802 51.9005 23.048 51.765 23.1533 51.6672C23.2437 51.5844 23.3716 51.5317 23.5071 51.5317H30.1675C30.3029 51.5317 30.4233 51.5844 30.5212 51.6672C30.6265 51.765 30.6943 51.9005 30.6943 52.0585H30.6867ZM30.1599 48.025V51.178H23.5071V48.025C23.5071 47.6939 23.6425 47.3853 23.8608 47.1671C23.9586 47.0617 24.079 46.979 24.2145 46.9188C24.3725 46.8435 24.5532 46.7984 24.7413 46.7984H28.9483C29.1364 46.7984 29.317 46.8435 29.4751 46.9188C29.603 46.979 29.7234 47.0617 29.8288 47.1671C30.047 47.3853 30.1825 47.6939 30.1825 48.025H30.1599ZM32.0038 43.8184C30.5964 43.8184 29.46 44.9547 29.46 46.3619V46.5425C29.2944 46.4823 29.1214 46.4522 28.9332 46.4522H24.7338C24.5532 46.4522 24.3725 46.4823 24.207 46.5425V25.9535H24.6134C26.412 28.196 29.174 29.6333 32.2672 29.6333C35.3603 29.6333 38.0019 28.2562 39.8081 26.0965V46.4973C39.6952 46.4748 39.5748 46.4597 39.4544 46.4597H35.2474C34.9991 46.4597 34.7582 46.5199 34.5475 46.6253V46.3694C34.5475 44.9622 33.4111 43.8259 32.0038 43.8259V43.8184ZM25.0649 25.9535H25.5691C27.4807 26.8339 29.8589 27.3532 32.4403 27.3532C35.0216 27.3532 37.3998 26.8339 39.3114 25.9535H39.4619C37.7234 27.9928 35.1421 29.2872 32.2596 29.2872C29.3772 29.2872 26.7959 27.9928 25.0574 25.9535H25.0649ZM41.2079 52.066V53.1195C41.2079 53.4055 40.9746 53.6463 40.6811 53.6463H34.0207C33.7272 53.6463 33.4939 53.413 33.4939 53.1195V52.066C33.4939 51.908 33.5616 51.7725 33.667 51.6747C33.7573 51.5919 33.8852 51.5393 34.0207 51.5393H40.6811C40.8166 51.5393 40.937 51.5919 41.0348 51.6747C41.1402 51.7725 41.2079 51.908 41.2079 52.066ZM40.6811 48.0325V51.1856H34.0207V48.0325C34.0207 47.7992 34.0809 47.5885 34.1938 47.4004C34.2841 47.2499 34.4045 47.1219 34.5475 47.0241C34.7432 46.8811 34.984 46.7984 35.2474 46.7984H39.4544C39.5748 46.7984 39.6952 46.8134 39.8081 46.851C39.936 46.8887 40.0564 46.9489 40.1618 47.0241C40.4779 47.2423 40.6886 47.6111 40.6886 48.025L40.6811 48.0325ZM38.8071 25.5998L37.904 25.9535C36.301 26.5103 34.4421 26.8264 32.4403 26.8264C30.4384 26.8264 28.572 26.5028 26.9765 25.9535L26.0734 25.5998C25.5691 25.3816 25.095 25.1408 24.6585 24.8774C24.4327 24.7419 24.222 24.5989 24.0188 24.4484C23.7554 23.9819 23.5296 23.5003 23.349 22.9885C23.3114 22.8757 23.2738 22.7703 23.2361 22.6574C22.9577 21.7619 22.7996 20.8062 22.7996 19.8204C22.7996 19.1206 22.8749 18.4358 23.0254 17.7736C23.048 17.6607 23.0781 17.5478 23.1082 17.4349C23.1383 17.3145 23.1684 17.2016 23.206 17.0888C23.6199 16.6975 24.1016 16.3287 24.6585 15.9901C26.6228 14.7936 29.3772 14.041 32.4403 14.041C35.5033 14.041 38.2578 14.7936 40.222 15.9901C40.5682 16.2008 40.8918 16.4265 41.1853 16.6598C41.2681 16.8931 41.3434 17.1339 41.4111 17.3747C41.4412 17.4876 41.4713 17.608 41.4939 17.7209C41.6519 18.3982 41.7272 19.098 41.7272 19.8204C41.7272 20.8514 41.5616 21.8447 41.2606 22.7703C41.223 22.8832 41.1853 22.9961 41.1477 23.1014C40.9219 23.7185 40.6284 24.2979 40.2897 24.8397C40.2672 24.8548 40.2521 24.8623 40.2295 24.8774C39.793 25.1408 39.3189 25.3816 38.8147 25.5998H38.8071ZM43.6538 39.7999C43.6538 40.7631 42.8636 41.5533 41.9003 41.5533C40.937 41.5533 40.1468 40.7631 40.1468 39.7999V25.9535H42.4271C43.1044 25.9535 43.6538 26.5028 43.6538 27.1801V39.7999Z" stroke="#ECE9FF" stroke-width="1.4" mask="url(#path-1-outside-1_348_4446)"/>
</svg>
