<svg width="64" height="64" viewBox="0 0 64 64" fill="none" xmlns="http://www.w3.org/2000/svg">
<rect width="64" height="64" fill="none"/>
<g clip-path="url(#clip0_665_3608)">
<path d="M56 32.0001C56 29.8753 54.3074 28.16 52.2105 28.16V26.88H53.4737V12.8H49.6842V26.88H50.9474V28.16H45.8947V26.88H47.1579V12.8H43.3684V26.88H44.6316V28.16H41.8779C41.36 26.6752 39.9705 25.6 38.3158 25.6H34.5263V23.04C34.5263 21.632 33.3895 20.48 32 20.48C30.6105 20.48 29.4737 21.632 29.4737 23.04V25.6H25.6842C24.0421 25.6 22.6526 26.6752 22.1221 28.16H19.3684V26.88H20.6316V12.8H16.8421V26.88H18.1053V28.16H13.0526V26.88H14.3158V12.8H10.5263V26.88H11.7895V28.16C9.69263 28.16 8 29.8753 8 32.0001C8 34.1249 9.69263 35.8401 11.7895 35.8401V37.1201H10.5263V51.2001H14.3158V37.1201H13.0526V35.8401H18.1053V37.1201H16.8421V51.2001H20.6316V37.1201H19.3684V35.8401H22.1221C22.64 37.3249 24.0295 38.4001 25.6842 38.4001H29.4737V39.7953C29.2716 39.7185 29.0695 39.6801 28.8421 39.6801H26.3158C25.2674 39.6801 24.4211 40.5377 24.4211 41.6001C24.4211 42.6625 25.2674 43.5201 26.3158 43.5201H28.8421C29.0695 43.5201 29.2716 43.4689 29.4737 43.4049V43.5201C29.4737 44.9281 30.6105 46.0801 32 46.0801C33.3895 46.0801 34.5263 44.9281 34.5263 43.5201V43.4049C34.7284 43.4817 34.9305 43.5201 35.1579 43.5201H37.6842C38.7326 43.5201 39.5789 42.6625 39.5789 41.6001C39.5789 40.5377 38.7326 39.6801 37.6842 39.6801H35.1579C34.9305 39.6801 34.7284 39.7313 34.5263 39.7953V38.4001H38.3158C39.9579 38.4001 41.3474 37.3249 41.8779 35.8401H44.6316V37.1201H43.3684V51.2001H47.1579V37.1201H45.8947V35.8401H50.9474V37.1201H49.6842V51.2001H53.4737V37.1201H52.2105V35.8401C54.3074 35.8401 56 34.1249 56 32.0001ZM40.8421 33.2801C40.1474 33.2801 39.5789 33.8561 39.5789 34.5601C39.5789 35.2641 39.0105 35.8401 38.3158 35.8401H25.6842C24.9895 35.8401 24.4211 35.2641 24.4211 34.5601C24.4211 33.8561 23.8526 33.2801 23.1579 33.2801H11.7895C11.0947 33.2801 10.5263 32.7041 10.5263 32.0001C10.5263 31.2961 11.0947 30.7201 11.7895 30.7201H23.1579C23.8526 30.7201 24.4211 30.1441 24.4211 29.4401C24.4211 28.736 24.9895 28.16 25.6842 28.16H38.3158C39.0105 28.16 39.5789 28.736 39.5789 29.4401C39.5789 30.1441 40.1474 30.7201 40.8421 30.7201H52.2105C52.9053 30.7201 53.4737 31.2961 53.4737 32.0001C53.4737 32.7041 52.9053 33.2801 52.2105 33.2801H40.8421Z" fill="#ECE9FF"/>
</g>
<defs>
<clipPath id="clip0_665_3608">
<rect width="48" height="38.4" fill="white" transform="translate(8 12.8)"/>
</clipPath>
</defs>
</svg>
