<svg width="64" height="64" viewBox="0 0 64 64" fill="none" xmlns="http://www.w3.org/2000/svg">
<rect width="64" height="64" fill="none"/>
<g clip-path="url(#clip0_326_1512)">
<mask id="path-3-inside-1_326_1512" fill="white">
<path fill-rule="evenodd" clip-rule="evenodd" d="M14 22C14 20.3431 15.3431 19 17 19H26C27.6569 19 29 20.3431 29 22V22C29 23.6569 27.6569 25 26 25H17C15.3431 25 14 23.6569 14 22V22ZM12.1875 30.2344C12.1875 28.1029 13.9154 26.375 16.0469 26.375H28.1406C30.2721 26.375 32 28.1029 32 30.2344V30.2344C32 32.3658 30.2721 34.0938 28.1406 34.0938H16.0469C13.9154 34.0938 12.1875 32.3658 12.1875 30.2344V30.2344ZM24 36C24 35.4477 23.5523 35 23 35H19C17.8954 35 17 35.8954 17 37V37V37.5C17 38.3284 17.6716 39 18.5 39H19C19.5523 39 20 38.5523 20 38V38C20 37.4477 20.4477 37 21 37H23C23.5523 37 24 36.5523 24 36V36ZM36 33C36 32.4477 36.4477 32 37 32H43C43.5523 32 44 32.4477 44 33V33C44 33.5523 43.5523 34 43 34H42C41.4477 34 41 34.4477 41 35V35C41 35.5523 40.5523 36 40 36H34C33.4477 36 33 35.5523 33 35V35C33 34.4477 33.4477 34 34 34H35C35.5523 34 36 33.5523 36 33V33ZM55 24C55 22.3431 53.6569 21 52 21H38C36.3431 21 35 22.3431 35 24V24C35 25.6569 36.3431 27 38 27H39C40.1046 27 41 27.8954 41 29V29C41 30.1046 41.8954 31 43 31H58C59.1046 31 60 30.1046 60 29V29C60 27.8954 59.1046 27 58 27H57.5C56.1193 27 55 25.8807 55 24.5V24ZM29.8438 48.625C29.8438 47.5549 30.7112 46.6875 31.7812 46.6875H47.7187C48.7888 46.6875 49.6562 47.5549 49.6562 48.625V48.625C49.6562 49.6951 48.7888 50.5625 47.7188 50.5625H31.7813C30.7112 50.5625 29.8438 49.6951 29.8438 48.625V48.625ZM25 40C25 39.4477 25.4477 39 26 39H30C30.5523 39 31 39.4477 31 40V40C31 40.5523 30.5523 41 30 41H29C28.4477 41 28 41.4477 28 42V42C28 42.5523 27.5523 43 27 43H23C22.4477 43 22 42.5523 22 42V42C22 41.4477 22.4477 41 23 41H24C24.5523 41 25 40.5523 25 40V40ZM40 38.5C40 37.6716 40.6716 37 41.5 37H49C50.1046 37 51 37.8954 51 39V39C51 40.1046 50.1046 41 49 41H47.5C46.1193 41 45 42.1193 45 43.5V43.5C45 44.8807 43.8807 46 42.5 46H38C36.3431 46 35 44.6569 35 43V42.5C35 41.1193 36.1193 40 37.5 40H38.5C39.3284 40 40 39.3284 40 38.5V38.5Z"/>
</mask>
<path d="M26 17H17V21H26V17ZM17 27H26V23H17V27ZM28.1406 24.375H16.0469V28.375H28.1406V24.375ZM16.0469 36.0938H28.1406V32.0938H16.0469V36.0938ZM19 37H23V33H19V37ZM19 37.5V37H15V37.5H19ZM19 37H18.5V41H19V37ZM23 35H21V39H23V35ZM43 30H37V34H43V30ZM42 36H43V32H42V36ZM34 38H40V34H34V38ZM35 32H34V36H35V32ZM38 23H52V19H38V23ZM39 25H38V29H39V25ZM58 29H43V33H58V29ZM57.5 29H58V25H57.5V29ZM53 24V24.5H57V24H53ZM47.7187 44.6875H31.7812V48.6875H47.7187V44.6875ZM31.7813 52.5625H47.7188V48.5625H31.7813V52.5625ZM30 37H26V41H30V37ZM29 43H30V39H29V43ZM23 45H27V41H23V45ZM24 39H23V43H24V39ZM49 35H41.5V39H49V35ZM47.5 43H49V39H47.5V43ZM42.5 44H38V48H42.5V44ZM37 43V42.5H33V43H37ZM37.5 42H38.5V38H37.5V42ZM38.5 42C40.433 42 42 40.433 42 38.5H38C38 38.2239 38.2239 38 38.5 38V42ZM37 42.5C37 42.2239 37.2239 42 37.5 42V38C35.0147 38 33 40.0147 33 42.5H37ZM38 44C37.4477 44 37 43.5523 37 43H33C33 45.7614 35.2386 48 38 48V44ZM47.5 39C45.0147 39 43 41.0147 43 43.5H47C47 43.2239 47.2239 43 47.5 43V39ZM49 39H49V43C51.2091 43 53 41.2091 53 39H49ZM41.5 35C39.567 35 38 36.567 38 38.5H42C42 38.7761 41.7761 39 41.5 39V35ZM49 39H49H53C53 36.7909 51.2091 35 49 35V39ZM24 43C25.6569 43 27 41.6569 27 40H23C23 39.4477 23.4477 39 24 39V43ZM24 42C24 42.5523 23.5523 43 23 43V39C21.3431 39 20 40.3431 20 42H24ZM23 41C23.5523 41 24 41.4477 24 42H20C20 43.6569 21.3431 45 23 45V41ZM26 42C26 41.4477 26.4477 41 27 41V45C28.6569 45 30 43.6569 30 42H26ZM29 39C27.3431 39 26 40.3431 26 42H30C30 42.5523 29.5523 43 29 43V39ZM29 40C29 39.4477 29.4477 39 30 39V43C31.6569 43 33 41.6569 33 40H29ZM26 37C24.3431 37 23 38.3431 23 40H27C27 40.5523 26.5523 41 26 41V37ZM30 41C29.4477 41 29 40.5523 29 40H33C33 38.3431 31.6569 37 30 37V41ZM31.7813 48.5625C31.7862 48.5625 31.7959 48.5639 31.8062 48.5682C31.8151 48.572 31.8212 48.5766 31.8254 48.5808C31.8296 48.585 31.8342 48.5911 31.838 48.6001C31.8424 48.6103 31.8438 48.6201 31.8438 48.625H27.8438C27.8438 50.7996 29.6066 52.5625 31.7813 52.5625V48.5625ZM47.6562 48.625C47.6562 48.6201 47.6576 48.6103 47.662 48.6001C47.6658 48.5911 47.6704 48.585 47.6746 48.5808C47.6788 48.5766 47.6849 48.572 47.6938 48.5682C47.7041 48.5639 47.7138 48.5625 47.7188 48.5625V52.5625C49.8934 52.5625 51.6562 50.7996 51.6562 48.625H47.6562ZM31.7812 44.6875C29.6066 44.6875 27.8438 46.4504 27.8438 48.625H31.8438C31.8438 48.6299 31.8424 48.6397 31.838 48.6499C31.8342 48.6589 31.8296 48.665 31.8254 48.6692C31.8212 48.6734 31.8151 48.678 31.8062 48.6818C31.7959 48.6861 31.7862 48.6875 31.7812 48.6875V44.6875ZM47.7187 48.6875C47.7138 48.6875 47.7041 48.6861 47.6938 48.6818C47.6849 48.678 47.6788 48.6734 47.6746 48.6692C47.6704 48.665 47.6658 48.6589 47.662 48.6499C47.6576 48.6397 47.6562 48.6299 47.6562 48.625H51.6562C51.6562 46.4504 49.8934 44.6875 47.7187 44.6875V48.6875ZM57.5 25C57.2239 25 57 24.7761 57 24.5H53C53 26.9853 55.0147 29 57.5 29V25ZM62 29C62 26.7909 60.2091 25 58 25V29H58H62ZM58 33C60.2091 33 62 31.2091 62 29H58H58V33ZM39 29C39 31.2091 40.7909 33 43 33V29H43H39ZM39 29H39H43C43 26.7909 41.2091 25 39 25V29ZM33 24C33 26.7614 35.2386 29 38 29V25C37.4477 25 37 24.5523 37 24H33ZM52 23C52.5523 23 53 23.4477 53 24H57C57 21.2386 54.7614 19 52 19V23ZM35 36C36.6569 36 38 34.6569 38 33H34C34 32.4477 34.4477 32 35 32V36ZM35 35C35 35.5523 34.5523 36 34 36V32C32.3431 32 31 33.3431 31 35H35ZM34 34C34.5523 34 35 34.4477 35 35H31C31 36.6569 32.3431 38 34 38V34ZM39 35C39 34.4477 39.4477 34 40 34V38C41.6569 38 43 36.6569 43 35H39ZM42 32C40.3431 32 39 33.3431 39 35H43C43 35.5523 42.5523 36 42 36V32ZM42 33C42 32.4477 42.4477 32 43 32V36C44.6569 36 46 34.6569 46 33H42ZM37 30C35.3431 30 34 31.3431 34 33H38C38 33.5523 37.5523 34 37 34V30ZM43 34C42.4477 34 42 33.5523 42 33H46C46 31.3431 44.6569 30 43 30V34ZM23 39C24.6569 39 26 37.6569 26 36H22C22 35.4477 22.4477 35 23 35V39ZM22 38C22 38.5523 21.5523 39 21 39V35C19.3431 35 18 36.3431 18 38H22ZM19 41C20.6569 41 22 39.6569 22 38H18C18 37.4477 18.4477 37 19 37V41ZM23 37C22.4477 37 22 36.5523 22 36H26C26 34.3431 24.6569 33 23 33V37ZM19 33C16.7909 33 15 34.7909 15 37H19H19V33ZM16.0469 32.0938C15.02 32.0938 14.1875 31.2613 14.1875 30.2344H10.1875C10.1875 33.4704 12.8108 36.0938 16.0469 36.0938V32.0938ZM30 30.2344C30 31.2613 29.1675 32.0938 28.1406 32.0938V36.0938C31.3767 36.0938 34 33.4704 34 30.2344H30ZM16.0469 24.375C12.8108 24.375 10.1875 26.9983 10.1875 30.2344H14.1875C14.1875 29.2075 15.02 28.375 16.0469 28.375V24.375ZM28.1406 28.375C29.1675 28.375 30 29.2075 30 30.2344H34C34 26.9983 31.3767 24.375 28.1406 24.375V28.375ZM17 23C16.4477 23 16 22.5523 16 22H12C12 24.7614 14.2386 27 17 27V23ZM27 22C27 22.5523 26.5523 23 26 23V27C28.7614 27 31 24.7614 31 22H27ZM17 17C14.2386 17 12 19.2386 12 22H16C16 21.4477 16.4477 21 17 21V17ZM15 37.5C15 39.433 16.567 41 18.5 41V37C18.7761 37 19 37.2239 19 37.5H15ZM38 19C35.2386 19 33 21.2386 33 24H37C37 23.4477 37.4477 23 38 23V19ZM43 43.5C43 43.7761 42.7761 44 42.5 44V48C44.9853 48 47 45.9853 47 43.5H43ZM26 21C26.5523 21 27 21.4477 27 22H31C31 19.2386 28.7614 17 26 17V21Z" fill="#ECE9FF" mask="url(#path-3-inside-1_326_1512)"/>
</g>
<rect x="17" y="17" width="30" height="30" rx="15" stroke="#ECE9FF" stroke-width="2"/>
<defs>
<clipPath id="clip0_326_1512">
<rect x="16" y="16" width="32" height="32" rx="16" fill="white"/>
</clipPath>
</defs>
</svg>
