<svg width="64" height="64" viewBox="0 0 64 64" fill="none" xmlns="http://www.w3.org/2000/svg">
<rect width="64" height="64" fill="none"/>
<path d="M38.4327 21V21.993C38.4327 23.0533 38.6763 24.0968 39.1309 25.0898C39.3907 25.6452 39.7154 26.1669 40.1213 26.655L34.4712 27.7658V27.7321C34.3575 26.3015 33.2048 25.2076 31.8247 25.2076C30.4447 25.2076 29.3082 26.2847 29.1783 27.6985L29.0321 29.23L24.5348 30.8457C24.5673 30.7111 24.5673 30.5764 24.5673 30.4418V29.4488H7V30.4418C7 31.5021 7.2273 32.5456 7.69814 33.5386C8.13651 34.4979 8.80219 35.3731 9.63022 36.1136C10.442 36.8373 11.3999 37.4095 12.4715 37.7966C13.5268 38.1837 14.6471 38.3857 15.7836 38.3857H15.9622C17.0338 38.3857 18.0891 38.1669 19.0958 37.7966C19.1445 37.7798 19.1769 37.763 19.2256 37.7461L28.3989 35.9453L28.1392 38.6213C28.0905 39.1431 27.6683 39.5302 27.1812 39.5302H26.9215C25.4765 39.5302 24.2913 40.7588 24.2913 42.2567V42.3576C24.2913 43.805 25.4278 45 26.8403 45H36.7442C38.1892 45 39.3744 43.7714 39.3744 42.2567C39.3744 40.7419 38.1892 39.5302 36.7442 39.5302H36.4032C35.8512 39.5302 35.3966 39.0926 35.3479 38.5203L35.007 34.3296L47.119 29.9369H47.2164C48.3529 29.9369 49.4732 29.7349 50.5285 29.3478C51.6001 28.9607 52.558 28.3885 53.3698 27.6648C54.214 26.9243 54.8635 26.0491 55.3181 25.0898C55.7727 24.0968 56 23.0533 56 21.993V21H38.4327ZM53.5808 24.2146C53.2399 24.9383 52.7528 25.5947 52.1359 26.1501C51.4864 26.7223 50.7396 27.1599 49.8953 27.4797C49.668 27.5638 49.4407 27.6311 49.2134 27.6985C48.9049 27.7658 48.5802 27.8331 48.2555 27.8668C48.2392 27.8836 48.223 27.8836 48.223 27.8836C47.9145 27.9341 47.606 27.9509 47.2975 27.9509C47.119 27.9509 46.9566 27.9509 46.7942 27.9341C46.2584 27.9004 45.7389 27.8163 45.2194 27.6816H45.2031C44.992 27.6143 44.7647 27.547 44.5537 27.4797C44.1965 27.345 43.8555 27.1935 43.5308 27.0084C43.1249 26.7896 42.7353 26.5203 42.3943 26.2174C42.3618 26.2174 42.3456 26.1669 42.3131 26.1501C41.6799 25.5947 41.1928 24.9383 40.8519 24.2146C40.6733 23.8107 40.5272 23.4067 40.446 22.986H53.9867C53.9056 23.4067 53.7757 23.8107 53.5808 24.2146V24.2146ZM36.4032 41.5161H36.7442C37.1339 41.5161 37.4586 41.8527 37.4586 42.2567C37.4586 42.6606 37.1339 43.014 36.7442 43.014H26.8403C26.4993 43.014 26.2071 42.7111 26.2071 42.3576V42.2567C26.2071 41.8527 26.5318 41.5161 26.9215 41.5161H27.1812C28.6587 41.5161 29.9089 40.3548 30.055 38.8233L30.3635 35.5582L30.4609 34.5147L30.5583 33.4881L30.8181 30.6774L30.883 29.9705L30.9155 29.6003L31.0129 28.5063L31.0779 27.8836C31.1266 27.4965 31.4351 27.1935 31.8247 27.1935C32.2144 27.1935 32.5229 27.4965 32.5553 27.9004V28.136L32.6528 29.129L32.7339 30.122L32.9775 33.0168L33.0586 34.0098L33.0911 34.4811L33.1236 34.9187L33.4321 38.6886C33.562 40.2875 34.8446 41.5161 36.4032 41.5161V41.5161ZM13.1047 35.9285C12.2604 35.6087 11.5136 35.1711 10.8804 34.5989C10.2472 34.0435 9.76011 33.3871 9.41915 32.6634C9.24056 32.2595 9.09443 31.8555 9.01325 31.4348H22.554C22.554 31.4348 22.5378 31.5358 22.5215 31.5863C22.4404 31.9565 22.3105 32.31 22.1481 32.6634C22.1319 32.7139 22.0994 32.7644 22.0669 32.798C21.8234 33.3198 21.4987 33.791 21.0928 34.2118C20.9629 34.3464 20.833 34.4811 20.6869 34.5989C20.1349 35.1038 19.4854 35.4909 18.771 35.7938C18.6736 35.8443 18.56 35.8948 18.4626 35.9285C18.1054 36.0463 17.7482 36.1641 17.3748 36.2314C17.0663 36.2987 16.774 36.3492 16.4655 36.3661H16.4168C16.0921 36.3997 15.7512 36.3997 15.4264 36.3829C14.6309 36.3492 13.8353 36.1978 13.1047 35.9285V35.9285ZM23.8854 33.5386C23.9503 33.4039 23.999 33.2693 24.0315 33.1346L28.8211 31.4011L28.5938 33.8752L23.0086 34.9691C23.3496 34.5316 23.6418 34.0435 23.8854 33.5386ZM34.6335 29.7518L41.9397 28.3212C42.4105 28.6578 42.8976 28.9271 43.4334 29.1459L34.8446 32.2763L34.6335 29.7518V29.7518Z" fill="#ECE9FF"/>
</svg>
