<svg width="64" height="64" viewBox="0 0 64 64" fill="none" xmlns="http://www.w3.org/2000/svg">
<rect width="64" height="64" fill="none"/>
<path d="M42.75 39C42.375 38.375 41.8333 38.125 41.125 38.25C38.3333 38.7083 35.8333 38.0625 33.625 36.3125C31.4583 34.4375 30.3542 32.0625 30.3125 29.1875C30.3125 27.5208 30.7292 25.9792 31.5625 24.5625C32.3542 23.1875 33.4583 22.0833 34.875 21.25C35.5 20.8333 35.7708 20.2708 35.6875 19.5625C35.5208 18.8542 35.0833 18.4167 34.375 18.25C33.5417 18.0833 32.7083 18 31.875 18C29.2917 18.0417 26.9583 18.6875 24.875 19.9375C22.7917 21.1875 21.125 22.8542 19.875 24.9375C18.6667 27.0625 18.0417 29.4167 18 32C18.0417 34.5833 18.6667 36.9375 19.875 39.0625C21.125 41.1458 22.7917 42.8125 24.875 44.0625C26.9583 45.3125 29.2917 45.9583 31.875 46C34 46 35.9792 45.5417 37.8125 44.625C39.6875 43.75 41.2917 42.4792 42.625 40.8125C43.0833 40.2292 43.125 39.625 42.75 39ZM31.875 44C28.5 43.9167 25.7083 42.75 23.5 40.5C21.25 38.2083 20.0833 35.375 20 32C20.0833 28.625 21.25 25.7917 23.5 23.5C25.7083 21.25 28.5 20.0833 31.875 20C32.2083 20 32.5833 20.0208 33 20.0625C31.5417 21.1458 30.3958 22.4792 29.5625 24.0625C28.7292 25.6458 28.3125 27.3542 28.3125 29.1875C28.3125 30.8958 28.6667 32.5 29.375 34C30.0833 35.5 31.0833 36.7917 32.375 37.875C34.75 39.75 37.4167 40.5625 40.375 40.3125C38.0417 42.7292 35.2083 43.9583 31.875 44Z" fill="#ECE9FF"/>
</svg>
