<?xml version="1.0" encoding="UTF-8"?>
<svg width="700pt" height="700pt" version="1.1" viewBox="0 0 700 700" xmlns="http://www.w3.org/2000/svg">
 <g>
  <path d="m276.85 396.02-100.1-28.523 10.676-17.5 78.227-6.6484h-0.003906c5.5469-0.44531 10.547-3.5 13.477-8.2266l64.227-103.43c2.3945-3.9492 3.1328-8.6836 2.0508-13.176-1.082-4.4922-3.8945-8.375-7.8281-10.797-3.9258-2.4141-8.6484-3.1797-13.137-2.1289-4.4922 1.0469-8.3828 3.8242-10.836 7.7266l-59.676 95.898-78.926 6.8281c-5.4805 0.49609-10.406 3.543-13.301 8.2227l-26.773 44.277c-2.8906 4.6094-3.4727 10.301-1.5742 15.398 1.9414 5.1875 6.2266 9.1445 11.547 10.676l122.5 35c1.5703 0.16797 3.1562 0.16797 4.7266 0 6.2539 0.875 12.496-1.6523 16.379-6.6289 3.8867-4.9766 4.8203-11.648 2.4531-17.5-2.3711-5.8516-7.6797-9.9961-13.934-10.871z"/>
  <path d="m575.4 337.75-82.602-147.88 27.477-44.102c1.9883-5.1953 1.3867-11.023-1.6211-15.707-3.0078-4.6797-8.0586-7.6523-13.609-8.0039-5.5508-0.35547-10.941 1.9531-14.52 6.2109l-32.898 52.5c-3.125 5.418-3.125 12.086 0 17.5l82.602 147.88-18.551 29.75-90.477-108.68v0.003906c-3.5898-4.3398-9.0469-6.6875-14.668-6.3047-5.6172 0.38281-10.711 3.4453-13.68 8.2266l-64.227 103.43c-2.8906 4.6836-3.4062 10.453-1.3984 15.574l28.699 72.977-10.676 17.5-31.5-35c-2.9961-3.7188-7.3789-6.0508-12.133-6.457-4.7578-0.41016-9.4727 1.1445-13.059 4.2969-3.582 3.1523-5.7227 7.6328-5.9219 12.402-0.19922 4.7695 1.5547 9.4141 4.8633 12.859l47.074 52.5c3.3398 3.5977 8.0391 5.6328 12.949 5.5977h1.5781c5.4766-0.49609 10.406-3.543 13.297-8.2227l27.477-44.102c2.8906-4.6836 3.4062-10.453 1.3984-15.574l-28.523-73.852 47.25-75.25 90.477 108.68c3.5898 4.3398 9.0469 6.6836 14.668 6.3047 5.6172-0.38281 10.711-3.4453 13.68-8.2305l36.75-59.148c1.543-2.6992 2.3398-5.7539 2.3086-8.8633-0.03125-3.1055-0.88672-6.1484-2.4844-8.8125z"/>
  <path d="m163.27 201.07 108.33 26.426c1.3359 0.17188 2.6875 0.17188 4.0234 0 6.2539 0.78125 12.445-1.832 16.25-6.8555 3.8008-5.0234 4.6367-11.695 2.1875-17.5-2.4492-5.8047-7.8086-9.8633-14.062-10.645l-85.051-19.949 18.551-29.574 169.05 8.5742c3.1211 0.16016 6.2266-0.51953 8.9961-1.9648 2.7695-1.4453 5.1016-3.6094 6.7539-6.2617l32.898-52.5c5.9375-9.457 15.375-16.188 26.25-18.723l5.4258-2.1016c6.7773-1.5742 13.898-0.39453 19.805 3.2812s10.113 9.543 11.695 16.32c1.4375 6.0938 6.0195 10.961 12.016 12.762 6 1.8047 12.504 0.26953 17.062-4.0234 4.5625-4.293 6.4844-10.695 5.0469-16.789-3.9023-15.652-13.785-29.145-27.527-37.59-13.742-8.4414-30.25-11.156-45.973-7.5625l-5.4258 1.2266c-20.117 4.6719-37.48 17.301-48.125 35l-27.473 43.398-169.05-8.5742c-3.1211-0.16016-6.2266 0.51953-8.9961 1.9648-2.7695 1.4453-5.1016 3.6094-6.7539 6.2617l-36.75 59.324c-2.9492 4.8008-3.4062 10.73-1.2266 15.926 2.1875 5.1094 6.668 8.875 12.074 10.148z"/>
 </g>
</svg>
