<svg width="64" height="64" viewBox="0 0 64 64" fill="none" xmlns="http://www.w3.org/2000/svg">
<rect width="64" height="64" fill="none"/>
<path d="M31 23C31.0417 22.375 31.375 22.0417 32 22C32.625 22.0417 32.9583 22.375 33 23V31.4375L38.5625 35.1875C39.0208 35.5625 39.1042 36.0208 38.8125 36.5625C38.4375 37.0208 37.9792 37.1042 37.4375 36.8125L31.4375 32.8125C31.1458 32.6042 30.9792 32.3333 30.9375 32L31 23ZM32 16C35 16.0417 37.6875 16.7708 40.0625 18.1875C42.4792 19.6042 44.3958 21.5208 45.8125 23.9375C47.2292 26.3125 47.9583 29 48 32C47.9583 35 47.2292 37.6875 45.8125 40.0625C44.3958 42.4792 42.4792 44.3958 40.0625 45.8125C37.6875 47.2292 35 47.9583 32 48C29 47.9583 26.3125 47.2292 23.9375 45.8125C21.5208 44.3958 19.6042 42.4792 18.1875 40.0625C16.7708 37.6875 16.0417 35 16 32C16.0417 29 16.7708 26.3125 18.1875 23.9375C19.6042 21.5208 21.5208 19.6042 23.9375 18.1875C26.3125 16.7708 29 16.0417 32 16ZM18 32C18.0417 34.625 18.6875 36.9792 19.9375 39.0625C21.1458 41.1875 22.8125 42.8542 24.9375 44.0625C27.0208 45.3125 29.375 45.9583 32 46C34.625 45.9583 36.9792 45.3125 39.0625 44.0625C41.1875 42.8542 42.8542 41.1875 44.0625 39.0625C45.3125 36.9792 45.9583 34.625 46 32C45.9583 29.375 45.3125 27.0208 44.0625 24.9375C42.8542 22.8125 41.1875 21.1458 39.0625 19.9375C36.9792 18.6875 34.625 18.0417 32 18C29.375 18.0417 27.0208 18.6875 24.9375 19.9375C22.8125 21.1458 21.1458 22.8125 19.9375 24.9375C18.6875 27.0208 18.0417 29.375 18 32Z" fill="#ECE9FF"/>
</svg>
