<?xml version="1.0" encoding="UTF-8"?>
<svg width="700pt" height="700pt" version="1.1" viewBox="0 0 700 700" xmlns="http://www.w3.org/2000/svg" xmlns:xlink="http://www.w3.org/1999/xlink">
 <defs>
  <symbol id="t" overflow="visible">
   <path d="m3.6562-0.21875c-0.1875 0.09375-0.38672 0.16797-0.59375 0.21875-0.19922 0.050781-0.40625 0.078125-0.625 0.078125-0.66797 0-1.1992-0.17969-1.5938-0.54688-0.38672-0.375-0.57812-0.87891-0.57812-1.5156 0-0.64453 0.19141-1.1484 0.57812-1.5156 0.39453-0.375 0.92578-0.5625 1.5938-0.5625 0.21875 0 0.42578 0.027344 0.625 0.078125 0.20703 0.054687 0.40625 0.125 0.59375 0.21875v0.82812c-0.1875-0.125-0.375-0.21875-0.5625-0.28125-0.17969-0.0625-0.37109-0.09375-0.57812-0.09375-0.36719 0-0.65625 0.12109-0.875 0.35938-0.21094 0.23047-0.3125 0.55469-0.3125 0.96875 0 0.40625 0.10156 0.73047 0.3125 0.96875 0.21875 0.23047 0.50781 0.34375 0.875 0.34375 0.20703 0 0.39844-0.023437 0.57812-0.078125 0.1875-0.0625 0.375-0.16016 0.5625-0.29688z"/>
  </symbol>
  <symbol id="c" overflow="visible">
   <path d="m2.6875-2.1719c-0.085938-0.039063-0.16797-0.070313-0.25-0.09375-0.085938-0.019531-0.16797-0.03125-0.25-0.03125-0.25 0-0.44531 0.085937-0.57812 0.25-0.125 0.15625-0.1875 0.38281-0.1875 0.67188v1.375h-0.96875v-2.9844h0.96875v0.48438c0.11328-0.19531 0.25-0.33594 0.40625-0.42188 0.16406-0.09375 0.35938-0.14062 0.57812-0.14062h0.10938c0.039063 0 0.09375 0.007812 0.15625 0.015625z"/>
  </symbol>
  <symbol id="b" overflow="visible">
   <path d="m3.4375-1.5v0.26562h-2.2344c0.03125 0.23047 0.11328 0.40234 0.25 0.51562 0.13281 0.10547 0.32812 0.15625 0.57812 0.15625 0.20703 0 0.41406-0.023438 0.625-0.078125 0.20703-0.0625 0.42188-0.15625 0.64062-0.28125v0.73438c-0.21875 0.09375-0.44531 0.16406-0.67188 0.20312-0.23047 0.039062-0.45312 0.0625-0.67188 0.0625-0.54297 0-0.96484-0.13281-1.2656-0.40625-0.30469-0.28125-0.45312-0.67188-0.45312-1.1719 0-0.47656 0.14453-0.85938 0.4375-1.1406 0.30078-0.28125 0.70703-0.42188 1.2188-0.42188 0.46875 0 0.84375 0.14062 1.125 0.42188s0.42188 0.66406 0.42188 1.1406zm-0.96875-0.32812c0-0.17578-0.058594-0.31641-0.17188-0.42188-0.10547-0.11328-0.24219-0.17188-0.40625-0.17188-0.1875 0-0.33984 0.054687-0.45312 0.15625-0.11719 0.10547-0.1875 0.25-0.21875 0.4375z"/>
  </symbol>
  <symbol id="d" overflow="visible">
   <path d="m1.7969-1.3438c-0.19922 0-0.35156 0.039062-0.45312 0.10938-0.09375 0.0625-0.14062 0.16406-0.14062 0.29688 0 0.11719 0.035156 0.21094 0.10938 0.28125 0.082031 0.0625 0.19531 0.09375 0.34375 0.09375 0.17578 0 0.32812-0.0625 0.45312-0.1875s0.1875-0.28516 0.1875-0.48438v-0.10938zm1.4688-0.35938v1.7031h-0.96875v-0.4375c-0.125 0.17969-0.27344 0.30859-0.4375 0.39062-0.15625 0.082031-0.35156 0.125-0.57812 0.125-0.3125 0-0.57031-0.085938-0.76562-0.26562-0.1875-0.1875-0.28125-0.42188-0.28125-0.70312 0-0.35156 0.11719-0.61328 0.35938-0.78125 0.23828-0.16406 0.61719-0.25 1.1406-0.25h0.5625v-0.0625c0-0.15625-0.0625-0.26562-0.1875-0.32812-0.11719-0.070312-0.29688-0.10938-0.54688-0.10938-0.21094 0-0.40234 0.023437-0.57812 0.0625-0.17969 0.042969-0.33984 0.10156-0.48438 0.17188v-0.71875c0.19531-0.050781 0.39844-0.085938 0.60938-0.10938 0.20703-0.03125 0.41406-0.046875 0.625-0.046875 0.53906 0 0.92969 0.10938 1.1719 0.32812 0.23828 0.21094 0.35938 0.55469 0.35938 1.0312z"/>
  </symbol>
  <symbol id="a" overflow="visible">
   <path d="m1.5-3.8438v0.85938h0.98438v0.67188h-0.98438v1.2812c0 0.13672 0.023438 0.23047 0.078125 0.28125 0.0625 0.042969 0.17578 0.0625 0.34375 0.0625h0.48438v0.6875h-0.8125c-0.38672 0-0.65625-0.078125-0.8125-0.23438s-0.23438-0.42188-0.23438-0.79688v-1.2812h-0.46875v-0.67188h0.46875v-0.85938z"/>
  </symbol>
  <symbol id="i" overflow="visible">
   <path d="m2.5-2.5469v-1.6094h0.95312v4.1562h-0.95312v-0.4375c-0.13672 0.17969-0.28125 0.30859-0.4375 0.39062-0.15625 0.082031-0.33984 0.125-0.54688 0.125-0.375 0-0.68359-0.14453-0.92188-0.4375-0.23047-0.28906-0.34375-0.67188-0.34375-1.1406 0-0.45703 0.11328-0.83203 0.34375-1.125 0.23828-0.28906 0.54688-0.4375 0.92188-0.4375 0.19531 0 0.375 0.042969 0.53125 0.125 0.16406 0.085938 0.31641 0.21484 0.45312 0.39062zm-0.64062 1.9375c0.20703 0 0.36328-0.070313 0.46875-0.21875 0.11328-0.15625 0.17188-0.37891 0.17188-0.67188 0-0.28125-0.058594-0.49219-0.17188-0.64062-0.10547-0.15625-0.26172-0.23438-0.46875-0.23438-0.19922 0-0.35547 0.078125-0.46875 0.23438-0.10547 0.14844-0.15625 0.35938-0.15625 0.64062 0 0.29297 0.050781 0.51562 0.15625 0.67188 0.11328 0.14844 0.26953 0.21875 0.46875 0.21875z"/>
  </symbol>
  <symbol id="h" overflow="visible">
   <path d="m2.0469-0.60938c0.20703 0 0.36328-0.070313 0.46875-0.21875 0.11328-0.15625 0.17188-0.37891 0.17188-0.67188 0-0.28125-0.058594-0.49219-0.17188-0.64062-0.10547-0.15625-0.26172-0.23438-0.46875-0.23438-0.19922 0-0.35547 0.078125-0.46875 0.23438-0.10547 0.14844-0.15625 0.35938-0.15625 0.64062 0 0.29297 0.050781 0.51562 0.15625 0.67188 0.11328 0.14844 0.26953 0.21875 0.46875 0.21875zm-0.625-1.9375c0.125-0.17578 0.26562-0.30469 0.42188-0.39062 0.16406-0.082031 0.35156-0.125 0.5625-0.125 0.36328 0 0.66406 0.14844 0.90625 0.4375 0.23828 0.29297 0.35938 0.66797 0.35938 1.125 0 0.46875-0.12109 0.85156-0.35938 1.1406-0.24219 0.29297-0.54297 0.4375-0.90625 0.4375-0.21094 0-0.39844-0.042969-0.5625-0.125-0.15625-0.082031-0.29688-0.21094-0.42188-0.39062v0.4375h-0.96875v-4.1562h0.96875z"/>
  </symbol>
  <symbol id="g" overflow="visible">
   <path d="m0.0625-2.9844h0.95312l0.8125 2.0156 0.6875-2.0156h0.95312l-1.2656 3.2656c-0.125 0.33203-0.27344 0.56641-0.4375 0.70312-0.16797 0.13281-0.39062 0.20312-0.67188 0.20312h-0.54688v-0.64062h0.29688c0.16406 0 0.28516-0.027344 0.35938-0.078125 0.070313-0.054688 0.12891-0.14062 0.17188-0.26562l0.03125-0.09375z"/>
  </symbol>
  <symbol id="f" overflow="visible">
   <path d="m0.5-3.9844h2.7812v0.78125h-1.75v0.73438h1.6406v0.78125h-1.6406v1.6875h-1.0312z"/>
  </symbol>
  <symbol id="s" overflow="visible">
   <path d="m0.45312-4.1562h0.96875v4.1562h-0.96875z"/>
  </symbol>
  <symbol id="r" overflow="visible">
   <path d="m2.4219-4.1562v0.625h-0.51562c-0.13672 0-0.23438 0.027344-0.29688 0.078125-0.054687 0.054687-0.078125 0.13672-0.078125 0.25v0.21875h0.82812v0.67188h-0.82812v2.3125h-0.95312v-2.3125h-0.46875v-0.67188h0.46875v-0.21875c0-0.32031 0.085937-0.5625 0.26562-0.71875 0.1875-0.15625 0.47266-0.23438 0.85938-0.23438z"/>
  </symbol>
  <symbol id="e" overflow="visible">
   <path d="m1.875-2.375c-0.21094 0-0.37109 0.078125-0.48438 0.23438-0.10547 0.14844-0.15625 0.35938-0.15625 0.64062 0 0.29297 0.050781 0.51562 0.15625 0.67188 0.11328 0.14844 0.27344 0.21875 0.48438 0.21875 0.20703 0 0.36719-0.070313 0.48438-0.21875 0.11328-0.15625 0.17188-0.37891 0.17188-0.67188 0-0.28125-0.058594-0.49219-0.17188-0.64062-0.11719-0.15625-0.27734-0.23438-0.48438-0.23438zm0-0.6875c0.51953 0 0.92188 0.14062 1.2031 0.42188 0.28906 0.27344 0.4375 0.65234 0.4375 1.1406 0 0.5-0.14844 0.89062-0.4375 1.1719-0.28125 0.27344-0.68359 0.40625-1.2031 0.40625-0.51172 0-0.91406-0.13281-1.2031-0.40625-0.29297-0.28125-0.4375-0.67188-0.4375-1.1719 0-0.48828 0.14453-0.86719 0.4375-1.1406 0.28906-0.28125 0.69141-0.42188 1.2031-0.42188z"/>
  </symbol>
  <symbol id="q" overflow="visible">
   <path d="m3.2344-2.5c0.11328-0.17578 0.25391-0.3125 0.42188-0.40625 0.16406-0.10156 0.35156-0.15625 0.5625-0.15625 0.33203 0 0.58594 0.10938 0.76562 0.32812 0.1875 0.21094 0.28125 0.51172 0.28125 0.90625v1.8281h-0.96875v-1.5625c0.007813-0.019531 0.015625-0.039062 0.015625-0.0625v-0.10938c0-0.21875-0.03125-0.375-0.09375-0.46875s-0.16406-0.14062-0.29688-0.14062c-0.1875 0-0.33594 0.078125-0.4375 0.23438-0.09375 0.14844-0.14062 0.35938-0.14062 0.64062v1.4688h-0.96875v-1.5625c0-0.33203-0.03125-0.54688-0.09375-0.64062-0.054688-0.09375-0.15234-0.14062-0.29688-0.14062-0.17969 0-0.32031 0.078125-0.42188 0.23438-0.09375 0.14844-0.14062 0.35938-0.14062 0.64062v1.4688h-0.96875v-2.9844h0.96875v0.4375c0.11328-0.17578 0.24219-0.30469 0.39062-0.39062 0.15625-0.082031 0.32812-0.125 0.51562-0.125 0.20703 0 0.39062 0.054688 0.54688 0.15625 0.15625 0.09375 0.27344 0.23047 0.35938 0.40625z"/>
  </symbol>
  <symbol id="p" overflow="visible">
   <path d="m3.4688-1.8281v1.8281h-0.96875v-1.3906c0-0.25781-0.007812-0.4375-0.015625-0.53125-0.011719-0.10156-0.03125-0.17578-0.0625-0.21875-0.03125-0.0625-0.085937-0.10938-0.15625-0.14062-0.0625-0.039062-0.13281-0.0625-0.20312-0.0625-0.21094 0-0.37109 0.078125-0.48438 0.23438-0.10547 0.15625-0.15625 0.37109-0.15625 0.64062v1.4688h-0.96875v-4.1562h0.96875v1.6094c0.13281-0.17578 0.28516-0.30469 0.45312-0.39062 0.16406-0.082031 0.34375-0.125 0.53125-0.125 0.34375 0 0.60156 0.10938 0.78125 0.32812 0.1875 0.21094 0.28125 0.51172 0.28125 0.90625z"/>
  </symbol>
  <symbol id="o" overflow="visible">
   <path d="m0.5-3.9844h1.1562l1.4375 2.7344v-2.7344h0.98438v3.9844h-1.1562l-1.4375-2.7344v2.7344h-0.98438z"/>
  </symbol>
  <symbol id="n" overflow="visible">
   <path d="m0.42188-1.1719v-1.8125h0.96875v0.29688 0.60938 0.48438c0 0.24219 0.003906 0.41797 0.015625 0.53125 0.007812 0.10547 0.03125 0.17969 0.0625 0.21875 0.039062 0.0625 0.09375 0.11719 0.15625 0.15625 0.0625 0.03125 0.13281 0.046875 0.21875 0.046875 0.19531 0 0.35156-0.078125 0.46875-0.23438 0.11328-0.15625 0.17188-0.36719 0.17188-0.64062v-1.4688h0.95312v2.9844h-0.95312v-0.4375c-0.14844 0.17969-0.30469 0.30859-0.46875 0.39062-0.15625 0.082031-0.33594 0.125-0.53125 0.125-0.34375 0-0.60938-0.10156-0.79688-0.3125-0.17969-0.21875-0.26562-0.53125-0.26562-0.9375z"/>
  </symbol>
  <symbol id="m" overflow="visible">
   <path d="m3.4688-1.8281v1.8281h-0.96875v-1.3906c0-0.25781-0.007812-0.4375-0.015625-0.53125-0.011719-0.10156-0.03125-0.17578-0.0625-0.21875-0.03125-0.0625-0.085937-0.10938-0.15625-0.14062-0.0625-0.039062-0.13281-0.0625-0.20312-0.0625-0.21094 0-0.37109 0.078125-0.48438 0.23438-0.10547 0.15625-0.15625 0.37109-0.15625 0.64062v1.4688h-0.96875v-2.9844h0.96875v0.4375c0.13281-0.17578 0.28516-0.30469 0.45312-0.39062 0.16406-0.082031 0.34375-0.125 0.53125-0.125 0.34375 0 0.60156 0.10938 0.78125 0.32812 0.1875 0.21094 0.28125 0.51172 0.28125 0.90625z"/>
  </symbol>
  <symbol id="l" overflow="visible">
   <path d="m0.5-3.9844h1.7031c0.50781 0 0.89844 0.11719 1.1719 0.34375 0.26953 0.21875 0.40625 0.53906 0.40625 0.95312 0 0.41797-0.13672 0.74219-0.40625 0.96875-0.27344 0.21875-0.66406 0.32812-1.1719 0.32812h-0.67188v1.3906h-1.0312zm1.0312 0.75v1.1094h0.5625c0.19531 0 0.34766-0.046875 0.45312-0.14062 0.11328-0.10156 0.17188-0.24219 0.17188-0.42188 0-0.17578-0.058594-0.3125-0.17188-0.40625-0.10547-0.09375-0.25781-0.14062-0.45312-0.14062z"/>
  </symbol>
  <symbol id="k" overflow="visible">
   <path d="m0.45312-2.9844h0.96875v2.9375c0 0.39453-0.10156 0.69531-0.29688 0.90625-0.1875 0.21875-0.46484 0.32812-0.82812 0.32812h-0.48438v-0.64062h0.17188c0.17578 0 0.29688-0.042969 0.35938-0.125 0.070312-0.074219 0.10938-0.23047 0.10938-0.46875zm0-1.1719h0.96875v0.78125h-0.96875z"/>
  </symbol>
  <symbol id="j" overflow="visible">
   <path d="m2.875-2.8906v0.76562c-0.125-0.082031-0.25781-0.14453-0.39062-0.1875-0.13672-0.039062-0.27344-0.0625-0.40625-0.0625-0.27344 0-0.48047 0.078125-0.625 0.23438-0.14844 0.15625-0.21875 0.37109-0.21875 0.64062 0 0.28125 0.070313 0.5 0.21875 0.65625 0.14453 0.15625 0.35156 0.23438 0.625 0.23438 0.14453 0 0.28516-0.019531 0.42188-0.0625 0.13281-0.039063 0.25781-0.10938 0.375-0.20312v0.78125c-0.14844 0.0625-0.29688 0.10156-0.45312 0.125-0.15625 0.03125-0.3125 0.046875-0.46875 0.046875-0.54297 0-0.96484-0.13281-1.2656-0.40625-0.30469-0.28125-0.45312-0.67188-0.45312-1.1719 0-0.48828 0.14844-0.86719 0.45312-1.1406 0.30078-0.28125 0.72266-0.42188 1.2656-0.42188 0.15625 0 0.3125 0.015625 0.46875 0.046875 0.15625 0.023437 0.30469 0.0625 0.45312 0.125z"/>
  </symbol>
 </defs>
 <g>
  <path d="m257.23 393c-40.508 0-67.852-12.328-76.988-34.715-8.9453-21.914 1.375-49.273 29.059-77.043 25.387-25.465 63.039-49.152 106.01-66.695 41.957-17.125 84.602-26.555 120.09-26.555 40.508 0 67.852 12.328 76.988 34.715 8.9453 21.914-1.375 49.273-29.055 77.043-25.387 25.465-63.039 49.152-106.02 66.695-41.953 17.121-84.602 26.555-120.09 26.555zm178.17-183.14c-32.715 0-72.426 8.8555-111.82 24.934-85.934 35.078-133.84 88.875-123.08 115.22 5.3945 13.219 26.605 21.109 56.738 21.109 32.715 0 72.426-8.8555 111.82-24.934 85.934-35.078 133.84-88.875 123.09-115.21-5.4023-13.223-26.609-21.113-56.742-21.113z"/>
  <path d="m283.62 344.4c-17.484 0-28.414-5.0664-32.492-15.055-11.418-27.977 45.367-59.867 80.723-74.297 28.754-11.738 56.879-18.469 77.164-18.469 17.48 0 28.414 5.0664 32.492 15.055 4.8867 11.969-2.1406 25.672-20.883 40.73-14.914 11.984-36.164 23.902-59.84 33.566-28.758 11.738-56.883 18.469-77.164 18.469zm-11.828-23.539c1.5938 0.70312 5.2344 1.6641 11.824 1.6641 17.297 0 43.055-6.2969 68.895-16.848 45.273-18.48 65.891-38.664 68.32-45.562-1.5938-0.70312-5.2344-1.6641-11.824-1.6641-17.297 0-43.055 6.2969-68.895 16.848-45.27 18.48-65.887 38.664-68.32 45.562z"/>
  <path d="m240.1 440h-0.003906c-62.633 0-106.96-20.602-121.62-56.516-9.4023-23.039-5.832-50.277 10.336-78.77 1.5234-2.6836 4.1133-4.6016 7.125-5.2773 3.0117-0.67578 6.168-0.042968 8.6953 1.7344 3.0117 2.125 7.0156 2.6133 10.441 1.2148 2.707-1.1055 4.8203-3.1953 5.9492-5.8906 1.1328-2.6914 1.1484-5.6641 0.042968-8.3711-0.71875-1.7617-1.8516-3.2578-3.3633-4.4453-2.4023-1.8867-3.9062-4.6914-4.1484-7.7344-0.24219-3.043 0.79687-6.0508 2.8711-8.293 34-36.785 84.559-70.039 142.36-93.629 52.23-21.32 106.83-33.062 153.74-33.062 58.762 0 100.77 17.574 118.27 49.488 1.5273 2.7891 1.7695 6.1055 0.66016 9.0859-1.1133 2.9805-3.4648 5.3281-6.4492 6.4336-0.17578 0.066406-0.34766 0.125-0.52344 0.18359-2.6133 1.125-4.6562 3.1797-5.7617 5.8086-1.1328 2.6914-1.1484 5.668-0.042968 8.3711 1.5586 3.8164 5.0977 6.4023 9.2305 6.75 3.0898 0.25781 5.9258 1.8164 7.8008 4.2891 1.875 2.4688 2.6133 5.6211 2.0273 8.6641-11.398 59.578-85.301 126.65-183.89 166.89-52.227 21.328-106.83 33.07-153.75 33.07zm-96.746-115.81c-6.9102 14.844-11.723 33.652-4.6289 51.031 11.129 27.266 48.078 42.906 101.37 42.906 44.148 0 95.816-11.164 145.49-31.441 85.125-34.746 152.23-91.582 168.23-141.29-6.8555-3.5039-12.359-9.375-15.387-16.793-3.3125-8.1133-3.2656-17.031 0.12891-25.113 1.7266-4.1094 4.2148-7.7539 7.3125-10.777-16.402-19.102-49.621-29.871-93.348-29.871-44.145 0-95.809 11.164-145.48 31.438-51.184 20.895-96.188 49.543-127.88 81.273 0.81641 1.3789 1.5352 2.8203 2.1445 4.3086 3.3125 8.1133 3.2656 17.031-0.12891 25.113s-9.7344 14.355-17.852 17.668c-3.957 1.6172-8.1172 2.4336-12.367 2.4336-2.5859 0.003907-5.1367-0.30078-7.6133-0.89062z"/>
  <path d="m150.98 325.09h-0.003906c-6.8125 0-13.367-2.0859-18.953-6.0273-5.1289-3.6172-9.0938-8.5938-11.457-14.387-3.3125-8.1133-3.2656-17.031 0.12891-25.113 3.3945-8.0781 9.7344-14.355 17.848-17.668 3.9609-1.6172 8.1211-2.4375 12.371-2.4375 7.3203 0 14.531 2.4961 20.305 7.0312 4.4688 3.5078 7.9609 8.1367 10.105 13.383 3.3125 8.1133 3.2656 17.031-0.12891 25.113-3.3945 8.082-9.7344 14.355-17.852 17.668-3.957 1.6172-8.1172 2.4375-12.363 2.4375zm-0.066406-43.754c-1.4023 0-2.7852 0.27344-4.1055 0.8125-2.7031 1.1055-4.8164 3.1953-5.9492 5.8906-1.1328 2.6914-1.1484 5.668-0.042969 8.3711 0.78125 1.918 2.1016 3.5703 3.8125 4.7773 1.8555 1.3086 4.1055 2.0273 6.3477 2.0273 1.3984 0 2.7773-0.27344 4.0977-0.8125 2.707-1.1055 4.8203-3.1953 5.9492-5.8906 1.1328-2.6914 1.1484-5.6641 0.042969-8.3711-0.71875-1.7617-1.8516-3.2578-3.3633-4.4453-1.9336-1.5195-4.3477-2.3594-6.7891-2.3594z"/>
  <path d="m568.86 249.01c-0.92188 0-1.8555-0.039062-2.7734-0.11719-12.375-1.0391-22.973-8.8086-27.656-20.281-3.3125-8.1133-3.2656-17.031 0.12891-25.113 3.3945-8.0781 9.7344-14.355 17.848-17.668 0.36328-0.14844 0.72656-0.27734 1.0938-0.39844l-0.046875 0.015624c3.6523-1.3516 7.4805-2.0352 11.367-2.0352 13.391 0 25.309 8.0078 30.367 20.395 3.3125 8.1133 3.2656 17.031-0.12891 25.113-3.3945 8.0781-9.7344 14.355-17.848 17.668-3.9375 1.6094-8.0898 2.4219-12.352 2.4219zm-4.3711-42.844c-2.6133 1.125-4.6562 3.1797-5.7578 5.8086-1.1328 2.6914-1.1484 5.668-0.042969 8.3711 1.5586 3.8164 5.0977 6.4023 9.2305 6.75 1.7305 0.14453 3.4414-0.11328 5.0312-0.75781 2.7031-1.1055 4.8164-3.1953 5.9492-5.8867 1.1328-2.6914 1.1484-5.668 0.042968-8.3711-1.6836-4.125-5.6523-6.7891-10.113-6.7891-1.293 0-2.5742 0.23047-3.8047 0.6875-0.1875 0.066407-0.36328 0.12891-0.53516 0.1875z"/>
  <path d="m262.42 148.75h-65.625c-18.094 0-32.812-14.719-32.812-32.812h-32.812c-18.094 0-32.812-14.719-32.812-32.812s14.719-32.812 32.812-32.812h87.5c18.094 0 32.812 14.719 32.812 32.812h10.938c18.094 0 32.812 14.719 32.812 32.812s-14.719 32.812-32.812 32.812zm-131.25-76.562c-6.0312 0-10.938 4.9062-10.938 10.938s4.9062 10.938 10.938 10.938h46.699c3.9102 0 7.5234 2.0898 9.4766 5.4766 1.9531 3.3867 1.9492 7.5586-0.011718 10.941-0.98047 1.6914-1.4766 3.5312-1.4766 5.457 0 6.0312 4.9062 10.938 10.938 10.938h65.625c6.0312 0 10.938-4.9062 10.938-10.938s-4.9062-10.938-10.938-10.938h-24.824c-3.9102 0-7.5234-2.0898-9.4766-5.4766-1.9531-3.3867-1.9492-7.5586 0.011718-10.941 0.98047-1.6914 1.4766-3.5312 1.4766-5.457 0-6.0312-4.9062-10.938-10.938-10.938z"/>
  <path d="m530.39 509.69h-109.38c-21.109 0-38.281-17.172-38.281-38.281s17.172-38.281 38.281-38.281h109.38c21.109 0 38.281 17.172 38.281 38.281s-17.172 38.281-38.281 38.281zm-109.38-54.688c-9.0469 0-16.406 7.3594-16.406 16.406s7.3594 16.406 16.406 16.406h109.38c9.0469 0 16.406-7.3594 16.406-16.406s-7.3594-16.406-16.406-16.406z"/>
  <use x="70" y="576.40625" xlink:href="#t"/>
  <use x="74.011719" y="576.40625" xlink:href="#c"/>
  <use x="76.710938" y="576.40625" xlink:href="#b"/>
  <use x="80.417969" y="576.40625" xlink:href="#d"/>
  <use x="84.109375" y="576.40625" xlink:href="#a"/>
  <use x="86.722656" y="576.40625" xlink:href="#b"/>
  <use x="90.433594" y="576.40625" xlink:href="#i"/>
  <use x="96.25" y="576.40625" xlink:href="#h"/>
  <use x="100.167969" y="576.40625" xlink:href="#g"/>
  <use x="105.636719" y="576.40625" xlink:href="#f"/>
  <use x="109.371094" y="576.40625" xlink:href="#s"/>
  <use x="111.246094" y="576.40625" xlink:href="#d"/>
  <use x="114.9375" y="576.40625" xlink:href="#a"/>
  <use x="117.550781" y="576.40625" xlink:href="#d"/>
  <use x="121.238281" y="576.40625" xlink:href="#c"/>
  <use x="123.9375" y="576.40625" xlink:href="#a"/>
  <use x="70" y="581.875" xlink:href="#r"/>
  <use x="72.378906" y="581.875" xlink:href="#c"/>
  <use x="75.078125" y="581.875" xlink:href="#e"/>
  <use x="78.832031" y="581.875" xlink:href="#q"/>
  <use x="86.4375" y="581.875" xlink:href="#a"/>
  <use x="89.050781" y="581.875" xlink:href="#p"/>
  <use x="92.941406" y="581.875" xlink:href="#b"/>
  <use x="98.554688" y="581.875" xlink:href="#o"/>
  <use x="103.132812" y="581.875" xlink:href="#e"/>
  <use x="106.890625" y="581.875" xlink:href="#n"/>
  <use x="110.785156" y="581.875" xlink:href="#m"/>
  <use x="116.582031" y="581.875" xlink:href="#l"/>
  <use x="120.589844" y="581.875" xlink:href="#c"/>
  <use x="123.285156" y="581.875" xlink:href="#e"/>
  <use x="127.042969" y="581.875" xlink:href="#k"/>
  <use x="128.917969" y="581.875" xlink:href="#b"/>
  <use x="132.625" y="581.875" xlink:href="#j"/>
  <use x="135.867188" y="581.875" xlink:href="#a"/>
 </g>
</svg>
