<svg width="64" height="64" viewBox="0 0 64 64" fill="none" xmlns="http://www.w3.org/2000/svg">
<rect width="64" height="64" fill="none"/>
<path d="M43.19 38.18H41.33V28.02C41.33 26.91 40.43 26.02 39.33 26.02H34.53V24.44H37.11C39.44 24.44 41.33 22.55 41.33 20.22C41.33 17.89 39.44 16 37.11 16H27.1C24.77 16 22.88 17.89 22.88 20.22C22.88 22.55 24.77 24.44 27.1 24.44H29.67V26.02H24.88C23.77 26.02 22.88 26.91 22.88 28.02V32.48L19.04 30.82C19.04 30.82 18.98 30.81 18.94 30.8C18.9 30.16 18.65 29.56 18.19 29.11C17.7 28.62 17.04 28.35 16.35 28.35C15.99 28.35 15.7 28.64 15.7 29C15.7 29.36 15.99 29.65 16.35 29.65C16.7 29.65 17.03 29.79 17.27 30.03C17.51 30.27 17.65 30.6 17.65 30.95C17.65 31.3 17.51 31.63 17.27 31.87C17.03 32.11 16.7 32.25 16.35 32.25C15.99 32.25 15.7 32.54 15.7 32.9C15.7 33.26 15.99 33.55 16.35 33.55C17.04 33.55 17.7 33.28 18.19 32.79C18.23 32.75 18.25 32.71 18.29 32.67L22.87 34.65V38.18H20.29C17.37 38.18 15 40.55 15 43.47C15 46.39 17.37 48.76 20.29 48.76H43.19C46.11 48.76 48.49 46.39 48.49 43.47C48.49 40.55 46.11 38.18 43.19 38.18V38.18ZM43.19 46.76H20.3C18.48 46.76 17.01 45.29 17.01 43.47C17.01 41.65 18.48 40.18 20.3 40.18H43.19C45.01 40.18 46.49 41.66 46.49 43.47C46.49 45.28 45.01 46.76 43.19 46.76ZM24.88 34.13L28.57 32.56C29.08 32.34 29.32 31.76 29.1 31.25C28.88 30.74 28.3 30.51 27.79 30.72L24.88 31.96V28.02H39.33V38.18H24.88V34.13ZM24.88 20.22C24.88 19 25.87 18 27.1 18H37.11C38.34 18 39.33 19 39.33 20.22C39.33 21.44 38.34 22.44 37.11 22.44H27.1C25.87 22.44 24.88 21.44 24.88 20.22ZM31.67 24.44H32.53V26.02H31.67V24.44Z" fill="#ECE9FF"/>
</svg>
