<svg width="64" height="64" viewBox="0 0 64 64" fill="none" xmlns="http://www.w3.org/2000/svg">
<rect width="64" height="64" fill="none"/>
<path d="M39.75 23.7501C38.875 22.9584 37.9167 22.8126 36.875 23.3126C35.375 22.4793 33.75 22.0418 32 22.0001C29.6667 22.0418 27.625 22.7501 25.875 24.1251C24.0834 25.5001 22.8959 27.3126 22.3125 29.5626C21.7709 31.8543 21.9584 34.0209 22.875 36.0626C23.75 38.1043 25.2292 39.6876 27.3125 40.8126C29.3959 41.8959 31.5417 42.2501 33.75 41.8751C35.9167 41.4584 37.8125 40.3959 39.4375 38.6876C40.9792 36.9376 41.8334 34.9584 42 32.7501C42.1667 30.5001 41.6042 28.3959 40.3125 26.4376C40.6875 25.4376 40.5 24.5418 39.75 23.7501ZM37.6875 37.6876C36.0625 39.1876 34.1667 39.9376 32 39.9376C29.8334 39.9376 27.9584 39.1876 26.375 37.6876C25.2084 36.4793 24.4584 35.1043 24.125 33.5626C23.8334 32.0209 24 30.4793 24.625 28.9376C25.25 27.4376 26.2292 26.2501 27.5625 25.3751C28.8959 24.4584 30.375 24.0001 32 24.0001C33.25 24.0001 34.4584 24.2918 35.625 24.8751C35.4167 25.7918 35.625 26.5834 36.25 27.2501C37 27.9584 37.8542 28.1668 38.8125 27.8751C39.7709 29.4584 40.1459 31.1459 39.9375 32.9376C39.7292 34.7293 38.9792 36.3126 37.6875 37.6876ZM43.3125 20.6876C41.0209 18.4376 38.375 17.0001 35.375 16.3751C32.375 15.7084 29.3959 15.9168 26.4375 17.0001C25.8125 17.2918 25.6459 17.7709 25.9375 18.4376C26.1875 18.7709 26.4375 18.9376 26.6875 18.9376C26.9375 18.9376 27.0834 18.9168 27.125 18.8751C29.9167 17.8751 32.6875 17.7084 35.4375 18.3751C38.1875 19.0834 40.5625 20.5418 42.5625 22.7501C44.6042 25.1251 45.7292 27.8126 45.9375 30.8126C46.1875 33.8126 45.5209 36.6459 43.9375 39.3126C43.1042 38.9376 42.2917 38.8751 41.5 39.1251C40.6667 39.3751 40 39.8751 39.5 40.6251C39.0834 41.3751 38.9167 42.1668 39 43.0001C39.125 43.8751 39.5209 44.6043 40.1875 45.1876C40.8542 45.7709 41.625 46.0626 42.5 46.0626C43.3334 46.0626 44.1042 45.7709 44.8125 45.1876C45.4792 44.6043 45.8542 43.8751 45.9375 43.0001C46.0625 42.1668 45.8959 41.3751 45.4375 40.6251C47.4375 37.4168 48.2709 34.0001 47.9375 30.3751C47.5625 26.7501 46.0209 23.5209 43.3125 20.6876ZM42.5 43.9376C41.625 43.8543 41.1459 43.3543 41.0625 42.4376C41.1459 41.5209 41.625 41.0209 42.5 40.9376C43.4167 41.0209 43.8959 41.5209 43.9375 42.4376C43.8959 43.3543 43.4167 43.8543 42.5 43.9376ZM37.9375 45.5626C37.6459 45.1459 37.2709 45.0001 36.8125 45.1251C34.6875 45.8751 32.5417 46.1251 30.375 45.8751C28.2084 45.6251 26.1875 44.8959 24.3125 43.6876C22.3125 42.3543 20.7709 40.6668 19.6875 38.6251C18.6042 36.5834 18.0417 34.3751 18 32.0001C18.0417 29.3334 18.75 26.8959 20.125 24.6876C20.9167 25.0209 21.7292 25.0834 22.5625 24.8751C23.3959 24.6251 24.0417 24.1251 24.5 23.3751C25 22.5834 25.1875 21.7709 25.0625 20.9376C24.9375 20.1043 24.5417 19.3959 23.875 18.8126C23.1667 18.2293 22.3959 17.9376 21.5625 17.9376C20.6875 17.9376 19.9167 18.2293 19.25 18.8126C18.5834 19.3959 18.1875 20.1043 18.0625 20.9376C17.9375 21.7709 18.1042 22.5834 18.5625 23.3751C16.5625 26.5418 15.7292 29.9584 16.0625 33.6251C16.4375 37.2501 17.9792 40.4793 20.6875 43.3126C22.9792 45.5209 25.6042 46.9584 28.5625 47.6251C31.5625 48.2918 34.5417 48.0834 37.5 47.0001C37.7084 46.9168 37.8959 46.7501 38.0625 46.5001C38.1875 46.2084 38.1459 45.8959 37.9375 45.5626ZM21.5 20.0001C22.4167 20.0834 22.8959 20.5834 22.9375 21.5001C22.8959 22.3751 22.4167 22.8543 21.5 22.9376C20.625 22.8543 20.1459 22.3543 20.0625 21.4376C20.1459 20.5626 20.625 20.0834 21.5 20.0001ZM32 26.9376C30.5834 26.9793 29.4167 27.4793 28.5 28.4376C27.5417 29.3543 27.0417 30.5209 27 31.9376C27.0417 33.3543 27.5417 34.5418 28.5 35.5001C29.4167 36.4168 30.5834 36.8959 32 36.9376C33.4167 36.8959 34.6042 36.4168 35.5625 35.5001C36.4792 34.5418 36.9584 33.3543 37 31.9376C36.9584 30.5626 36.4792 29.3959 35.5625 28.4376C34.6042 27.4793 33.4167 26.9793 32 26.9376ZM32 34.9376C31.1667 34.9376 30.4792 34.6459 29.9375 34.0626C29.3542 33.4793 29.0625 32.7709 29.0625 31.9376C29.1042 31.1043 29.3959 30.3959 29.9375 29.8126C30.4792 29.2709 31.1667 28.9793 32 28.9376C32.8334 28.9793 33.5417 29.2709 34.125 29.8126C34.6667 30.3959 34.9375 31.1043 34.9375 31.9376C34.9375 32.7709 34.6667 33.4793 34.125 34.0626C33.5417 34.6459 32.8334 34.9376 32 34.9376Z" fill="#ECE9FF"/>
</svg>
