<?xml version="1.0" encoding="UTF-8"?>
<svg width="700pt" height="700pt" version="1.1" viewBox="0 0 700 700" xmlns="http://www.w3.org/2000/svg" xmlns:xlink="http://www.w3.org/1999/xlink">
 <defs>
  <symbol id="k" overflow="visible">
   <path d="m2.1562-0.125c-0.11719 0.054688-0.23438 0.09375-0.35938 0.125-0.11719 0.03125-0.23438 0.046875-0.35938 0.046875-0.39844 0-0.71094-0.10938-0.9375-0.32812-0.23047-0.21875-0.34375-0.51562-0.34375-0.89062s0.11328-0.67188 0.34375-0.89062c0.22656-0.21875 0.53906-0.32812 0.9375-0.32812 0.125 0 0.24219 0.015625 0.35938 0.046875 0.125 0.03125 0.24219 0.074219 0.35938 0.125v0.48438c-0.11719-0.070313-0.23047-0.125-0.34375-0.15625-0.10547-0.039063-0.21484-0.0625-0.32812-0.0625-0.21875 0-0.39062 0.074219-0.51562 0.21875-0.125 0.13672-0.1875 0.32422-0.1875 0.5625 0 0.24219 0.0625 0.43359 0.1875 0.57812 0.125 0.13672 0.29688 0.20312 0.51562 0.20312 0.11328 0 0.22266-0.015625 0.32812-0.046875 0.11328-0.039062 0.22656-0.097656 0.34375-0.17188z"/>
  </symbol>
  <symbol id="d" overflow="visible">
   <path d="m1.5781-1.2812c-0.054687-0.019531-0.10547-0.035156-0.15625-0.046875-0.042969-0.007813-0.089844-0.015625-0.14062-0.015625-0.14844 0-0.26172 0.046875-0.34375 0.14062-0.074219 0.09375-0.10938 0.22656-0.10938 0.39062v0.8125h-0.5625v-1.7656h0.5625v0.29688c0.070313-0.11328 0.15625-0.19531 0.25-0.25 0.09375-0.050781 0.20703-0.078125 0.34375-0.078125h0.0625 0.09375z"/>
  </symbol>
  <symbol id="b" overflow="visible">
   <path d="m2.0312-0.89062v0.17188h-1.3125c0.007812 0.125 0.054688 0.22656 0.14062 0.29688 0.082031 0.0625 0.19531 0.09375 0.34375 0.09375 0.11328 0 0.23438-0.015625 0.35938-0.046875 0.125-0.039062 0.25-0.097656 0.375-0.17188v0.4375c-0.125 0.054688-0.25781 0.089844-0.39062 0.10938-0.13672 0.03125-0.27344 0.046875-0.40625 0.046875-0.3125 0-0.55859-0.078125-0.73438-0.23438-0.17969-0.16406-0.26562-0.39453-0.26562-0.6875 0-0.28906 0.082031-0.51562 0.25-0.67188 0.17578-0.16406 0.41406-0.25 0.71875-0.25 0.28125 0 0.50391 0.085937 0.67188 0.25 0.16406 0.16797 0.25 0.38672 0.25 0.65625zm-0.57812-0.1875c0-0.10156-0.03125-0.1875-0.09375-0.25s-0.14844-0.09375-0.25-0.09375c-0.10547 0-0.19531 0.03125-0.26562 0.09375-0.0625 0.054687-0.10547 0.13672-0.125 0.25z"/>
  </symbol>
  <symbol id="a" overflow="visible">
   <path d="m1.0625-0.79688c-0.11719 0-0.20312 0.023437-0.26562 0.0625-0.0625 0.042969-0.09375 0.10156-0.09375 0.17188 0 0.074219 0.019531 0.13281 0.0625 0.17188 0.050781 0.042969 0.11719 0.0625 0.20312 0.0625 0.11328 0 0.20703-0.035156 0.28125-0.10938 0.070312-0.082031 0.10938-0.17969 0.10938-0.29688v-0.0625zm0.85938-0.20312v1h-0.5625v-0.26562c-0.085937 0.11719-0.17188 0.19922-0.26562 0.25-0.09375 0.039062-0.21094 0.0625-0.34375 0.0625-0.17969 0-0.32422-0.050781-0.4375-0.15625-0.11719-0.11328-0.17188-0.25391-0.17188-0.42188 0-0.20703 0.066406-0.35938 0.20312-0.45312 0.14453-0.09375 0.36719-0.14062 0.67188-0.14062h0.34375v-0.046875c0-0.082031-0.039063-0.14453-0.10938-0.1875-0.074219-0.039063-0.18359-0.0625-0.32812-0.0625-0.125 0-0.24219 0.011719-0.34375 0.03125-0.10547 0.023437-0.19922 0.058594-0.28125 0.10938v-0.4375c0.11328-0.019531 0.23438-0.035156 0.35938-0.046875 0.125-0.019531 0.24219-0.03125 0.35938-0.03125 0.32031 0 0.55078 0.0625 0.6875 0.1875 0.14453 0.125 0.21875 0.32812 0.21875 0.60938z"/>
  </symbol>
  <symbol id="c" overflow="visible">
   <path d="m0.89062-2.2656v0.5h0.57812v0.40625h-0.57812v0.75c0 0.085937 0.015625 0.14062 0.046875 0.17188 0.03125 0.023438 0.09375 0.03125 0.1875 0.03125h0.29688v0.40625h-0.48438c-0.23047 0-0.39062-0.046875-0.48438-0.14062-0.085937-0.09375-0.125-0.25-0.125-0.46875v-0.75h-0.28125v-0.40625h0.28125v-0.5z"/>
  </symbol>
  <symbol id="g" overflow="visible">
   <path d="m1.4688-1.5v-0.95312h0.5625v2.4531h-0.5625v-0.25c-0.074219 0.10547-0.15625 0.18359-0.25 0.23438-0.09375 0.039062-0.20312 0.0625-0.32812 0.0625-0.21875 0-0.40234-0.082031-0.54688-0.25-0.13672-0.17578-0.20312-0.39844-0.20312-0.67188 0-0.26953 0.066406-0.48828 0.20312-0.65625 0.14453-0.17578 0.32812-0.26562 0.54688-0.26562 0.11328 0 0.21875 0.027344 0.3125 0.078125 0.10156 0.042969 0.19141 0.11719 0.26562 0.21875zm-0.375 1.1406c0.125 0 0.21875-0.039063 0.28125-0.125 0.0625-0.09375 0.09375-0.22266 0.09375-0.39062 0-0.16406-0.03125-0.28906-0.09375-0.375-0.0625-0.09375-0.15625-0.14062-0.28125-0.14062-0.11719 0-0.20312 0.046875-0.26562 0.14062-0.0625 0.085938-0.09375 0.21094-0.09375 0.375 0 0.16797 0.03125 0.29688 0.09375 0.39062 0.0625 0.085937 0.14844 0.125 0.26562 0.125z"/>
  </symbol>
  <symbol id="m" overflow="visible">
   <path d="m1.2031-0.35938c0.125 0 0.21875-0.039063 0.28125-0.125 0.0625-0.09375 0.09375-0.22266 0.09375-0.39062 0-0.16406-0.03125-0.28906-0.09375-0.375-0.0625-0.09375-0.15625-0.14062-0.28125-0.14062-0.11719 0-0.21094 0.046875-0.28125 0.14062-0.0625 0.085938-0.09375 0.21094-0.09375 0.375 0 0.16797 0.03125 0.29688 0.09375 0.39062 0.070313 0.085937 0.16406 0.125 0.28125 0.125zm-0.375-1.1406c0.082031-0.10156 0.17188-0.17578 0.26562-0.21875 0.09375-0.050781 0.20312-0.078125 0.32812-0.078125 0.20703 0 0.37891 0.089844 0.51562 0.26562 0.14453 0.16797 0.21875 0.38672 0.21875 0.65625 0 0.27344-0.074219 0.49609-0.21875 0.67188-0.13672 0.16797-0.30859 0.25-0.51562 0.25-0.125 0-0.23438-0.023438-0.32812-0.0625-0.09375-0.050781-0.18359-0.12891-0.26562-0.23438v0.25h-0.5625v-2.4531h0.5625z"/>
  </symbol>
  <symbol id="l" overflow="visible">
   <path d="m0.046875-1.7656h0.5625l0.46875 1.2031 0.40625-1.2031h0.5625l-0.75 1.9375c-0.074219 0.1875-0.16406 0.31641-0.26562 0.39062-0.09375 0.082031-0.22656 0.125-0.39062 0.125h-0.3125v-0.35938h0.17188c0.09375 0 0.16016-0.015625 0.20312-0.046875 0.039063-0.03125 0.078125-0.089844 0.10938-0.17188l0.015625-0.046875z"/>
  </symbol>
  <symbol id="f" overflow="visible">
   <path d="m0.26562-2.4531h0.5625v2.4531h-0.5625z"/>
  </symbol>
  <symbol id="j" overflow="visible">
   <path d="m0.25-0.6875v-1.0781h0.5625v0.1875 0.35938 0.28125c0 0.14844 0.003906 0.25 0.015625 0.3125 0.007813 0.0625 0.019531 0.10547 0.03125 0.125 0.019531 0.042969 0.050781 0.074219 0.09375 0.09375 0.039063 0.023438 0.082031 0.03125 0.125 0.03125 0.11328 0 0.20312-0.046875 0.26562-0.14062 0.070312-0.09375 0.10938-0.21875 0.10938-0.375v-0.875h0.5625v1.7656h-0.5625v-0.25c-0.085937 0.10547-0.17188 0.18359-0.26562 0.23438-0.09375 0.039062-0.19922 0.0625-0.3125 0.0625-0.19922 0-0.35547-0.0625-0.46875-0.1875-0.10547-0.125-0.15625-0.30469-0.15625-0.54688z"/>
  </symbol>
  <symbol id="i" overflow="visible">
   <path d="m0.26562-1.7656h0.5625v1.7656h-0.5625zm0-0.6875h0.5625v0.46875h-0.5625z"/>
  </symbol>
  <symbol id="v" overflow="visible">
   <path d="m1.1562-1.3125c0.125 0 0.21094-0.019531 0.26562-0.0625 0.0625-0.050781 0.09375-0.12891 0.09375-0.23438 0-0.10156-0.03125-0.17578-0.09375-0.21875-0.054687-0.050781-0.14062-0.078125-0.26562-0.078125h-0.25v0.59375zm-0.25 0.42188v0.89062h-0.60938v-2.3438h0.92188c0.3125 0 0.53516 0.054688 0.67188 0.15625 0.14453 0.10547 0.21875 0.26562 0.21875 0.48438 0 0.15625-0.039063 0.28906-0.10938 0.39062-0.074219 0.09375-0.18359 0.16797-0.32812 0.21875 0.070313 0.023438 0.14062 0.0625 0.20312 0.125 0.070312 0.0625 0.14062 0.16406 0.20312 0.29688l0.34375 0.67188h-0.65625l-0.28125-0.57812c-0.0625-0.125-0.125-0.20703-0.1875-0.25-0.054687-0.039063-0.125-0.0625-0.21875-0.0625z"/>
  </symbol>
  <symbol id="u" overflow="visible">
   <path d="m0.046875-1.7656h0.5625l0.4375 1.2188 0.4375-1.2188h0.5625l-0.6875 1.7656h-0.625z"/>
  </symbol>
  <symbol id="h" overflow="visible">
   <path d="m2.0469-1.0781v1.0781h-0.57812v-0.82812c0-0.14453-0.007812-0.24219-0.015625-0.29688 0-0.0625-0.011719-0.10938-0.03125-0.14062-0.023437-0.03125-0.054687-0.054687-0.09375-0.078125-0.03125-0.019531-0.074219-0.03125-0.125-0.03125-0.11719 0-0.21094 0.046875-0.28125 0.14062-0.0625 0.085937-0.09375 0.21094-0.09375 0.375v0.85938h-0.5625v-1.7656h0.5625v0.26562c0.082031-0.10156 0.17188-0.17578 0.26562-0.21875 0.10156-0.050781 0.21094-0.078125 0.32812-0.078125 0.19531 0 0.34766 0.0625 0.45312 0.1875 0.11328 0.125 0.17188 0.30469 0.17188 0.53125z"/>
  </symbol>
  <symbol id="t" overflow="visible">
   <path d="m1.4219-2.4531v0.375h-0.29688c-0.085938 0-0.14062 0.015625-0.17188 0.046875s-0.046875 0.078125-0.046875 0.14062v0.125h0.48438v0.40625h-0.48438v1.3594h-0.5625v-1.3594h-0.28125v-0.40625h0.28125v-0.125c0-0.1875 0.050781-0.32812 0.15625-0.42188 0.10156-0.09375 0.26953-0.14062 0.5-0.14062z"/>
  </symbol>
  <symbol id="e" overflow="visible">
   <path d="m1.1094-1.4062c-0.125 0-0.22656 0.046875-0.29688 0.14062-0.0625 0.09375-0.09375 0.22656-0.09375 0.39062 0 0.16797 0.03125 0.29688 0.09375 0.39062 0.070312 0.085937 0.17188 0.125 0.29688 0.125s0.21875-0.039063 0.28125-0.125c0.0625-0.09375 0.09375-0.22266 0.09375-0.39062 0-0.16406-0.03125-0.29688-0.09375-0.39062s-0.15625-0.14062-0.28125-0.14062zm0-0.39062c0.30078 0 0.53516 0.085937 0.70312 0.25 0.17578 0.15625 0.26562 0.38281 0.26562 0.67188 0 0.29297-0.089844 0.52344-0.26562 0.6875-0.16797 0.15625-0.40234 0.23438-0.70312 0.23438-0.30469 0-0.54297-0.078125-0.71875-0.23438-0.16797-0.16406-0.25-0.39453-0.25-0.6875 0-0.28906 0.082031-0.51562 0.25-0.67188 0.17578-0.16406 0.41406-0.25 0.71875-0.25z"/>
  </symbol>
  <symbol id="s" overflow="visible">
   <path d="m1.9062-1.4688c0.070312-0.10156 0.15625-0.17969 0.25-0.23438 0.09375-0.0625 0.20312-0.09375 0.32812-0.09375 0.19531 0 0.34766 0.0625 0.45312 0.1875 0.10156 0.125 0.15625 0.30469 0.15625 0.53125v1.0781h-0.5625v-0.92188-0.03125-0.0625c0-0.125-0.023438-0.21094-0.0625-0.26562-0.03125-0.0625-0.089844-0.09375-0.17188-0.09375-0.10547 0-0.1875 0.046875-0.25 0.14062-0.054687 0.085937-0.078125 0.21094-0.078125 0.375v0.85938h-0.5625v-0.92188c0-0.1875-0.023438-0.30469-0.0625-0.35938-0.03125-0.0625-0.089844-0.09375-0.17188-0.09375-0.10547 0-0.1875 0.046875-0.25 0.14062-0.0625 0.085937-0.09375 0.21094-0.09375 0.375v0.85938h-0.5625v-1.7656h0.5625v0.26562c0.070313-0.10156 0.14844-0.17578 0.23438-0.21875 0.09375-0.050781 0.19531-0.078125 0.3125-0.078125 0.11328 0 0.21875 0.03125 0.3125 0.09375 0.09375 0.054687 0.16406 0.13281 0.21875 0.23438z"/>
  </symbol>
  <symbol id="r" overflow="visible">
   <path d="m2.0469-1.0781v1.0781h-0.57812v-0.8125c0-0.15625-0.007812-0.25781-0.015625-0.3125 0-0.0625-0.011719-0.10938-0.03125-0.14062-0.023437-0.03125-0.054687-0.054687-0.09375-0.078125-0.03125-0.019531-0.074219-0.03125-0.125-0.03125-0.11719 0-0.21094 0.046875-0.28125 0.14062-0.0625 0.085937-0.09375 0.21094-0.09375 0.375v0.85938h-0.5625v-2.4531h0.5625v0.95312c0.082031-0.10156 0.17188-0.17578 0.26562-0.21875 0.10156-0.050781 0.21094-0.078125 0.32812-0.078125 0.19531 0 0.34766 0.0625 0.45312 0.1875 0.11328 0.125 0.17188 0.30469 0.17188 0.53125z"/>
  </symbol>
  <symbol id="q" overflow="visible">
   <path d="m0.29688-2.3438h0.67188l0.85938 1.6094v-1.6094h0.5625v2.3438h-0.67188l-0.84375-1.6094v1.6094h-0.57812z"/>
  </symbol>
  <symbol id="p" overflow="visible">
   <path d="m0.29688-2.3438h1c0.30078 0 0.53125 0.070312 0.6875 0.20312 0.16406 0.125 0.25 0.3125 0.25 0.5625 0 0.24219-0.085937 0.42969-0.25 0.5625-0.15625 0.13672-0.38672 0.20312-0.6875 0.20312h-0.39062v0.8125h-0.60938zm0.60938 0.4375v0.65625h0.32812c0.11328 0 0.20312-0.023438 0.26562-0.078125 0.070312-0.0625 0.10938-0.14453 0.10938-0.25 0-0.10156-0.039063-0.17969-0.10938-0.23438-0.0625-0.0625-0.15234-0.09375-0.26562-0.09375z"/>
  </symbol>
  <symbol id="o" overflow="visible">
   <path d="m0.26562-1.7656h0.5625v1.7344c0 0.23828-0.058594 0.41406-0.17188 0.53125-0.10547 0.125-0.26562 0.1875-0.48438 0.1875h-0.28125v-0.35938h0.09375c0.11328 0 0.1875-0.027344 0.21875-0.078125 0.039063-0.042969 0.0625-0.13672 0.0625-0.28125zm0-0.6875h0.5625v0.46875h-0.5625z"/>
  </symbol>
  <symbol id="n" overflow="visible">
   <path d="m1.6875-1.7031v0.45312c-0.074219-0.050781-0.15234-0.085938-0.23438-0.10938-0.074219-0.03125-0.15234-0.046875-0.23438-0.046875-0.15625 0-0.28125 0.046875-0.375 0.14062-0.085938 0.09375-0.125 0.22656-0.125 0.39062 0 0.16797 0.039062 0.29688 0.125 0.39062 0.09375 0.085937 0.21875 0.125 0.375 0.125 0.09375 0 0.17578-0.007813 0.25-0.03125 0.082031-0.03125 0.15625-0.070313 0.21875-0.125v0.46875c-0.085938 0.03125-0.17188 0.050781-0.26562 0.0625-0.09375 0.019531-0.18359 0.03125-0.26562 0.03125-0.32422 0-0.57422-0.078125-0.75-0.23438-0.17969-0.16406-0.26562-0.39453-0.26562-0.6875 0-0.28906 0.085937-0.51562 0.26562-0.67188 0.17578-0.16406 0.42578-0.25 0.75-0.25 0.09375 0 0.17969 0.011719 0.26562 0.03125 0.09375 0.011719 0.17969 0.03125 0.26562 0.0625z"/>
  </symbol>
 </defs>
 <g>
  <path d="m446.88 174.44-36.047 12.23-5.1484-5.1484-1.2891-37.332-20.598 16.734c-9.0117-8.3672-18.023-16.094-27.035-23.816l-2.5742-6.4375-1.2891 3.2188c-124.23-106.21-241.38-159.63-279.36-121.66-37.977 37.977 15.449 155.12 121.66 279.36l-3.2188 1.2891 6.4375 2.5742c7.7227 9.0117 15.449 18.023 23.816 27.035l-16.734 20.598 37.332 1.2891 5.1484 5.1484-12.23 36.047 36.691-12.23 4.5039 5.1484 1.2891 37.332 20.598-16.734c9.0117 8.3672 18.023 16.094 27.035 23.816l2.5742 6.4375 1.2891-3.2188c124.88 106.21 241.38 159.63 279.36 121.66 17.379-17.379 15.449-50.852-1.2891-93.977 5.1484-2.5742 10.301-6.4375 14.805-10.941 21.887-21.242 21.887-56.645 0-77.887-18.023-18.668-46.344-21.242-67.586-8.3672-19.309-28.32-41.84-57.93-67.586-88.184l3.2188-1.2891-6.4375-2.5742c-7.7227-9.0117-15.449-18.023-23.816-27.035l16.734-20.598-37.332-1.2891-5.1484-4.5039zm-72.094-6.4375-4.5039 3.2188-4.5039-12.23c3.2188 3.2188 5.793 5.793 9.0117 9.0117zm-27.68-25.102-11.586 18.668c-10.941-9.0117-21.242-17.379-32.184-25.102l-0.64453-0.64453c-72.094-51.496-133.89-73.379-156.41-50.852-18.023 18.023-8.3672 59.863 21.887 112-11.586 13.516-10.941 34.113 1.9297 46.344 9.6562 9.6562 23.172 12.875 35.402 9.0117 5.1484 7.082 10.941 14.805 17.379 21.887l-18.668 11.586c-103.63-120.37-157.06-231.72-122.94-265.84 34.113-34.113 145.47 19.309 265.84 122.94zm-126.8 161.56 12.23 4.5039-3.2188 4.5039-9.0117-9.0117zm87.539 87.539 4.5039-3.2188 4.5039 12.23c-2.5742-3.2188-5.793-5.793-9.0117-9.0117zm27.68 25.102 11.586-18.023c10.941 8.3672 21.242 16.734 32.184 24.461l0.64453 1.2891v-0.64453c72.094 51.496 133.89 74.023 156.41 50.852 7.082-7.082 9.6562-18.023 9.0117-31.539 14.805 14.16 35.402 18.668 54.07 13.516 15.449 38.621 16.734 68.23 1.9297 83.035-34.113 34.113-145.47-19.309-265.84-122.94zm193.75-25.102c-9.6562-21.887-25.102-46.988-43.77-73.379h0.64453l-1.2891-0.64453c-7.7227-10.941-16.094-21.242-24.461-32.184l18.023-11.586c26.391 30.254 48.918 60.504 68.23 88.184-0.64453 0.64453-1.2891 1.9297-1.9297 2.5742-7.7227 7.7227-12.875 17.379-15.449 27.035zm-66.941-136.46-12.23-4.5039 3.2188-4.5039c3.2188 3.2188 5.793 6.4375 9.0117 9.0117zm152.55 117.15c-17.379-17.379-45.059-17.379-62.438 0s-17.379 45.059 0 62.438 45.059 17.379 62.438 0 17.379-45.059 0-62.438zm-209.84-156.41c-35.402-35.402-92.047-35.402-127.45 0-20.598 20.598-28.965 49.562-25.746 76.598-3.2188-3.8633-6.4375-7.7227-9.6562-11.586 0-25.746 9.6562-51.496 28.965-71.449 38.621-38.621 101.7-38.621 140.32 0 38.621 38.621 38.621 101.7 0 140.32-19.953 19.309-45.699 28.965-71.449 28.965-3.8633-3.2188-7.7227-6.4375-10.941-9.6562 27.035 3.2188 55.355-5.1484 75.953-25.746 35.402-35.402 35.402-92.047 0-127.45zm-146.11 99.77c3.8633 9.6562 10.301 19.309 18.668 27.68 8.3672 8.3672 18.023 14.805 27.68 18.668 5.1484 5.1484 10.941 9.6562 16.094 14.805-18.668-3.8633-36.047-12.875-50.207-27.035s-23.172-31.539-27.035-50.207c5.1484 5.1484 9.6562 10.941 14.805 16.094zm139.68-93.332c-31.539-31.539-83.035-31.539-114.57 0-22.527 22.527-28.965 55.355-19.309 83.68 7.7227 8.3672 16.094 16.734 24.461 25.746 9.0117 8.3672 17.379 16.734 25.746 24.461 28.32 9.6562 61.148 3.2188 83.68-19.309 31.539-31.539 31.539-83.035 0-114.57zm-186.02-21.887c-9.6562-9.6562-25.746-9.6562-35.402 0-9.6562 10.301-9.6562 25.746 0 36.047 9.6562 9.6562 25.746 9.6562 35.402 0 10.301-10.301 10.301-25.746 0-36.047zm87.539-54.07-6.4375 31.539-37.977-20.598 6.4375 43.125-42.484-6.4375c-12.23-12.23-30.254-13.516-44.414-4.5039-26.391-45.699-35.402-81.746-20.598-96.551 19.953-19.953 77.887 3.2188 145.47 53.426zm-70.16 67.586 9.6562 18.023-13.516 3.2188c3.2188-6.4375 4.5039-14.16 3.8633-21.242zm152.55 198.9 6.4375-31.539 37.977 20.598-6.4375-43.125 43.125 6.4375-20.598-37.977 31.539-6.4375c50.207 68.23 73.379 125.52 53.426 145.47-19.953 19.953-77.887-3.2188-145.47-53.426z" fill-rule="evenodd"/>
  <use x="61.308594" y="569.65625" xlink:href="#k"/>
  <use x="63.671875" y="569.65625" xlink:href="#d"/>
  <use x="65.257812" y="569.65625" xlink:href="#b"/>
  <use x="67.441406" y="569.65625" xlink:href="#a"/>
  <use x="69.613281" y="569.65625" xlink:href="#c"/>
  <use x="71.152344" y="569.65625" xlink:href="#b"/>
  <use x="73.335938" y="569.65625" xlink:href="#g"/>
  <use x="76.757812" y="569.65625" xlink:href="#m"/>
  <use x="79.0625" y="569.65625" xlink:href="#l"/>
  <use x="82.28125" y="569.65625" xlink:href="#k"/>
  <use x="84.644531" y="569.65625" xlink:href="#f"/>
  <use x="85.746094" y="569.65625" xlink:href="#a"/>
  <use x="87.917969" y="569.65625" xlink:href="#j"/>
  <use x="90.210938" y="569.65625" xlink:href="#g"/>
  <use x="92.511719" y="569.65625" xlink:href="#i"/>
  <use x="93.617188" y="569.65625" xlink:href="#a"/>
  <use x="96.910156" y="569.65625" xlink:href="#v"/>
  <use x="99.386719" y="569.65625" xlink:href="#b"/>
  <use x="101.570312" y="569.65625" xlink:href="#u"/>
  <use x="103.667969" y="569.65625" xlink:href="#a"/>
  <use x="105.839844" y="569.65625" xlink:href="#f"/>
  <use x="106.941406" y="569.65625" xlink:href="#i"/>
  <use x="108.046875" y="569.65625" xlink:href="#h"/>
  <use x="110.335938" y="569.65625" xlink:href="#a"/>
  <use x="61.308594" y="572.875" xlink:href="#t"/>
  <use x="62.710938" y="572.875" xlink:href="#d"/>
  <use x="64.296875" y="572.875" xlink:href="#e"/>
  <use x="66.507812" y="572.875" xlink:href="#s"/>
  <use x="70.984375" y="572.875" xlink:href="#c"/>
  <use x="72.519531" y="572.875" xlink:href="#r"/>
  <use x="74.8125" y="572.875" xlink:href="#b"/>
  <use x="78.117188" y="572.875" xlink:href="#q"/>
  <use x="80.808594" y="572.875" xlink:href="#e"/>
  <use x="83.019531" y="572.875" xlink:href="#j"/>
  <use x="85.3125" y="572.875" xlink:href="#h"/>
  <use x="88.722656" y="572.875" xlink:href="#p"/>
  <use x="91.082031" y="572.875" xlink:href="#d"/>
  <use x="92.667969" y="572.875" xlink:href="#e"/>
  <use x="94.878906" y="572.875" xlink:href="#o"/>
  <use x="95.984375" y="572.875" xlink:href="#b"/>
  <use x="98.167969" y="572.875" xlink:href="#n"/>
  <use x="100.074219" y="572.875" xlink:href="#c"/>
 </g>
</svg>
