<svg width="64" height="64" viewBox="0 0 64 64" fill="none" xmlns="http://www.w3.org/2000/svg">
<rect width="64" height="64" fill="none"/>
<path d="M35 40C34.9583 40.8333 34.6667 41.5417 34.125 42.125C33.5417 42.6667 32.8333 42.9583 32 43C31.1667 42.9583 30.4583 42.6667 29.875 42.125C29.3333 41.5417 29.0417 40.8333 29 40C29.0833 38.625 29.7292 37.6875 30.9375 37.1875V25C31.0208 24.375 31.3333 24.0417 31.875 24C32.4583 24.0417 32.7917 24.375 32.875 25V37.1875C34.2083 37.6875 34.9167 38.625 35 40ZM38 34.6875C39.2917 36.1458 39.9583 37.9167 40 40C39.9583 42.25 39.1875 44.1458 37.6875 45.6875C36.1875 47.1875 34.3125 47.9583 32.0625 48H31.9375C29.6875 47.9167 27.8125 47.125 26.3125 45.625C24.8125 44.0833 24.0417 42.1875 24 39.9375C24.0833 37.8958 24.7292 36.1458 25.9375 34.6875V22C25.9792 20.2917 26.5625 18.8958 27.6875 17.8125C28.7708 16.6875 30.1667 16.1042 31.875 16.0625C33.5833 16.1042 35.0208 16.6875 36.1875 17.8125C37.3542 18.8958 37.9583 20.2917 38 22V34.6875ZM38 40C37.9583 38.875 37.75 37.9792 37.375 37.3125C36.9583 36.6042 36.5833 36.0625 36.25 35.6875C36.1667 35.6042 36.1042 35.5417 36.0625 35.5V22C36.0208 20.875 35.625 19.9375 34.875 19.1875C34.125 18.4375 33.2083 18.0417 32.125 18C31 18.0417 30.0417 18.4375 29.25 19.1875C28.4583 19.9375 28.0417 20.875 28 22V35.5C27.9583 35.5 27.9167 35.5417 27.875 35.625C27.5417 35.9583 27.1458 36.4792 26.6875 37.1875C26.2708 37.8958 26.0625 38.8333 26.0625 40C26.0625 41.6667 26.625 43.0625 27.75 44.1875C28.875 45.3542 30.2708 45.9583 31.9375 46H32C33.7083 45.9583 35.125 45.375 36.25 44.25C37.375 43.125 37.9583 41.7083 38 40Z" fill="#ECE9FF"/>
</svg>
