<svg width="64" height="64" viewBox="0 0 64 64" fill="none" xmlns="http://www.w3.org/2000/svg">
<rect width="64" height="64" fill="none"/>
<g clip-path="url(#clip0_314_1477)">
<path d="M48.8 35.11V34.2C48.8 29.24 44.76 25.2 39.8 25.2H33.71C33.45 24.39 32.69 23.8 31.8 23.8H23.75L23.17 21.64C24.8 21.19 26 19.68 26 17.9C26 15.75 24.25 14 22.1 14H15.8C14.81 14 14 14.81 14 15.8V20C14 21 14.81 21.8 15.8 21.8H17.11L17.65 23.83C16.71 24 16 24.82 16 25.8V38.8C16 39.74 16.64 40.52 17.51 40.74L17.11 42.22H15.8C14.81 42.22 14 43.02 14 44.02V48.22C14 49.21 14.81 50.02 15.8 50.02H22.1C24.25 50.02 26 48.27 26 46.12C26 44.34 24.8 42.83 23.17 42.38L23.6 40.8H45.4C47.72 40.8 49.6 38.92 49.6 36.6C49.6 35.98 49.28 35.43 48.8 35.11V35.11ZM45.4 38.8H18V25.8H31.8V36.8H47.59C47.59 36.94 47.55 37.07 47.51 37.2C47.26 38.13 46.4 38.8 45.4 38.8V38.8ZM24 46.12C24 47.16 23.15 48.02 22.1 48.02H16V44.22H22.1C22.29 44.22 22.48 44.25 22.66 44.31C23.44 44.54 24 45.26 24 46.12ZM21.14 42.22H19.17L19.56 40.8H21.52L21.14 42.22ZM16 19.8V16H22.1C23.15 16 24 16.86 24 17.9C24 18.76 23.44 19.48 22.66 19.71C22.48 19.77 22.29 19.8 22.1 19.8H16ZM21.14 21.8L21.68 23.8H19.71L19.17 21.8H21.14V21.8ZM46.8 34.8H33.8V27.2H39.8C43.66 27.2 46.8 30.34 46.8 34.2V34.8V34.8Z" fill="#ECE9FF"/>
</g>
<defs>
<clipPath id="clip0_314_1477">
<rect width="35.6" height="36.02" fill="white" transform="translate(14 14)"/>
</clipPath>
</defs>
</svg>
