<svg width="344" height="333" viewBox="0 0 344 333" fill="none" xmlns="http://www.w3.org/2000/svg">
<rect x="17.5536" y="94.446" width="80" height="16" transform="rotate(35.0787 17.5536 94.446)" fill="#7F79BB"/>
<rect x="8.35837" y="107.54" width="64" height="17" transform="rotate(-54.9213 8.35837 107.54)" fill="#7F79BB"/>
<circle cx="19.5029" cy="105.59" r="12.5" transform="rotate(35.0787 19.5029 105.59)" fill="#D2CBF4" stroke="#7F79BB" stroke-width="3"/>
<rect width="80" height="16" transform="matrix(-0.818363 0.574702 0.574702 0.818363 326.055 94.446)" fill="#7F79BB"/>
<rect width="64" height="17" transform="matrix(-0.574702 -0.818363 -0.818363 0.574702 335.25 107.54)" fill="#7F79BB"/>
<circle r="12.5" transform="matrix(-0.818363 0.574702 0.574702 0.818363 324.105 105.59)" fill="#D2CBF4" stroke="#7F79BB" stroke-width="3"/>
<rect x="184" y="197" width="58" height="33" transform="rotate(90 184 197)" fill="#D2CBF4"/>
<rect x="184" y="213" width="4" height="33" transform="rotate(90 184 213)" fill="#ABA6E1"/>
<rect x="184" y="223" width="4" height="33" transform="rotate(90 184 223)" fill="#ABA6E1"/>
<rect x="184" y="232" width="5" height="33" transform="rotate(90 184 232)" fill="#ABA6E1"/>
<rect x="184" y="242" width="5" height="33" transform="rotate(90 184 242)" fill="#ABA6E1"/>
<rect x="184" y="203" width="4" height="33" transform="rotate(90 184 203)" fill="#ABA6E1"/>
<rect opacity="0.4" x="184" y="190" width="77" height="16" rx="8" transform="rotate(90 184 190)" fill="#7F79BB"/>
<rect x="79.6901" width="199.69" height="196.837" rx="16" fill="#7F79BB"/>
<rect x="68.8128" width="199.69" height="196.837" rx="16" fill="#ABA6E1"/>
<rect x="81.0883" y="11.3607" width="176.829" height="175.492" rx="12" fill="#D2CBF4"/>
<circle cx="170" cy="141" r="21" fill="#7F79BB"/>
<circle cx="167" cy="139" r="21" fill="#ABA6E1"/>
<circle cx="167" cy="139" r="18" fill="#6C50E9"/>
<mask id="mask0_350_5372" style="mask-type:alpha" maskUnits="userSpaceOnUse" x="149" y="121" width="36" height="36">
<circle cx="167" cy="139" r="18" fill="#6C50E9"/>
</mask>
<g mask="url(#mask0_350_5372)">
<circle cx="167" cy="151" r="15" fill="#513CAF"/>
</g>
<circle cx="215.064" cy="69.7498" r="28.6474" fill="#7F79BB"/>
<circle cx="210.082" cy="69.7498" r="28.6474" fill="#ABA6E1"/>
<circle cx="210.082" cy="69.7499" r="22.4197" fill="#6C50E9"/>
<ellipse cx="208.668" cy="62.3774" rx="6.05937" ry="7.57421" fill="#ECE9FF"/>
<path fill-rule="evenodd" clip-rule="evenodd" d="M226.971 84.2935C223.8 86.0107 220.169 86.9857 216.309 86.9857C203.927 86.9857 193.89 76.9481 193.89 64.5661C193.89 58.9207 195.976 53.7627 199.42 49.8212C192.418 53.6136 187.662 61.0257 187.662 69.5486C187.662 81.9306 197.7 91.9682 210.082 91.9682C216.818 91.9682 222.861 88.997 226.971 84.2935Z" fill="#513CAF"/>
<circle cx="128.539" cy="69.7498" r="28.6474" fill="#7F79BB"/>
<circle cx="123.557" cy="69.7498" r="28.6474" fill="#ABA6E1"/>
<circle cx="123.557" cy="69.7499" r="22.4197" fill="#6C50E9"/>
<ellipse cx="122.143" cy="62.3774" rx="6.05937" ry="7.57421" fill="#ECE9FF"/>
<path fill-rule="evenodd" clip-rule="evenodd" d="M140.446 84.2935C137.275 86.0107 133.644 86.9857 129.784 86.9857C117.402 86.9857 107.365 76.9481 107.365 64.5661C107.365 58.9207 109.451 53.7627 112.895 49.8212C105.893 53.6136 101.137 61.0257 101.137 69.5486C101.137 81.9306 111.175 91.9682 123.557 91.9682C130.293 91.9682 136.336 88.997 140.446 84.2935Z" fill="#513CAF"/>
<rect x="159" y="251" width="18" height="117" fill="#7F79BB"/>
<ellipse cx="159.386" cy="309.519" rx="46.3566" ry="58.4806" fill="#7F79BB"/>
<ellipse cx="176.503" cy="309.519" rx="46.3566" ry="58.4806" fill="#ABA6E1"/>
<ellipse cx="177.216" cy="309.519" rx="34.2326" ry="47.0698" fill="#ECE9FF"/>
<path d="M200.038 309.519C200.038 304.837 199.447 300.2 198.3 295.873C197.153 291.547 195.472 287.616 193.353 284.305C191.234 280.993 188.718 278.367 185.949 276.575C183.181 274.783 180.213 273.86 177.216 273.86C174.219 273.86 171.251 274.783 168.482 276.575C165.714 278.367 163.198 280.993 161.078 284.305C158.959 287.616 157.278 291.547 156.131 295.873C154.984 300.2 154.394 304.837 154.394 309.519L177.216 309.519H200.038Z" fill="#ABA6E1"/>
<path d="M154.394 309.519C154.394 314.202 154.984 318.839 156.131 323.166C157.278 327.492 158.959 331.423 161.079 334.734C163.198 338.045 165.714 340.672 168.482 342.464C171.251 344.256 174.219 345.178 177.216 345.178C180.213 345.178 183.181 344.256 185.949 342.464C188.718 340.672 191.234 338.045 193.353 334.734C195.472 331.423 197.154 327.492 198.3 323.166C199.447 318.839 200.038 314.202 200.038 309.519L177.216 309.519L154.394 309.519Z" fill="#D2CBF4"/>
<path d="M186.17 309.52C186.17 313.922 185.024 317.815 183.277 320.544C181.516 323.297 179.325 324.636 177.216 324.636C175.106 324.636 172.916 323.297 171.155 320.544C169.408 317.815 168.262 313.922 168.262 309.52C168.262 305.117 169.408 301.224 171.155 298.495C172.916 295.742 175.106 294.403 177.216 294.403C179.325 294.403 181.516 295.742 183.277 298.495C185.024 301.224 186.17 305.117 186.17 309.52Z" fill="#7F79BB" stroke="#ECE9FF" stroke-width="4"/>
<path d="M71.5273 23.4584C63.9614 23.4584 56.7054 26.4639 51.3555 31.8138C46.0057 37.1637 43.0001 44.4197 43.0001 51.9855C43.0001 59.5514 46.0056 66.8074 51.3555 72.1573C56.7054 77.5071 63.9614 80.5127 71.5272 80.5127L71.5272 66.2491C67.7443 66.2491 64.1163 64.7463 61.4414 62.0714C58.7665 59.3965 57.2637 55.7685 57.2637 51.9855C57.2637 48.2026 58.7665 44.5746 61.4414 41.8997C64.1163 39.2247 67.7443 37.722 71.5273 37.722L71.5273 23.4584Z" fill="#D2CBF4"/>
<circle cx="71.5271" cy="73.3809" r="7.13178" transform="rotate(-180 71.5271 73.3809)" fill="#D2CBF4"/>
<circle cx="71.5272" cy="30.5902" r="7.13178" transform="rotate(-180 71.5272 30.5902)" fill="#D2CBF4"/>
<path d="M272.081 23.4584C279.647 23.4584 286.903 26.4639 292.253 31.8138C297.603 37.1637 300.608 44.4197 300.608 51.9855C300.608 59.5514 297.603 66.8074 292.253 72.1573C286.903 77.5071 279.647 80.5127 272.081 80.5127L272.081 66.2491C275.864 66.2491 279.492 64.7463 282.167 62.0714C284.842 59.3965 286.345 55.7685 286.345 51.9855C286.345 48.2026 284.842 44.5746 282.167 41.8997C279.492 39.2247 275.864 37.722 272.081 37.722L272.081 23.4584Z" fill="#D2CBF4"/>
<circle r="7.13178" transform="matrix(1 -8.74228e-08 -8.74228e-08 -1 272.081 73.3809)" fill="#D2CBF4"/>
<circle r="7.13178" transform="matrix(1 -8.74228e-08 -8.74228e-08 -1 272.081 30.5902)" fill="#D2CBF4"/>
</svg>
