<svg width="347" height="368" viewBox="0 0 347 368" fill="none" xmlns="http://www.w3.org/2000/svg">
<rect x="53.0459" y="58.1436" width="58.614" height="17.1163" rx="8.55814" transform="rotate(113.472 53.0459 58.1436)" fill="#7F79BB"/>
<circle cx="78.0465" cy="131.127" r="15.6163" fill="#D2CBF4" stroke="#7F79BB" stroke-width="3"/>
<rect x="21.3945" y="102.059" width="86.3373" height="17.1163" rx="8.55814" transform="rotate(39.8295 21.3945 102.059)" fill="#7F79BB"/>
<circle cx="19.1964" cy="111.197" r="12.7636" transform="rotate(62.8889 19.1964 111.197)" fill="#D2CBF4" stroke="#7F79BB" stroke-width="3"/>
<rect width="86.3373" height="17.1163" rx="8.55814" transform="matrix(-0.928656 0.370942 0.370942 0.928656 326.177 110)" fill="#7F79BB"/>
<rect width="68.4415" height="17.1163" rx="8.55814" transform="matrix(0.679891 0.733313 0.733313 -0.679891 281.487 79.4512)" fill="#7F79BB"/>
<circle r="15.6163" transform="matrix(-1 0 0 1 246.238 116.82)" fill="#D2CBF4" stroke="#7F79BB" stroke-width="3"/>
<circle r="12.7636" transform="matrix(0.333268 0.942832 0.942832 -0.333268 327.854 117.08)" fill="#D2CBF4" stroke="#7F79BB" stroke-width="3"/>
<rect x="71.6899" width="199.69" height="196.837" rx="16" fill="#7F79BB"/>
<rect x="176.348" y="148.341" width="149.767" height="32.8062" rx="16.4031" transform="rotate(90 176.348 148.341)" fill="#D2CBF4"/>
<rect x="150.673" y="251.039" width="19.969" height="116.961" fill="#7F79BB"/>
<ellipse cx="151.386" cy="309.52" rx="46.3566" ry="58.4806" fill="#7F79BB"/>
<rect x="176.348" y="212.527" width="4.27907" height="32.8062" transform="rotate(90 176.348 212.527)" fill="#ABA6E1"/>
<rect x="176.348" y="222.512" width="4.27907" height="32.8062" transform="rotate(90 176.348 222.512)" fill="#ABA6E1"/>
<rect x="176.348" y="232.496" width="4.27907" height="32.8062" transform="rotate(90 176.348 232.496)" fill="#ABA6E1"/>
<rect x="176.348" y="242.48" width="4.27907" height="32.8062" transform="rotate(90 176.348 242.48)" fill="#ABA6E1"/>
<rect x="176.348" y="202.543" width="4.27907" height="32.8062" transform="rotate(90 176.348 202.543)" fill="#ABA6E1"/>
<rect opacity="0.4" x="176.348" y="148.341" width="149.767" height="14.2636" rx="7.13178" transform="rotate(90 176.348 148.341)" fill="#7F79BB"/>
<rect x="60.8125" width="199.69" height="196.837" rx="16" fill="#ABA6E1"/>
<rect x="73.0879" y="11.3604" width="176.829" height="175.492" rx="12" fill="#D2CBF4"/>
<circle cx="162" cy="141" r="21" fill="#7F79BB"/>
<circle cx="159" cy="139" r="21" fill="#ABA6E1"/>
<circle cx="159" cy="139" r="18" fill="#6C50E9"/>
<circle cx="207.063" cy="69.7499" r="28.6474" fill="#7F79BB"/>
<circle cx="202.081" cy="69.7499" r="28.6474" fill="#ABA6E1"/>
<circle cx="202.081" cy="69.7497" r="22.4197" fill="#6C50E9"/>
<ellipse cx="200.668" cy="62.3779" rx="6.05937" ry="7.57421" fill="#ECE9FF"/>
<path fill-rule="evenodd" clip-rule="evenodd" d="M218.97 84.2935C215.8 86.0108 212.168 86.9858 208.309 86.9858C195.927 86.9858 185.889 76.9482 185.889 64.5662C185.889 58.9208 187.976 53.7628 191.42 49.8213C184.417 53.6137 179.662 61.0258 179.662 69.5487C179.662 81.9307 189.699 91.9683 202.081 91.9683C208.818 91.9683 214.861 88.9971 218.97 84.2935Z" fill="#513CAF"/>
<circle cx="120.538" cy="69.7499" r="28.6474" fill="#7F79BB"/>
<circle cx="115.557" cy="69.7499" r="28.6474" fill="#ABA6E1"/>
<circle cx="115.556" cy="69.7497" r="22.4197" fill="#6C50E9"/>
<ellipse cx="114.143" cy="62.3779" rx="6.05937" ry="7.57421" fill="#ECE9FF"/>
<path fill-rule="evenodd" clip-rule="evenodd" d="M132.446 84.2935C129.275 86.0108 125.643 86.9858 121.784 86.9858C109.402 86.9858 99.3645 76.9482 99.3645 64.5662C99.3645 58.9208 101.451 53.7628 104.895 49.8213C97.8924 53.6137 93.1367 61.0258 93.1367 69.5487C93.1367 81.9307 103.174 91.9683 115.556 91.9683C122.293 91.9683 128.336 88.9971 132.446 84.2935Z" fill="#513CAF"/>
<ellipse cx="168.503" cy="309.52" rx="46.3566" ry="58.4806" fill="#ABA6E1"/>
<ellipse cx="169.215" cy="309.519" rx="34.2326" ry="47.0698" fill="#ECE9FF"/>
<path d="M192.037 309.519C192.037 304.836 191.447 300.2 190.3 295.873C189.153 291.547 187.472 287.616 185.353 284.305C183.234 280.993 180.718 278.367 177.949 276.575C175.18 274.783 172.213 273.86 169.216 273.86C166.219 273.86 163.251 274.783 160.482 276.575C157.713 278.367 155.198 280.993 153.078 284.305C150.959 287.616 149.278 291.547 148.131 295.873C146.984 300.2 146.394 304.836 146.394 309.519L169.216 309.519H192.037Z" fill="#ABA6E1"/>
<path d="M146.394 309.52C146.394 314.203 146.984 318.84 148.131 323.166C149.278 327.492 150.959 331.423 153.079 334.734C155.198 338.046 157.714 340.672 160.482 342.464C163.251 344.256 166.219 345.179 169.216 345.179C172.213 345.179 175.181 344.256 177.949 342.464C180.718 340.672 183.234 338.046 185.353 334.734C187.472 331.423 189.154 327.492 190.3 323.166C191.447 318.84 192.038 314.203 192.038 309.52L169.216 309.52L146.394 309.52Z" fill="#D2CBF4"/>
<path d="M178.17 309.52C178.17 313.922 177.024 317.815 175.277 320.545C173.516 323.297 171.325 324.636 169.216 324.636C167.106 324.636 164.916 323.297 163.154 320.545C161.407 317.815 160.261 313.922 160.261 309.52C160.261 305.117 161.407 301.224 163.154 298.495C164.916 295.743 167.106 294.403 169.216 294.403C171.325 294.403 173.516 295.743 175.277 298.495C177.024 301.224 178.17 305.117 178.17 309.52Z" fill="#7F79BB" stroke="#ECE9FF" stroke-width="4"/>
<path d="M69.5338 26.2461C62.097 24.8546 54.412 26.4744 48.1694 30.7491C41.9269 35.0238 37.6381 41.6032 36.2466 49.04C34.8551 56.4768 36.4749 64.1618 40.7496 70.4044C45.0243 76.6469 51.6037 80.9357 59.0405 82.3271L61.6638 68.3069C57.9454 67.6111 54.6557 65.4668 52.5184 62.3455C50.381 59.2242 49.5711 55.3817 50.2669 51.6633C50.9626 47.9449 53.107 44.6552 56.2283 42.5179C59.3496 40.3805 63.192 39.5706 66.9104 40.2664L69.5338 26.2461Z" fill="#D2CBF4"/>
<circle cx="60.3518" cy="75.3169" r="7.13178" transform="rotate(-169.402 60.3518 75.3169)" fill="#D2CBF4"/>
<circle cx="68.2219" cy="33.2563" r="7.13178" transform="rotate(-169.402 68.2219 33.2563)" fill="#D2CBF4"/>
<path d="M267.132 42.0288C274.697 42.0212 281.956 45.0195 287.312 50.3641C292.667 55.7086 295.68 62.9616 295.687 70.5274C295.695 78.0933 292.696 85.3523 287.352 90.7075C282.007 96.0627 274.754 99.0755 267.188 99.083L267.174 84.8195C270.957 84.8157 274.584 83.3093 277.256 80.6317C279.928 77.9541 281.427 74.3246 281.424 70.5417C281.42 66.7587 279.913 63.1322 277.236 60.46C274.558 57.7877 270.929 56.2886 267.146 56.2923L267.132 42.0288Z" fill="#D2CBF4"/>
<circle r="7.13178" transform="matrix(0.999999 -0.000997309 -0.000997309 -0.999999 267.181 91.951)" fill="#D2CBF4"/>
<circle r="7.13178" transform="matrix(0.999999 -0.000997309 -0.000997309 -0.999999 267.139 49.1599)" fill="#D2CBF4"/>
</svg>
