<svg width="406" height="368" viewBox="0 0 406 368" fill="none" xmlns="http://www.w3.org/2000/svg">
<rect x="225.25" y="148.341" width="149.767" height="32.8062" rx="16.4031" transform="rotate(90 225.25 148.341)" fill="#E3DDFD"/>
<rect x="199.576" y="251.039" width="19.969" height="116.961" fill="#5546EE"/>
<ellipse cx="200.289" cy="309.52" rx="46.3566" ry="58.4806" fill="#5546EE"/>
<rect x="225.25" y="212.527" width="4.27907" height="32.8062" transform="rotate(90 225.25 212.527)" fill="#AAA3F5"/>
<rect x="225.25" y="222.512" width="4.27907" height="32.8062" transform="rotate(90 225.25 222.512)" fill="#AAA3F5"/>
<rect x="225.25" y="232.496" width="4.27907" height="32.8062" transform="rotate(90 225.25 232.496)" fill="#AAA3F5"/>
<rect x="225.25" y="242.48" width="4.27907" height="32.8062" transform="rotate(90 225.25 242.48)" fill="#AAA3F5"/>
<rect x="225.25" y="202.543" width="4.27907" height="32.8062" transform="rotate(90 225.25 202.543)" fill="#AAA3F5"/>
<rect opacity="0.4" x="225.25" y="148.341" width="149.767" height="14.2636" rx="7.13178" transform="rotate(90 225.25 148.341)" fill="#5546EE"/>
<ellipse cx="217.406" cy="309.52" rx="46.3566" ry="58.4806" fill="#AAA3F5"/>
<ellipse cx="218.119" cy="309.519" rx="34.2326" ry="47.0698" fill="#ECE9FF"/>
<path d="M240.941 309.519C240.941 304.836 240.35 300.2 239.203 295.873C238.056 291.547 236.375 287.616 234.256 284.305C232.137 280.993 229.621 278.367 226.852 276.575C224.083 274.783 221.116 273.86 218.119 273.86C215.122 273.86 212.154 274.783 209.385 276.575C206.616 278.367 204.101 280.993 201.981 284.305C199.862 287.616 198.181 291.547 197.034 295.873C195.887 300.2 195.297 304.836 195.297 309.519L218.119 309.519H240.941Z" fill="#AAA3F5"/>
<path d="M195.297 309.519C195.297 314.202 195.887 318.839 197.034 323.165C198.181 327.492 199.862 331.423 201.981 334.734C204.101 338.045 206.616 340.672 209.385 342.464C212.154 344.256 215.122 345.178 218.119 345.178C221.116 345.178 224.083 344.256 226.852 342.464C229.621 340.672 232.137 338.045 234.256 334.734C236.375 331.423 238.056 327.492 239.203 323.165C240.35 318.839 240.94 314.202 240.94 309.519L218.119 309.519L195.297 309.519Z" fill="#E3DDFD"/>
<path d="M227.073 309.519C227.073 313.922 225.927 317.815 224.18 320.544C222.419 323.296 220.228 324.636 218.119 324.636C216.009 324.636 213.819 323.296 212.058 320.544C210.311 317.815 209.165 313.922 209.165 309.519C209.165 305.117 210.311 301.224 212.058 298.494C213.819 295.742 216.009 294.403 218.119 294.403C220.228 294.403 222.419 295.742 224.18 298.494C225.927 301.224 227.073 305.117 227.073 309.519Z" fill="#3C2ED1" stroke="#ECE9FF" stroke-width="4"/>
<rect width="58.9688" height="17.6588" rx="8.82942" transform="matrix(-0.410775 0.911737 -0.922473 -0.386062 101.039 58.1436)" fill="#5546EE"/>
<path d="M143.238 131.127C143.238 139.7 136.011 146.743 126.979 146.743C117.946 146.743 110.719 139.7 110.719 131.127C110.719 122.554 117.946 115.511 126.979 115.511C136.011 115.511 143.238 122.554 143.238 131.127Z" fill="#ECE9FF" stroke="#5546EE" stroke-width="3"/>
<rect width="88.2645" height="17.3829" rx="8.69147" transform="matrix(0.779405 0.62652 -0.654372 0.756173 68.1985 102.059)" fill="#5546EE"/>
<path d="M71.9584 122.568C65.3984 125.805 57.4115 123.287 54.0896 117.033C50.7676 110.779 53.3171 103.062 59.8771 99.8249C66.437 96.5879 74.4239 99.1065 77.7459 105.36C81.0678 111.614 78.5183 119.331 71.9584 122.568Z" fill="#ECE9FF" stroke="#5546EE" stroke-width="3"/>
<rect width="89.1414" height="17.2062" rx="8.60309" transform="matrix(-0.933232 0.359273 0.382866 0.923804 384.431 110)" fill="#5546EE"/>
<rect width="69.6418" height="17.465" rx="8.7325" transform="matrix(0.693274 0.720674 0.745669 -0.666317 338.061 79.4512)" fill="#5546EE"/>
<path d="M285.229 116.82C285.229 125.393 292.456 132.437 301.489 132.437C310.521 132.437 317.748 125.393 317.748 116.82C317.748 108.247 310.521 101.204 301.489 101.204C292.456 101.204 285.229 108.247 285.229 116.82Z" fill="#ECE9FF" stroke="#5546EE" stroke-width="3"/>
<path d="M390.585 129.12C397.546 126.749 401.128 119.422 398.703 112.81C396.278 106.199 388.715 102.669 381.754 105.04C374.793 107.412 371.211 114.739 373.636 121.35C376.061 127.962 383.625 131.492 390.585 129.12Z" fill="#ECE9FF" stroke="#5546EE" stroke-width="3"/>
<rect x="120.394" width="199.69" height="196.837" rx="16" fill="#5546EE"/>
<rect x="109.517" width="199.69" height="196.837" rx="16" fill="#AAA3F5"/>
<rect x="121.792" y="11.3604" width="176.829" height="175.492" rx="12" fill="#E3DDFD"/>
<ellipse cx="214.086" cy="141" rx="21.7889" ry="21" fill="#5546EE"/>
<ellipse cx="210.973" cy="139" rx="21.7889" ry="21" fill="#AAA3F5"/>
<ellipse cx="210.973" cy="139" rx="18.6762" ry="18" fill="#5546EE"/>
<ellipse cx="260.842" cy="69.7499" rx="29.7235" ry="28.6474" fill="#5546EE"/>
<ellipse cx="255.673" cy="69.7499" rx="29.7235" ry="28.6474" fill="#AAA3F5"/>
<ellipse cx="255.673" cy="69.7497" rx="23.2619" ry="22.4197" fill="#5546EE"/>
<ellipse cx="254.207" cy="62.3779" rx="6.287" ry="7.57421" fill="#ECE9FF"/>
<path fill-rule="evenodd" clip-rule="evenodd" d="M273.197 84.293C269.907 86.0106 266.139 86.9858 262.134 86.9858C249.287 86.9858 238.873 76.9482 238.873 64.5661C238.873 58.921 241.037 53.7631 244.61 49.8217C237.345 53.6142 232.411 61.0261 232.411 69.5486C232.411 81.9306 242.826 91.9682 255.673 91.9682C262.663 91.9682 268.933 88.9968 273.197 84.293Z" fill="#3C2ED1"/>
<ellipse cx="171.067" cy="69.7499" rx="29.7235" ry="28.6474" fill="#5546EE"/>
<ellipse cx="165.898" cy="69.7499" rx="29.7235" ry="28.6474" fill="#AAA3F5"/>
<ellipse cx="165.898" cy="69.7497" rx="23.2619" ry="22.4197" fill="#5546EE"/>
<ellipse cx="164.431" cy="62.3779" rx="6.287" ry="7.57421" fill="#ECE9FF"/>
<path fill-rule="evenodd" clip-rule="evenodd" d="M183.421 84.2935C180.131 86.0107 176.363 86.9858 172.359 86.9858C159.512 86.9858 149.097 76.9481 149.097 64.5661C149.097 58.9207 151.262 53.7627 154.836 49.8212C147.57 53.6136 142.636 61.0257 142.636 69.5485C142.636 81.9306 153.05 91.9682 165.898 91.9682C172.887 91.9682 179.157 88.997 183.421 84.2935Z" fill="#3C2ED1"/>
<path d="M118.147 25.7833C110.647 24.5146 102.837 26.2764 96.4365 30.6813C90.0359 35.0862 85.5682 41.7732 84.0164 49.2714C82.4646 56.7696 83.9558 64.4647 88.1619 70.6638C92.368 76.863 98.9445 81.0584 106.445 82.3271L109.37 68.1912C105.62 67.5568 102.332 65.4591 100.229 62.3595C98.1257 59.26 97.3801 55.4124 98.156 51.6633C98.9319 47.9142 101.166 44.5707 104.366 42.3683C107.566 40.1658 111.471 39.2849 115.221 39.9193L118.147 25.7833Z" fill="#E3DDFD"/>
<ellipse rx="7.25724" ry="7.27278" transform="matrix(-0.985799 -0.165948 0.203529 -0.978642 108.619 75.3169)" fill="#E3DDFD"/>
<ellipse rx="7.25724" ry="7.27278" transform="matrix(-0.985799 -0.165948 0.203529 -0.978642 116.786 33.2563)" fill="#E3DDFD"/>
<path d="M323.167 42.0259C331.015 42.0191 338.546 45.0183 344.102 50.3636C349.657 55.709 352.783 62.9626 352.792 70.5289C352.801 78.0951 349.691 85.3542 344.148 90.7091C338.605 96.0641 331.081 99.0762 323.233 99.083L323.216 84.8187C327.141 84.8153 330.902 83.3092 333.674 80.6318C336.446 77.9543 338 74.3248 337.996 70.5417C337.992 66.7585 336.429 63.1317 333.651 60.459C330.873 57.7864 327.108 56.2868 323.184 56.2901L323.167 42.0259Z" fill="#E3DDFD"/>
<ellipse rx="7.39886" ry="7.13251" transform="matrix(1 -0.000862995 -0.00115253 -0.999999 323.219 91.951)" fill="#E3DDFD"/>
<ellipse rx="7.39886" ry="7.13251" transform="matrix(1 -0.000862995 -0.00115253 -0.999999 323.175 49.1599)" fill="#E3DDFD"/>
</svg>
