<svg width="230" height="312" viewBox="0 0 230 312" fill="none" xmlns="http://www.w3.org/2000/svg">
<g clip-path="url(#clip0_345_3106)">
<path fill-rule="evenodd" clip-rule="evenodd" d="M17.6099 78C15.2099 86.3 13.7899 95.01 13.4599 104H6.85986C7.17986 95.01 8.60986 86.3 11.0099 78H17.6099Z" fill="#FF006A"/>
<path fill-rule="evenodd" clip-rule="evenodd" d="M229.31 104H222.71C222.38 95.01 220.96 86.3 218.56 78H225.17C227.56 86.3 228.99 95.01 229.31 104Z" fill="#81EFEE"/>
<path d="M229.38 156H222.79V182H229.38V156Z" fill="#81EFEE"/>
<path d="M229.38 234H222.79V260H229.38V234Z" fill="#81EFEE"/>
<path d="M222.79 260H216.19V312H222.79V260Z" fill="#81EFEE"/>
<path d="M222.79 182H216.19V234H222.79V182Z" fill="#81EFEE"/>
<path d="M223.19 205H216.19V234H223.19V205Z" fill="#81EFEE"/>
<path fill-rule="evenodd" clip-rule="evenodd" d="M218.56 78H211.96C199.25 33.96 159.27 1.49 111.49 0.05C112.58 0.02 113.68 0 114.79 0C164.02 0 205.56 32.95 218.56 78Z" fill="#81EFEE"/>
<path fill-rule="evenodd" clip-rule="evenodd" d="M222.71 104H13.46C13.79 95.01 15.21 86.3 17.61 78H218.56C220.96 86.3 222.38 95.01 222.71 104Z" fill="#00429B"/>
<path d="M222.79 156H13.3799V182H222.79V156Z" fill="#00429B"/>
<path d="M13.3798 156H6.77979V182H13.3798V156Z" fill="#FF006A"/>
<path d="M222.79 234H13.3799V260H222.79V234Z" fill="#00429B"/>
<path d="M13.3798 234H6.77979V260H13.3798V234Z" fill="#FF006A"/>
<path fill-rule="evenodd" clip-rule="evenodd" d="M111.49 0.05C63.7002 1.49 23.7202 33.96 11.0102 78H4.41016C17.4102 32.95 58.9502 0 108.19 0C109.29 0 110.4 0.02 111.49 0.05Z" fill="#FF006A"/>
<path fill-rule="evenodd" clip-rule="evenodd" d="M6.85994 104C6.80994 105.33 6.77994 106.66 6.77994 108V156H0.189941V108C0.189941 106.66 0.209941 105.33 0.259941 104H6.85994Z" fill="#FF006A"/>
<path d="M6.77994 182H0.189941V234H6.77994V182Z" fill="#FF006A"/>
<path d="M7.18994 182H0.189941V202H7.18994V182Z" fill="#FF006A"/>
<path d="M6.77994 260H0.189941V312H6.77994V260Z" fill="#FF006A"/>
<path d="M216.19 260H6.77979V312H216.19V260Z" fill="#00429B"/>
<path d="M216.19 182H6.77979V234H216.19V182Z" fill="#00429B"/>
<path fill-rule="evenodd" clip-rule="evenodd" d="M222.79 108V156H216.19V108C216.19 106.66 216.16 105.33 216.11 104H222.71C222.76 105.33 222.79 106.66 222.79 108Z" fill="#81EFEE"/>
<path fill-rule="evenodd" clip-rule="evenodd" d="M216.19 108V156H6.77979V108C6.77979 106.66 6.80979 105.33 6.85979 104H216.11C216.16 105.33 216.19 106.66 216.19 108Z" fill="#00429B"/>
<path fill-rule="evenodd" clip-rule="evenodd" d="M211.96 77.9998H11.0098C23.7198 33.9598 63.6998 1.4898 111.49 0.0498047C159.27 1.4898 199.25 33.9598 211.96 77.9998Z" fill="#00429B"/>
<rect x="30.1899" y="247" width="161" height="48" rx="24" fill="#002E87"/>
<path d="M79.2368 276.234C81.9087 276.234 83.9165 275.078 83.9165 271.695H80.3384V272.188C80.3384 273.055 80.1118 273.688 79.2915 273.688C78.4321 273.688 78.1743 273.039 78.1743 272.258V268.539C78.1743 267.703 78.4634 267.102 79.2759 267.102C80.0884 267.102 80.3384 267.695 80.3384 268.547V268.828H83.9165C83.9165 265.867 81.9634 264.562 79.3071 264.562C76.479 264.562 74.5493 266.07 74.5493 269.008V271.859C74.5493 274.742 76.3306 276.234 79.2368 276.234ZM88.4399 276.219C90.8618 276.219 92.5024 274.938 92.5024 272.406V270.891C92.5024 268.375 90.8462 267.141 88.4399 267.141C86.0337 267.141 84.3931 268.383 84.3931 270.891V272.406C84.3931 274.938 86.0181 276.219 88.4399 276.219ZM87.6899 273.016V270.344C87.6899 269.797 87.9321 269.406 88.4478 269.406C88.9634 269.406 89.2056 269.797 89.2056 270.344V273.016C89.2056 273.562 88.9634 273.953 88.4478 273.953C87.9321 273.953 87.6899 273.562 87.6899 273.016ZM93.3071 276H96.5259V270.445C96.5259 270.086 96.7056 269.922 96.9399 269.922C97.1587 269.922 97.2993 270.047 97.2993 270.375V272.312H100.221V269.438C100.221 267.875 99.6743 267.172 98.5806 267.172C97.5962 267.172 96.7993 267.828 96.3931 268.93V267.359H93.3071V276ZM100.917 276H104.135V270.445C104.135 270.086 104.315 269.922 104.549 269.922C104.768 269.922 104.909 270.047 104.909 270.375V272.312H107.831V269.438C107.831 267.875 107.284 267.172 106.19 267.172C105.206 267.172 104.409 267.828 104.002 268.93V267.359H100.917V276ZM112.393 276.219C114.815 276.219 116.456 274.938 116.456 272.406V270.891C116.456 268.375 114.799 267.141 112.393 267.141C109.987 267.141 108.346 268.383 108.346 270.891V272.406C108.346 274.938 109.971 276.219 112.393 276.219ZM111.643 273.016V270.344C111.643 269.797 111.885 269.406 112.401 269.406C112.917 269.406 113.159 269.797 113.159 270.344V273.016C113.159 273.562 112.917 273.953 112.401 273.953C111.885 273.953 111.643 273.562 111.643 273.016ZM117.26 276H120.448V270.305C120.448 269.742 120.737 269.539 121.042 269.539C121.338 269.539 121.549 269.719 121.549 270.203V276H124.745V270.305C124.745 269.734 125.034 269.539 125.338 269.539C125.635 269.539 125.854 269.719 125.854 270.203V276H129.042V269.734C129.042 268.016 128.284 267.141 126.932 267.141C125.799 267.141 124.979 267.812 124.612 268.703C124.362 267.672 123.682 267.141 122.674 267.141C121.534 267.141 120.721 267.812 120.338 268.664V267.359H117.26V276ZM135.487 276.219C137.01 276.219 137.924 275.242 137.924 273.211V270.031C137.924 268.078 137.042 267.141 135.502 267.141C134.534 267.141 133.674 267.68 133.229 268.406V267.359H129.995V278.562H133.229V274.906C133.62 275.656 134.44 276.219 135.487 276.219ZM133.174 272.969V270.406C133.174 269.844 133.37 269.438 133.901 269.438C134.432 269.438 134.627 269.844 134.627 270.406V272.969C134.627 273.547 134.432 273.938 133.901 273.938C133.37 273.938 133.174 273.547 133.174 272.969ZM140.956 276.219C142.104 276.219 142.909 275.547 143.315 274.594V276H146.409V267.359H143.19V273.047C143.19 273.586 142.846 273.805 142.549 273.805C142.237 273.805 141.987 273.617 141.987 273.102V267.359H138.768V273.859C138.768 275.414 139.557 276.219 140.956 276.219Z" fill="#ECE9FF"/>
<path d="M167.19 265.5C168.143 265.531 168.94 265.859 169.581 266.484C170.206 267.125 170.534 267.922 170.565 268.875V270H170.94C171.362 270.016 171.713 270.164 171.995 270.445C172.276 270.727 172.424 271.078 172.44 271.5V276C172.424 276.422 172.276 276.773 171.995 277.055C171.713 277.336 171.362 277.484 170.94 277.5H163.44C163.018 277.484 162.667 277.336 162.385 277.055C162.104 276.773 161.956 276.422 161.94 276V271.5C161.956 271.078 162.104 270.727 162.385 270.445C162.667 270.164 163.018 270.016 163.44 270H163.815V268.875C163.846 267.922 164.174 267.125 164.799 266.484C165.44 265.859 166.237 265.531 167.19 265.5ZM167.19 267C166.659 267.016 166.213 267.195 165.854 267.539C165.51 267.898 165.331 268.344 165.315 268.875V270H169.065V268.875C169.049 268.344 168.87 267.898 168.526 267.539C168.167 267.195 167.721 267.016 167.19 267ZM167.94 273C167.94 272.781 167.87 272.602 167.729 272.461C167.588 272.32 167.409 272.25 167.19 272.25C166.971 272.25 166.792 272.32 166.651 272.461C166.51 272.602 166.44 272.781 166.44 273V274.5C166.44 274.719 166.51 274.898 166.651 275.039C166.792 275.18 166.971 275.25 167.19 275.25C167.409 275.25 167.588 275.18 167.729 275.039C167.87 274.898 167.94 274.719 167.94 274.5V273Z" fill="#ECE9FF"/>
<g clip-path="url(#clip1_345_3106)">
<rect x="30.1899" y="22" width="169" height="169" rx="84.5" fill="#002E87"/>
<path fill-rule="evenodd" clip-rule="evenodd" d="M111.19 55C111.19 50.5817 107.608 47 103.19 47H42.1899C37.7717 47 34.1899 50.5817 34.1899 55C34.1899 59.4183 30.6082 63 26.1899 63H13.1899C8.77166 63 5.18994 66.5817 5.18994 71C5.18994 75.4183 8.77166 79 13.1899 79H19.1899C23.6082 79 27.1899 82.5817 27.1899 87C27.1899 91.4183 30.7717 95 35.1899 95H72.1899C76.6082 95 80.1899 91.4183 80.1899 87C80.1899 82.5817 76.6082 79 72.1899 79H66.1899C61.7717 79 58.1899 75.4183 58.1899 71C58.1899 66.5817 61.7717 63 66.1899 63H103.19C107.608 63 111.19 59.4183 111.19 55ZM93.1899 146C93.1899 141.582 89.6082 138 85.1899 138H24.1899C19.7717 138 16.1899 141.582 16.1899 146C16.1899 150.418 19.7717 154 24.1899 154H25.1899C30.1605 154 34.1899 158.029 34.1899 163V164.5C34.1899 170.299 38.8909 175 44.6899 175H100.69C106.489 175 111.19 170.299 111.19 164.5V163C111.19 158.029 107.161 154 102.19 154H101.19C96.7717 154 93.1899 150.418 93.1899 146ZM268.19 127C268.19 117.611 260.579 110 251.19 110H160.19C150.801 110 143.19 117.611 143.19 127C143.19 136.389 150.801 144 160.19 144H251.19C260.579 144 268.19 136.389 268.19 127ZM143.19 67.5C143.19 65.0147 145.205 63 147.69 63H263.69C266.175 63 268.19 65.0147 268.19 67.5C268.19 69.9853 270.205 72 272.69 72H276.69C279.175 72 281.19 74.0147 281.19 76.5C281.19 78.9853 279.175 81 276.69 81H160.69C158.205 81 156.19 78.9853 156.19 76.5C156.19 74.0147 154.175 72 151.69 72H147.69C145.205 72 143.19 69.9853 143.19 67.5Z" fill="#1850A9"/>
</g>
<path d="M111.377 128.719C115.534 128.719 118.596 125.562 118.596 121.469C118.596 117.406 115.534 114.312 111.377 114.312C107.159 114.312 104.127 117.406 104.127 121.469C104.127 125.562 107.159 128.719 111.377 128.719ZM94.9399 97.6875H111.159C111.034 96.9688 111.002 96.3125 111.002 95.75C111.002 93.0312 112.252 91.7188 114.252 91.7188C116.159 91.7188 117.284 93 117.284 95.5312C117.284 98.9062 115.877 101.531 109.721 101.531H104.815V113.344H117.784V109.469C128.252 108.781 133.346 103.562 133.346 95.8438C133.346 86.7188 125.44 82.1875 114.815 82.1875C103.409 82.1875 95.0649 86.7188 94.9399 97.6875Z" fill="#ECE9FF"/>
</g>
<defs>
<clipPath id="clip0_345_3106">
<rect width="229.19" height="312" fill="white" transform="translate(0.189941)"/>
</clipPath>
<clipPath id="clip1_345_3106">
<rect x="30.1899" y="22" width="169" height="169" rx="84.5" fill="white"/>
</clipPath>
</defs>
</svg>
