<svg width="70" height="70" viewBox="0 0 70 70" fill="none" xmlns="http://www.w3.org/2000/svg">
<g clip-path="url(#clip0_403_4469)">
<rect width="70" height="70" rx="35" fill="#399CFF"/>
<path fill-rule="evenodd" clip-rule="evenodd" d="M1.77734 8.06641C1.77734 5.61241 3.7667 3.62305 6.2207 3.62305H30.5566C33.0106 3.62305 35 5.61241 35 8.06641C35 10.5204 33.0106 12.5098 30.5566 12.5098H6.2207C3.7667 12.5098 1.77734 10.5204 1.77734 8.06641ZM-8.33984 31.1377C-8.33984 26.4751 -4.56006 22.6953 0.102539 22.6953H26.5576C31.2202 22.6953 35 26.4751 35 31.1377C35 35.8003 31.2202 39.5801 26.5576 39.5801H0.102539C-4.56006 39.5801 -8.33984 35.8003 -8.33984 31.1377ZM15.3809 45.3223C15.3809 44.4539 14.6769 43.75 13.8086 43.75H0.820312C-0.0480261 43.75 -0.751953 44.4539 -0.751953 45.3223C-0.751953 46.1906 -0.0480261 46.8945 0.820312 46.8945H2.90527C3.67923 46.8945 4.30664 47.5219 4.30664 48.2959C4.30664 49.0699 4.93405 49.6973 5.70801 49.6973H9.05762C9.83157 49.6973 10.459 49.0699 10.459 48.2959C10.459 47.5219 11.0864 46.8945 11.8604 46.8945H13.8086C14.6769 46.8945 15.3809 46.1906 15.3809 45.3223ZM61.9336 38.0078C61.9336 37.1395 62.6375 36.4355 63.5059 36.4355H76.4941C77.3625 36.4355 78.0664 37.1395 78.0664 38.0078C78.0664 38.8762 77.3625 39.5801 76.4941 39.5801H72.9395C72.0711 39.5801 71.3672 40.284 71.3672 41.1523C71.3672 42.0207 70.6633 42.7246 69.7949 42.7246H56.8066C55.9383 42.7246 55.2344 42.0207 55.2344 41.1523C55.2344 40.284 55.9383 39.5801 56.8066 39.5801H60.3613C61.2297 39.5801 61.9336 38.8762 61.9336 38.0078ZM84.4922 20.2344C84.4922 17.8936 82.5946 15.9961 80.2539 15.9961H45.3906C43.0499 15.9961 41.1523 17.8936 41.1523 20.2344C41.1523 22.5751 43.0499 24.4727 45.3906 24.4727H51.6113C53.9521 24.4727 55.8496 26.3702 55.8496 28.7109C55.8496 31.0517 57.7472 32.9492 60.0879 32.9492H94.9512C97.2919 32.9492 99.1895 31.0517 99.1895 28.7109C99.1895 26.3702 97.2919 24.4727 94.9512 24.4727H88.7305C86.3897 24.4727 84.4922 22.5751 84.4922 20.2344ZM30.2832 71.3672C30.2832 69.0265 32.1807 67.1289 34.5215 67.1289H69.3848C71.7255 67.1289 73.623 69.0265 73.623 71.3672C73.623 73.7079 71.7255 75.6055 69.3848 75.6055H34.5215C32.1807 75.6055 30.2832 73.7079 30.2832 71.3672ZM21.1914 51.5771C21.1914 50.1236 22.3697 48.9453 23.8232 48.9453H32.3682C33.8217 48.9453 35 50.1236 35 51.5771C35 53.0307 33.8217 54.209 32.3682 54.209H29.7705C28.317 54.209 27.1387 55.3873 27.1387 56.8408C27.1387 58.2943 25.9604 59.4727 24.5068 59.4727H15.9619C14.5084 59.4727 13.3301 58.2943 13.3301 56.8408C13.3301 55.3873 14.5084 54.209 15.9619 54.209H18.5596C20.0131 54.209 21.1914 53.0307 21.1914 51.5771ZM54.2773 51.4746C54.2773 50.0777 55.4097 48.9453 56.8066 48.9453H65.4541C66.9076 48.9453 68.0859 50.1236 68.0859 51.5771C68.0859 53.0307 66.9076 54.209 65.4541 54.209H64.4971C62.515 54.209 60.9082 55.8158 60.9082 57.7979V58.7549C60.9082 61.2655 58.8729 63.3008 56.3623 63.3008H51.748C49.1808 63.3008 47.0996 61.2196 47.0996 58.6523V57.5928C47.0996 55.6107 48.7064 54.0039 50.6885 54.0039H51.748C53.1449 54.0039 54.2773 52.8715 54.2773 51.4746Z" fill="#2CE87B"/>
<path fill-rule="evenodd" clip-rule="evenodd" d="M17.5478 58.9324C36.8778 58.9324 52.5478 43.2624 52.5478 23.9324C52.5478 15.2697 49.4007 7.3421 44.1875 1.23048C59.0503 5.27282 69.9795 18.8634 69.9795 35.0066C69.9795 54.3366 54.3094 70.0066 34.9795 70.0066C24.3122 70.0066 14.7595 65.2344 8.33984 57.7085C11.2738 58.5065 14.3611 58.9324 17.5478 58.9324Z" fill="#4F0000" fill-opacity="0.2"/>
<circle opacity="0.2" cx="21.6016" cy="25.498" r="11.5527" fill="#99CAFF"/>
<path fill-rule="evenodd" clip-rule="evenodd" d="M32.2656 15.415C32.2656 14.4146 33.0767 13.6035 34.0771 13.6035H39.4775C40.478 13.6035 41.2891 14.4146 41.2891 15.415V15.5518C41.2891 16.4767 40.5392 17.2266 39.6143 17.2266C38.6893 17.2266 37.9395 17.9764 37.9395 18.9014V19.0381C37.9395 20.0386 37.1284 20.8496 36.1279 20.8496H25.9424C24.9419 20.8496 24.1309 20.0386 24.1309 19.0381C24.1309 18.0376 24.9419 17.2266 25.9424 17.2266H30.4541C31.4546 17.2266 32.2656 16.4155 32.2656 15.415ZM51.6113 32.4365C51.6113 31.436 50.8003 30.625 49.7998 30.625H42.0752C41.0747 30.625 40.2637 31.436 40.2637 32.4365C40.2637 33.437 41.0747 34.248 42.0752 34.248H49.7998C50.8003 34.248 51.6113 33.437 51.6113 32.4365ZM25.7031 43.3057C25.7031 42.3052 24.8921 41.4941 23.8916 41.4941H13.7061C12.7056 41.4941 11.8945 42.3052 11.8945 43.3057C11.8945 44.3061 12.7056 45.1172 13.7061 45.1172H17.5342C18.5347 45.1172 19.3457 45.9282 19.3457 46.9287C19.3457 47.9292 20.1567 48.7402 21.1572 48.7402H31.3428C32.3433 48.7402 33.1543 47.9292 33.1543 46.9287C33.1543 45.9282 32.3433 45.1172 31.3428 45.1172H27.5146C26.5142 45.1172 25.7031 44.3061 25.7031 43.3057ZM47.0312 49.458C47.0312 48.4575 47.8423 47.6465 48.8428 47.6465H53.2861C54.2489 47.6465 55.0293 48.4269 55.0293 49.3896C55.0293 50.3524 55.8097 51.1328 56.7725 51.1328H63.4033C64.4038 51.1328 65.2148 51.9439 65.2148 52.9443C65.2148 53.9448 64.4038 54.7559 63.4033 54.7559H57.5244C56.5239 54.7559 55.7129 55.5669 55.7129 56.5674C55.7129 57.5679 54.9018 58.3789 53.9014 58.3789H42.2119C41.2114 58.3789 40.4004 57.5679 40.4004 56.5674C40.4004 55.5669 41.2114 54.7559 42.2119 54.7559H48.9795C49.9422 54.7559 50.7227 53.9754 50.7227 53.0127C50.7227 52.05 49.9422 51.2695 48.9795 51.2695H48.8428C47.8423 51.2695 47.0312 50.4585 47.0312 49.458Z" fill="#ECE9FF"/>
</g>
<defs>
<clipPath id="clip0_403_4469">
<rect width="70" height="70" rx="35" fill="white"/>
</clipPath>
</defs>
</svg>
