<svg width="406" height="368" viewBox="0 0 406 368" fill="none" xmlns="http://www.w3.org/2000/svg">
<rect x="44.6387" y="30.917" width="58.614" height="17.1163" rx="8.55814" transform="rotate(60 44.6387 30.917)" fill="#5546EE"/>
<circle cx="126.75" cy="106.127" r="15.6163" fill="#ECE9FF" stroke="#5546EE" stroke-width="3"/>
<rect x="70.0984" y="77.0591" width="86.3373" height="17.1163" rx="8.55814" transform="rotate(39.8295 70.0984 77.0591)" fill="#5546EE"/>
<circle cx="67.9005" cy="86.1965" r="12.7636" transform="rotate(62.8889 67.9005 86.1965)" fill="#ECE9FF" stroke="#5546EE" stroke-width="3"/>
<rect width="86.3373" height="17.1163" rx="8.55814" transform="matrix(-0.913987 -0.405743 -0.405743 0.913987 358.56 128.327)" fill="#5546EE"/>
<rect width="68.4415" height="17.1163" rx="8.55814" transform="matrix(0.119129 0.992879 0.992879 -0.119129 342.45 129.435)" fill="#5546EE"/>
<circle r="15.6163" transform="matrix(-1 0 0 1 294.942 97.1163)" fill="#ECE9FF" stroke="#5546EE" stroke-width="3"/>
<circle r="12.7636" transform="matrix(0.655708 0.755014 0.755014 -0.655708 349.824 132.122)" fill="#ECE9FF" stroke="#5546EE" stroke-width="3"/>
<rect x="120.394" width="199.69" height="196.837" rx="16" fill="#5546EE"/>
<rect x="225.051" y="148.341" width="149.767" height="32.8062" rx="16.4031" transform="rotate(90 225.051 148.341)" fill="#E3DDFD"/>
<rect x="199.377" y="251.039" width="19.969" height="116.961" fill="#5546EE"/>
<ellipse cx="200.09" cy="309.52" rx="46.3566" ry="58.4806" fill="#5546EE"/>
<rect x="225.051" y="212.527" width="4.27907" height="32.8062" transform="rotate(90 225.051 212.527)" fill="#AAA3F5"/>
<rect x="225.051" y="222.512" width="4.27907" height="32.8062" transform="rotate(90 225.051 222.512)" fill="#AAA3F5"/>
<rect x="225.051" y="232.496" width="4.27907" height="32.8062" transform="rotate(90 225.051 232.496)" fill="#AAA3F5"/>
<rect x="225.051" y="242.48" width="4.27907" height="32.8062" transform="rotate(90 225.051 242.48)" fill="#AAA3F5"/>
<rect x="225.051" y="202.543" width="4.27907" height="32.8062" transform="rotate(90 225.051 202.543)" fill="#AAA3F5"/>
<rect opacity="0.4" x="225.051" y="148.341" width="149.767" height="14.2636" rx="7.13178" transform="rotate(90 225.051 148.341)" fill="#5546EE"/>
<rect x="109.517" width="199.69" height="196.837" rx="16" fill="#AAA3F5"/>
<rect x="121.792" y="11.3604" width="176.829" height="175.492" rx="12" fill="#E3DDFD"/>
<path d="M228.702 134H231.702L228.702 132V134Z" fill="#5546EE"/>
<path d="M189.704 141C189.704 146.57 191.916 151.911 195.854 155.849C199.793 159.788 205.134 162 210.704 162C216.273 162 221.615 159.788 225.553 155.849C229.491 151.911 231.704 146.57 231.704 141L210.704 141L189.704 141Z" fill="#5546EE"/>
<rect x="189.702" y="134" width="42" height="7" fill="#5546EE"/>
<path d="M186.704 139C186.704 141.758 187.247 144.489 188.302 147.036C189.357 149.584 190.904 151.899 192.854 153.849C194.804 155.799 197.119 157.346 199.667 158.401C202.215 159.457 204.946 160 207.704 160C210.461 160 213.192 159.457 215.74 158.401C218.288 157.346 220.603 155.799 222.553 153.849C224.503 151.899 226.05 149.584 227.105 147.036C228.16 144.489 228.704 141.758 228.704 139H207.704L186.704 139Z" fill="#AAA3F5"/>
<rect x="186.702" y="132" width="42" height="7" fill="#AAA3F5"/>
<path d="M189.704 139C189.704 141.364 190.169 143.704 191.074 145.888C191.978 148.072 193.304 150.056 194.976 151.728C196.647 153.399 198.631 154.725 200.815 155.63C202.999 156.534 205.34 157 207.704 157C210.067 157 212.408 156.534 214.592 155.63C216.776 154.725 218.76 153.399 220.432 151.728C222.103 150.056 223.429 148.072 224.333 145.888C225.238 143.704 225.704 141.364 225.704 139H207.704L189.704 139Z" fill="#5546EE"/>
<circle cx="255.767" cy="69.7498" r="28.6474" fill="#5546EE"/>
<circle cx="250.785" cy="69.7499" r="28.6474" fill="#AAA3F5"/>
<circle cx="250.785" cy="69.7499" r="22.4197" fill="#5546EE"/>
<ellipse cx="249.371" cy="62.3774" rx="6.05937" ry="7.57421" fill="#ECE9FF"/>
<path fill-rule="evenodd" clip-rule="evenodd" d="M267.674 84.2934C264.504 86.0106 260.872 86.9857 257.013 86.9857C244.631 86.9857 234.593 76.9481 234.593 64.566C234.593 58.9207 236.68 53.7627 240.124 49.8212C233.121 53.6136 228.365 61.0257 228.365 69.5485C228.365 81.9306 238.403 91.9682 250.785 91.9682C257.522 91.9682 263.565 88.9969 267.674 84.2934Z" fill="#3C2ED1"/>
<circle cx="169.243" cy="69.7498" r="28.6474" fill="#5546EE"/>
<circle cx="164.26" cy="69.7499" r="28.6474" fill="#AAA3F5"/>
<circle cx="164.26" cy="69.7499" r="22.4197" fill="#5546EE"/>
<ellipse cx="162.846" cy="62.3774" rx="6.05937" ry="7.57421" fill="#ECE9FF"/>
<path fill-rule="evenodd" clip-rule="evenodd" d="M180.932 84.4098C177.813 86.0547 174.259 86.9858 170.488 86.9858C158.106 86.9858 148.068 76.9481 148.068 64.5661C148.068 58.8029 150.243 53.5476 153.816 49.5759C146.695 53.3317 141.841 60.8088 141.841 69.4196C141.841 81.8017 151.878 91.8393 164.26 91.8393C170.879 91.8393 176.828 88.9711 180.932 84.4098Z" fill="#3C2ED1"/>
<ellipse cx="217.206" cy="309.52" rx="46.3566" ry="58.4806" fill="#AAA3F5"/>
<ellipse cx="217.92" cy="309.519" rx="34.2326" ry="47.0698" fill="#ECE9FF"/>
<path d="M240.741 309.519C240.741 304.836 240.151 300.2 239.004 295.873C237.857 291.547 236.176 287.616 234.057 284.305C231.938 280.993 229.422 278.367 226.653 276.575C223.884 274.783 220.917 273.86 217.92 273.86C214.923 273.86 211.955 274.783 209.186 276.575C206.417 278.367 203.901 280.993 201.782 284.305C199.663 287.616 197.982 291.547 196.835 295.873C195.688 300.2 195.098 304.836 195.098 309.519L217.92 309.519H240.741Z" fill="#AAA3F5"/>
<path d="M195.098 309.519C195.098 314.202 195.688 318.839 196.835 323.165C197.982 327.492 199.663 331.423 201.782 334.734C203.901 338.045 206.417 340.672 209.186 342.464C211.955 344.256 214.923 345.178 217.92 345.178C220.916 345.178 223.884 344.256 226.653 342.464C229.422 340.672 231.938 338.045 234.057 334.734C236.176 331.423 237.857 327.492 239.004 323.165C240.151 318.839 240.741 314.202 240.741 309.519L217.92 309.519L195.098 309.519Z" fill="#E3DDFD"/>
<path d="M226.874 309.519C226.874 313.922 225.728 317.815 223.981 320.544C222.22 323.296 220.029 324.636 217.92 324.636C215.81 324.636 213.62 323.296 211.858 320.544C210.111 317.815 208.965 313.922 208.965 309.519C208.965 305.117 210.111 301.224 211.858 298.494C213.62 295.742 215.81 294.403 217.92 294.403C220.029 294.403 222.22 295.742 223.981 298.494C225.728 301.224 226.874 305.117 226.874 309.519Z" fill="#3C2ED1" stroke="#ECE9FF" stroke-width="4"/>
<path d="M5.26743 36.222C9.16163 42.9019 15.4771 47.8308 22.8245 49.9244C30.1719 52.018 37.9494 51.1049 44.446 47.3858C50.9426 43.6667 55.6261 37.4463 57.4663 30.0931C59.3065 22.7399 58.1525 14.8562 54.2583 8.17628L42.0106 15.1877C43.9577 18.5277 44.5347 22.4695 43.6146 26.1461C42.6945 29.8227 40.3527 32.9329 37.1044 34.7924C33.8561 36.652 29.9674 37.1086 26.2937 36.0618C22.62 35.015 19.4622 32.5505 17.5151 29.2105L5.26743 36.222Z" fill="#E3DDFD"/>
<ellipse rx="7.25826" ry="7.0295" transform="matrix(0.503028 0.862194 -0.866504 0.495649 48.5017 11.7422)" fill="#E3DDFD"/>
<ellipse rx="7.25826" ry="7.0295" transform="matrix(0.503028 0.862194 -0.866504 0.495649 11.4438 33.1375)" fill="#E3DDFD"/>
<path d="M329.702 213.527C329.702 205.961 332.707 198.705 338.057 193.356C343.407 188.006 350.663 185 358.229 185C365.795 185 373.051 188.006 378.401 193.356C383.751 198.705 386.756 205.961 386.756 213.527L372.493 213.527C372.493 209.744 370.99 206.116 368.315 203.441C365.64 200.767 362.012 199.264 358.229 199.264C354.446 199.264 350.818 200.767 348.143 203.441C345.468 206.116 343.965 209.744 343.965 213.527L329.702 213.527Z" fill="#E3DDFD"/>
<circle r="7.13178" transform="matrix(-4.70652e-08 -1 -1 4.05965e-08 379.624 213.527)" fill="#E3DDFD"/>
<circle r="7.13178" transform="matrix(-4.70652e-08 -1 -1 4.05965e-08 336.834 213.527)" fill="#E3DDFD"/>
<path fill-rule="evenodd" clip-rule="evenodd" d="M218.285 153.56C217.013 149.192 212.981 146 208.202 146C203.214 146 199.039 149.478 197.968 154.141C198.868 154.72 199.82 155.218 200.814 155.63C202.998 156.534 205.338 157 207.702 157C210.066 157 212.406 156.534 214.59 155.63C215.902 155.087 217.142 154.391 218.285 153.56Z" fill="#3C2ED1"/>
</svg>
