<svg width="386" height="368" viewBox="0 0 386 368" fill="none" xmlns="http://www.w3.org/2000/svg">
<rect x="42.937" y="30.917" width="58.614" height="17.1163" rx="8.55814" transform="rotate(60 42.937 30.917)" fill="#7F79BB"/>
<circle cx="125.048" cy="106.127" r="15.6163" fill="#D2CBF4" stroke="#7F79BB" stroke-width="3"/>
<rect x="68.3965" y="77.0586" width="86.3373" height="17.1163" rx="8.55814" transform="rotate(39.8295 68.3965 77.0586)" fill="#7F79BB"/>
<circle cx="66.1983" cy="86.1965" r="12.7636" transform="rotate(62.8889 66.1983 86.1965)" fill="#D2CBF4" stroke="#7F79BB" stroke-width="3"/>
<rect width="86.3373" height="17.1163" rx="8.55814" transform="matrix(-0.913987 -0.405743 -0.405743 0.913987 356.858 128.327)" fill="#7F79BB"/>
<rect width="68.4415" height="17.1163" rx="8.55814" transform="matrix(0.119129 0.992879 0.992879 -0.119129 340.749 129.435)" fill="#7F79BB"/>
<circle r="15.6163" transform="matrix(-1 0 0 1 293.241 97.1163)" fill="#D2CBF4" stroke="#7F79BB" stroke-width="3"/>
<circle r="12.7636" transform="matrix(0.655708 0.755014 0.755014 -0.655708 348.122 132.122)" fill="#D2CBF4" stroke="#7F79BB" stroke-width="3"/>
<rect x="118.692" width="199.69" height="196.837" rx="16" fill="#7F79BB"/>
<rect x="223.35" y="148.341" width="149.767" height="32.8062" rx="16.4031" transform="rotate(90 223.35 148.341)" fill="#D2CBF4"/>
<rect x="197.675" y="251.039" width="19.969" height="116.961" fill="#7F79BB"/>
<ellipse cx="198.388" cy="309.52" rx="46.3566" ry="58.4806" fill="#7F79BB"/>
<rect x="223.35" y="212.527" width="4.27907" height="32.8062" transform="rotate(90 223.35 212.527)" fill="#ABA6E1"/>
<rect x="223.35" y="222.512" width="4.27907" height="32.8062" transform="rotate(90 223.35 222.512)" fill="#ABA6E1"/>
<rect x="223.35" y="232.496" width="4.27907" height="32.8062" transform="rotate(90 223.35 232.496)" fill="#ABA6E1"/>
<rect x="223.35" y="242.48" width="4.27907" height="32.8062" transform="rotate(90 223.35 242.48)" fill="#ABA6E1"/>
<rect x="223.35" y="202.543" width="4.27907" height="32.8062" transform="rotate(90 223.35 202.543)" fill="#ABA6E1"/>
<rect opacity="0.4" x="223.35" y="148.341" width="149.767" height="14.2636" rx="7.13178" transform="rotate(90 223.35 148.341)" fill="#7F79BB"/>
<rect x="107.815" width="199.69" height="196.837" rx="16" fill="#ABA6E1"/>
<rect x="120.09" y="11.3604" width="176.829" height="175.492" rx="12" fill="#D2CBF4"/>
<path d="M227 134H230L227 132V134Z" fill="#7F79BB"/>
<path d="M188.002 141C188.002 146.57 190.214 151.911 194.153 155.849C198.091 159.788 203.432 162 209.002 162C214.571 162 219.913 159.788 223.851 155.849C227.789 151.911 230.002 146.57 230.002 141L209.002 141L188.002 141Z" fill="#7F79BB"/>
<rect x="188" y="134" width="42" height="7" fill="#7F79BB"/>
<path d="M185.002 139C185.002 141.758 185.545 144.489 186.6 147.036C187.656 149.584 189.203 151.899 191.153 153.849C193.103 155.799 195.418 157.346 197.966 158.401C200.513 159.457 203.244 160 206.002 160C208.76 160 211.49 159.457 214.038 158.401C216.586 157.346 218.901 155.799 220.851 153.849C222.801 151.899 224.348 149.584 225.403 147.036C226.459 144.489 227.002 141.758 227.002 139H206.002L185.002 139Z" fill="#ABA6E1"/>
<rect x="185" y="132" width="42" height="7" fill="#ABA6E1"/>
<path d="M188.002 139C188.002 141.364 188.468 143.704 189.372 145.888C190.277 148.072 191.603 150.056 193.274 151.728C194.945 153.399 196.93 154.725 199.114 155.63C201.298 156.534 203.638 157 206.002 157C208.366 157 210.706 156.534 212.89 155.63C215.074 154.725 217.058 153.399 218.73 151.728C220.401 150.056 221.727 148.072 222.632 145.888C223.536 143.704 224.002 141.364 224.002 139H206.002L188.002 139Z" fill="#6C50E9"/>
<circle cx="254.066" cy="69.7499" r="28.6474" fill="#7F79BB"/>
<circle cx="249.084" cy="69.7499" r="28.6474" fill="#ABA6E1"/>
<circle cx="249.084" cy="69.7497" r="22.4197" fill="#6C50E9"/>
<ellipse cx="247.67" cy="62.3779" rx="6.05937" ry="7.57421" fill="#ECE9FF"/>
<path fill-rule="evenodd" clip-rule="evenodd" d="M265.973 84.2935C262.802 86.0108 259.171 86.9858 255.312 86.9858C242.929 86.9858 232.892 76.9482 232.892 64.5662C232.892 58.9208 234.978 53.7628 238.422 49.8213C231.42 53.6137 226.664 61.0258 226.664 69.5487C226.664 81.9307 236.702 91.9683 249.084 91.9683C255.82 91.9683 261.863 88.9971 265.973 84.2935Z" fill="#513CAF"/>
<circle cx="167.54" cy="69.7499" r="28.6474" fill="#7F79BB"/>
<circle cx="162.558" cy="69.7499" r="28.6474" fill="#ABA6E1"/>
<circle cx="162.558" cy="69.7497" r="22.4197" fill="#6C50E9"/>
<ellipse cx="161.145" cy="62.3779" rx="6.05937" ry="7.57421" fill="#ECE9FF"/>
<path fill-rule="evenodd" clip-rule="evenodd" d="M179.448 84.2935C176.277 86.0108 172.645 86.9858 168.786 86.9858C156.404 86.9858 146.366 76.9482 146.366 64.5662C146.366 58.9208 148.453 53.7628 151.897 49.8213C144.894 53.6137 140.139 61.0258 140.139 69.5487C140.139 81.9307 150.176 91.9683 162.558 91.9683C169.295 91.9683 175.338 88.9971 179.448 84.2935Z" fill="#513CAF"/>
<ellipse cx="215.505" cy="309.52" rx="46.3566" ry="58.4806" fill="#ABA6E1"/>
<ellipse cx="216.218" cy="309.519" rx="34.2326" ry="47.0698" fill="#ECE9FF"/>
<path d="M239.039 309.519C239.039 304.836 238.449 300.2 237.302 295.873C236.155 291.547 234.474 287.616 232.355 284.305C230.236 280.993 227.72 278.367 224.951 276.575C222.182 274.783 219.215 273.86 216.218 273.86C213.221 273.86 210.253 274.783 207.484 276.575C204.715 278.367 202.2 280.993 200.08 284.305C197.961 287.616 196.28 291.547 195.133 295.873C193.986 300.2 193.396 304.836 193.396 309.519L216.218 309.519H239.039Z" fill="#ABA6E1"/>
<path d="M193.396 309.52C193.396 314.203 193.986 318.84 195.133 323.166C196.28 327.492 197.961 331.423 200.08 334.734C202.2 338.046 204.715 340.672 207.484 342.464C210.253 344.256 213.221 345.179 216.218 345.179C219.215 345.179 222.182 344.256 224.951 342.464C227.72 340.672 230.236 338.046 232.355 334.734C234.474 331.423 236.155 327.492 237.302 323.166C238.449 318.84 239.04 314.203 239.04 309.52L216.218 309.52L193.396 309.52Z" fill="#D2CBF4"/>
<path d="M225.172 309.52C225.172 313.922 224.026 317.815 222.279 320.545C220.518 323.297 218.327 324.636 216.218 324.636C214.108 324.636 211.918 323.297 210.156 320.545C208.409 317.815 207.263 313.922 207.263 309.52C207.263 305.117 208.409 301.224 210.156 298.495C211.918 295.743 214.108 294.403 216.218 294.403C218.327 294.403 220.518 295.743 222.279 298.495C224.026 301.224 225.172 305.117 225.172 309.52Z" fill="#7F79BB" stroke="#ECE9FF" stroke-width="4"/>
<path d="M3.56563 36.7029C7.34856 43.2551 13.5794 48.0362 20.8875 49.9944C28.1956 51.9526 35.9822 50.9275 42.5344 47.1446C49.0866 43.3616 53.8678 37.1308 55.8259 29.8227C57.7841 22.5147 56.759 14.728 52.9761 8.17579L40.6235 15.3076C42.5149 18.5837 43.0275 22.477 42.0484 26.131C41.0693 29.7851 38.6787 32.9005 35.4026 34.792C32.1265 36.6834 28.2332 37.196 24.5792 36.2169C20.9251 35.2378 17.8097 32.8472 15.9182 29.5711L3.56563 36.7029Z" fill="#D2CBF4"/>
<circle cx="46.7997" cy="11.7422" r="7.13178" transform="rotate(60 46.7997 11.7422)" fill="#D2CBF4"/>
<circle cx="9.74164" cy="33.1377" r="7.13178" transform="rotate(60 9.74164 33.1377)" fill="#D2CBF4"/>
<path d="M328 213.527C328 205.961 331.005 198.705 336.355 193.356C341.705 188.006 348.961 185 356.527 185C364.093 185 371.349 188.006 376.699 193.356C382.049 198.705 385.054 205.961 385.054 213.527L370.791 213.527C370.791 209.744 369.288 206.116 366.613 203.441C363.938 200.767 360.31 199.264 356.527 199.264C352.744 199.264 349.116 200.767 346.441 203.441C343.766 206.116 342.264 209.744 342.264 213.527L328 213.527Z" fill="#D2CBF4"/>
<circle r="7.13178" transform="matrix(-4.37114e-08 -1 -1 4.37114e-08 377.922 213.527)" fill="#D2CBF4"/>
<circle r="7.13178" transform="matrix(-4.37114e-08 -1 -1 4.37114e-08 335.132 213.527)" fill="#D2CBF4"/>
<path fill-rule="evenodd" clip-rule="evenodd" d="M216.583 153.56C215.312 149.192 211.279 146 206.5 146C201.512 146 197.337 149.478 196.266 154.141C197.166 154.72 198.118 155.218 199.112 155.63C201.296 156.534 203.636 157 206 157C208.364 157 210.705 156.534 212.888 155.63C214.2 155.087 215.44 154.391 216.583 153.56Z" fill="#513CAF"/>
</svg>
