<svg width="406" height="368" viewBox="0 0 406 368" fill="none" xmlns="http://www.w3.org/2000/svg">
<rect x="76.0173" y="52" width="58.614" height="17.1163" rx="8.55814" transform="rotate(90 76.0173 52)" fill="#5546EE"/>
<circle cx="126.95" cy="131.127" r="15.6163" fill="#ECE9FF" stroke="#5546EE" stroke-width="3"/>
<rect x="70.2976" y="102.059" width="86.3373" height="17.1163" rx="8.55814" transform="rotate(39.8295 70.2976 102.059)" fill="#5546EE"/>
<circle cx="68.0997" cy="111.197" r="12.7636" transform="rotate(62.8889 68.0997 111.197)" fill="#ECE9FF" stroke="#5546EE" stroke-width="3"/>
<rect width="86.3373" height="17.1163" rx="8.55814" transform="matrix(-0.913987 -0.405743 -0.405743 0.913987 358.759 148.031)" fill="#5546EE"/>
<rect width="68.4415" height="17.1163" rx="8.55814" transform="matrix(-0.253155 0.967426 0.967426 0.253155 342.229 146)" fill="#5546EE"/>
<circle r="15.6163" transform="matrix(-1 0 0 1 295.142 116.82)" fill="#ECE9FF" stroke="#5546EE" stroke-width="3"/>
<circle r="12.7636" transform="matrix(0.333268 0.942832 0.942832 -0.333268 348.105 151.202)" fill="#ECE9FF" stroke="#5546EE" stroke-width="3"/>
<rect x="120.593" width="199.69" height="196.837" rx="16" fill="#5546EE"/>
<rect x="225.25" y="148.341" width="149.767" height="32.8062" rx="16.4031" transform="rotate(90 225.25 148.341)" fill="#E3DDFD"/>
<rect x="199.576" y="251.039" width="19.969" height="116.961" fill="#5546EE"/>
<ellipse cx="200.289" cy="309.52" rx="46.3566" ry="58.4806" fill="#5546EE"/>
<rect x="225.25" y="212.527" width="4.27907" height="32.8062" transform="rotate(90 225.25 212.527)" fill="#AAA3F5"/>
<rect x="225.25" y="222.512" width="4.27907" height="32.8062" transform="rotate(90 225.25 222.512)" fill="#AAA3F5"/>
<rect x="225.25" y="232.496" width="4.27907" height="32.8062" transform="rotate(90 225.25 232.496)" fill="#AAA3F5"/>
<rect x="225.25" y="242.48" width="4.27907" height="32.8062" transform="rotate(90 225.25 242.48)" fill="#AAA3F5"/>
<rect x="225.25" y="202.543" width="4.27907" height="32.8062" transform="rotate(90 225.25 202.543)" fill="#AAA3F5"/>
<rect opacity="0.4" x="225.25" y="148.341" width="149.767" height="14.2636" rx="7.13178" transform="rotate(90 225.25 148.341)" fill="#5546EE"/>
<rect x="109.716" width="199.69" height="196.837" rx="16" fill="#AAA3F5"/>
<rect x="121.991" y="11.3604" width="176.829" height="175.492" rx="12" fill="#E3DDFD"/>
<path d="M228.901 134H231.901L228.901 132V134Z" fill="#5546EE"/>
<path d="M189.903 141C189.903 146.57 192.115 151.911 196.054 155.849C199.992 159.788 205.333 162 210.903 162C216.472 162 221.814 159.788 225.752 155.849C229.69 151.911 231.903 146.57 231.903 141L210.903 141L189.903 141Z" fill="#5546EE"/>
<rect x="189.901" y="134" width="42" height="7" fill="#5546EE"/>
<path d="M186.903 139C186.903 141.758 187.446 144.489 188.501 147.036C189.557 149.584 191.104 151.899 193.054 153.849C195.004 155.799 197.319 157.346 199.866 158.401C202.414 159.457 205.145 160 207.903 160C210.661 160 213.391 159.457 215.939 158.401C218.487 157.346 220.802 155.799 222.752 153.849C224.702 151.899 226.249 149.584 227.304 147.036C228.36 144.489 228.903 141.758 228.903 139H207.903L186.903 139Z" fill="#AAA3F5"/>
<rect x="186.901" y="132" width="42" height="7" fill="#AAA3F5"/>
<path d="M189.903 139C189.903 141.364 190.368 143.704 191.273 145.888C192.178 148.072 193.503 150.056 195.175 151.728C196.846 153.399 198.831 154.725 201.015 155.63C203.198 156.534 205.539 157 207.903 157C210.267 157 212.607 156.534 214.791 155.63C216.975 154.725 218.959 153.399 220.631 151.728C222.302 150.056 223.628 148.072 224.533 145.888C225.437 143.704 225.903 141.364 225.903 139H207.903L189.903 139Z" fill="#5546EE"/>
<circle cx="255.967" cy="69.7498" r="28.6474" fill="#5546EE"/>
<circle cx="250.985" cy="69.7499" r="28.6474" fill="#AAA3F5"/>
<circle cx="250.985" cy="69.7499" r="22.4197" fill="#5546EE"/>
<ellipse cx="249.571" cy="62.3774" rx="6.05937" ry="7.57421" fill="#ECE9FF"/>
<path fill-rule="evenodd" clip-rule="evenodd" d="M267.874 84.2934C264.703 86.0106 261.072 86.9857 257.212 86.9857C244.83 86.9857 234.793 76.9481 234.793 64.566C234.793 58.9207 236.879 53.7627 240.323 49.8212C233.321 53.6136 228.565 61.0257 228.565 69.5485C228.565 81.9306 238.603 91.9682 250.985 91.9682C257.721 91.9682 263.764 88.9969 267.874 84.2934Z" fill="#3C2ED1"/>
<circle cx="169.442" cy="69.7498" r="28.6474" fill="#5546EE"/>
<circle cx="164.46" cy="69.7499" r="28.6474" fill="#AAA3F5"/>
<circle cx="164.46" cy="69.7499" r="22.4197" fill="#5546EE"/>
<ellipse cx="163.046" cy="62.3774" rx="6.05937" ry="7.57421" fill="#ECE9FF"/>
<path fill-rule="evenodd" clip-rule="evenodd" d="M181.349 84.2934C178.178 86.0106 174.547 86.9857 170.687 86.9857C158.305 86.9857 148.268 76.9481 148.268 64.566C148.268 58.9207 150.354 53.7627 153.798 49.8212C146.796 53.6136 142.04 61.0257 142.04 69.5485C142.04 81.9306 152.078 91.9682 164.46 91.9682C171.196 91.9682 177.239 88.9969 181.349 84.2934Z" fill="#3C2ED1"/>
<ellipse cx="217.406" cy="309.52" rx="46.3566" ry="58.4806" fill="#AAA3F5"/>
<ellipse cx="218.119" cy="309.519" rx="34.2326" ry="47.0698" fill="#ECE9FF"/>
<path d="M240.941 309.519C240.941 304.836 240.35 300.2 239.203 295.873C238.056 291.547 236.375 287.616 234.256 284.305C232.137 280.993 229.621 278.367 226.852 276.575C224.083 274.783 221.116 273.86 218.119 273.86C215.122 273.86 212.154 274.783 209.385 276.575C206.616 278.367 204.101 280.993 201.981 284.305C199.862 287.616 198.181 291.547 197.034 295.873C195.887 300.2 195.297 304.836 195.297 309.519L218.119 309.519H240.941Z" fill="#AAA3F5"/>
<path d="M195.297 309.519C195.297 314.202 195.887 318.839 197.034 323.165C198.181 327.492 199.862 331.423 201.981 334.734C204.101 338.045 206.616 340.672 209.385 342.464C212.154 344.256 215.122 345.178 218.119 345.178C221.116 345.178 224.083 344.256 226.852 342.464C229.621 340.672 232.137 338.045 234.256 334.734C236.375 331.423 238.056 327.492 239.203 323.165C240.35 318.839 240.94 314.202 240.94 309.519L218.119 309.519L195.297 309.519Z" fill="#E3DDFD"/>
<path d="M227.073 309.519C227.073 313.922 225.927 317.815 224.18 320.544C222.419 323.296 220.228 324.636 218.119 324.636C216.009 324.636 213.819 323.296 212.058 320.544C210.311 317.815 209.165 313.922 209.165 309.519C209.165 305.117 210.311 301.224 212.058 298.494C213.819 295.742 216.009 294.403 218.119 294.403C220.228 294.403 222.419 295.742 224.18 298.494C225.927 301.224 227.073 305.117 227.073 309.519Z" fill="#3C2ED1" stroke="#ECE9FF" stroke-width="4"/>
<path d="M41.4387 33.609C40.2352 41.389 42.0214 49.1959 46.4043 55.3124C50.7872 61.4289 57.4078 65.354 64.8096 66.2241C72.2115 67.0942 79.7882 64.8381 85.873 59.9521C91.9579 55.0661 96.0524 47.9505 97.2559 40.1705L83.3016 38.5302C82.6998 42.4201 80.6526 45.978 77.6102 48.421C74.5677 50.8639 70.7794 51.992 67.0785 51.5569C63.3775 51.1219 60.0672 49.1594 57.8758 46.1011C55.6843 43.0428 54.7912 39.1394 55.393 35.2494L41.4387 33.609Z" fill="#E3DDFD"/>
<ellipse rx="7.3038" ry="6.94828" transform="matrix(-0.153581 0.987714 -0.992932 -0.116119 90.1881 40.2807)" fill="#E3DDFD"/>
<ellipse rx="7.3038" ry="6.94828" transform="matrix(-0.153581 0.987714 -0.992932 -0.116119 47.7814 34.5621)" fill="#E3DDFD"/>
<path d="M298.615 215.542C302.825 208.768 309.375 203.773 316.824 201.657C324.272 199.54 332.01 200.475 338.334 204.256C344.659 208.037 349.051 214.354 350.546 221.818C352.042 229.281 350.516 237.28 346.306 244.054L334.384 236.926C336.489 233.539 337.251 229.54 336.504 225.808C335.756 222.076 333.56 218.917 330.397 217.027C327.235 215.137 323.367 214.669 319.642 215.727C315.918 216.786 312.643 219.283 310.538 222.67L298.615 215.542Z" fill="#E3DDFD"/>
<ellipse rx="7.51402" ry="6.93909" transform="matrix(0.521311 -0.837177 -0.848013 -0.505976 341.243 240.342)" fill="#E3DDFD"/>
<ellipse rx="7.51402" ry="6.93909" transform="matrix(0.521311 -0.837177 -0.848013 -0.505976 304.705 218.071)" fill="#E3DDFD"/>
<path fill-rule="evenodd" clip-rule="evenodd" d="M218.484 153.56C217.213 149.192 213.18 146 208.401 146C203.413 146 199.238 149.478 198.167 154.141C199.067 154.72 200.019 155.218 201.013 155.63C203.197 156.534 205.537 157 207.901 157C210.265 157 212.606 156.534 214.789 155.63C216.101 155.087 217.341 154.391 218.484 153.56Z" fill="#3C2ED1"/>
</svg>
