<svg width="409" height="343" viewBox="0 0 409 343" fill="none" xmlns="http://www.w3.org/2000/svg">
<rect x="59.5225" y="81.4461" width="80" height="16" transform="rotate(35.0787 59.5225 81.4461)" fill="#7F79BB"/>
<rect x="55.4863" y="102.923" width="64" height="17" transform="rotate(-114.921 55.4863 102.923)" fill="#7F79BB"/>
<circle cx="61.4718" cy="92.5906" r="12.5" transform="rotate(35.0787 61.4718 92.5906)" fill="#D2CBF4" stroke="#7F79BB" stroke-width="3"/>
<rect width="80" height="16" transform="matrix(-0.866025 -0.5 -0.5 0.866025 378.543 138.278)" fill="#7F79BB"/>
<rect width="64" height="17" transform="matrix(-4.87782e-08 -1 -1 4.87782e-08 375.016 198.352)" fill="#7F79BB"/>
<circle r="12.5" transform="matrix(-0.818363 0.574702 0.574702 0.818363 366.604 139.87)" fill="#D2CBF4" stroke="#7F79BB" stroke-width="3"/>
<rect x="225.985" y="210" width="58" height="33" transform="rotate(90 225.985 210)" fill="#D2CBF4"/>
<rect x="225.985" y="226" width="4" height="33" transform="rotate(90 225.985 226)" fill="#ABA6E1"/>
<rect x="225.985" y="236" width="4" height="33" transform="rotate(90 225.985 236)" fill="#ABA6E1"/>
<rect x="225.985" y="245" width="5" height="33" transform="rotate(90 225.985 245)" fill="#ABA6E1"/>
<rect x="225.985" y="255" width="5" height="33" transform="rotate(90 225.985 255)" fill="#ABA6E1"/>
<rect x="225.985" y="216" width="4" height="33" transform="rotate(90 225.985 216)" fill="#ABA6E1"/>
<rect opacity="0.4" x="225.985" y="203" width="77" height="16" rx="8" transform="rotate(90 225.985 203)" fill="#7F79BB"/>
<rect x="121.675" y="13" width="199.69" height="196.837" rx="16" fill="#7F79BB"/>
<rect x="110.798" y="13" width="199.69" height="196.837" rx="16" fill="#ABA6E1"/>
<rect x="123.073" y="24.3607" width="176.829" height="175.492" rx="12" fill="#D2CBF4"/>
<path d="M230 147H233L230 145V147Z" fill="#7F79BB"/>
<path d="M191.002 154C191.002 159.57 193.214 164.911 197.153 168.849C201.091 172.788 206.432 175 212.002 175C217.571 175 222.913 172.788 226.851 168.849C230.789 164.911 233.002 159.57 233.002 154L212.002 154L191.002 154Z" fill="#7F79BB"/>
<rect x="191" y="147" width="42" height="7" fill="#7F79BB"/>
<path d="M188.002 152C188.002 154.758 188.545 157.489 189.6 160.036C190.656 162.584 192.203 164.899 194.153 166.849C196.103 168.799 198.418 170.346 200.966 171.401C203.513 172.457 206.244 173 209.002 173C211.76 173 214.49 172.457 217.038 171.401C219.586 170.346 221.901 168.799 223.851 166.849C225.801 164.899 227.348 162.584 228.403 160.036C229.459 157.489 230.002 154.758 230.002 152H209.002L188.002 152Z" fill="#ABA6E1"/>
<rect x="188" y="145" width="42" height="7" fill="#ABA6E1"/>
<path d="M191.002 152C191.002 154.364 191.468 156.704 192.372 158.888C193.277 161.072 194.603 163.056 196.274 164.728C197.945 166.399 199.93 167.725 202.114 168.63C204.298 169.534 206.638 170 209.002 170C211.366 170 213.706 169.534 215.89 168.63C218.074 167.725 220.058 166.399 221.73 164.728C223.401 163.056 224.727 161.072 225.632 158.888C226.536 156.704 227.002 154.364 227.002 152H209.002L191.002 152Z" fill="#6C50E9"/>
<rect x="191" y="148" width="36" height="4" fill="#6C50E9"/>
<path fill-rule="evenodd" clip-rule="evenodd" d="M219.583 166.56C218.312 162.192 214.279 159 209.501 159C204.513 159 200.337 162.478 199.267 167.141C200.167 167.72 201.119 168.218 202.112 168.63C204.296 169.534 206.637 170 209.001 170C211.364 170 213.705 169.534 215.889 168.63C217.201 168.087 218.44 167.391 219.583 166.56Z" fill="#513CAF"/>
<circle cx="257.049" cy="82.7498" r="28.6474" fill="#7F79BB"/>
<circle cx="252.066" cy="82.7498" r="28.6474" fill="#ABA6E1"/>
<circle cx="252.066" cy="82.7498" r="22.4197" fill="#6C50E9"/>
<ellipse cx="250.652" cy="75.3774" rx="6.05937" ry="7.57421" fill="#ECE9FF"/>
<path fill-rule="evenodd" clip-rule="evenodd" d="M268.955 97.2935C265.785 99.0107 262.153 99.9857 258.294 99.9857C245.912 99.9857 235.874 89.9481 235.874 77.5661C235.874 71.9207 237.961 66.7627 241.405 62.8212C234.402 66.6136 229.646 74.0257 229.646 82.5486C229.646 94.9306 239.684 104.968 252.066 104.968C258.803 104.968 264.846 101.997 268.955 97.2935Z" fill="#513CAF"/>
<circle cx="170.524" cy="82.7498" r="28.6474" fill="#7F79BB"/>
<circle cx="165.542" cy="82.7498" r="28.6474" fill="#ABA6E1"/>
<circle cx="165.542" cy="82.7498" r="22.4197" fill="#6C50E9"/>
<ellipse cx="164.128" cy="75.3774" rx="6.05937" ry="7.57421" fill="#ECE9FF"/>
<path fill-rule="evenodd" clip-rule="evenodd" d="M182.431 97.2935C179.26 99.0107 175.629 99.9857 171.77 99.9857C159.387 99.9857 149.35 89.9481 149.35 77.5661C149.35 71.9207 151.436 66.7627 154.88 62.8212C147.878 66.6136 143.122 74.0257 143.122 82.5486C143.122 94.9306 153.16 104.968 165.542 104.968C172.278 104.968 178.321 101.997 182.431 97.2935Z" fill="#513CAF"/>
<rect x="200.984" y="264" width="18" height="117" fill="#7F79BB"/>
<ellipse cx="201.371" cy="322.519" rx="46.3566" ry="58.4806" fill="#7F79BB"/>
<ellipse cx="218.487" cy="322.519" rx="46.3566" ry="58.4806" fill="#ABA6E1"/>
<ellipse cx="219.2" cy="322.519" rx="34.2326" ry="47.0698" fill="#ECE9FF"/>
<path d="M242.022 322.519C242.022 317.837 241.432 313.2 240.285 308.873C239.138 304.547 237.457 300.616 235.338 297.305C233.219 293.993 230.703 291.367 227.934 289.575C225.165 287.783 222.198 286.86 219.201 286.86C216.204 286.86 213.236 287.783 210.467 289.575C207.698 291.367 205.182 293.993 203.063 297.305C200.944 300.616 199.263 304.547 198.116 308.873C196.969 313.2 196.379 317.837 196.379 322.519L219.201 322.519H242.022Z" fill="#ABA6E1"/>
<path d="M196.379 322.519C196.379 327.202 196.969 331.839 198.116 336.166C199.263 340.492 200.944 344.423 203.063 347.734C205.183 351.045 207.698 353.672 210.467 355.464C213.236 357.256 216.204 358.178 219.201 358.178C222.198 358.178 225.165 357.256 227.934 355.464C230.703 353.672 233.219 351.045 235.338 347.734C237.457 344.423 239.138 340.492 240.285 336.166C241.432 331.839 242.022 327.202 242.022 322.519L219.201 322.519L196.379 322.519Z" fill="#D2CBF4"/>
<path d="M228.155 322.52C228.155 326.922 227.009 330.815 225.262 333.544C223.501 336.297 221.31 337.636 219.201 337.636C217.091 337.636 214.9 336.297 213.139 333.544C211.392 330.815 210.246 326.922 210.246 322.52C210.246 318.117 211.392 314.224 213.139 311.495C214.9 308.742 217.091 307.403 219.201 307.403C221.31 307.403 223.501 308.742 225.262 311.495C227.009 314.224 228.155 318.117 228.155 322.52Z" fill="#7F79BB" stroke="#ECE9FF" stroke-width="4"/>
<path d="M3.56514 34.7033C7.34807 41.2556 13.5789 46.0367 20.887 47.9949C28.1951 49.9531 35.9817 48.9279 42.5339 45.145C49.0862 41.3621 53.8673 35.1312 55.8255 27.8231C57.7836 20.5151 56.7585 12.7284 52.9756 6.17621L40.623 13.308C42.5144 16.5841 43.027 20.4774 42.0479 24.1315C41.0688 27.7855 38.6783 30.9009 35.4021 32.7924C32.126 34.6839 28.2327 35.1964 24.5787 34.2173C20.9246 33.2382 17.8092 30.8477 15.9178 27.5716L3.56514 34.7033Z" fill="#D2CBF4"/>
<circle cx="46.7997" cy="9.7422" r="7.13178" transform="rotate(60 46.7997 9.7422)" fill="#D2CBF4"/>
<circle cx="9.74212" cy="31.1374" r="7.13178" transform="rotate(60 9.74212 31.1374)" fill="#D2CBF4"/>
<path d="M338.016 219.806C338.016 212.24 341.022 204.984 346.371 199.634C351.721 194.284 358.977 191.278 366.543 191.278C374.109 191.278 381.365 194.284 386.715 199.634C392.065 204.984 395.07 212.24 395.07 219.806L380.807 219.806C380.807 216.023 379.304 212.395 376.629 209.72C373.954 207.045 370.326 205.542 366.543 205.542C362.76 205.542 359.132 207.045 356.457 209.72C353.782 212.395 352.28 216.023 352.28 219.806L338.016 219.806Z" fill="#D2CBF4"/>
<circle r="7.13178" transform="matrix(-4.37114e-08 -1 -1 4.37114e-08 387.939 219.581)" fill="#D2CBF4"/>
<circle r="7.13178" transform="matrix(-4.37114e-08 -1 -1 4.37114e-08 345.148 219.581)" fill="#D2CBF4"/>
</svg>
