<svg width="330" height="368" viewBox="0 0 330 368" fill="none" xmlns="http://www.w3.org/2000/svg">
<rect x="39.1162" y="52" width="58.614" height="17.1163" rx="8.55814" transform="rotate(90 39.1162 52)" fill="#7F79BB"/>
<circle cx="90.0484" cy="131.127" r="15.6163" fill="#D2CBF4" stroke="#7F79BB" stroke-width="3"/>
<rect x="33.3965" y="102.059" width="86.3373" height="17.1163" rx="8.55814" transform="rotate(39.8295 33.3965 102.059)" fill="#7F79BB"/>
<circle cx="31.1983" cy="111.197" r="12.7636" transform="rotate(62.8889 31.1983 111.197)" fill="#D2CBF4" stroke="#7F79BB" stroke-width="3"/>
<rect width="86.3373" height="17.1163" rx="8.55814" transform="matrix(-0.913987 -0.405743 -0.405743 0.913987 321.858 148.031)" fill="#7F79BB"/>
<rect width="68.4415" height="17.1163" rx="8.55814" transform="matrix(-0.253155 0.967426 0.967426 0.253155 305.328 146)" fill="#7F79BB"/>
<circle r="15.6163" transform="matrix(-1 0 0 1 258.24 116.82)" fill="#D2CBF4" stroke="#7F79BB" stroke-width="3"/>
<circle r="12.7636" transform="matrix(0.333268 0.942832 0.942832 -0.333268 311.204 151.202)" fill="#D2CBF4" stroke="#7F79BB" stroke-width="3"/>
<rect x="83.6919" width="199.69" height="196.837" rx="16" fill="#7F79BB"/>
<rect x="188.35" y="148.341" width="149.767" height="32.8062" rx="16.4031" transform="rotate(90 188.35 148.341)" fill="#D2CBF4"/>
<rect x="162.675" y="251.039" width="19.969" height="116.961" fill="#7F79BB"/>
<ellipse cx="163.388" cy="309.52" rx="46.3566" ry="58.4806" fill="#7F79BB"/>
<rect x="188.35" y="212.527" width="4.27907" height="32.8062" transform="rotate(90 188.35 212.527)" fill="#ABA6E1"/>
<rect x="188.35" y="222.512" width="4.27907" height="32.8062" transform="rotate(90 188.35 222.512)" fill="#ABA6E1"/>
<rect x="188.35" y="232.496" width="4.27907" height="32.8062" transform="rotate(90 188.35 232.496)" fill="#ABA6E1"/>
<rect x="188.35" y="242.48" width="4.27907" height="32.8062" transform="rotate(90 188.35 242.48)" fill="#ABA6E1"/>
<rect x="188.35" y="202.543" width="4.27907" height="32.8062" transform="rotate(90 188.35 202.543)" fill="#ABA6E1"/>
<rect opacity="0.4" x="188.35" y="148.341" width="149.767" height="14.2636" rx="7.13178" transform="rotate(90 188.35 148.341)" fill="#7F79BB"/>
<rect x="72.8145" width="199.69" height="196.837" rx="16" fill="#ABA6E1"/>
<rect x="85.0898" y="11.3604" width="176.829" height="175.492" rx="12" fill="#D2CBF4"/>
<path d="M192 134H195L192 132V134Z" fill="#7F79BB"/>
<path d="M153.002 141C153.002 146.57 155.214 151.911 159.153 155.849C163.091 159.788 168.432 162 174.002 162C179.571 162 184.913 159.788 188.851 155.849C192.789 151.911 195.002 146.57 195.002 141L174.002 141L153.002 141Z" fill="#7F79BB"/>
<rect x="153" y="134" width="42" height="7" fill="#7F79BB"/>
<path d="M150.002 139C150.002 141.758 150.545 144.489 151.6 147.036C152.656 149.584 154.203 151.899 156.153 153.849C158.103 155.799 160.418 157.346 162.966 158.401C165.513 159.457 168.244 160 171.002 160C173.76 160 176.49 159.457 179.038 158.401C181.586 157.346 183.901 155.799 185.851 153.849C187.801 151.899 189.348 149.584 190.403 147.036C191.459 144.489 192.002 141.758 192.002 139H171.002L150.002 139Z" fill="#ABA6E1"/>
<rect x="150" y="132" width="42" height="7" fill="#ABA6E1"/>
<path d="M153.002 139C153.002 141.364 153.468 143.704 154.372 145.888C155.277 148.072 156.603 150.056 158.274 151.728C159.945 153.399 161.93 154.725 164.114 155.63C166.298 156.534 168.638 157 171.002 157C173.366 157 175.706 156.534 177.89 155.63C180.074 154.725 182.058 153.399 183.73 151.728C185.401 150.056 186.727 148.072 187.632 145.888C188.536 143.704 189.002 141.364 189.002 139H171.002L153.002 139Z" fill="#6C50E9"/>
<circle cx="219.065" cy="69.7499" r="28.6474" fill="#7F79BB"/>
<circle cx="214.083" cy="69.7499" r="28.6474" fill="#ABA6E1"/>
<circle cx="214.083" cy="69.7497" r="22.4197" fill="#6C50E9"/>
<ellipse cx="212.67" cy="62.3779" rx="6.05937" ry="7.57421" fill="#ECE9FF"/>
<path fill-rule="evenodd" clip-rule="evenodd" d="M230.972 84.2935C227.802 86.0108 224.17 86.9858 220.311 86.9858C207.929 86.9858 197.891 76.9482 197.891 64.5662C197.891 58.9208 199.978 53.7628 203.422 49.8213C196.419 53.6137 191.664 61.0258 191.664 69.5487C191.664 81.9307 201.701 91.9683 214.083 91.9683C220.82 91.9683 226.863 88.9971 230.972 84.2935Z" fill="#513CAF"/>
<circle cx="132.54" cy="69.7499" r="28.6474" fill="#7F79BB"/>
<circle cx="127.558" cy="69.7499" r="28.6474" fill="#ABA6E1"/>
<circle cx="127.558" cy="69.7497" r="22.4197" fill="#6C50E9"/>
<ellipse cx="126.145" cy="62.3779" rx="6.05937" ry="7.57421" fill="#ECE9FF"/>
<path fill-rule="evenodd" clip-rule="evenodd" d="M144.448 84.2935C141.277 86.0108 137.645 86.9858 133.786 86.9858C121.404 86.9858 111.366 76.9482 111.366 64.5662C111.366 58.9208 113.453 53.7628 116.897 49.8213C109.894 53.6137 105.139 61.0258 105.139 69.5487C105.139 81.9307 115.176 91.9683 127.558 91.9683C134.295 91.9683 140.338 88.9971 144.448 84.2935Z" fill="#513CAF"/>
<ellipse cx="180.505" cy="309.52" rx="46.3566" ry="58.4806" fill="#ABA6E1"/>
<ellipse cx="181.218" cy="309.519" rx="34.2326" ry="47.0698" fill="#ECE9FF"/>
<path d="M204.039 309.519C204.039 304.836 203.449 300.2 202.302 295.873C201.155 291.547 199.474 287.616 197.355 284.305C195.236 280.993 192.72 278.367 189.951 276.575C187.182 274.783 184.215 273.86 181.218 273.86C178.221 273.86 175.253 274.783 172.484 276.575C169.715 278.367 167.2 280.993 165.08 284.305C162.961 287.616 161.28 291.547 160.133 295.873C158.986 300.2 158.396 304.836 158.396 309.519L181.218 309.519H204.039Z" fill="#ABA6E1"/>
<path d="M158.396 309.52C158.396 314.203 158.986 318.84 160.133 323.166C161.28 327.492 162.961 331.423 165.08 334.734C167.2 338.046 169.715 340.672 172.484 342.464C175.253 344.256 178.221 345.179 181.218 345.179C184.215 345.179 187.182 344.256 189.951 342.464C192.72 340.672 195.236 338.046 197.355 334.734C199.474 331.423 201.155 327.492 202.302 323.166C203.449 318.84 204.04 314.203 204.04 309.52L181.218 309.52L158.396 309.52Z" fill="#D2CBF4"/>
<path d="M190.172 309.52C190.172 313.922 189.026 317.815 187.279 320.545C185.518 323.297 183.327 324.636 181.218 324.636C179.108 324.636 176.918 323.297 175.156 320.545C173.409 317.815 172.263 313.922 172.263 309.52C172.263 305.117 173.409 301.224 175.156 298.495C176.918 295.743 179.108 294.403 181.218 294.403C183.327 294.403 185.518 295.743 187.279 298.495C189.026 301.224 190.172 305.117 190.172 309.52Z" fill="#7F79BB" stroke="#ECE9FF" stroke-width="4"/>
<path d="M3.81249 33.6088C2.8014 41.1068 4.81029 48.6993 9.39723 54.7162C13.9842 60.733 20.7734 64.6812 28.2714 65.6923C35.7694 66.7034 43.362 64.6945 49.3788 60.1076C55.3956 55.5207 59.3439 48.7314 60.355 41.2334L46.2194 39.3272C45.7138 43.0762 43.7397 46.4709 40.7313 48.7643C37.7229 51.0578 33.9266 52.0623 30.1776 51.5567C26.4286 51.0512 23.034 49.077 20.7405 46.0686C18.447 43.0602 17.4426 39.2639 17.9481 35.5149L3.81249 33.6088Z" fill="#D2CBF4"/>
<circle cx="53.2872" cy="40.2808" r="7.13178" transform="rotate(97.6799 53.2872 40.2808)" fill="#D2CBF4"/>
<circle cx="10.8805" cy="34.562" r="7.13178" transform="rotate(97.6799 10.8805 34.562)" fill="#D2CBF4"/>
<path d="M261.714 214.358C265.652 207.898 271.995 203.267 279.347 201.483C286.7 199.699 294.46 200.91 300.92 204.847C307.38 208.785 312.012 215.128 313.796 222.481C315.579 229.833 314.369 237.593 310.431 244.054L298.252 236.63C300.221 233.4 300.826 229.52 299.934 225.843C299.042 222.167 296.726 218.996 293.496 217.027C290.266 215.058 286.386 214.453 282.71 215.345C279.034 216.236 275.862 218.552 273.893 221.782L261.714 214.358Z" fill="#D2CBF4"/>
<circle r="7.13178" transform="matrix(0.520474 -0.853877 -0.853877 -0.520474 304.341 240.342)" fill="#D2CBF4"/>
<circle r="7.13178" transform="matrix(0.520474 -0.853877 -0.853877 -0.520474 267.803 218.07)" fill="#D2CBF4"/>
<path fill-rule="evenodd" clip-rule="evenodd" d="M181.583 153.56C180.312 149.192 176.279 146 171.5 146C166.512 146 162.337 149.478 161.266 154.141C162.166 154.72 163.118 155.218 164.112 155.63C166.296 156.534 168.636 157 171 157C173.364 157 175.705 156.534 177.888 155.63C179.2 155.087 180.44 154.391 181.583 153.56Z" fill="#513CAF"/>
</svg>
