<svg width="690" height="369" viewBox="0 0 690 369" fill="none" xmlns="http://www.w3.org/2000/svg">
<path d="M657 0H686V150H657V0Z" fill="#529BFD"/>
<path d="M33 369L4 369L3.99998 219L33 219L33 369Z" fill="#529BFD"/>
<path d="M530 369L501 369L501 219L530 219L530 369Z" fill="#529BFD"/>
<path d="M160 0L189 -1.14226e-06L189 150L160 150L160 0Z" fill="#529BFD"/>
<path d="M491 199C486.582 199 483 195.418 483 191L483 178C483 173.582 486.582 170 491 170L655 170C659.418 170 663 173.582 663 178L663 191C663 195.418 659.418 199 655 199L491 199Z" fill="#D2CBF4"/>
<path d="M199 170C203.418 170 207 173.582 207 178L207 191C207 195.418 203.418 199 199 199L35 199C30.5817 199 27 195.418 27 191L27 178C27 173.582 30.5817 170 35 170L199 170Z" fill="#D2CBF4"/>
<path fill-rule="evenodd" clip-rule="evenodd" d="M27 179V191C27 195.418 30.5817 199 35 199L199 199C203.418 199 207 195.418 207 191V179C207 183.418 203.418 187 199 187L35 187C30.5817 187 27 183.418 27 179Z" fill="#AAA3F5"/>
<path fill-rule="evenodd" clip-rule="evenodd" d="M483 179V191C483 195.418 486.582 199 491 199L655 199C659.418 199 663 195.418 663 191V179C663 183.418 659.418 187 655 187L491 187C486.582 187 483 183.418 483 179Z" fill="#AAA3F5"/>
<path fill-rule="evenodd" clip-rule="evenodd" d="M27 178L27 191C27 195.418 30.5817 199 35 199L199 199C203.418 199 207 195.418 207 191V187C207 191.418 203.418 195 199 195L35 195C30.5817 195 27 191.418 27 187L27 178Z" fill="#5546EE"/>
<path d="M191.146 173C191.698 173 192.146 173.448 192.146 174C192.146 174.552 191.698 175 191.146 175L180.146 175C179.594 175 179.146 174.552 179.146 174C179.146 173.448 179.594 173 180.146 173L191.146 173Z" fill="#AAA3F5"/>
<path d="M649.146 173C649.698 173 650.146 173.448 650.146 174C650.146 174.552 649.698 175 649.146 175L638.146 175C637.594 175 637.146 174.552 637.146 174C637.146 173.448 637.594 173 638.146 173L649.146 173Z" fill="#AAA3F5"/>
<path d="M188.935 177C189.487 177 189.935 177.448 189.935 178C189.935 178.552 189.487 179 188.935 179L177.935 179C177.383 179 176.935 178.552 176.935 178C176.935 177.448 177.383 177 177.935 177L188.935 177Z" fill="#AAA3F5"/>
<path d="M646.935 177C647.487 177 647.935 177.448 647.935 178C647.935 178.552 647.487 179 646.935 179L635.935 179C635.383 179 634.935 178.552 634.935 178C634.935 177.448 635.383 177 635.935 177L646.935 177Z" fill="#AAA3F5"/>
<path d="M187 181C187.552 181 188 181.448 188 182C188 182.552 187.552 183 187 183L176 183C175.448 183 175 182.552 175 182C175 181.448 175.448 181 176 181L187 181Z" fill="#AAA3F5"/>
<path d="M645 181C645.552 181 646 181.448 646 182C646 182.552 645.552 183 645 183L634 183C633.448 183 633 182.552 633 182C633 181.448 633.448 181 634 181L645 181Z" fill="#AAA3F5"/>
<path d="M95 188C95 188.552 94.5523 189 94 189C93.4477 189 93 188.552 93 188L93 179C93 178.448 93.4477 178 94 178C94.5522 178 95 178.448 95 179L95 188Z" fill="#AAA3F5"/>
<path d="M553 188C553 188.552 552.552 189 552 189C551.448 189 551 188.552 551 188L551 179C551 178.448 551.448 178 552 178C552.552 178 553 178.448 553 179L553 188Z" fill="#AAA3F5"/>
<path d="M113 188C113 188.552 112.552 189 112 189C111.448 189 111 188.552 111 188L111 179C111 178.448 111.448 178 112 178C112.552 178 113 178.448 113 179L113 188Z" fill="#AAA3F5"/>
<path d="M571 188C571 188.552 570.552 189 570 189C569.448 189 569 188.552 569 188L569 179C569 178.448 569.448 178 570 178C570.552 178 571 178.448 571 179L571 188Z" fill="#AAA3F5"/>
<path d="M94 180C93.4477 180 93 179.552 93 179C93 178.448 93.4477 178 94 178L112 178C112.552 178 113 178.448 113 179C113 179.552 112.552 180 112 180L94 180Z" fill="#AAA3F5"/>
<path d="M552 180C551.448 180 551 179.552 551 179C551 178.448 551.448 178 552 178L570 178C570.552 178 571 178.448 571 179C571 179.552 570.552 180 570 180L552 180Z" fill="#AAA3F5"/>
<path fill-rule="evenodd" clip-rule="evenodd" d="M483 178L483 191C483 195.418 486.582 199 491 199L655 199C659.418 199 663 195.418 663 191V187C663 191.418 659.418 195 655 195L491 195C486.582 195 483 191.418 483 187L483 178Z" fill="#5546EE"/>
<path d="M215 206C210.582 206 207 202.418 207 198L207 171C207 166.582 210.582 163 215 163L475 163C479.418 163 483 166.582 483 171L483 198C483 202.418 479.418 206 475 206L215 206Z" fill="#D2CBF4"/>
<path d="M270 190.5C270 191.328 269.328 192 268.5 192C267.672 192 267 191.328 267 190.5L267 172.5C267 171.672 267.672 171 268.5 171C269.328 171 270 171.672 270 172.5L270 190.5Z" fill="#AAA3F5"/>
<path d="M301 181.5C301 182.328 300.328 183 299.5 183C298.672 183 298 182.328 298 181.5L298 171.5C298 170.672 298.672 170 299.5 170C300.328 170 301 170.672 301 171.5L301 181.5Z" fill="#AAA3F5"/>
<path d="M293.5 173C292.672 173 292 172.328 292 171.5C292 170.672 292.672 170 293.5 170L378.5 170C379.328 170 380 170.672 380 171.5C380 172.328 379.328 173 378.5 173L293.5 173Z" fill="#AAA3F5"/>
<path d="M378 166.5C378 165.672 378.672 165 379.5 165C380.328 165 381 165.672 381 166.5V180.5C381 181.328 380.328 182 379.5 182C378.672 182 378 181.328 378 180.5V166.5Z" fill="#AAA3F5"/>
<path d="M395.5 176C396.328 176 397 176.672 397 177.5C397 178.328 396.328 179 395.5 179L381.5 179C380.672 179 380 178.328 380 177.5C380 176.672 380.672 176 381.5 176L395.5 176Z" fill="#AAA3F5"/>
<path d="M430.5 172C431.328 172 432 172.672 432 173.5C432 174.328 431.328 175 430.5 175L395.5 175C394.672 175 394 174.328 394 173.5C394 172.672 394.672 172 395.5 172L430.5 172Z" fill="#AAA3F5"/>
<path d="M397 191.5C397 192.328 396.328 193 395.5 193C394.672 193 394 192.328 394 191.5L394 173.5C394 172.672 394.672 172 395.5 172C396.328 172 397 172.672 397 173.5L397 191.5Z" fill="#AAA3F5"/>
<path d="M270.5 183C269.672 183 269 182.328 269 181.5C269 180.672 269.672 180 270.5 180L299.5 180C300.328 180 301 180.672 301 181.5C301 182.328 300.328 183 299.5 183L270.5 183Z" fill="#AAA3F5"/>
<path fill-rule="evenodd" clip-rule="evenodd" d="M207 179C207 183.418 210.582 187 215 187L475 187C479.418 187 483 183.418 483 179V198C483 202.418 479.418 206 475 206L215 206C210.582 206 207 202.418 207 198V179Z" fill="#AAA3F5"/>
<path d="M305 199C305 199.552 304.552 200 304 200C303.448 200 303 199.552 303 199L303 184C303 183.448 303.448 183 304 183C304.552 183 305 183.448 305 184L305 199Z" fill="#5546EE"/>
<path d="M331 198C331 198.552 330.552 199 330 199C329.448 199 329 198.552 329 198L329 187C329 186.448 329.448 186 330 186C330.552 186 331 186.448 331 187L331 198Z" fill="#5546EE"/>
<path d="M318 193C318 193.552 317.552 194 317 194C316.448 194 316 193.552 316 193L316 191C316 190.448 316.448 190 317 190C317.552 190 318 190.448 318 191L318 193Z" fill="#5546EE"/>
<path d="M276 190C275.448 190 275 189.552 275 189C275 188.448 275.448 188 276 188L307 188C307.552 188 308 188.448 308 189C308 189.552 307.552 190 307 190L276 190Z" fill="#5546EE"/>
<path d="M409 183C409 182.448 409.448 182 410 182C410.552 182 411 182.448 411 183V198C411 198.552 410.552 199 410 199C409.448 199 409 198.552 409 198V183Z" fill="#5546EE"/>
<path d="M428 181C428 180.448 428.448 180 429 180C429.552 180 430 180.448 430 181V190C430 190.552 429.552 191 429 191C428.448 191 428 190.552 428 190V181Z" fill="#5546EE"/>
<path d="M429 189C429.552 189 430 189.448 430 190C430 190.552 429.552 191 429 191L406 191C405.448 191 405 190.552 405 190C405 189.448 405.448 189 406 189L429 189Z" fill="#5546EE"/>
<path d="M467 176C467.552 176 468 176.448 468 177C468 177.552 467.552 178 467 178L447 178C446.448 178 446 177.552 446 177C446 176.448 446.448 176 447 176L467 176Z" fill="#5546EE"/>
<path d="M468 179C468 179.552 467.552 180 467 180C466.448 180 466 179.552 466 179L466 170C466 169.448 466.448 169 467 169C467.552 169 468 169.448 468 170L468 179Z" fill="#5546EE"/>
<path d="M457 182C457.552 182 458 182.448 458 183C458 183.552 457.552 184 457 184L429 184C428.448 184 428 183.552 428 183C428 182.448 428.448 182 429 182L457 182Z" fill="#5546EE"/>
<path d="M448 200C448 200.552 447.552 201 447 201C446.448 201 446 200.552 446 200L446 177C446 176.448 446.448 176 447 176C447.552 176 448 176.448 448 177L448 200Z" fill="#5546EE"/>
<path d="M305 194C304.448 194 304 193.552 304 193C304 192.448 304.448 192 305 192L317 192C317.552 192 318 192.448 318 193C318 193.552 317.552 194 317 194L305 194Z" fill="#5546EE"/>
<path d="M317 192C316.448 192 316 191.552 316 191C316 190.448 316.448 190 317 190L329 190C329.552 190 330 190.448 330 191C330 191.552 329.552 192 329 192L317 192Z" fill="#5546EE"/>
<path fill-rule="evenodd" clip-rule="evenodd" d="M207 189C207 193.418 210.582 197 215 197L475 197C479.418 197 483 193.418 483 189V198C483 202.418 479.418 206 475 206L215 206C210.582 206 207 202.418 207 198V189Z" fill="#5546EE"/>
<path d="M323 214C323 209.582 326.582 206 331 206H358C362.418 206 366 209.582 366 214V278C366 282.418 362.418 286 358 286H331C326.582 286 323 282.418 323 278V214Z" fill="#D2CBF4"/>
<path d="M323 35C323 30.5817 326.582 27 331 27L358 27C362.418 27 366 30.5817 366 35V99C366 103.418 362.418 107 358 107H331C326.582 107 323 103.418 323 99V35Z" fill="#D2CBF4"/>
<path d="M374 268C369.582 268 366 264.418 366 260L366 233C366 228.582 369.582 225 374 225L430 225C434.418 225 438 228.582 438 233L438 260C438 264.418 434.418 268 430 268L374 268Z" fill="#D2CBF4"/>
<path d="M275 268C270.582 268 267 264.418 267 260L267 233C267 228.582 270.582 225 275 225L315 225C319.418 225 323 228.582 323 233L323 260C323 264.418 319.418 268 315 268L275 268Z" fill="#D2CBF4"/>
<path d="M267 248V260C267 264.418 270.582 268 275 268L315 268C319.418 268 323 264.418 323 260V248C323 252.418 319.418 256 315 256L275 256C270.582 256 267 252.418 267 248Z" fill="#AAA3F5"/>
<path d="M366 248V260C366 264.418 370.605 268 376.286 268L427.714 268C433.395 268 438 264.418 438 260V248C438 252.418 433.395 256 427.714 256L376.286 256C370.605 256 366 252.418 366 248Z" fill="#AAA3F5"/>
<path fill-rule="evenodd" clip-rule="evenodd" d="M346 286L358 286C362.418 286 366 282.418 366 278L366 214C366 209.582 362.418 206 358 206L346 206C350.418 206 354 209.582 354 214L354 278C354 282.418 350.418 286 346 286Z" fill="#AAA3F5"/>
<path fill-rule="evenodd" clip-rule="evenodd" d="M346 107L358 107C362.418 107 366 103.418 366 99L366 35C366 30.5817 362.418 27 358 27L346 27C350.418 27 354 30.5817 354 35L354 99C354 103.418 350.418 107 346 107Z" fill="#AAA3F5"/>
<path fill-rule="evenodd" clip-rule="evenodd" d="M267 256V260C267 264.418 270.582 268 275 268L315 268C319.418 268 323 264.418 323 260V256C323 260.418 319.418 264 315 264L275 264C270.582 264 267 260.418 267 256Z" fill="#5546EE"/>
<path fill-rule="evenodd" clip-rule="evenodd" d="M366 256V260C366 264.418 369.582 268 374 268L430 268C434.418 268 438 264.418 438 260V256C438 260.418 434.418 264 430 264L374 264C369.582 264 366 260.418 366 256Z" fill="#5546EE"/>
<path fill-rule="evenodd" clip-rule="evenodd" d="M354 286L358 286C362.418 286 366 282.418 366 278L366 214C366 209.582 362.418 206 358 206L354 206C358.418 206 362 209.582 362 214L362 278C362 282.418 358.418 286 354 286Z" fill="#5546EE"/>
<path fill-rule="evenodd" clip-rule="evenodd" d="M354 107L358 107C362.418 107 366 103.418 366 99L366 35C366 30.5817 362.418 27 358 27L354 27C358.418 27 362 30.5817 362 35L362 99C362 103.418 358.418 107 354 107Z" fill="#5546EE"/>
<path d="M323 115C323 110.582 326.582 107 331 107H358C362.418 107 366 110.582 366 115V155C366 159.418 362.418 163 358 163H331C326.582 163 323 159.418 323 155V115Z" fill="#D2CBF4"/>
<path fill-rule="evenodd" clip-rule="evenodd" d="M346 163L358 163C362.418 163 366 159.418 366 155L366 115C366 110.582 362.418 107 358 107L346 107C350.418 107 354 110.582 354 115L354 155C354 159.418 350.418 163 346 163Z" fill="#AAA3F5"/>
<path fill-rule="evenodd" clip-rule="evenodd" d="M354 163L358 163C362.418 163 366 159.418 366 155L366 115C366 110.582 362.418 107 358 107L354 107C358.418 107 362 110.582 362 115L362 155C362 159.418 358.418 163 354 163Z" fill="#5546EE"/>
<path d="M608 152C608 150.895 608.895 150 610 150H688C689.105 150 690 150.895 690 152C690 153.105 689.105 154 688 154H610C608.895 154 608 153.105 608 152Z" fill="#3C2ED1"/>
<path d="M82 217C82 218.105 81.1046 219 80 219L2 219C0.895432 219 -7.8281e-08 218.105 -1.74846e-07 217C-2.7141e-07 215.895 0.895431 215 2 215L80 215C81.1046 215 82 215.895 82 217Z" fill="#3C2ED1"/>
<path d="M579 217C579 218.105 578.105 219 577 219L499 219C497.895 219 497 218.105 497 217C497 215.895 497.895 215 499 215L577 215C578.105 215 579 215.895 579 217Z" fill="#3C2ED1"/>
<path d="M111 152C111 150.895 111.895 150 113 150L191 150C192.105 150 193 150.895 193 152C193 153.105 192.105 154 191 154L113 154C111.895 154 111 153.105 111 152Z" fill="#3C2ED1"/>
<path d="M651 150L651 170L647 170L647 150L651 150Z" fill="#3C2ED1"/>
<path d="M39 219L39 199L43 199L43 219L39 219Z" fill="#3C2ED1"/>
<path d="M536 219L536 199L540 199L540 219L536 219Z" fill="#3C2ED1"/>
<path d="M154 150L154 170L150 170L150 150L154 150Z" fill="#3C2ED1"/>
<path d="M540 150L540 170L536 170L536 150L540 150Z" fill="#3C2ED1"/>
<path d="M150 219L150 199L154 199L154 219L150 219Z" fill="#3C2ED1"/>
<path d="M647 219L647 199L651 199L651 219L647 219Z" fill="#3C2ED1"/>
<path d="M43 150L43 170L39 170L39 150L43 150Z" fill="#3C2ED1"/>
<path d="M497 152C497 150.895 497.895 150 499 150H577C578.105 150 579 150.895 579 152C579 153.105 578.105 154 577 154H499C497.895 154 497 153.105 497 152Z" fill="#3C2ED1"/>
<path d="M509 152C509 150.895 509.895 150 511 150H532C533.105 150 534 150.895 534 152C534 153.105 533.105 154 532 154H511C509.895 154 509 153.105 509 152Z" fill="#786BFA"/>
<path d="M620 152C620 150.895 620.895 150 622 150H643C644.105 150 645 150.895 645 152C645 153.105 644.105 154 643 154H622C620.895 154 620 153.105 620 152Z" fill="#786BFA"/>
<path d="M121 152C121 150.895 121.895 150 123 150H144C145.105 150 146 150.895 146 152C146 153.105 145.105 154 144 154H123C121.895 154 121 153.105 121 152Z" fill="#786BFA"/>
<path d="M193 217C193 218.105 192.105 219 191 219L113 219C111.895 219 111 218.105 111 217C111 215.895 111.895 215 113 215L191 215C192.105 215 193 215.895 193 217Z" fill="#3C2ED1"/>
<path d="M690 217C690 218.105 689.105 219 688 219L610 219C608.895 219 608 218.105 608 217C608 215.895 608.895 215 610 215L688 215C689.105 215 690 215.895 690 217Z" fill="#3C2ED1"/>
<path d="M0 152C0 150.895 0.89543 150 2 150L80 150C81.1046 150 82 150.895 82 152C82 153.105 81.1046 154 80 154L2 154C0.895429 154 0 153.105 0 152Z" fill="#3C2ED1"/>
<path d="M546 0H575V150H546V0Z" fill="#529BFD"/>
<path d="M144 369L115 369L115 219L144 219L144 369Z" fill="#529BFD"/>
<path d="M433 116H446V163H433V116Z" fill="#529BFD"/>
<path d="M433 116H446V132H433V116Z" fill="#81EFEE"/>
<path d="M433 147H446V163H433V147Z" fill="#81EFEE"/>
<path d="M244 116H257V163H244V116Z" fill="#529BFD"/>
<path d="M454 116H467V163H454V116Z" fill="#529BFD"/>
<path d="M454 132H467V147H454V132Z" fill="#81EFEE"/>
<path d="M265 116H278V163H265V116Z" fill="#529BFD"/>
<path d="M276 70L276 57L323 57L323 70L276 70Z" fill="#529BFD"/>
<path d="M366 70L366 57L413 57L413 70L366 70Z" fill="#529BFD"/>
<path d="M641 369L612 369L612 219L641 219L641 369Z" fill="#529BFD"/>
<path d="M49 0L78 -1.14226e-06L78 150L49 150L49 0Z" fill="#529BFD"/>
<path d="M612 0H641V150H612V0Z" fill="#529BFD"/>
<path d="M78 369L49 369L49 219L78 219L78 369Z" fill="#529BFD"/>
<path d="M575 369L546 369L546 219L575 219L575 369Z" fill="#529BFD"/>
<path d="M115 0L144 -1.14226e-06L144 150L115 150L115 0Z" fill="#529BFD"/>
<path d="M501 0H530V150H501V0Z" fill="#529BFD"/>
<path d="M189 369L160 369L160 219L189 219L189 369Z" fill="#529BFD"/>
<path d="M412 116H425V163H412V116Z" fill="#529BFD"/>
<path d="M412 132H425V147H412V132Z" fill="#81EFEE"/>
<path d="M223 116H236V163H223V116Z" fill="#529BFD"/>
<path d="M686 369L657 369L657 219L686 219L686 369Z" fill="#529BFD"/>
<path d="M4 0L33 -1.14226e-06L33 150L3.99999 150L4 0Z" fill="#529BFD"/>
<rect x="4" y="319" width="29" height="50" fill="#81EFEE"/>
<rect x="501" y="319" width="29" height="50" fill="#81EFEE"/>
<rect x="4" y="100" width="29" height="50" fill="#81EFEE"/>
<rect x="501" y="100" width="29" height="50" fill="#81EFEE"/>
<rect x="115" y="319" width="29" height="50" fill="#81EFEE"/>
<rect x="612" y="319" width="29" height="50" fill="#81EFEE"/>
<rect x="115" y="100" width="29" height="50" fill="#81EFEE"/>
<rect x="612" y="100" width="29" height="50" fill="#81EFEE"/>
<rect x="4" y="219" width="29" height="50" fill="#81EFEE"/>
<rect x="501" y="219" width="29" height="50" fill="#81EFEE"/>
<rect x="4" width="29" height="50" fill="#81EFEE"/>
<rect x="501" width="29" height="50" fill="#81EFEE"/>
<rect x="115" y="219" width="29" height="50" fill="#81EFEE"/>
<rect x="612" y="219" width="29" height="50" fill="#81EFEE"/>
<rect x="115" width="29" height="50" fill="#81EFEE"/>
<rect x="612" width="29" height="50" fill="#81EFEE"/>
<rect x="49" y="269" width="29" height="50" fill="#81EFEE"/>
<rect x="546" y="269" width="29" height="50" fill="#81EFEE"/>
<rect x="49" y="50" width="29" height="50" fill="#81EFEE"/>
<rect x="546" y="50" width="29" height="50" fill="#81EFEE"/>
<rect x="160" y="268" width="29" height="50" fill="#81EFEE"/>
<rect x="657" y="269" width="29" height="50" fill="#81EFEE"/>
<rect x="160" y="53" width="29" height="50" fill="#81EFEE"/>
<rect x="657" y="50" width="29" height="50" fill="#81EFEE"/>
<path d="M244 116H257V132H244V116Z" fill="#81EFEE"/>
<path d="M244 147H257V163H244V147Z" fill="#81EFEE"/>
<path d="M265 132H278V147H265V132Z" fill="#81EFEE"/>
<path d="M292 70L292 57L307 57L307 70L292 70Z" fill="#81EFEE"/>
<path d="M382 70L382 57L397 57L397 70L382 70Z" fill="#81EFEE"/>
<path d="M223 132H236V147H223V132Z" fill="#81EFEE"/>
<rect x="35" y="184" width="43" height="5" rx="2.5" fill="white"/>
<rect x="503" y="184" width="43" height="5" rx="2.5" fill="white"/>
<rect x="216" y="182" width="43" height="9" rx="4.5" fill="white"/>
<rect x="336" y="245" width="33" height="6" rx="3" transform="rotate(90 336 245)" fill="white"/>
<rect x="336" y="129" width="27" height="6" rx="3" transform="rotate(90 336 129)" fill="white"/>
<rect x="336" y="57" width="44" height="6" rx="3" transform="rotate(90 336 57)" fill="white"/>
<path d="M509 217C509 215.895 509.895 215 511 215H532C533.105 215 534 215.895 534 217C534 218.105 533.105 219 532 219H511C509.895 219 509 218.105 509 217Z" fill="#786BFA"/>
<path d="M10 217C10 215.895 10.8954 215 12 215H33C34.1046 215 35 215.895 35 217C35 218.105 34.1046 219 33 219H12C10.8954 219 10 218.105 10 217Z" fill="#786BFA"/>
<path d="M620 217C620 215.895 620.895 215 622 215H643C644.105 215 645 215.895 645 217C645 218.105 644.105 219 643 219H622C620.895 219 620 218.105 620 217Z" fill="#786BFA"/>
<path d="M121 217C121 215.895 121.895 215 123 215H144C145.105 215 146 215.895 146 217C146 218.105 145.105 219 144 219H123C121.895 219 121 218.105 121 217Z" fill="#786BFA"/>
<path d="M10 152C10 150.895 10.8954 150 12 150H33C34.1046 150 35 150.895 35 152C35 153.105 34.1046 154 33 154H12C10.8954 154 10 153.105 10 152Z" fill="#786BFA"/>
<rect x="182" width="7" height="150" fill="#284D7D" fill-opacity="0.4"/>
<rect x="275" y="116" width="3" height="47" fill="#284D7D" fill-opacity="0.4"/>
<rect x="464" y="116" width="3" height="47" fill="#284D7D" fill-opacity="0.4"/>
<rect x="254" y="116" width="3" height="47" fill="#284D7D" fill-opacity="0.4"/>
<rect x="443" y="116" width="3" height="47" fill="#284D7D" fill-opacity="0.4"/>
<rect x="233" y="116" width="3" height="47" fill="#284D7D" fill-opacity="0.4"/>
<rect x="422" y="116" width="3" height="47" fill="#284D7D" fill-opacity="0.4"/>
<rect x="413" y="67" width="3" height="47" transform="rotate(90 413 67)" fill="#284D7D" fill-opacity="0.4"/>
<rect x="323" y="67" width="3" height="47" transform="rotate(90 323 67)" fill="#284D7D" fill-opacity="0.4"/>
<rect x="679" width="7" height="150" fill="#284D7D" fill-opacity="0.4"/>
<rect x="182" y="219" width="7" height="150" fill="#284D7D" fill-opacity="0.4"/>
<rect x="679" y="219" width="7" height="150" fill="#284D7D" fill-opacity="0.4"/>
<rect x="71" width="7" height="150" fill="#284D7D" fill-opacity="0.4"/>
<rect x="568" width="7" height="150" fill="#284D7D" fill-opacity="0.4"/>
<rect x="71" y="219" width="7" height="150" fill="#284D7D" fill-opacity="0.4"/>
<rect x="568" y="219" width="7" height="150" fill="#284D7D" fill-opacity="0.4"/>
<rect x="137" width="7" height="150" fill="#284D7D" fill-opacity="0.4"/>
<rect x="634" width="7" height="150" fill="#284D7D" fill-opacity="0.4"/>
<rect x="137" y="219" width="7" height="150" fill="#284D7D" fill-opacity="0.4"/>
<rect x="634" y="219" width="7" height="150" fill="#284D7D" fill-opacity="0.4"/>
<rect x="26" width="7" height="150" fill="#284D7D" fill-opacity="0.4"/>
<rect x="523" width="7" height="150" fill="#284D7D" fill-opacity="0.4"/>
<rect x="26" y="219" width="7" height="150" fill="#284D7D" fill-opacity="0.4"/>
<rect x="523" y="219" width="7" height="150" fill="#284D7D" fill-opacity="0.4"/>
<path d="M304 231C304 230.448 304.448 230 305 230C305.552 230 306 230.448 306 231L306 242C306 242.552 305.552 243 305 243C304.448 243 304 242.552 304 242L304 231Z" fill="#AAA3F5"/>
<path d="M308 231C308 230.448 308.448 230 309 230C309.552 230 310 230.448 310 231L310 242C310 242.552 309.552 243 309 243C308.448 243 308 242.552 308 242L308 231Z" fill="#AAA3F5"/>
<path d="M312 231C312 230.448 312.448 230 313 230C313.553 230 314 230.448 314 231L314.001 242C314.001 242.552 313.553 243 313.001 243C312.448 243 312.001 242.552 312.001 242L312 231Z" fill="#AAA3F5"/>
<path d="M408 257C408 257.552 407.552 258 407 258C406.448 258 406 257.552 406 257L406 248C406 247.448 406.448 247 407 247C407.552 247 408 247.448 408 248L408 257Z" fill="#AAA3F5"/>
<path d="M426 257C426 257.552 425.552 258 425 258C424.448 258 424 257.552 424 257L424 248C424 247.448 424.448 247 425 247C425.552 247 426 247.448 426 248L426 257Z" fill="#AAA3F5"/>
<path d="M407 249C406.448 249 406 248.552 406 248C406 247.448 406.448 247 407 247L425 247C425.552 247 426 247.448 426 248C426 248.552 425.552 249 425 249L407 249Z" fill="#AAA3F5"/>
<path d="M388 253C387.448 253 387 252.552 387 252C387 251.448 387.448 251 388 251L406 251C406.552 251 407 251.448 407 252C407 252.552 406.552 253 406 253L388 253Z" fill="#AAA3F5"/>
<path d="M386 239C386 238.448 386.448 238 387 238C387.552 238 388 238.448 388 239L388 257C388 257.552 387.552 258 387 258C386.448 258 386 257.552 386 257L386 239Z" fill="#AAA3F5"/>
</svg>
