<svg width="161" height="161" viewBox="0 0 161 161" fill="none" xmlns="http://www.w3.org/2000/svg">
<path d="M153.3 38H160.066V72.9999H153.3V38Z" fill="#529BFD"/>
<path d="M7.7002 124.1L0.933541 124.1L0.933538 89.0997L7.70019 89.0997L7.7002 124.1Z" fill="#529BFD"/>
<path d="M123.667 124.1L116.9 124.1L116.9 89.0997L123.667 89.0997L123.667 124.1Z" fill="#529BFD"/>
<path d="M37.333 38L44.0997 38L44.0997 72.9999L37.333 72.9999L37.333 38Z" fill="#529BFD"/>
<path d="M116.084 84.4326C114.215 84.4326 112.7 82.9179 112.7 81.0493V81.0493C112.7 79.1807 114.215 77.666 116.084 77.666L151.317 77.666C153.185 77.666 154.7 79.1807 154.7 81.0493V81.0493C154.7 82.9178 153.185 84.4326 151.317 84.4326L116.084 84.4326Z" fill="#D2CBF4"/>
<path d="M44.9165 77.667C46.785 77.667 48.2998 79.1818 48.2998 81.0503V81.0503C48.2998 82.9189 46.785 84.4336 44.9165 84.4336L9.68321 84.4336C7.81465 84.4336 6.29988 82.9189 6.29988 81.0503V81.0503C6.29988 79.1818 7.81465 77.667 9.6832 77.667L44.9165 77.667Z" fill="#D2CBF4"/>
<path fill-rule="evenodd" clip-rule="evenodd" d="M6.60212 79.6494C6.40796 80.076 6.2998 80.5501 6.2998 81.0494C6.2998 82.9179 7.81457 84.4327 9.68313 84.4327L44.9164 84.4327C46.785 84.4327 48.2997 82.9179 48.2997 81.0494C48.2997 80.5501 48.1916 80.076 47.9974 79.6494C47.4649 80.8194 46.2857 81.6328 44.9164 81.6328L9.68313 81.6328C8.31387 81.6328 7.13458 80.8194 6.60212 79.6494Z" fill="#AAA3F5"/>
<path fill-rule="evenodd" clip-rule="evenodd" d="M113.002 79.6494C112.807 80.076 112.699 80.5501 112.699 81.0494C112.699 82.9179 114.214 84.4327 116.083 84.4327L151.316 84.4327C153.184 84.4327 154.699 82.9179 154.699 81.0494C154.699 80.5501 154.591 80.076 154.397 79.6494C153.864 80.8194 152.685 81.6328 151.316 81.6328L116.083 81.6328C114.713 81.6328 113.534 80.8194 113.002 79.6494Z" fill="#AAA3F5"/>
<path fill-rule="evenodd" clip-rule="evenodd" d="M6.33172 80.583C6.31068 80.7356 6.2998 80.8913 6.2998 81.0497C6.2998 82.9182 7.81457 84.433 9.68313 84.433L44.9164 84.433C46.785 84.433 48.2997 82.9182 48.2997 81.0497C48.2997 80.8913 48.2889 80.7355 48.2678 80.583C48.0405 82.2307 46.6266 83.4997 44.9164 83.4997L9.68313 83.4997C7.9729 83.4997 6.55904 82.2307 6.33172 80.583Z" fill="#5546EE"/>
<path d="M44.6007 78.3672C44.7295 78.3672 44.834 78.4717 44.834 78.6005V78.6005C44.834 78.7294 44.7295 78.8339 44.6007 78.8339L42.034 78.8339C41.9051 78.8339 41.8007 78.7294 41.8007 78.6005V78.6005C41.8007 78.4717 41.9051 78.3672 42.034 78.3672L44.6007 78.3672Z" fill="#AAA3F5"/>
<path d="M151.467 78.3672C151.596 78.3672 151.7 78.4717 151.7 78.6005V78.6005C151.7 78.7294 151.596 78.8339 151.467 78.8339L148.9 78.8339C148.771 78.8339 148.667 78.7294 148.667 78.6005V78.6005C148.667 78.4717 148.771 78.3672 148.9 78.3672L151.467 78.3672Z" fill="#AAA3F5"/>
<path d="M44.085 79.2998C44.2139 79.2998 44.3184 79.4043 44.3184 79.5331V79.5331C44.3184 79.662 44.2139 79.7665 44.085 79.7665L41.5184 79.7665C41.3895 79.7665 41.285 79.662 41.285 79.5331V79.5331C41.285 79.4043 41.3895 79.2998 41.5184 79.2998L44.085 79.2998Z" fill="#AAA3F5"/>
<path d="M150.952 79.2998C151.081 79.2998 151.186 79.4043 151.186 79.5331V79.5331C151.186 79.662 151.081 79.7665 150.952 79.7665L148.386 79.7665C148.257 79.7665 148.152 79.662 148.152 79.5331V79.5331C148.152 79.4043 148.257 79.2998 148.386 79.2998L150.952 79.2998Z" fill="#AAA3F5"/>
<path d="M43.6329 80.2334C43.7617 80.2334 43.8662 80.3379 43.8662 80.4667V80.4667C43.8662 80.5956 43.7617 80.7001 43.6329 80.7001L41.0662 80.7001C40.9373 80.7001 40.8329 80.5956 40.8329 80.4667V80.4667C40.8329 80.3379 40.9373 80.2334 41.0662 80.2334L43.6329 80.2334Z" fill="#AAA3F5"/>
<path d="M150.5 80.2334C150.629 80.2334 150.733 80.3379 150.733 80.4667V80.4667C150.733 80.5956 150.629 80.7001 150.5 80.7001L147.933 80.7001C147.805 80.7001 147.7 80.5956 147.7 80.4667V80.4667C147.7 80.3379 147.805 80.2334 147.933 80.2334L150.5 80.2334Z" fill="#AAA3F5"/>
<path d="M22.167 81.8673C22.167 81.9961 22.0625 82.1006 21.9337 82.1006V82.1006C21.8048 82.1006 21.7003 81.9961 21.7003 81.8673L21.7003 79.7673C21.7003 79.6384 21.8048 79.5339 21.9337 79.5339V79.5339C22.0625 79.5339 22.167 79.6384 22.167 79.7673L22.167 81.8673Z" fill="#AAA3F5"/>
<path d="M129.033 81.8673C129.033 81.9961 128.929 82.1006 128.8 82.1006V82.1006C128.671 82.1006 128.567 81.9961 128.567 81.8673L128.567 79.7673C128.567 79.6384 128.671 79.5339 128.8 79.5339V79.5339C128.929 79.5339 129.033 79.6384 129.033 79.7673L129.033 81.8673Z" fill="#AAA3F5"/>
<path d="M26.3672 81.8663C26.3672 81.9951 26.2627 82.0996 26.1339 82.0996V82.0996C26.005 82.0996 25.9005 81.9951 25.9005 81.8663L25.9005 79.7663C25.9005 79.6374 26.005 79.5329 26.1338 79.5329V79.5329C26.2627 79.5329 26.3672 79.6374 26.3672 79.7663L26.3672 81.8663Z" fill="#AAA3F5"/>
<path d="M133.233 81.8673C133.233 81.9961 133.129 82.1006 133 82.1006V82.1006C132.871 82.1006 132.767 81.9961 132.767 81.8673L132.767 79.7673C132.767 79.6384 132.871 79.5339 133 79.5339V79.5339C133.129 79.5339 133.233 79.6384 133.233 79.7673L133.233 81.8673Z" fill="#AAA3F5"/>
<path d="M21.9335 80C21.8047 80 21.7002 79.8955 21.7002 79.7667V79.7667C21.7002 79.6378 21.8047 79.5333 21.9335 79.5333L26.1335 79.5333C26.2624 79.5333 26.3669 79.6378 26.3669 79.7667V79.7667C26.3669 79.8955 26.2624 80 26.1335 80L21.9335 80Z" fill="#AAA3F5"/>
<path d="M128.8 80C128.671 80 128.566 79.8955 128.566 79.7667V79.7667C128.566 79.6378 128.671 79.5333 128.8 79.5333L133 79.5333C133.129 79.5333 133.233 79.6378 133.233 79.7667V79.7667C133.233 79.8955 133.129 80 133 80L128.8 80Z" fill="#AAA3F5"/>
<path fill-rule="evenodd" clip-rule="evenodd" d="M112.731 80.583C112.71 80.7356 112.699 80.8913 112.699 81.0497C112.699 82.9182 114.214 84.433 116.083 84.433L151.316 84.433C153.184 84.433 154.699 82.9182 154.699 81.0497C154.699 80.8913 154.688 80.7355 154.667 80.583C154.44 82.2307 153.026 83.4997 151.316 83.4997L116.083 83.4997C114.372 83.4997 112.958 82.2307 112.731 80.583Z" fill="#5546EE"/>
<path d="M53.3165 86.0664C50.5458 86.0664 48.2998 83.8204 48.2998 81.0498V81.0498C48.2998 78.2791 50.5458 76.0331 53.3165 76.0331L107.683 76.0331C110.454 76.0331 112.7 78.2791 112.7 81.0497V81.0497C112.7 83.8204 110.454 86.0664 107.683 86.0664L53.3165 86.0664Z" fill="#D2CBF4"/>
<path d="M63 82.4508C63 82.6441 62.8433 82.8008 62.65 82.8008V82.8008C62.4567 82.8008 62.3 82.6441 62.3 82.4508L62.3 78.2508C62.3 78.0575 62.4567 77.9008 62.65 77.9008V77.9008C62.8433 77.9008 63 78.0575 63 78.2508L63 82.4508Z" fill="#AAA3F5"/>
<path d="M70.2334 80.3502C70.2334 80.5435 70.0767 80.7002 69.8834 80.7002V80.7002C69.6901 80.7002 69.5334 80.5435 69.5334 80.3502L69.5334 78.0169C69.5334 77.8236 69.6901 77.6669 69.8834 77.6669V77.6669C70.0767 77.6669 70.2334 77.8236 70.2334 78.0169L70.2334 80.3502Z" fill="#AAA3F5"/>
<path d="M68.4828 78.3672C68.2895 78.3672 68.1328 78.2105 68.1328 78.0172V78.0172C68.1328 77.8239 68.2895 77.6672 68.4828 77.6672L88.3161 77.6672C88.5094 77.6672 88.6661 77.8239 88.6661 78.0172V78.0172C88.6661 78.2105 88.5094 78.3672 88.3161 78.3672L68.4828 78.3672Z" fill="#AAA3F5"/>
<path d="M88.2002 76.85C88.2002 76.6567 88.3569 76.5 88.5502 76.5V76.5C88.7435 76.5 88.9002 76.6567 88.9002 76.85V80.1167C88.9002 80.31 88.7435 80.4667 88.5502 80.4667V80.4667C88.3569 80.4667 88.2002 80.31 88.2002 80.1167V76.85Z" fill="#AAA3F5"/>
<path d="M92.2828 79.0664C92.4761 79.0664 92.6328 79.2231 92.6328 79.4164V79.4164C92.6328 79.6097 92.4761 79.7664 92.2828 79.7664L89.0162 79.7664C88.8229 79.7664 88.6662 79.6097 88.6662 79.4164V79.4164C88.6662 79.2231 88.8229 79.0664 89.0162 79.0664L92.2828 79.0664Z" fill="#AAA3F5"/>
<path d="M100.45 78.1328C100.643 78.1328 100.8 78.2895 100.8 78.4828V78.4828C100.8 78.6761 100.643 78.8328 100.45 78.8328L92.2832 78.8328C92.0899 78.8328 91.9332 78.6761 91.9332 78.4828V78.4828C91.9332 78.2895 92.0899 78.1328 92.2832 78.1328L100.45 78.1328Z" fill="#AAA3F5"/>
<path d="M92.6328 82.6832C92.6328 82.8765 92.4761 83.0332 92.2828 83.0332V83.0332C92.0895 83.0332 91.9328 82.8765 91.9328 82.6832L91.9328 78.4832C91.9328 78.2899 92.0895 78.1332 92.2828 78.1332V78.1332C92.4761 78.1332 92.6328 78.2899 92.6328 78.4832L92.6328 82.6832Z" fill="#AAA3F5"/>
<path d="M63.1166 80.7002C62.9233 80.7002 62.7666 80.5435 62.7666 80.3502V80.3502C62.7666 80.1569 62.9233 80.0002 63.1166 80.0002L69.8833 80.0002C70.0766 80.0002 70.2333 80.1569 70.2333 80.3502V80.3502C70.2333 80.5435 70.0766 80.7002 69.8833 80.7002L63.1166 80.7002Z" fill="#AAA3F5"/>
<path fill-rule="evenodd" clip-rule="evenodd" d="M48.815 78.833C49.6334 80.4919 51.3418 81.633 53.3167 81.633L107.683 81.633C109.658 81.633 111.366 80.4921 112.185 78.8334C112.514 79.5018 112.7 80.2543 112.7 81.05C112.7 83.8206 110.454 86.0667 107.683 86.0667L53.3165 86.0667C50.5458 86.0667 48.2998 83.8206 48.2998 81.05C48.2998 80.2541 48.4851 79.5015 48.815 78.833Z" fill="#AAA3F5"/>
<path d="M71.167 84.4337C71.167 84.5625 71.0625 84.667 70.9337 84.667V84.667C70.8048 84.667 70.7003 84.5625 70.7003 84.4337L70.7003 80.9337C70.7003 80.8048 70.8048 80.7003 70.9337 80.7003V80.7003C71.0625 80.7003 71.167 80.8048 71.167 80.9337L71.167 84.4337Z" fill="#5546EE"/>
<path d="M77.2334 84.1993C77.2334 84.3282 77.1289 84.4326 77.0001 84.4326V84.4326C76.8712 84.4326 76.7667 84.3282 76.7667 84.1993L76.7667 81.6326C76.7667 81.5038 76.8712 81.3993 77.0001 81.3993V81.3993C77.1289 81.3993 77.2334 81.5038 77.2334 81.6326L77.2334 84.1993Z" fill="#5546EE"/>
<path d="M74.2002 83.0333C74.2002 83.1621 74.0957 83.2666 73.9669 83.2666V83.2666C73.838 83.2666 73.7335 83.1621 73.7335 83.0333L73.7335 82.5666C73.7335 82.4377 73.838 82.3333 73.9669 82.3333V82.3333C74.0957 82.3333 74.2002 82.4377 74.2002 82.5666L74.2002 83.0333Z" fill="#5546EE"/>
<path d="M64.4003 82.333C64.2715 82.333 64.167 82.2285 64.167 82.0997V82.0997C64.167 81.9708 64.2715 81.8663 64.4003 81.8663L71.6336 81.8663C71.7625 81.8663 71.867 81.9708 71.867 82.0997V82.0997C71.867 82.2285 71.7625 82.333 71.6336 82.333L64.4003 82.333Z" fill="#5546EE"/>
<path d="M95.4336 80.7001C95.4336 80.5713 95.5381 80.4668 95.6669 80.4668V80.4668C95.7958 80.4668 95.9003 80.5713 95.9003 80.7001V84.2001C95.9003 84.329 95.7958 84.4335 95.6669 84.4335V84.4335C95.5381 84.4335 95.4336 84.329 95.4336 84.2001V80.7001Z" fill="#5546EE"/>
<path d="M99.8662 80.2333C99.8662 80.1045 99.9707 80 100.1 80V80C100.228 80 100.333 80.1045 100.333 80.2333V82.3333C100.333 82.4622 100.228 82.5667 100.1 82.5667V82.5667C99.9707 82.5667 99.8662 82.4622 99.8662 82.3333V80.2333Z" fill="#5546EE"/>
<path d="M100.1 82.0996C100.229 82.0996 100.333 82.2041 100.333 82.3329V82.3329C100.333 82.4618 100.229 82.5663 100.1 82.5663L94.733 82.5663C94.6042 82.5663 94.4997 82.4618 94.4997 82.3329V82.3329C94.4997 82.2041 94.6042 82.0996 94.733 82.0996L100.1 82.0996Z" fill="#5546EE"/>
<path d="M108.967 79.0664C109.096 79.0664 109.2 79.1709 109.2 79.2997V79.2997C109.2 79.4286 109.096 79.5331 108.967 79.5331L104.3 79.5331C104.171 79.5331 104.067 79.4286 104.067 79.2997V79.2997C104.067 79.1709 104.171 79.0664 104.3 79.0664L108.967 79.0664Z" fill="#5546EE"/>
<path d="M109.2 79.7667C109.2 79.8955 109.096 80 108.967 80V80C108.838 80 108.734 79.8955 108.734 79.7667L108.734 77.6667C108.734 77.5378 108.838 77.4333 108.967 77.4333V77.4333C109.096 77.4333 109.2 77.5378 109.2 77.6667L109.2 79.7667Z" fill="#5546EE"/>
<path d="M106.633 80.4668C106.762 80.4668 106.866 80.5713 106.866 80.7001V80.7001C106.866 80.829 106.762 80.9335 106.633 80.9335L100.1 80.9335C99.9707 80.9335 99.8662 80.829 99.8662 80.7001V80.7001C99.8662 80.5713 99.9707 80.4668 100.1 80.4668L106.633 80.4668Z" fill="#5546EE"/>
<path d="M104.533 84.6671C104.533 84.7959 104.429 84.9004 104.3 84.9004V84.9004C104.171 84.9004 104.067 84.7959 104.067 84.6671L104.067 79.3004C104.067 79.1715 104.171 79.0671 104.3 79.0671V79.0671C104.429 79.0671 104.533 79.1715 104.533 79.3004L104.533 84.6671Z" fill="#5546EE"/>
<path d="M71.166 83.2666C71.0371 83.2666 70.9326 83.1621 70.9326 83.0333V83.0333C70.9326 82.9044 71.0371 82.7999 71.166 82.7999L73.9659 82.7999C74.0948 82.7999 74.1993 82.9044 74.1993 83.0333V83.0333C74.1993 83.1621 74.0948 83.2666 73.9659 83.2666L71.166 83.2666Z" fill="#5546EE"/>
<path d="M73.9667 82.8008C73.8379 82.8008 73.7334 82.6963 73.7334 82.5674V82.5674C73.7334 82.4386 73.8379 82.3341 73.9667 82.3341L76.7667 82.3341C76.8956 82.3341 77.0001 82.4386 77.0001 82.5674V82.5674C77.0001 82.6963 76.8956 82.8008 76.7667 82.8008L73.9667 82.8008Z" fill="#5546EE"/>
<path fill-rule="evenodd" clip-rule="evenodd" d="M48.41 79.999C48.8926 82.2657 50.9061 83.9659 53.3167 83.9659L107.683 83.9659C110.093 83.9659 112.107 82.2661 112.59 79.9999C112.662 80.3385 112.7 80.6896 112.7 81.0497C112.7 83.8203 110.454 86.0663 107.683 86.0663L53.3165 86.0663C50.5458 86.0663 48.2998 83.8203 48.2998 81.0497C48.2998 80.6893 48.3378 80.3378 48.41 79.999Z" fill="#5546EE"/>
<path d="M75.3662 91.0831C75.3662 88.3124 77.6122 86.0664 80.3829 86.0664V86.0664C83.1535 86.0664 85.3995 88.3124 85.3995 91.0831V99.7164C85.3995 102.487 83.1535 104.733 80.3829 104.733V104.733C77.6122 104.733 75.3662 102.487 75.3662 99.7164V91.0831Z" fill="#D2CBF4"/>
<path d="M75.3662 49.3165C75.3662 46.5458 77.6122 44.2998 80.3829 44.2998V44.2998C83.1535 44.2998 85.3995 46.5458 85.3995 49.3165V57.9498C85.3995 60.7204 83.1535 62.9664 80.3829 62.9664V62.9664C77.6122 62.9664 75.3662 60.7204 75.3662 57.9498V49.3165Z" fill="#D2CBF4"/>
<path d="M90.4161 100.533C87.6455 100.533 85.3994 98.2872 85.3994 95.5165V95.5165C85.3994 92.7459 87.6454 90.4999 90.4161 90.4999L97.1827 90.4999C99.9533 90.4999 102.199 92.7459 102.199 95.5165V95.5165C102.199 98.2872 99.9534 100.533 97.1827 100.533L90.4161 100.533Z" fill="#D2CBF4"/>
<path d="M67.3165 100.533C64.5458 100.533 62.2998 98.2872 62.2998 95.5165V95.5165C62.2998 92.7459 64.5458 90.4999 67.3165 90.4999L70.3498 90.4999C73.1204 90.4999 75.3664 92.7459 75.3664 95.5165V95.5165C75.3664 98.2872 73.1204 100.533 70.3498 100.533L67.3165 100.533Z" fill="#D2CBF4"/>
<path d="M62.2998 95.8662V98.6662C62.2998 99.6971 63.1355 100.533 64.1665 100.533L73.4998 100.533C74.5307 100.533 75.3664 99.6971 75.3664 98.6662V95.8662C75.3664 96.8971 74.5307 97.7329 73.4998 97.7329L64.1665 97.7329C63.1355 97.7329 62.2998 96.8971 62.2998 95.8662Z" fill="#AAA3F5"/>
<path d="M85.3994 95.8662V98.6662C85.3994 99.6971 86.4739 100.533 87.7994 100.533L99.7994 100.533C101.125 100.533 102.199 99.6971 102.199 98.6662V95.8662C102.199 96.8971 101.125 97.7329 99.7994 97.7329L87.7994 97.7329C86.4739 97.7329 85.3994 96.8971 85.3994 95.8662Z" fill="#AAA3F5"/>
<path fill-rule="evenodd" clip-rule="evenodd" d="M80.6162 104.429C81.0428 104.623 81.5169 104.731 82.0162 104.731C83.8847 104.731 85.3995 103.217 85.3995 101.348L85.3995 89.4481C85.3995 87.5796 83.8847 86.0648 82.0162 86.0648C81.5169 86.0648 81.0428 86.173 80.6162 86.3671C81.7862 86.8996 82.5996 88.0789 82.5996 89.4481L82.5996 101.348C82.5996 102.717 81.7862 103.897 80.6162 104.429Z" fill="#AAA3F5"/>
<path fill-rule="evenodd" clip-rule="evenodd" d="M80.6162 62.6635C81.0428 62.8577 81.5169 62.9658 82.0162 62.9658C83.8847 62.9658 85.3995 61.4511 85.3995 59.5825L85.3995 47.6825C85.3995 45.814 83.8847 44.2992 82.0162 44.2992C81.5169 44.2992 81.0428 44.4073 80.6162 44.6015C81.7862 45.134 82.5996 46.3133 82.5996 47.6825L82.5996 59.5825C82.5996 60.9518 81.7862 62.131 80.6162 62.6635Z" fill="#AAA3F5"/>
<path fill-rule="evenodd" clip-rule="evenodd" d="M75.3345 96.6826C75.1072 98.3303 73.6934 99.5993 71.9831 99.5993L65.6831 99.5993C63.9729 99.5993 62.559 98.3304 62.3317 96.6826C62.3107 96.8352 62.2998 96.9909 62.2998 97.1493C62.2998 99.0178 63.8146 100.533 65.6831 100.533L71.9831 100.533C73.8517 100.533 75.3664 99.0178 75.3664 97.1493C75.3664 96.9909 75.3556 96.8352 75.3345 96.6826Z" fill="#5546EE"/>
<path fill-rule="evenodd" clip-rule="evenodd" d="M85.4323 96.6826C85.4113 96.8352 85.4004 96.9909 85.4004 97.1493C85.4004 99.0178 86.9152 100.533 88.7837 100.533L98.817 100.533C100.686 100.533 102.2 99.0178 102.2 97.1493C102.2 96.9909 102.189 96.8352 102.168 96.6826C101.941 98.3303 100.527 99.5993 98.817 99.5993L88.7837 99.5993C87.0735 99.5993 85.6596 98.3304 85.4323 96.6826Z" fill="#5546EE"/>
<path fill-rule="evenodd" clip-rule="evenodd" d="M81.5508 86.0967C83.1985 86.3241 84.4675 87.7379 84.4675 89.4481L84.4675 101.348C84.4675 103.058 83.1985 104.472 81.5508 104.7C81.7033 104.721 81.8591 104.731 82.0174 104.731C83.886 104.731 85.4008 103.217 85.4008 101.348L85.4008 89.4481C85.4008 87.5796 83.886 86.0648 82.0174 86.0648C81.8591 86.0648 81.7033 86.0757 81.5508 86.0967Z" fill="#5546EE"/>
<path fill-rule="evenodd" clip-rule="evenodd" d="M81.5508 44.3311C83.1985 44.5584 84.4675 45.9723 84.4675 47.6825L84.4675 59.5825C84.4675 61.2927 83.1985 62.7066 81.5508 62.9339C81.7033 62.9549 81.8591 62.9658 82.0174 62.9658C83.886 62.9658 85.4008 61.4511 85.4008 59.5825L85.4008 47.6825C85.4008 45.814 83.886 44.2992 82.0174 44.2992C81.8591 44.2992 81.7033 44.3101 81.5508 44.3311Z" fill="#5546EE"/>
<path d="M75.3662 67.9835C75.3662 65.2128 77.6122 62.9668 80.3829 62.9668V62.9668C83.1535 62.9668 85.3995 65.2128 85.3995 67.9835V71.0168C85.3995 73.7874 83.1535 76.0334 80.3829 76.0334V76.0334C77.6122 76.0334 75.3662 73.7874 75.3662 71.0168V67.9835Z" fill="#D2CBF4"/>
<path fill-rule="evenodd" clip-rule="evenodd" d="M80.6162 75.7319C81.0428 75.926 81.5169 76.0342 82.0162 76.0342C83.8847 76.0342 85.3995 74.5194 85.3995 72.6509L85.3995 66.3509C85.3995 64.4823 83.8847 62.9675 82.0162 62.9675C81.5169 62.9675 81.0428 63.0757 80.6162 63.2699C81.7862 63.8023 82.5996 64.9816 82.5996 66.3509L82.5996 72.6509C82.5996 74.0201 81.7862 75.1994 80.6162 75.7319Z" fill="#AAA3F5"/>
<path fill-rule="evenodd" clip-rule="evenodd" d="M81.5508 62.9995C83.1985 63.2268 84.4675 64.6406 84.4675 66.3509L84.4675 72.6509C84.4675 74.3611 83.1985 75.7749 81.5508 76.0023C81.7033 76.0233 81.8591 76.0342 82.0174 76.0342C83.886 76.0342 85.4008 74.5194 85.4008 72.6509L85.4008 66.3509C85.4008 64.4823 83.886 62.9675 82.0174 62.9675C81.8591 62.9675 81.7033 62.9784 81.5508 62.9995Z" fill="#5546EE"/>
<path d="M141.867 73.4667C141.867 73.2089 142.076 73 142.334 73H160.534C160.792 73 161 73.2089 161 73.4667V73.4667C161 73.7244 160.792 73.9333 160.534 73.9333H142.334C142.076 73.9333 141.867 73.7244 141.867 73.4667V73.4667Z" fill="#3C2ED1"/>
<path d="M19.1328 88.6329C19.1328 88.8907 18.9239 89.0996 18.6661 89.0996L0.466177 89.0996C0.208445 89.0996 -0.00048818 88.8907 -0.000488203 88.6329V88.6329C-0.000488225 88.3752 0.208445 88.1663 0.466177 88.1663L18.6661 88.1663C18.9239 88.1663 19.1328 88.3752 19.1328 88.6329V88.6329Z" fill="#3C2ED1"/>
<path d="M135.1 88.6329C135.1 88.8907 134.891 89.0996 134.633 89.0996L116.433 89.0996C116.175 89.0996 115.966 88.8907 115.966 88.6329V88.6329C115.966 88.3752 116.175 88.1663 116.433 88.1663L134.633 88.1663C134.891 88.1663 135.1 88.3752 135.1 88.6329V88.6329Z" fill="#3C2ED1"/>
<path d="M25.9004 73.4667C25.9004 73.2089 26.1093 73 26.3671 73L44.567 73C44.8248 73 45.0337 73.2089 45.0337 73.4667V73.4667C45.0337 73.7244 44.8248 73.9333 44.567 73.9333L26.3671 73.9333C26.1093 73.9333 25.9004 73.7244 25.9004 73.4667V73.4667Z" fill="#3C2ED1"/>
<path d="M151.9 73L151.9 77.6667L150.967 77.6667L150.967 73L151.9 73Z" fill="#3C2ED1"/>
<path d="M9.09961 89.0996L9.09961 84.433L10.0329 84.433L10.0329 89.0996L9.09961 89.0996Z" fill="#3C2ED1"/>
<path d="M125.066 89.0996L125.066 84.433L126 84.433L126 89.0996L125.066 89.0996Z" fill="#3C2ED1"/>
<path d="M35.9336 73L35.9336 77.6667L35.0003 77.6667L35.0003 73L35.9336 73Z" fill="#3C2ED1"/>
<path d="M126 73L126 77.6667L125.067 77.6667L125.067 73L126 73Z" fill="#3C2ED1"/>
<path d="M35 89.0996L35 84.433L35.9333 84.433L35.9333 89.0996L35 89.0996Z" fill="#3C2ED1"/>
<path d="M150.967 89.0996L150.967 84.433L151.9 84.433L151.9 89.0996L150.967 89.0996Z" fill="#3C2ED1"/>
<path d="M10.0332 73L10.0332 77.6667L9.09987 77.6667L9.09987 73L10.0332 73Z" fill="#3C2ED1"/>
<path d="M115.967 73.4667C115.967 73.2089 116.176 73 116.433 73H134.633C134.891 73 135.1 73.2089 135.1 73.4667V73.4667C135.1 73.7244 134.891 73.9333 134.633 73.9333H116.433C116.176 73.9333 115.967 73.7244 115.967 73.4667V73.4667Z" fill="#3C2ED1"/>
<path d="M118.767 73.4667C118.767 73.2089 118.976 73 119.233 73H124.133C124.391 73 124.6 73.2089 124.6 73.4667V73.4667C124.6 73.7244 124.391 73.9333 124.133 73.9333H119.233C118.976 73.9333 118.767 73.7244 118.767 73.4667V73.4667Z" fill="#786BFA"/>
<path d="M144.667 73.4667C144.667 73.2089 144.876 73 145.134 73H150.034C150.291 73 150.5 73.2089 150.5 73.4667V73.4667C150.5 73.7244 150.291 73.9333 150.034 73.9333H145.134C144.876 73.9333 144.667 73.7244 144.667 73.4667V73.4667Z" fill="#786BFA"/>
<path d="M28.2334 73.4667C28.2334 73.2089 28.4423 73 28.7001 73H33.6001C33.8578 73 34.0667 73.2089 34.0667 73.4667V73.4667C34.0667 73.7244 33.8578 73.9333 33.6001 73.9333H28.7001C28.4423 73.9333 28.2334 73.7244 28.2334 73.4667V73.4667Z" fill="#786BFA"/>
<path d="M45.0332 88.6329C45.0332 88.8907 44.8243 89.0996 44.5665 89.0996L26.3666 89.0996C26.1088 89.0996 25.8999 88.8907 25.8999 88.6329V88.6329C25.8999 88.3752 26.1088 88.1663 26.3666 88.1663L44.5665 88.1663C44.8243 88.1663 45.0332 88.3752 45.0332 88.6329V88.6329Z" fill="#3C2ED1"/>
<path d="M161 88.6329C161 88.8907 160.791 89.0996 160.533 89.0996L142.333 89.0996C142.076 89.0996 141.867 88.8907 141.867 88.6329V88.6329C141.867 88.3752 142.076 88.1663 142.333 88.1663L160.533 88.1663C160.791 88.1663 161 88.3752 161 88.6329V88.6329Z" fill="#3C2ED1"/>
<path d="M0 73.4667C0 73.2089 0.208933 73 0.466665 73L18.6666 73C18.9244 73 19.1333 73.2089 19.1333 73.4667V73.4667C19.1333 73.7244 18.9244 73.9333 18.6666 73.9333L0.466665 73.9333C0.208933 73.9333 0 73.7244 0 73.4667V73.4667Z" fill="#3C2ED1"/>
<path d="M127.4 38H134.167V72.9999H127.4V38Z" fill="#529BFD"/>
<path d="M33.5996 124.1L26.833 124.1L26.833 89.0997L33.5996 89.0997L33.5996 124.1Z" fill="#529BFD"/>
<path d="M101.033 65.0664H104.067V76.0331H101.033V65.0664Z" fill="#529BFD"/>
<path d="M101.033 65.0664H104.067V68.7997H101.033V65.0664Z" fill="#81EFEE"/>
<path d="M101.033 72.2998H104.067V76.0331H101.033V72.2998Z" fill="#81EFEE"/>
<path d="M56.9336 65.0664H59.9669V76.0331H56.9336V65.0664Z" fill="#529BFD"/>
<path d="M105.934 65.0664H108.967V76.0331H105.934V65.0664Z" fill="#529BFD"/>
<path d="M105.934 68.7998H108.967V72.2998H105.934V68.7998Z" fill="#81EFEE"/>
<path d="M61.833 65.0664H64.8663V76.0331H61.833V65.0664Z" fill="#529BFD"/>
<path d="M64.4004 54.333L64.4004 51.2997L75.367 51.2997L75.367 54.333L64.4004 54.333Z" fill="#529BFD"/>
<path d="M85.3994 54.333L85.3994 51.2997L96.3661 51.2997L96.3661 54.333L85.3994 54.333Z" fill="#529BFD"/>
<path d="M149.566 124.1L142.8 124.1L142.8 89.0997L149.566 89.0997L149.566 124.1Z" fill="#529BFD"/>
<path d="M11.4336 38L18.2003 38L18.2003 72.9999L11.4336 72.9999L11.4336 38Z" fill="#529BFD"/>
<path d="M142.8 38H149.566V72.9999H142.8V38Z" fill="#529BFD"/>
<path d="M18.2002 124.1L11.4335 124.1L11.4335 89.0997L18.2002 89.0997L18.2002 124.1Z" fill="#529BFD"/>
<path d="M134.166 124.1L127.399 124.1L127.399 89.0997L134.166 89.0997L134.166 124.1Z" fill="#529BFD"/>
<path d="M26.834 38L33.6006 38L33.6006 72.9999L26.834 72.9999L26.834 38Z" fill="#529BFD"/>
<path d="M116.9 38H123.667V72.9999H116.9V38Z" fill="#529BFD"/>
<path d="M44.0996 124.1L37.333 124.1L37.333 89.0997L44.0996 89.0997L44.0996 124.1Z" fill="#529BFD"/>
<path d="M96.1328 65.0664H99.1661V76.0331H96.1328V65.0664Z" fill="#529BFD"/>
<path d="M96.1328 68.7998H99.1661V72.2998H96.1328V68.7998Z" fill="#81EFEE"/>
<path d="M52.0342 65.0664H55.0675V76.0331H52.0342V65.0664Z" fill="#529BFD"/>
<path d="M160.066 124.1L153.3 124.1L153.3 89.0997L160.066 89.0997L160.066 124.1Z" fill="#529BFD"/>
<path d="M0.933594 38L7.70025 38L7.70025 72.9999L0.933591 72.9999L0.933594 38Z" fill="#529BFD"/>
<rect x="0.933594" y="112.433" width="6.76665" height="11.6666" fill="#81EFEE"/>
<rect x="116.899" y="112.433" width="6.76665" height="11.6666" fill="#81EFEE"/>
<rect x="0.933594" y="61.333" width="6.76665" height="11.6666" fill="#81EFEE"/>
<rect x="116.9" y="61.333" width="6.76665" height="11.6666" fill="#81EFEE"/>
<rect x="26.834" y="112.433" width="6.76665" height="11.6666" fill="#81EFEE"/>
<rect x="142.8" y="112.433" width="6.76665" height="11.6666" fill="#81EFEE"/>
<rect x="26.834" y="61.333" width="6.76665" height="11.6666" fill="#81EFEE"/>
<rect x="142.8" y="61.333" width="6.76665" height="11.6666" fill="#81EFEE"/>
<rect x="0.933594" y="89.0996" width="6.76665" height="11.6666" fill="#81EFEE"/>
<rect x="116.899" y="89.0996" width="6.76665" height="11.6666" fill="#81EFEE"/>
<rect x="0.933594" y="38" width="6.76665" height="11.6666" fill="#81EFEE"/>
<rect x="116.9" y="38" width="6.76665" height="11.6666" fill="#81EFEE"/>
<rect x="26.834" y="89.0996" width="6.76665" height="11.6666" fill="#81EFEE"/>
<rect x="142.8" y="89.0996" width="6.76665" height="11.6666" fill="#81EFEE"/>
<rect x="26.834" y="38" width="6.76665" height="11.6666" fill="#81EFEE"/>
<rect x="142.8" y="38" width="6.76665" height="11.6666" fill="#81EFEE"/>
<rect x="11.4336" y="100.767" width="6.76665" height="11.6666" fill="#81EFEE"/>
<rect x="127.4" y="100.767" width="6.76665" height="11.6666" fill="#81EFEE"/>
<rect x="11.4336" y="49.667" width="6.76665" height="11.6666" fill="#81EFEE"/>
<rect x="127.4" y="49.667" width="6.76665" height="11.6666" fill="#81EFEE"/>
<rect x="37.333" y="100.533" width="6.76665" height="11.6666" fill="#81EFEE"/>
<rect x="153.3" y="100.767" width="6.76665" height="11.6666" fill="#81EFEE"/>
<rect x="37.333" y="50.3672" width="6.76665" height="11.6666" fill="#81EFEE"/>
<rect x="153.3" y="49.667" width="6.76665" height="11.6666" fill="#81EFEE"/>
<path d="M56.9336 65.0664H59.9669V68.7997H56.9336V65.0664Z" fill="#81EFEE"/>
<path d="M56.9336 72.2998H59.9669V76.0331H56.9336V72.2998Z" fill="#81EFEE"/>
<path d="M61.833 68.7998H64.8663V72.2998H61.833V68.7998Z" fill="#81EFEE"/>
<path d="M68.1328 54.333L68.1328 51.2997L71.6328 51.2997L71.6328 54.333L68.1328 54.333Z" fill="#81EFEE"/>
<path d="M89.1338 54.333L89.1338 51.2997L92.6338 51.2997L92.6338 54.333L89.1338 54.333Z" fill="#81EFEE"/>
<path d="M52.0342 68.7998H55.0675V72.2998H52.0342V68.7998Z" fill="#81EFEE"/>
<rect x="8.16699" y="80.9326" width="10.0333" height="1.16666" rx="0.583332" fill="white"/>
<rect x="117.367" y="80.9326" width="10.0333" height="1.16666" rx="0.583332" fill="white"/>
<rect x="50.4004" y="80.4668" width="10.0333" height="2.1" rx="1.05" fill="white"/>
<rect x="78.4004" y="95.166" width="7.69998" height="1.4" rx="0.699999" transform="rotate(90 78.4004 95.166)" fill="white"/>
<rect x="78.4004" y="68.0996" width="6.29999" height="1.4" rx="0.699999" transform="rotate(90 78.4004 68.0996)" fill="white"/>
<rect x="78.4004" y="51.2998" width="10.2666" height="1.4" rx="0.699999" transform="rotate(90 78.4004 51.2998)" fill="white"/>
<path d="M118.767 88.6327C118.767 88.3749 118.976 88.166 119.233 88.166H124.133C124.391 88.166 124.6 88.3749 124.6 88.6327V88.6327C124.6 88.8904 124.391 89.0993 124.133 89.0993H119.233C118.976 89.0993 118.767 88.8904 118.767 88.6327V88.6327Z" fill="#786BFA"/>
<path d="M2.33398 88.6327C2.33398 88.3749 2.54292 88.166 2.80065 88.166H7.70064C7.95837 88.166 8.16731 88.3749 8.16731 88.6327V88.6327C8.16731 88.8904 7.95837 89.0993 7.70064 89.0993H2.80065C2.54292 89.0993 2.33398 88.8904 2.33398 88.6327V88.6327Z" fill="#786BFA"/>
<path d="M144.667 88.6327C144.667 88.3749 144.876 88.166 145.134 88.166H150.034C150.291 88.166 150.5 88.3749 150.5 88.6327V88.6327C150.5 88.8904 150.291 89.0993 150.034 89.0993H145.134C144.876 89.0993 144.667 88.8904 144.667 88.6327V88.6327Z" fill="#786BFA"/>
<path d="M28.2334 88.6327C28.2334 88.3749 28.4423 88.166 28.7001 88.166H33.6001C33.8578 88.166 34.0667 88.3749 34.0667 88.6327V88.6327C34.0667 88.8904 33.8578 89.0993 33.6001 89.0993H28.7001C28.4423 89.0993 28.2334 88.8904 28.2334 88.6327V88.6327Z" fill="#786BFA"/>
<path d="M2.33398 73.4667C2.33398 73.2089 2.54292 73 2.80065 73H7.70064C7.95837 73 8.16731 73.2089 8.16731 73.4667V73.4667C8.16731 73.7244 7.95837 73.9333 7.70064 73.9333H2.80065C2.54292 73.9333 2.33398 73.7244 2.33398 73.4667V73.4667Z" fill="#786BFA"/>
<rect x="42.4668" y="38" width="1.63333" height="34.9999" fill="#284D7D" fill-opacity="0.4"/>
<rect x="64.167" y="65.0664" width="0.699999" height="10.9666" fill="#284D7D" fill-opacity="0.4"/>
<rect x="108.267" y="65.0664" width="0.699999" height="10.9666" fill="#284D7D" fill-opacity="0.4"/>
<rect x="59.2676" y="65.0664" width="0.699999" height="10.9666" fill="#284D7D" fill-opacity="0.4"/>
<rect x="103.366" y="65.0664" width="0.699999" height="10.9666" fill="#284D7D" fill-opacity="0.4"/>
<rect x="54.3672" y="65.0664" width="0.699999" height="10.9666" fill="#284D7D" fill-opacity="0.4"/>
<rect x="98.4668" y="65.0664" width="0.699999" height="10.9666" fill="#284D7D" fill-opacity="0.4"/>
<rect x="96.3672" y="53.6328" width="0.699999" height="10.9666" transform="rotate(90 96.3672 53.6328)" fill="#284D7D" fill-opacity="0.4"/>
<rect x="75.3662" y="53.6328" width="0.699999" height="10.9666" transform="rotate(90 75.3662 53.6328)" fill="#284D7D" fill-opacity="0.4"/>
<rect x="158.434" y="38" width="1.63333" height="34.9999" fill="#284D7D" fill-opacity="0.4"/>
<rect x="42.4668" y="89.0996" width="1.63333" height="34.9999" fill="#284D7D" fill-opacity="0.4"/>
<rect x="158.433" y="89.0996" width="1.63333" height="34.9999" fill="#284D7D" fill-opacity="0.4"/>
<rect x="16.5664" y="38" width="1.63333" height="34.9999" fill="#284D7D" fill-opacity="0.4"/>
<rect x="132.533" y="38" width="1.63333" height="34.9999" fill="#284D7D" fill-opacity="0.4"/>
<rect x="16.5664" y="89.0996" width="1.63333" height="34.9999" fill="#284D7D" fill-opacity="0.4"/>
<rect x="132.533" y="89.0996" width="1.63333" height="34.9999" fill="#284D7D" fill-opacity="0.4"/>
<rect x="31.9668" y="38" width="1.63333" height="34.9999" fill="#284D7D" fill-opacity="0.4"/>
<rect x="147.934" y="38" width="1.63333" height="34.9999" fill="#284D7D" fill-opacity="0.4"/>
<rect x="31.9668" y="89.0996" width="1.63333" height="34.9999" fill="#284D7D" fill-opacity="0.4"/>
<rect x="147.934" y="89.0996" width="1.63333" height="34.9999" fill="#284D7D" fill-opacity="0.4"/>
<rect x="6.06738" y="38" width="1.63333" height="34.9999" fill="#284D7D" fill-opacity="0.4"/>
<rect x="122.033" y="38" width="1.63333" height="34.9999" fill="#284D7D" fill-opacity="0.4"/>
<rect x="6.06738" y="89.0996" width="1.63333" height="34.9999" fill="#284D7D" fill-opacity="0.4"/>
<rect x="122.033" y="89.0996" width="1.63333" height="34.9999" fill="#284D7D" fill-opacity="0.4"/>
<path d="M70.9326 91.8993C70.9326 91.7705 71.0371 91.666 71.166 91.666V91.666C71.2948 91.666 71.3993 91.7705 71.3993 91.8993L71.3993 94.466C71.3993 94.5949 71.2948 94.6993 71.166 94.6993V94.6993C71.0371 94.6993 70.9326 94.5949 70.9326 94.466L70.9326 91.8993Z" fill="#AAA3F5"/>
<path d="M71.8662 91.8993C71.8662 91.7705 71.9707 91.666 72.0995 91.666V91.666C72.2284 91.666 72.3329 91.7705 72.3329 91.8993L72.3329 94.466C72.3329 94.5949 72.2284 94.6993 72.0995 94.6993V94.6993C71.9707 94.6993 71.8662 94.5949 71.8662 94.466L71.8662 91.8993Z" fill="#AAA3F5"/>
<path d="M72.7998 91.8993C72.7998 91.7705 72.9043 91.666 73.0331 91.666V91.666C73.162 91.666 73.2665 91.7705 73.2665 91.8993L73.2665 94.466C73.2665 94.5949 73.162 94.6993 73.0331 94.6993V94.6993C72.9043 94.6993 72.7998 94.5949 72.7998 94.466L72.7998 91.8993Z" fill="#AAA3F5"/>
<path d="M95.2002 97.9669C95.2002 98.0957 95.0957 98.2002 94.9669 98.2002V98.2002C94.838 98.2002 94.7335 98.0957 94.7335 97.9669L94.7335 95.8669C94.7335 95.738 94.838 95.6335 94.9669 95.6335V95.6335C95.0957 95.6335 95.2002 95.738 95.2002 95.8669L95.2002 97.9669Z" fill="#AAA3F5"/>
<path d="M99.4004 97.9669C99.4004 98.0957 99.2959 98.2002 99.1671 98.2002V98.2002C99.0382 98.2002 98.9337 98.0957 98.9337 97.9669L98.9337 95.8669C98.9337 95.738 99.0382 95.6335 99.167 95.6335V95.6335C99.2959 95.6335 99.4004 95.738 99.4004 95.8669L99.4004 97.9669Z" fill="#AAA3F5"/>
<path d="M94.9667 96.0996C94.8379 96.0996 94.7334 95.9951 94.7334 95.8663V95.8663C94.7334 95.7374 94.8379 95.6329 94.9667 95.6329L99.1667 95.6329C99.2956 95.6329 99.4001 95.7374 99.4001 95.8663V95.8663C99.4001 95.9951 99.2956 96.0996 99.1667 96.0996L94.9667 96.0996Z" fill="#AAA3F5"/>
<path d="M90.5331 97.0332C90.4043 97.0332 90.2998 96.9287 90.2998 96.7999V96.7999C90.2998 96.671 90.4043 96.5665 90.5331 96.5665L94.7331 96.5665C94.862 96.5665 94.9665 96.671 94.9665 96.7999V96.7999C94.9665 96.9287 94.862 97.0332 94.7331 97.0332L90.5331 97.0332Z" fill="#AAA3F5"/>
<path d="M90.0674 93.7665C90.0674 93.6377 90.1718 93.5332 90.3007 93.5332V93.5332C90.4296 93.5332 90.534 93.6377 90.534 93.7665L90.5341 97.9665C90.5341 98.0954 90.4296 98.1999 90.3007 98.1999V98.1999C90.1719 98.1999 90.0674 98.0954 90.0674 97.9665L90.0674 93.7665Z" fill="#AAA3F5"/>
</svg>
