<svg width="77" height="51" viewBox="0 0 77 51" fill="none" xmlns="http://www.w3.org/2000/svg">
<path d="M41.453 21.8082L6.07305 42.2348C4.22915 43.2993 3.5972 45.6568 4.66156 47.5003C5.72591 49.3438 8.08352 49.9753 9.92742 48.9107L45.3073 28.4841C47.1512 27.4195 47.7832 25.0621 46.7188 23.2186C45.6545 21.375 43.2969 20.7436 41.453 21.8082Z" fill="#FF0D46"/>
<path d="M1.26999 46.5856L6.73013 48.0487C7.43146 48.2366 8.15234 47.8204 8.34026 47.119L8.86194 45.1721C9.04986 44.4708 8.63366 43.7499 7.93233 43.562L2.47219 42.0989C1.77086 41.911 1.04999 42.3272 0.86207 43.0286L0.340392 44.9755C0.152471 45.6768 0.568663 46.3977 1.26999 46.5856Z" fill="#FF0D46"/>
<path d="M46.2963 13.0654L21.9422 27.1262C17.6357 29.6126 16.1601 35.1193 18.6465 39.4259C21.1329 43.7324 26.6397 45.208 30.9463 42.7216L55.3003 28.6608C59.6068 26.1744 61.0824 20.6676 58.596 16.3611C56.1096 12.0545 50.6028 10.579 46.2963 13.0654Z" fill="#FF6E2E"/>
<path d="M55.8069 5.43056L34.6699 17.634C29.475 20.6333 27.6951 27.276 30.6943 32.4709C33.6936 37.6658 40.3363 39.4457 45.5312 36.4464L66.6682 24.243C71.8631 21.2437 73.6431 14.601 70.6438 9.40609C67.6445 4.21118 61.0018 2.43128 55.8069 5.43056Z" fill="#FEE600"/>
<path d="M70.6436 9.40815C73.6428 14.6022 71.8613 21.2466 66.6673 24.2442L45.5292 36.4477C43.5815 37.5718 41.4302 38.0256 39.3419 37.8738C38.6474 37.8237 37.961 37.7106 37.2875 37.5314C36.6722 37.3666 36.0746 37.1486 35.498 36.8757L37.9481 35.4609C40.0364 35.6127 42.1877 35.1588 44.1354 34.0347L65.2735 21.8313C70.0573 19.0695 71.9421 13.2116 69.8651 8.24854C70.1445 8.61193 70.4062 8.99793 70.642 9.40977L70.6436 9.40815Z" fill="#FFB400"/>
<path d="M39.3406 37.8755L30.9438 42.7223C28.7909 43.9643 26.336 44.2178 24.1121 43.6187C21.8849 43.0211 19.887 41.5788 18.6451 39.4259C18.4076 39.0157 18.2074 38.5942 18.041 38.1662C19.2669 39.6843 20.9158 40.7228 22.7183 41.2057C24.9422 41.8049 27.3971 41.5514 29.55 40.3094L35.4967 36.8757C36.0733 37.1487 36.6708 37.3667 37.2862 37.5315C37.9581 37.7123 38.6461 37.8238 39.3406 37.8738V37.8755Z" fill="#FF0D46"/>
<path d="M61.2344 25.6995C67.233 25.6995 72.0958 20.8367 72.0958 14.8382C72.0958 8.8396 67.233 3.97681 61.2344 3.97681C55.2358 3.97681 50.373 8.8396 50.373 14.8382C50.373 20.8367 55.2358 25.6995 61.2344 25.6995Z" fill="#FFFD00"/>
<path d="M69.7482 9.9038C69.3186 10.1428 68.784 10.012 68.4997 9.61308C67.2561 7.86558 65.4763 6.68334 63.5156 6.15845C61.3014 5.56572 58.8513 5.8209 56.7081 7.05804L47.1033 12.6026C46.6591 12.8594 46.0906 12.7076 45.8338 12.2618C45.577 11.8177 45.7289 11.2491 46.1746 10.9924L55.8069 5.43167C58.4055 3.93126 61.3644 3.62925 64.0486 4.34795C66.4163 4.98267 68.5724 6.41363 70.0761 8.52291C70.4039 8.98321 70.2424 9.62923 69.7482 9.9038V9.9038Z" fill="white"/>
<path d="M61.2333 23.7818C66.1731 23.7818 70.1776 19.7773 70.1776 14.8376C70.1776 9.89779 66.1731 5.89331 61.2333 5.89331C56.2936 5.89331 52.2891 9.89779 52.2891 14.8376C52.2891 19.7773 56.2936 23.7818 61.2333 23.7818Z" fill="#39049F"/>
<path d="M68.9806 10.3675C71.45 14.6442 69.9835 20.1145 65.7068 22.5839C64.0417 23.5449 62.1957 23.9083 60.4175 23.7435C60.9149 23.5643 61.4027 23.3414 61.8726 23.0701C66.1494 20.6006 67.6142 15.1304 65.1432 10.8504C63.6331 8.23564 61.0053 6.67386 58.2129 6.41868C62.207 4.97642 66.7792 6.55758 68.979 10.3675H68.9806Z" fill="#440ABA"/>
<path d="M58.4807 14.2417C60.1086 14.2417 61.4282 12.922 61.4282 11.2942C61.4282 9.66632 60.1086 8.34668 58.4807 8.34668C56.8528 8.34668 55.5332 9.66632 55.5332 11.2942C55.5332 12.922 56.8528 14.2417 58.4807 14.2417Z" fill="#DBCBD7"/>
<path d="M58.0625 20.893C58.8768 20.893 59.537 20.2328 59.537 19.4184C59.537 18.604 58.8768 17.9438 58.0625 17.9438C57.2481 17.9438 56.5879 18.604 56.5879 19.4184C56.5879 20.2328 57.2481 20.893 58.0625 20.893Z" fill="#DBCBD7"/>
</svg>
