<svg width="1032" height="1032" viewBox="0 0 1032 1032" fill="none" xmlns="http://www.w3.org/2000/svg">
<g filter="url(#filter0_d_79_114)">
<g clip-path="url(#clip0_79_114)">
<rect x="4" width="1024" height="1024" rx="512" fill="#CD4C66"/>
<path fill-rule="evenodd" clip-rule="evenodd" d="M30 118C30 82.1015 59.1015 53 95 53H451C486.898 53 516 82.1015 516 118C516 153.899 486.898 183 451 183H95C59.1015 183 30 153.899 30 118ZM-118 455.5C-118 387.293 -62.7072 332 5.5 332H392.5C460.707 332 516 387.293 516 455.5C516 523.707 460.707 579 392.5 579H5.5C-62.7072 579 -118 523.707 -118 455.5ZM229 663C229 650.297 218.703 640 206 640H16C3.29745 640 -7 650.297 -7 663C-7 675.703 3.29745 686 16 686H46.5C57.8218 686 67 695.178 67 706.5C67 717.822 76.1782 727 87.5 727H136.5C147.822 727 157 717.822 157 706.5C157 695.178 166.178 686 177.5 686H206C218.703 686 229 675.703 229 663ZM910 556C910 543.297 920.297 533 933 533H1123C1135.7 533 1146 543.297 1146 556C1146 568.703 1135.7 579 1123 579H1071C1058.3 579 1048 589.297 1048 602C1048 614.703 1037.7 625 1025 625H835C822.297 625 812 614.703 812 602C812 589.297 822.297 579 835 579H887C899.703 579 910 568.703 910 556ZM1240 296C1240 261.758 1212.24 234 1178 234H668C633.758 234 606 261.758 606 296C606 330.242 633.758 358 668 358H759C793.242 358 821 385.758 821 420C821 454.242 848.758 482 883 482H1393C1427.24 482 1455 454.242 1455 420C1455 385.758 1427.24 358 1393 358H1302C1267.76 358 1240 330.242 1240 296ZM447 1044C447 1009.76 474.758 982 509 982H1019C1053.24 982 1081 1009.76 1081 1044C1081 1078.24 1053.24 1106 1019 1106H509C474.758 1106 447 1078.24 447 1044ZM314 754.5C314 733.237 331.237 716 352.5 716H477.5C498.763 716 516 733.237 516 754.5C516 775.763 498.763 793 477.5 793H439.5C418.237 793 401 810.237 401 831.5C401 852.763 383.763 870 362.5 870H237.5C216.237 870 199 852.763 199 831.5C199 810.237 216.237 793 237.5 793H275.5C296.763 793 314 775.763 314 754.5ZM798 754.5C798 733.237 815.237 716 836.5 716H961.5C982.763 716 1000 733.237 1000 754.5C1000 775.763 982.763 793 961.5 793C940.237 793 923 810.237 923 831.5V861C923 898.555 892.555 929 855 929H789C751.445 929 721 898.555 721 861V831.5C721 810.237 738.237 793 759.5 793C780.763 793 798 775.763 798 754.5Z" fill="#DD5761"/>
<circle cx="579" cy="640" r="31" fill="#B82E3E"/>
<circle cx="322" cy="307" r="66" fill="#B82E3E"/>
<circle cx="288" cy="778" r="32" fill="#B82E3E"/>
<circle cx="793.5" cy="745.5" r="18.5" fill="#B82E3E"/>
<circle cx="655.5" cy="418.5" r="45.5" fill="#B82E3E"/>
<circle cx="619.5" cy="121.5" r="45.5" fill="#B82E3E"/>
<path fill-rule="evenodd" clip-rule="evenodd" d="M260.7 862.096C543.47 862.096 772.7 632.866 772.7 350.096C772.7 223.374 726.662 107.404 650.4 18C867.821 77.1336 1027.7 275.944 1027.7 512.096C1027.7 794.866 798.47 1024.1 515.7 1024.1C359.653 1024.1 219.91 954.286 126 844.193C168.92 855.866 214.082 862.096 260.7 862.096Z" fill="#4F0000" fill-opacity="0.2"/>
<circle cx="320" cy="373" r="169" fill="#EEC3C3" fill-opacity="0.2"/>
</g>
</g>
<defs>
<filter id="filter0_d_79_114" x="0" y="0" width="1032" height="1032" filterUnits="userSpaceOnUse" color-interpolation-filters="sRGB">
<feFlood flood-opacity="0" result="BackgroundImageFix"/>
<feColorMatrix in="SourceAlpha" type="matrix" values="0 0 0 0 0 0 0 0 0 0 0 0 0 0 0 0 0 0 127 0" result="hardAlpha"/>
<feOffset dy="4"/>
<feGaussianBlur stdDeviation="2"/>
<feComposite in2="hardAlpha" operator="out"/>
<feColorMatrix type="matrix" values="0 0 0 0 0 0 0 0 0 0 0 0 0 0 0 0 0 0 0.25 0"/>
<feBlend mode="normal" in2="BackgroundImageFix" result="effect1_dropShadow_79_114"/>
<feBlend mode="normal" in="SourceGraphic" in2="effect1_dropShadow_79_114" result="shape"/>
</filter>
<clipPath id="clip0_79_114">
<rect x="4" width="1024" height="1024" rx="512" fill="white"/>
</clipPath>
</defs>
</svg>
