<svg width="2119" height="1234" viewBox="0 0 2119 1234" fill="none" xmlns="http://www.w3.org/2000/svg">
<g clip-path="url(#clip0_65_143)" >
<path d="M221.91 238.72C228.538 238.72 233.91 233.348 233.91 226.72C233.91 220.093 228.538 214.72 221.91 214.72C215.283 214.72 209.91 220.093 209.91 226.72C209.91 233.348 215.283 238.72 221.91 238.72Z" fill="#05AADF"/>
<path d="M910.57 466.59C917.197 466.59 922.57 461.217 922.57 454.59C922.57 447.962 917.197 442.59 910.57 442.59C903.943 442.59 898.57 447.962 898.57 454.59C898.57 461.217 903.943 466.59 910.57 466.59Z" fill="#05AADF"/>
<path d="M1642.91 515.45C1649.54 515.45 1654.91 510.078 1654.91 503.45C1654.91 496.823 1649.54 491.45 1642.91 491.45C1636.28 491.45 1630.91 496.823 1630.91 503.45C1630.91 510.078 1636.28 515.45 1642.91 515.45Z" fill="#05AADF"/>
<path d="M1945.91 99.79C1952.54 99.79 1957.91 94.4175 1957.91 87.79C1957.91 81.1626 1952.54 75.79 1945.91 75.79C1939.28 75.79 1933.91 81.1626 1933.91 87.79C1933.91 94.4175 1939.28 99.79 1945.91 99.79Z" fill="#05AADF"/>
<path d="M585.45 766.05C592.077 766.05 597.45 760.677 597.45 754.05C597.45 747.422 592.077 742.05 585.45 742.05C578.823 742.05 573.45 747.422 573.45 754.05C573.45 760.677 578.823 766.05 585.45 766.05Z" fill="#05AADF"/>
<path d="M1481.32 869.55C1487.95 869.55 1493.32 864.177 1493.32 857.55C1493.32 850.922 1487.95 845.55 1481.32 845.55C1474.69 845.55 1469.32 850.922 1469.32 857.55C1469.32 864.177 1474.69 869.55 1481.32 869.55Z" fill="#05AADF"/>
<path d="M1690.56 690.43C1697.19 690.43 1702.56 685.058 1702.56 678.43C1702.56 671.803 1697.19 666.43 1690.56 666.43C1683.93 666.43 1678.56 671.803 1678.56 678.43C1678.56 685.058 1683.93 690.43 1690.56 690.43Z" fill="#05AADF"/>
<path d="M1397.55 1136.73C1404.18 1136.73 1409.55 1131.36 1409.55 1124.73C1409.55 1118.1 1404.18 1112.73 1397.55 1112.73C1390.92 1112.73 1385.55 1118.1 1385.55 1124.73C1385.55 1131.36 1390.92 1136.73 1397.55 1136.73Z" fill="#05AADF"/>
<path d="M641.73 1041.94C648.357 1041.94 653.73 1036.57 653.73 1029.94C653.73 1023.31 648.357 1017.94 641.73 1017.94C635.103 1017.94 629.73 1023.31 629.73 1029.94C629.73 1036.57 635.103 1041.94 641.73 1041.94Z" fill="#05AADF"/>
<path d="M1001.88 612.53C1006.3 612.53 1009.88 608.949 1009.88 604.53C1009.88 600.112 1006.3 596.53 1001.88 596.53C997.462 596.53 993.88 600.112 993.88 604.53C993.88 608.949 997.462 612.53 1001.88 612.53Z" fill="#6A00FB"/>
<path d="M564.64 363.53C569.058 363.53 572.64 359.948 572.64 355.53C572.64 351.112 569.058 347.53 564.64 347.53C560.222 347.53 556.64 351.112 556.64 355.53C556.64 359.948 560.222 363.53 564.64 363.53Z" fill="#6A00FB"/>
<path d="M1494.28 409.28C1498.7 409.28 1502.28 405.698 1502.28 401.28C1502.28 396.862 1498.7 393.28 1494.28 393.28C1489.86 393.28 1486.28 396.862 1486.28 401.28C1486.28 405.698 1489.86 409.28 1494.28 409.28Z" fill="#6A00FB"/>
<path d="M1127.86 382.18C1132.28 382.18 1135.86 378.598 1135.86 374.18C1135.86 369.762 1132.28 366.18 1127.86 366.18C1123.44 366.18 1119.86 369.762 1119.86 374.18C1119.86 378.598 1123.44 382.18 1127.86 382.18Z" fill="#6A00FB"/>
<path d="M687.88 943.91C692.298 943.91 695.88 940.328 695.88 935.91C695.88 931.492 692.298 927.91 687.88 927.91C683.462 927.91 679.88 931.492 679.88 935.91C679.88 940.328 683.462 943.91 687.88 943.91Z" fill="#6A00FB"/>
<path d="M1816.46 995.09C1820.88 995.09 1824.46 991.508 1824.46 987.09C1824.46 982.672 1820.88 979.09 1816.46 979.09C1812.04 979.09 1808.46 982.672 1808.46 987.09C1808.46 991.508 1812.04 995.09 1816.46 995.09Z" fill="#6A00FB"/>
<path d="M1611.35 168.35C1615.77 168.35 1619.35 164.768 1619.35 160.35C1619.35 155.932 1615.77 152.35 1611.35 152.35C1606.93 152.35 1603.35 155.932 1603.35 160.35C1603.35 164.768 1606.93 168.35 1611.35 168.35Z" fill="#6A00FB"/>
<path d="M772.3 415.72C776.718 415.72 780.3 412.138 780.3 407.72C780.3 403.302 776.718 399.72 772.3 399.72C767.882 399.72 764.3 403.302 764.3 407.72C764.3 412.138 767.882 415.72 772.3 415.72Z" fill="#6A00FB"/>
<path d="M1065.6 458.54C1070.02 458.54 1073.6 454.958 1073.6 450.54C1073.6 446.122 1070.02 442.54 1065.6 442.54C1061.18 442.54 1057.6 446.122 1057.6 450.54C1057.6 454.958 1061.18 458.54 1065.6 458.54Z" fill="#6A00FB"/>
<path d="M1042.86 1149.01C1047.28 1149.01 1050.86 1145.43 1050.86 1141.01C1050.86 1136.59 1047.28 1133.01 1042.86 1133.01C1038.44 1133.01 1034.86 1136.59 1034.86 1141.01C1034.86 1145.43 1038.44 1149.01 1042.86 1149.01Z" fill="#6A00FB"/>
<path d="M407 980.48C411.418 980.48 415 976.898 415 972.48C415 968.062 411.418 964.48 407 964.48C402.582 964.48 399 968.062 399 972.48C399 976.898 402.582 980.48 407 980.48Z" fill="#6A00FB"/>
<path d="M314.14 600.21C318.558 600.21 322.14 596.628 322.14 592.21C322.14 587.792 318.558 584.21 314.14 584.21C309.722 584.21 306.14 587.792 306.14 592.21C306.14 596.628 309.722 600.21 314.14 600.21Z" fill="#6A00FB"/>
<path d="M826.42 624.62C830.838 624.62 834.42 621.038 834.42 616.62C834.42 612.202 830.838 608.62 826.42 608.62C822.002 608.62 818.42 612.202 818.42 616.62C818.42 621.038 822.002 624.62 826.42 624.62Z" fill="#6A00FB"/>
<path d="M1187.42 925.81C1191.84 925.81 1195.42 922.228 1195.42 917.81C1195.42 913.392 1191.84 909.81 1187.42 909.81C1183 909.81 1179.42 913.392 1179.42 917.81C1179.42 922.228 1183 925.81 1187.42 925.81Z" fill="#6A00FB"/>
<path d="M1373 510.85C1377.42 510.85 1381 507.268 1381 502.85C1381 498.432 1377.42 494.85 1373 494.85C1368.58 494.85 1365 498.432 1365 502.85C1365 507.268 1368.58 510.85 1373 510.85Z" fill="#6A00FB"/>
<path d="M1696.89 375.57C1699.1 375.57 1700.89 373.779 1700.89 371.57C1700.89 369.361 1699.1 367.57 1696.89 367.57C1694.68 367.57 1692.89 369.361 1692.89 371.57C1692.89 373.779 1694.68 375.57 1696.89 375.57Z" fill="#4148D9"/>
<path d="M858.23 234.51C860.439 234.51 862.23 232.719 862.23 230.51C862.23 228.301 860.439 226.51 858.23 226.51C856.021 226.51 854.23 228.301 854.23 230.51C854.23 232.719 856.021 234.51 858.23 234.51Z" fill="#4148D9"/>
<path d="M562.52 168.3C564.729 168.3 566.52 166.509 566.52 164.3C566.52 162.091 564.729 160.3 562.52 160.3C560.311 160.3 558.52 162.091 558.52 164.3C558.52 166.509 560.311 168.3 562.52 168.3Z" fill="#4148D9"/>
<path d="M1248.04 137.48C1250.25 137.48 1252.04 135.689 1252.04 133.48C1252.04 131.271 1250.25 129.48 1248.04 129.48C1245.83 129.48 1244.04 131.271 1244.04 133.48C1244.04 135.689 1245.83 137.48 1248.04 137.48Z" fill="#4148D9"/>
<path d="M1931.5 530.47C1933.71 530.47 1935.5 528.679 1935.5 526.47C1935.5 524.261 1933.71 522.47 1931.5 522.47C1929.29 522.47 1927.5 524.261 1927.5 526.47C1927.5 528.679 1929.29 530.47 1931.5 530.47Z" fill="#4148D9"/>
<path d="M1904.82 927.13C1907.03 927.13 1908.82 925.339 1908.82 923.13C1908.82 920.921 1907.03 919.13 1904.82 919.13C1902.61 919.13 1900.82 920.921 1900.82 923.13C1900.82 925.339 1902.61 927.13 1904.82 927.13Z" fill="#4148D9"/>
<path d="M1718.62 1129.93C1720.83 1129.93 1722.62 1128.14 1722.62 1125.93C1722.62 1123.72 1720.83 1121.93 1718.62 1121.93C1716.41 1121.93 1714.62 1123.72 1714.62 1125.93C1714.62 1128.14 1716.41 1129.93 1718.62 1129.93Z" fill="#4148D9"/>
<path d="M1417.12 680.37C1419.33 680.37 1421.12 678.579 1421.12 676.37C1421.12 674.161 1419.33 672.37 1417.12 672.37C1414.91 672.37 1413.12 674.161 1413.12 676.37C1413.12 678.579 1414.91 680.37 1417.12 680.37Z" fill="#4148D9"/>
<path d="M1157.92 727.36C1160.13 727.36 1161.92 725.569 1161.92 723.36C1161.92 721.151 1160.13 719.36 1157.92 719.36C1155.71 719.36 1153.92 721.151 1153.92 723.36C1153.92 725.569 1155.71 727.36 1157.92 727.36Z" fill="#4148D9"/>
<path d="M902.85 973.73C905.059 973.73 906.85 971.939 906.85 969.73C906.85 967.521 905.059 965.73 902.85 965.73C900.641 965.73 898.85 967.521 898.85 969.73C898.85 971.939 900.641 973.73 902.85 973.73Z" fill="#4148D9"/>
<path d="M505.45 1024.33C507.659 1024.33 509.45 1022.54 509.45 1020.33C509.45 1018.12 507.659 1016.33 505.45 1016.33C503.241 1016.33 501.45 1018.12 501.45 1020.33C501.45 1022.54 503.241 1024.33 505.45 1024.33Z" fill="#4148D9"/>
<path d="M87.7798 728.82C89.9889 728.82 91.7798 727.029 91.7798 724.82C91.7798 722.611 89.9889 720.82 87.7798 720.82C85.5706 720.82 83.7798 722.611 83.7798 724.82C83.7798 727.029 85.5706 728.82 87.7798 728.82Z" fill="#4148D9"/>
<path d="M524.03 690.36C526.239 690.36 528.03 688.569 528.03 686.36C528.03 684.151 526.239 682.36 524.03 682.36C521.821 682.36 520.03 684.151 520.03 686.36C520.03 688.569 521.821 690.36 524.03 690.36Z" fill="#4148D9"/>
<path d="M341.1 487.34C343.309 487.34 345.1 485.549 345.1 483.34C345.1 481.131 343.309 479.34 341.1 479.34C338.891 479.34 337.1 481.131 337.1 483.34C337.1 485.549 338.891 487.34 341.1 487.34Z" fill="#4148D9"/>
<path d="M864.02 181.21C866.229 181.21 868.02 179.419 868.02 177.21C868.02 175.001 866.229 173.21 864.02 173.21C861.811 173.21 860.02 175.001 860.02 177.21C860.02 179.419 861.811 181.21 864.02 181.21Z" fill="#4148D9"/>
<path d="M1380.42 335.03C1382.63 335.03 1384.42 333.239 1384.42 331.03C1384.42 328.821 1382.63 327.03 1380.42 327.03C1378.21 327.03 1376.42 328.821 1376.42 331.03C1376.42 333.239 1378.21 335.03 1380.42 335.03Z" fill="#4148D9"/>
<path d="M1786.23 839.17C1788.44 839.17 1790.23 837.379 1790.23 835.17C1790.23 832.961 1788.44 831.17 1786.23 831.17C1784.02 831.17 1782.23 832.961 1782.23 835.17C1782.23 837.379 1784.02 839.17 1786.23 839.17Z" fill="#4148D9"/>
<path d="M871.36 1083.87C873.569 1083.87 875.36 1082.08 875.36 1079.87C875.36 1077.66 873.569 1075.87 871.36 1075.87C869.151 1075.87 867.36 1077.66 867.36 1079.87C867.36 1082.08 869.151 1083.87 871.36 1083.87Z" fill="#4148D9"/>
<path d="M712.5 540.12C714.709 540.12 716.5 538.329 716.5 536.12C716.5 533.911 714.709 532.12 712.5 532.12C710.291 532.12 708.5 533.911 708.5 536.12C708.5 538.329 710.291 540.12 712.5 540.12Z" fill="#4148D9"/>
<path d="M910.53 868.36C912.739 868.36 914.53 866.569 914.53 864.36C914.53 862.151 912.739 860.36 910.53 860.36C908.321 860.36 906.53 862.151 906.53 864.36C906.53 866.569 908.321 868.36 910.53 868.36Z" fill="#4148D9"/>
<path d="M1186.24 688.76C1188.45 688.76 1190.24 686.969 1190.24 684.76C1190.24 682.551 1188.45 680.76 1186.24 680.76C1184.03 680.76 1182.24 682.551 1182.24 684.76C1182.24 686.969 1184.03 688.76 1186.24 688.76Z" fill="#4148D9"/>
<path d="M1027.06 341.63C1029.27 341.63 1031.06 339.839 1031.06 337.63C1031.06 335.421 1029.27 333.63 1027.06 333.63C1024.85 333.63 1023.06 335.421 1023.06 337.63C1023.06 339.839 1024.85 341.63 1027.06 341.63Z" fill="#4148D9"/>
<path d="M1136.56 324.94C1138.77 324.94 1140.56 323.149 1140.56 320.94C1140.56 318.731 1138.77 316.94 1136.56 316.94C1134.35 316.94 1132.56 318.731 1132.56 320.94C1132.56 323.149 1134.35 324.94 1136.56 324.94Z" fill="#4148D9"/>
<path d="M1123.46 580.82C1125.67 580.82 1127.46 579.029 1127.46 576.82C1127.46 574.611 1125.67 572.82 1123.46 572.82C1121.25 572.82 1119.46 574.611 1119.46 576.82C1119.46 579.029 1121.25 580.82 1123.46 580.82Z" fill="#4148D9"/>
<path d="M1367.26 844.58C1369.47 844.58 1371.26 842.789 1371.26 840.58C1371.26 838.371 1369.47 836.58 1367.26 836.58C1365.05 836.58 1363.26 838.371 1363.26 840.58C1363.26 842.789 1365.05 844.58 1367.26 844.58Z" fill="#4148D9"/>
<path d="M1144.73 1007.6C1146.94 1007.6 1148.73 1005.81 1148.73 1003.6C1148.73 1001.39 1146.94 999.6 1144.73 999.6C1142.52 999.6 1140.73 1001.39 1140.73 1003.6C1140.73 1005.81 1142.52 1007.6 1144.73 1007.6Z" fill="#4148D9"/>
<path d="M788.86 791.02C791.069 791.02 792.86 789.229 792.86 787.02C792.86 784.811 791.069 783.02 788.86 783.02C786.651 783.02 784.86 784.811 784.86 787.02C784.86 789.229 786.651 791.02 788.86 791.02Z" fill="#4148D9"/>
<path d="M472.9 751.09C475.109 751.09 476.9 749.299 476.9 747.09C476.9 744.881 475.109 743.09 472.9 743.09C470.691 743.09 468.9 744.881 468.9 747.09C468.9 749.299 470.691 751.09 472.9 751.09Z" fill="#4148D9"/>
<path d="M499.33 526.59C501.539 526.59 503.33 524.799 503.33 522.59C503.33 520.381 501.539 518.59 499.33 518.59C497.121 518.59 495.33 520.381 495.33 522.59C495.33 524.799 497.121 526.59 499.33 526.59Z" fill="#4148D9"/>
<path d="M741.15 346.63C743.359 346.63 745.15 344.839 745.15 342.63C745.15 340.421 743.359 338.63 741.15 338.63C738.941 338.63 737.15 340.421 737.15 342.63C737.15 344.839 738.941 346.63 741.15 346.63Z" fill="#4148D9"/>
<path d="M933.65 353.41C935.859 353.41 937.65 351.619 937.65 349.41C937.65 347.201 935.859 345.41 933.65 345.41C931.441 345.41 929.65 347.201 929.65 349.41C929.65 351.619 931.441 353.41 933.65 353.41Z" fill="#4148D9"/>
<path d="M1148.58 174.55C1150.79 174.55 1152.58 172.759 1152.58 170.55C1152.58 168.341 1150.79 166.55 1148.58 166.55C1146.37 166.55 1144.58 168.341 1144.58 170.55C1144.58 172.759 1146.37 174.55 1148.58 174.55Z" fill="#4148D9"/>
<path d="M1263.2 352.54C1265.41 352.54 1267.2 350.749 1267.2 348.54C1267.2 346.331 1265.41 344.54 1263.2 344.54C1260.99 344.54 1259.2 346.331 1259.2 348.54C1259.2 350.749 1260.99 352.54 1263.2 352.54Z" fill="#4148D9"/>
<path d="M1462.74 271.85C1464.95 271.85 1466.74 270.059 1466.74 267.85C1466.74 265.641 1464.95 263.85 1462.74 263.85C1460.53 263.85 1458.74 265.641 1458.74 267.85C1458.74 270.059 1460.53 271.85 1462.74 271.85Z" fill="#4148D9"/>
<path d="M1627.29 327.03C1629.5 327.03 1631.29 325.239 1631.29 323.03C1631.29 320.821 1629.5 319.03 1627.29 319.03C1625.08 319.03 1623.29 320.821 1623.29 323.03C1623.29 325.239 1625.08 327.03 1627.29 327.03Z" fill="#4148D9"/>
<path d="M1825.57 293.36C1827.78 293.36 1829.57 291.569 1829.57 289.36C1829.57 287.151 1827.78 285.36 1825.57 285.36C1823.36 285.36 1821.57 287.151 1821.57 289.36C1821.57 291.569 1823.36 293.36 1825.57 293.36Z" fill="#4148D9"/>
<path d="M1903.03 494.28C1905.24 494.28 1907.03 492.489 1907.03 490.28C1907.03 488.071 1905.24 486.28 1903.03 486.28C1900.82 486.28 1899.03 488.071 1899.03 490.28C1899.03 492.489 1900.82 494.28 1903.03 494.28Z" fill="#4148D9"/>
<path d="M1899.99 689.58C1902.2 689.58 1903.99 687.789 1903.99 685.58C1903.99 683.371 1902.2 681.58 1899.99 681.58C1897.78 681.58 1895.99 683.371 1895.99 685.58C1895.99 687.789 1897.78 689.58 1899.99 689.58Z" fill="#4148D9"/>
<path d="M1745.64 543.68C1747.85 543.68 1749.64 541.889 1749.64 539.68C1749.64 537.471 1747.85 535.68 1745.64 535.68C1743.43 535.68 1741.64 537.471 1741.64 539.68C1741.64 541.889 1743.43 543.68 1745.64 543.68Z" fill="#4148D9"/>
<path d="M1466.65 706.57C1468.86 706.57 1470.65 704.779 1470.65 702.57C1470.65 700.361 1468.86 698.57 1466.65 698.57C1464.44 698.57 1462.65 700.361 1462.65 702.57C1462.65 704.779 1464.44 706.57 1466.65 706.57Z" fill="#4148D9"/>
<path d="M1591.09 674.77C1593.3 674.77 1595.09 672.979 1595.09 670.77C1595.09 668.561 1593.3 666.77 1591.09 666.77C1588.88 666.77 1587.09 668.561 1587.09 670.77C1587.09 672.979 1588.88 674.77 1591.09 674.77Z" fill="#4148D9"/>
<path d="M1614.4 878.19C1616.61 878.19 1618.4 876.399 1618.4 874.19C1618.4 871.981 1616.61 870.19 1614.4 870.19C1612.19 870.19 1610.4 871.981 1610.4 874.19C1610.4 876.399 1612.19 878.19 1614.4 878.19Z" fill="#4148D9"/>
<path d="M1491.1 666.33C1493.31 666.33 1495.1 664.539 1495.1 662.33C1495.1 660.121 1493.31 658.33 1491.1 658.33C1488.89 658.33 1487.1 660.121 1487.1 662.33C1487.1 664.539 1488.89 666.33 1491.1 666.33Z" fill="#4148D9"/>
<path d="M1230.79 719.33C1233 719.33 1234.79 717.539 1234.79 715.33C1234.79 713.121 1233 711.33 1230.79 711.33C1228.58 711.33 1226.79 713.121 1226.79 715.33C1226.79 717.539 1228.58 719.33 1230.79 719.33Z" fill="#4148D9"/>
<path d="M843.05 978.09C845.259 978.09 847.05 976.299 847.05 974.09C847.05 971.881 845.259 970.09 843.05 970.09C840.841 970.09 839.05 971.881 839.05 974.09C839.05 976.299 840.841 978.09 843.05 978.09Z" fill="#4148D9"/>
<path d="M343.94 993.6C350.567 993.6 355.94 988.228 355.94 981.6C355.94 974.973 350.567 969.6 343.94 969.6C337.313 969.6 331.94 974.973 331.94 981.6C331.94 988.228 337.313 993.6 343.94 993.6Z" fill="#05AADF"/>
<path d="M369.83 731.19C376.457 731.19 381.83 725.817 381.83 719.19C381.83 712.563 376.457 707.19 369.83 707.19C363.203 707.19 357.83 712.563 357.83 719.19C357.83 725.817 363.203 731.19 369.83 731.19Z" fill="#05AADF"/>
<path d="M485.46 342.5C492.087 342.5 497.46 337.127 497.46 330.5C497.46 323.873 492.087 318.5 485.46 318.5C478.833 318.5 473.46 323.873 473.46 330.5C473.46 337.127 478.833 342.5 485.46 342.5Z" fill="#05AADF"/>
<path d="M320.1 200.16C326.728 200.16 332.1 194.788 332.1 188.16C332.1 181.533 326.728 176.16 320.1 176.16C313.473 176.16 308.1 181.533 308.1 188.16C308.1 194.788 313.473 200.16 320.1 200.16Z" fill="#05AADF"/>
<path d="M1750.74 217.44C1757.37 217.44 1762.74 212.067 1762.74 205.44C1762.74 198.813 1757.37 193.44 1750.74 193.44C1744.11 193.44 1738.74 198.813 1738.74 205.44C1738.74 212.067 1744.11 217.44 1750.74 217.44Z" fill="#05AADF"/>
<path d="M1935.65 797.74C1942.28 797.74 1947.65 792.368 1947.65 785.74C1947.65 779.113 1942.28 773.74 1935.65 773.74C1929.02 773.74 1923.65 779.113 1923.65 785.74C1923.65 792.368 1929.02 797.74 1935.65 797.74Z" fill="#05AADF"/>
<path d="M2077.88 1123.34C2084.51 1123.34 2089.88 1117.97 2089.88 1111.34C2089.88 1104.71 2084.51 1099.34 2077.88 1099.34C2071.25 1099.34 2065.88 1104.71 2065.88 1111.34C2065.88 1117.97 2071.25 1123.34 2077.88 1123.34Z" fill="#05AADF"/>
<path d="M2074.55 538.27C2081.18 538.27 2086.55 532.897 2086.55 526.27C2086.55 519.643 2081.18 514.27 2074.55 514.27C2067.92 514.27 2062.55 519.643 2062.55 526.27C2062.55 532.897 2067.92 538.27 2074.55 538.27Z" fill="#05AADF"/>
<path d="M1931.53 871.65C1935.95 871.65 1939.53 868.068 1939.53 863.65C1939.53 859.232 1935.95 855.65 1931.53 855.65C1927.11 855.65 1923.53 859.232 1923.53 863.65C1923.53 868.068 1927.11 871.65 1931.53 871.65Z" fill="#6A00FB"/>
<path d="M1927.61 155.69C1932.03 155.69 1935.61 152.108 1935.61 147.69C1935.61 143.272 1932.03 139.69 1927.61 139.69C1923.19 139.69 1919.61 143.272 1919.61 147.69C1919.61 152.108 1923.19 155.69 1927.61 155.69Z" fill="#6A00FB"/>
<path d="M2050.8 372.31C2055.22 372.31 2058.8 368.728 2058.8 364.31C2058.8 359.892 2055.22 356.31 2050.8 356.31C2046.38 356.31 2042.8 359.892 2042.8 364.31C2042.8 368.728 2046.38 372.31 2050.8 372.31Z" fill="#6A00FB"/>
<path d="M2110.78 857.22C2115.2 857.22 2118.78 853.638 2118.78 849.22C2118.78 844.801 2115.2 841.22 2110.78 841.22C2106.36 841.22 2102.78 844.801 2102.78 849.22C2102.78 853.638 2106.36 857.22 2110.78 857.22Z" fill="#6A00FB"/>
<path d="M1289.31 250.47C1293.73 250.47 1297.31 246.888 1297.31 242.47C1297.31 238.052 1293.73 234.47 1289.31 234.47C1284.89 234.47 1281.31 238.052 1281.31 242.47C1281.31 246.888 1284.89 250.47 1289.31 250.47Z" fill="#6A00FB"/>
<path d="M969.97 147.59C974.388 147.59 977.97 144.008 977.97 139.59C977.97 135.172 974.388 131.59 969.97 131.59C965.552 131.59 961.97 135.172 961.97 139.59C961.97 144.008 965.552 147.59 969.97 147.59Z" fill="#6A00FB"/>
<path d="M475.07 130.45C479.488 130.45 483.07 126.868 483.07 122.45C483.07 118.032 479.488 114.45 475.07 114.45C470.652 114.45 467.07 118.032 467.07 122.45C467.07 126.868 470.652 130.45 475.07 130.45Z" fill="#6A00FB"/>
<path d="M97.6299 456.34C102.048 456.34 105.63 452.758 105.63 448.34C105.63 443.922 102.048 440.34 97.6299 440.34C93.2116 440.34 89.6299 443.922 89.6299 448.34C89.6299 452.758 93.2116 456.34 97.6299 456.34Z" fill="#6A00FB"/>
<path d="M201.14 574.01C205.558 574.01 209.14 570.428 209.14 566.01C209.14 561.591 205.558 558.01 201.14 558.01C196.722 558.01 193.14 561.591 193.14 566.01C193.14 570.428 196.722 574.01 201.14 574.01Z" fill="#6A00FB"/>
<path d="M210.73 333.35C215.148 333.35 218.73 329.768 218.73 325.35C218.73 320.932 215.148 317.35 210.73 317.35C206.312 317.35 202.73 320.932 202.73 325.35C202.73 329.768 206.312 333.35 210.73 333.35Z" fill="#6A00FB"/>
<path d="M210.75 1233.39C215.168 1233.39 218.75 1229.81 218.75 1225.39C218.75 1220.97 215.168 1217.39 210.75 1217.39C206.332 1217.39 202.75 1220.97 202.75 1225.39C202.75 1229.81 206.332 1233.39 210.75 1233.39Z" fill="#6A00FB"/>
<path d="M144.56 931.28C148.978 931.28 152.56 927.699 152.56 923.28C152.56 918.862 148.978 915.28 144.56 915.28C140.142 915.28 136.56 918.862 136.56 923.28C136.56 927.699 140.142 931.28 144.56 931.28Z" fill="#6A00FB"/>
<path d="M319.68 896.89C324.098 896.89 327.68 893.308 327.68 888.89C327.68 884.472 324.098 880.89 319.68 880.89C315.262 880.89 311.68 884.472 311.68 888.89C311.68 893.308 315.262 896.89 319.68 896.89Z" fill="#6A00FB"/>
<path d="M539.02 1114.25C543.438 1114.25 547.02 1110.67 547.02 1106.25C547.02 1101.83 543.438 1098.25 539.02 1098.25C534.602 1098.25 531.02 1101.83 531.02 1106.25C531.02 1110.67 534.602 1114.25 539.02 1114.25Z" fill="#6A00FB"/>
<path d="M487.72 1191.8C492.138 1191.8 495.72 1188.22 495.72 1183.8C495.72 1179.38 492.138 1175.8 487.72 1175.8C483.302 1175.8 479.72 1179.38 479.72 1183.8C479.72 1188.22 483.302 1191.8 487.72 1191.8Z" fill="#6A00FB"/>
<path d="M1239.88 473.85C1242.09 473.85 1243.88 472.059 1243.88 469.85C1243.88 467.641 1242.09 465.85 1239.88 465.85C1237.67 465.85 1235.88 467.641 1235.88 469.85C1235.88 472.059 1237.67 473.85 1239.88 473.85Z" fill="#4148D9"/>
<path d="M818.71 839.19C820.919 839.19 822.71 837.399 822.71 835.19C822.71 832.981 820.919 831.19 818.71 831.19C816.501 831.19 814.71 832.981 814.71 835.19C814.71 837.399 816.501 839.19 818.71 839.19Z" fill="#4148D9"/>
<path d="M574.24 291.81C576.449 291.81 578.24 290.019 578.24 287.81C578.24 285.601 576.449 283.81 574.24 283.81C572.031 283.81 570.24 285.601 570.24 287.81C570.24 290.019 572.031 291.81 574.24 291.81Z" fill="#4148D9"/>
<path d="M869.01 139.38C871.219 139.38 873.01 137.589 873.01 135.38C873.01 133.171 871.219 131.38 869.01 131.38C866.801 131.38 865.01 133.171 865.01 135.38C865.01 137.589 866.801 139.38 869.01 139.38Z" fill="#4148D9"/>
<path d="M1154.27 805.49C1156.48 805.49 1158.27 803.699 1158.27 801.49C1158.27 799.281 1156.48 797.49 1154.27 797.49C1152.06 797.49 1150.27 799.281 1150.27 801.49C1150.27 803.699 1152.06 805.49 1154.27 805.49Z" fill="#4148D9"/>
<path d="M1583.24 132.76C1585.45 132.76 1587.24 130.969 1587.24 128.76C1587.24 126.551 1585.45 124.76 1583.24 124.76C1581.03 124.76 1579.24 126.551 1579.24 128.76C1579.24 130.969 1581.03 132.76 1583.24 132.76Z" fill="#4148D9"/>
<path d="M1716.79 753.97C1719 753.97 1720.79 752.179 1720.79 749.97C1720.79 747.761 1719 745.97 1716.79 745.97C1714.58 745.97 1712.79 747.761 1712.79 749.97C1712.79 752.179 1714.58 753.97 1716.79 753.97Z" fill="#4148D9"/>
<path d="M1480.53 579.8C1482.74 579.8 1484.53 578.009 1484.53 575.8C1484.53 573.591 1482.74 571.8 1480.53 571.8C1478.32 571.8 1476.53 573.591 1476.53 575.8C1476.53 578.009 1478.32 579.8 1480.53 579.8Z" fill="#4148D9"/>
<path d="M1600.56 1018.82C1602.77 1018.82 1604.56 1017.03 1604.56 1014.82C1604.56 1012.61 1602.77 1010.82 1600.56 1010.82C1598.35 1010.82 1596.56 1012.61 1596.56 1014.82C1596.56 1017.03 1598.35 1018.82 1600.56 1018.82Z" fill="#4148D9"/>
<path d="M1271.04 1141.59C1273.25 1141.59 1275.04 1139.8 1275.04 1137.59C1275.04 1135.38 1273.25 1133.59 1271.04 1133.59C1268.83 1133.59 1267.04 1135.38 1267.04 1137.59C1267.04 1139.8 1268.83 1141.59 1271.04 1141.59Z" fill="#4148D9"/>
<path d="M1374.54 994.2C1376.75 994.2 1378.54 992.409 1378.54 990.2C1378.54 987.991 1376.75 986.2 1374.54 986.2C1372.33 986.2 1370.54 987.991 1370.54 990.2C1370.54 992.409 1372.33 994.2 1374.54 994.2Z" fill="#4148D9"/>
<path d="M223.3 1124.52C225.509 1124.52 227.3 1122.73 227.3 1120.52C227.3 1118.31 225.509 1116.52 223.3 1116.52C221.091 1116.52 219.3 1118.31 219.3 1120.52C219.3 1122.73 221.091 1124.52 223.3 1124.52Z" fill="#4148D9"/>
<path d="M357.45 1108.33C359.659 1108.33 361.45 1106.54 361.45 1104.33C361.45 1102.12 359.659 1100.33 357.45 1100.33C355.241 1100.33 353.45 1102.12 353.45 1104.33C353.45 1106.54 355.241 1108.33 357.45 1108.33Z" fill="#4148D9"/>
<path d="M40.0898 1070.38C42.299 1070.38 44.0898 1068.59 44.0898 1066.38C44.0898 1064.17 42.299 1062.38 40.0898 1062.38C37.8807 1062.38 36.0898 1064.17 36.0898 1066.38C36.0898 1068.59 37.8807 1070.38 40.0898 1070.38Z" fill="#4148D9"/>
<path d="M213.88 1031.04C216.089 1031.04 217.88 1029.25 217.88 1027.04C217.88 1024.83 216.089 1023.04 213.88 1023.04C211.671 1023.04 209.88 1024.83 209.88 1027.04C209.88 1029.25 211.671 1031.04 213.88 1031.04Z" fill="#4148D9"/>
<path d="M194.93 938.2C197.139 938.2 198.93 936.409 198.93 934.2C198.93 931.991 197.139 930.2 194.93 930.2C192.721 930.2 190.93 931.991 190.93 934.2C190.93 936.409 192.721 938.2 194.93 938.2Z" fill="#4148D9"/>
<path d="M769.8 1149.09C772.009 1149.09 773.8 1147.3 773.8 1145.09C773.8 1142.88 772.009 1141.09 769.8 1141.09C767.591 1141.09 765.8 1142.88 765.8 1145.09C765.8 1147.3 767.591 1149.09 769.8 1149.09Z" fill="#4148D9"/>
<path d="M749.48 1086.81C751.689 1086.81 753.48 1085.02 753.48 1082.81C753.48 1080.6 751.689 1078.81 749.48 1078.81C747.271 1078.81 745.48 1080.6 745.48 1082.81C745.48 1085.02 747.271 1086.81 749.48 1086.81Z" fill="#4148D9"/>
<path d="M1973.84 1198.86C1976.05 1198.86 1977.84 1197.07 1977.84 1194.86C1977.84 1192.65 1976.05 1190.86 1973.84 1190.86C1971.63 1190.86 1969.84 1192.65 1969.84 1194.86C1969.84 1197.07 1971.63 1198.86 1973.84 1198.86Z" fill="#4148D9"/>
<path d="M1999.65 1077.05C2001.86 1077.05 2003.65 1075.26 2003.65 1073.05C2003.65 1070.84 2001.86 1069.05 1999.65 1069.05C1997.44 1069.05 1995.65 1070.84 1995.65 1073.05C1995.65 1075.26 1997.44 1077.05 1999.65 1077.05Z" fill="#4148D9"/>
<path d="M2021.69 1021.77C2023.9 1021.77 2025.69 1019.98 2025.69 1017.77C2025.69 1015.56 2023.9 1013.77 2021.69 1013.77C2019.48 1013.77 2017.69 1015.56 2017.69 1017.77C2017.69 1019.98 2019.48 1021.77 2021.69 1021.77Z" fill="#4148D9"/>
<path d="M1883.18 1116.96C1885.39 1116.96 1887.18 1115.17 1887.18 1112.96C1887.18 1110.75 1885.39 1108.96 1883.18 1108.96C1880.97 1108.96 1879.18 1110.75 1879.18 1112.96C1879.18 1115.17 1880.97 1116.96 1883.18 1116.96Z" fill="#4148D9"/>
<path d="M2053.43 979.84C2055.64 979.84 2057.43 978.049 2057.43 975.84C2057.43 973.631 2055.64 971.84 2053.43 971.84C2051.22 971.84 2049.43 973.631 2049.43 975.84C2049.43 978.049 2051.22 979.84 2053.43 979.84Z" fill="#4148D9"/>
<path d="M2054.76 811.06C2056.97 811.06 2058.76 809.269 2058.76 807.06C2058.76 804.851 2056.97 803.06 2054.76 803.06C2052.55 803.06 2050.76 804.851 2050.76 807.06C2050.76 809.269 2052.55 811.06 2054.76 811.06Z" fill="#4148D9"/>
<path d="M2058.1 317.84C2060.31 317.84 2062.1 316.049 2062.1 313.84C2062.1 311.631 2060.31 309.84 2058.1 309.84C2055.89 309.84 2054.1 311.631 2054.1 313.84C2054.1 316.049 2055.89 317.84 2058.1 317.84Z" fill="#4148D9"/>
<path d="M1980.64 238.39C1982.85 238.39 1984.64 236.599 1984.64 234.39C1984.64 232.181 1982.85 230.39 1980.64 230.39C1978.43 230.39 1976.64 232.181 1976.64 234.39C1976.64 236.599 1978.43 238.39 1980.64 238.39Z" fill="#4148D9"/>
<path d="M2047.49 121.68C2049.7 121.68 2051.49 119.889 2051.49 117.68C2051.49 115.471 2049.7 113.68 2047.49 113.68C2045.28 113.68 2043.49 115.471 2043.49 117.68C2043.49 119.889 2045.28 121.68 2047.49 121.68Z" fill="#4148D9"/>
<path d="M1968.78 362.34C1970.99 362.34 1972.78 360.549 1972.78 358.34C1972.78 356.131 1970.99 354.34 1968.78 354.34C1966.57 354.34 1964.78 356.131 1964.78 358.34C1964.78 360.549 1966.57 362.34 1968.78 362.34Z" fill="#4148D9"/>
<path d="M1784.08 99.3301C1786.29 99.3301 1788.08 97.5392 1788.08 95.3301C1788.08 93.1209 1786.29 91.3301 1784.08 91.3301C1781.87 91.3301 1780.08 93.1209 1780.08 95.3301C1780.08 97.5392 1781.87 99.3301 1784.08 99.3301Z" fill="#4148D9"/>
<path d="M1913.76 232.73C1915.97 232.73 1917.76 230.939 1917.76 228.73C1917.76 226.521 1915.97 224.73 1913.76 224.73C1911.55 224.73 1909.76 226.521 1909.76 228.73C1909.76 230.939 1911.55 232.73 1913.76 232.73Z" fill="#4148D9"/>
<path d="M280.22 288.1C282.429 288.1 284.22 286.309 284.22 284.1C284.22 281.891 282.429 280.1 280.22 280.1C278.011 280.1 276.22 281.891 276.22 284.1C276.22 286.309 278.011 288.1 280.22 288.1Z" fill="#4148D9"/>
<path d="M356.03 410.06C358.239 410.06 360.03 408.269 360.03 406.06C360.03 403.851 358.239 402.06 356.03 402.06C353.821 402.06 352.03 403.851 352.03 406.06C352.03 408.269 353.821 410.06 356.03 410.06Z" fill="#4148D9"/>
<path d="M382.21 150.8C384.419 150.8 386.21 149.009 386.21 146.8C386.21 144.591 384.419 142.8 382.21 142.8C380.001 142.8 378.21 144.591 378.21 146.8C378.21 149.009 380.001 150.8 382.21 150.8Z" fill="#4148D9"/>
<path d="M188.95 56.73C191.159 56.73 192.95 54.9391 192.95 52.73C192.95 50.5208 191.159 48.73 188.95 48.73C186.741 48.73 184.95 50.5208 184.95 52.73C184.95 54.9391 186.741 56.73 188.95 56.73Z" fill="#4148D9"/>
<path d="M138.37 90.9399C140.579 90.9399 142.37 89.1491 142.37 86.9399C142.37 84.7308 140.579 82.9399 138.37 82.9399C136.161 82.9399 134.37 84.7308 134.37 86.9399C134.37 89.1491 136.161 90.9399 138.37 90.9399Z" fill="#4148D9"/>
<path d="M766.94 89.2202C769.149 89.2202 770.94 87.4294 770.94 85.2202C770.94 83.0111 769.149 81.2202 766.94 81.2202C764.731 81.2202 762.94 83.0111 762.94 85.2202C762.94 87.4294 764.731 89.2202 766.94 89.2202Z" fill="#4148D9"/>
<path d="M713.39 124.2C715.599 124.2 717.39 122.409 717.39 120.2C717.39 117.991 715.599 116.2 713.39 116.2C711.181 116.2 709.39 117.991 709.39 120.2C709.39 122.409 711.181 124.2 713.39 124.2Z" fill="#4148D9"/>
<path d="M1375.98 35.8101C1380.4 35.8101 1383.98 32.2283 1383.98 27.8101C1383.98 23.3918 1380.4 19.8101 1375.98 19.8101C1371.56 19.8101 1367.98 23.3918 1367.98 27.8101C1367.98 32.2283 1371.56 35.8101 1375.98 35.8101Z" fill="#6A00FB"/>
<path d="M902.16 84.6299C906.578 84.6299 910.16 81.0482 910.16 76.6299C910.16 72.2116 906.578 68.6299 902.16 68.6299C897.742 68.6299 894.16 72.2116 894.16 76.6299C894.16 81.0482 897.742 84.6299 902.16 84.6299Z" fill="#6A00FB"/>
<path d="M674.84 108.01C679.258 108.01 682.84 104.428 682.84 100.01C682.84 95.5915 679.258 92.0098 674.84 92.0098C670.422 92.0098 666.84 95.5915 666.84 100.01C666.84 104.428 670.422 108.01 674.84 108.01Z" fill="#6A00FB"/>
<path d="M680.98 241.41C685.398 241.41 688.98 237.828 688.98 233.41C688.98 228.992 685.398 225.41 680.98 225.41C676.562 225.41 672.98 228.992 672.98 233.41C672.98 237.828 676.562 241.41 680.98 241.41Z" fill="#6A00FB"/>
<path d="M136.52 16C140.938 16 144.52 12.4183 144.52 8C144.52 3.58172 140.938 0 136.52 0C132.102 0 128.52 3.58172 128.52 8C128.52 12.4183 132.102 16 136.52 16Z" fill="#6A00FB"/>
<path d="M229.62 103.72C234.038 103.72 237.62 100.138 237.62 95.7202C237.62 91.3019 234.038 87.7202 229.62 87.7202C225.202 87.7202 221.62 91.3019 221.62 95.7202C221.62 100.138 225.202 103.72 229.62 103.72Z" fill="#6A00FB"/>
<path d="M42.25 406.14C46.6683 406.14 50.25 402.558 50.25 398.14C50.25 393.722 46.6683 390.14 42.25 390.14C37.8317 390.14 34.25 393.722 34.25 398.14C34.25 402.558 37.8317 406.14 42.25 406.14Z" fill="#6A00FB"/>
<path d="M277.91 413.62C282.328 413.62 285.91 410.038 285.91 405.62C285.91 401.202 282.328 397.62 277.91 397.62C273.492 397.62 269.91 401.202 269.91 405.62C269.91 410.038 273.492 413.62 277.91 413.62Z" fill="#6A00FB"/>
<path d="M531.05 478.37C535.468 478.37 539.05 474.788 539.05 470.37C539.05 465.952 535.468 462.37 531.05 462.37C526.632 462.37 523.05 465.952 523.05 470.37C523.05 474.788 526.632 478.37 531.05 478.37Z" fill="#6A00FB"/>
<path d="M1018.33 896.53C1022.75 896.53 1026.33 892.949 1026.33 888.53C1026.33 884.112 1022.75 880.53 1018.33 880.53C1013.91 880.53 1010.33 884.112 1010.33 888.53C1010.33 892.949 1013.91 896.53 1018.33 896.53Z" fill="#6A00FB"/>
<path d="M973.43 724C977.848 724 981.43 720.418 981.43 716C981.43 711.582 977.848 708 973.43 708C969.012 708 965.43 711.582 965.43 716C965.43 720.418 969.012 724 973.43 724Z" fill="#6A00FB"/>
<path d="M1307.83 603.68C1312.25 603.68 1315.83 600.098 1315.83 595.68C1315.83 591.262 1312.25 587.68 1307.83 587.68C1303.41 587.68 1299.83 591.262 1299.83 595.68C1299.83 600.098 1303.41 603.68 1307.83 603.68Z" fill="#6A00FB"/>
<path d="M1905.07 393.19C1909.49 393.19 1913.07 389.608 1913.07 385.19C1913.07 380.772 1909.49 377.19 1905.07 377.19C1900.65 377.19 1897.07 380.772 1897.07 385.19C1897.07 389.608 1900.65 393.19 1905.07 393.19Z" fill="#6A00FB"/>
<path d="M2087.74 693.27C2092.16 693.27 2095.74 689.688 2095.74 685.27C2095.74 680.852 2092.16 677.27 2087.74 677.27C2083.32 677.27 2079.74 680.852 2079.74 685.27C2079.74 689.688 2083.32 693.27 2087.74 693.27Z" fill="#6A00FB"/>
<path d="M1841.45 507.4C1845.87 507.4 1849.45 503.818 1849.45 499.4C1849.45 494.982 1845.87 491.4 1841.45 491.4C1837.03 491.4 1833.45 494.982 1833.45 499.4C1833.45 503.818 1837.03 507.4 1841.45 507.4Z" fill="#6A00FB"/>
<path d="M2004.72 648.57C2006.93 648.57 2008.72 646.779 2008.72 644.57C2008.72 642.361 2006.93 640.57 2004.72 640.57C2002.51 640.57 2000.72 642.361 2000.72 644.57C2000.72 646.779 2002.51 648.57 2004.72 648.57Z" fill="#4148D9"/>
<path d="M1328.32 62.1001C1330.53 62.1001 1332.32 60.3092 1332.32 58.1001C1332.32 55.891 1330.53 54.1001 1328.32 54.1001C1326.11 54.1001 1324.32 55.891 1324.32 58.1001C1324.32 60.3092 1326.11 62.1001 1328.32 62.1001Z" fill="#4148D9"/>
<path d="M1512.18 176.91C1514.39 176.91 1516.18 175.119 1516.18 172.91C1516.18 170.701 1514.39 168.91 1512.18 168.91C1509.97 168.91 1508.18 170.701 1508.18 172.91C1508.18 175.119 1509.97 176.91 1512.18 176.91Z" fill="#4148D9"/>
<path d="M1391.68 131.49C1393.89 131.49 1395.68 129.699 1395.68 127.49C1395.68 125.281 1393.89 123.49 1391.68 123.49C1389.47 123.49 1387.68 125.281 1387.68 127.49C1387.68 129.699 1389.47 131.49 1391.68 131.49Z" fill="#4148D9"/>
<path d="M1026 26.6802C1028.21 26.6802 1030 24.8893 1030 22.6802C1030 20.471 1028.21 18.6802 1026 18.6802C1023.79 18.6802 1022 20.471 1022 22.6802C1022 24.8893 1023.79 26.6802 1026 26.6802Z" fill="#4148D9"/>
<path d="M1081.14 141.53C1083.35 141.53 1085.14 139.739 1085.14 137.53C1085.14 135.321 1083.35 133.53 1081.14 133.53C1078.93 133.53 1077.14 135.321 1077.14 137.53C1077.14 139.739 1078.93 141.53 1081.14 141.53Z" fill="#4148D9"/>
<path d="M993.96 232.47C996.169 232.47 997.96 230.679 997.96 228.47C997.96 226.261 996.169 224.47 993.96 224.47C991.751 224.47 989.96 226.261 989.96 228.47C989.96 230.679 991.751 232.47 993.96 232.47Z" fill="#4148D9"/>
<path d="M521.85 884.22C524.059 884.22 525.85 882.429 525.85 880.22C525.85 878.011 524.059 876.22 521.85 876.22C519.641 876.22 517.85 878.011 517.85 880.22C517.85 882.429 519.641 884.22 521.85 884.22Z" fill="#4148D9"/>
<path d="M4 716.98C6.20914 716.98 8 715.189 8 712.98C8 710.771 6.20914 708.98 4 708.98C1.79086 708.98 0 710.771 0 712.98C0 715.189 1.79086 716.98 4 716.98Z" fill="#4148D9"/>
<path d="M158.79 778.25C160.999 778.25 162.79 776.459 162.79 774.25C162.79 772.041 160.999 770.25 158.79 770.25C156.581 770.25 154.79 772.041 154.79 774.25C154.79 776.459 156.581 778.25 158.79 778.25Z" fill="#4148D9"/>
<path d="M134.11 691.79C136.319 691.79 138.11 689.999 138.11 687.79C138.11 685.581 136.319 683.79 134.11 683.79C131.901 683.79 130.11 685.581 130.11 687.79C130.11 689.999 131.901 691.79 134.11 691.79Z" fill="#4148D9"/>
<path d="M335.66 821.02C337.869 821.02 339.66 819.229 339.66 817.02C339.66 814.811 337.869 813.02 335.66 813.02C333.451 813.02 331.66 814.811 331.66 817.02C331.66 819.229 333.451 821.02 335.66 821.02Z" fill="#4148D9"/>
<path d="M201.52 788.96C203.729 788.96 205.52 787.169 205.52 784.96C205.52 782.751 203.729 780.96 201.52 780.96C199.311 780.96 197.52 782.751 197.52 784.96C197.52 787.169 199.311 788.96 201.52 788.96Z" fill="#4148D9"/>
<path d="M213.85 724.01C216.059 724.01 217.85 722.219 217.85 720.01C217.85 717.801 216.059 716.01 213.85 716.01C211.641 716.01 209.85 717.801 209.85 720.01C209.85 722.219 211.641 724.01 213.85 724.01Z" fill="#4148D9"/>
<path d="M473.8 647.58C476.009 647.58 477.8 645.789 477.8 643.58C477.8 641.371 476.009 639.58 473.8 639.58C471.591 639.58 469.8 641.371 469.8 643.58C469.8 645.789 471.591 647.58 473.8 647.58Z" fill="#4148D9"/>
<path d="M656.12 682.88C658.329 682.88 660.12 681.089 660.12 678.88C660.12 676.671 658.329 674.88 656.12 674.88C653.911 674.88 652.12 676.671 652.12 678.88C652.12 681.089 653.911 682.88 656.12 682.88Z" fill="#4148D9"/>
<path d="M715.53 646.63C717.739 646.63 719.53 644.839 719.53 642.63C719.53 640.421 717.739 638.63 715.53 638.63C713.321 638.63 711.53 640.421 711.53 642.63C711.53 644.839 713.321 646.63 715.53 646.63Z" fill="#4148D9"/>
<path d="M662.14 847.11C664.349 847.11 666.14 845.319 666.14 843.11C666.14 840.901 664.349 839.11 662.14 839.11C659.931 839.11 658.14 840.901 658.14 843.11C658.14 845.319 659.931 847.11 662.14 847.11Z" fill="#4148D9"/>
<path d="M765.58 761.95C767.789 761.95 769.58 760.159 769.58 757.95C769.58 755.741 767.789 753.95 765.58 753.95C763.371 753.95 761.58 755.741 761.58 757.95C761.58 760.159 763.371 761.95 765.58 761.95Z" fill="#4148D9"/>
<path d="M873.05 749.31C875.259 749.31 877.05 747.519 877.05 745.31C877.05 743.101 875.259 741.31 873.05 741.31C870.841 741.31 869.05 743.101 869.05 745.31C869.05 747.519 870.841 749.31 873.05 749.31Z" fill="#4148D9"/>
<path d="M1634.63 1140.4C1636.84 1140.4 1638.63 1138.61 1638.63 1136.4C1638.63 1134.19 1636.84 1132.4 1634.63 1132.4C1632.42 1132.4 1630.63 1134.19 1630.63 1136.4C1630.63 1138.61 1632.42 1140.4 1634.63 1140.4Z" fill="#4148D9"/>
<path d="M1561.61 1082.45C1563.82 1082.45 1565.61 1080.66 1565.61 1078.45C1565.61 1076.24 1563.82 1074.45 1561.61 1074.45C1559.4 1074.45 1557.61 1076.24 1557.61 1078.45C1557.61 1080.66 1559.4 1082.45 1561.61 1082.45Z" fill="#4148D9"/>
<path d="M1654.55 1077.31C1656.76 1077.31 1658.55 1075.52 1658.55 1073.31C1658.55 1071.1 1656.76 1069.31 1654.55 1069.31C1652.34 1069.31 1650.55 1071.1 1650.55 1073.31C1650.55 1075.52 1652.34 1077.31 1654.55 1077.31Z" fill="#4148D9"/>
<path d="M1703.9 993.99C1706.11 993.99 1707.9 992.199 1707.9 989.99C1707.9 987.781 1706.11 985.99 1703.9 985.99C1701.69 985.99 1699.9 987.781 1699.9 989.99C1699.9 992.199 1701.69 993.99 1703.9 993.99Z" fill="#4148D9"/>
<path d="M1502.91 1068.42C1505.12 1068.42 1506.91 1066.63 1506.91 1064.42C1506.91 1062.21 1505.12 1060.42 1502.91 1060.42C1500.7 1060.42 1498.91 1062.21 1498.91 1064.42C1498.91 1066.63 1500.7 1068.42 1502.91 1068.42Z" fill="#4148D9"/>
<path d="M1667.92 957.58C1670.13 957.58 1671.92 955.789 1671.92 953.58C1671.92 951.371 1670.13 949.58 1667.92 949.58C1665.71 949.58 1663.92 951.371 1663.92 953.58C1663.92 955.789 1665.71 957.58 1667.92 957.58Z" fill="#4148D9"/>
</g>
<defs>
<clipPath id="clip0_65_143">
<rect width="2118.78" height="1233.39" fill="white"/>
</clipPath>
</defs>
</svg>
