<?xml version="1.0" encoding="UTF-8"?>
<svg id="Sketch" xmlns="http://www.w3.org/2000/svg" viewBox="0 0 2556.05 1920">
  <defs>
    <style>
      .cls-1, .cls-2, .cls-3, .cls-4, .cls-5, .cls-6, .cls-7, .cls-8, .cls-9, .cls-10, .cls-11 {
        fill: none;
      }

      .cls-12 {
        fill: #399cff;
      }

      .cls-12, .cls-2, .cls-3, .cls-4, .cls-5, .cls-6, .cls-7, .cls-8, .cls-9, .cls-10, .cls-11 {
        stroke-linecap: round;
        stroke-linejoin: round;
      }

      .cls-12, .cls-6, .cls-9 {
        stroke: #7d00ff;
      }

      .cls-12, .cls-9 {
        stroke-width: 20px;
      }

      .cls-13 {
        fill: #ff9c95;
      }

      .cls-14 {
        fill: #fff;
      }

      .cls-15 {
        fill: #fffd00;
      }

      .cls-16 {
        fill: #ffd588;
      }

      .cls-17 {
        fill: #ffb400;
      }

      .cls-18 {
        fill: #fee600;
      }

      .cls-19 {
        fill: #ffbd00;
      }

      .cls-20 {
        fill: #ff006a;
      }

      .cls-21 {
        fill: #ff0d46;
      }

      .cls-22 {
        fill: #fcfa00;
      }

      .cls-23 {
        fill: #ff6e2e;
      }

      .cls-24 {
        fill: #ff5a74;
      }

      .cls-25 {
        fill: #8300ff;
      }

      .cls-26 {
        fill: #7f00ff;
      }

      .cls-27 {
        fill: #8f5fff;
      }

      .cls-28 {
        fill: #dbcbd7;
      }

      .cls-29 {
        fill: #440aba;
      }

      .cls-30 {
        fill: #362e78;
      }

      .cls-31 {
        fill: #8200ff;
      }

      .cls-32 {
        fill: #39049f;
      }

      .cls-33 {
        fill: #7d00ff;
      }

      .cls-2 {
        stroke: #ff5a74;
      }

      .cls-2, .cls-3, .cls-4, .cls-5, .cls-6, .cls-7 {
        stroke-width: 40px;
      }

      .cls-3 {
        stroke: #ffa900;
      }

      .cls-4 {
        stroke: #fee600;
      }

      .cls-5 {
        stroke: #ff006a;
      }

      .cls-7 {
        stroke: #3b99ff;
      }

      .cls-8 {
        stroke: #3e3ecc;
        stroke-width: 10px;
      }

      .cls-10 {
        stroke: #66b6ff;
      }

      .cls-10, .cls-11 {
        stroke-width: 30px;
      }

      .cls-11 {
        stroke: #a966ff;
      }
    </style>
  </defs>
  <g id="Tour">
    <rect class="cls-19" x="1592.71" y="929.29" width="486.48" height="990.71"/>
    <rect class="cls-22" x="1961.99" y="929.29" width="130.68" height="990.71"/>
    <rect class="cls-25" x="1566.16" y="895.04" width="539.58" height="34.25"/>
    <g>
      <rect class="cls-33" x="1579.03" y="799.25" width="157.33" height="34.25" transform="translate(841.32 2474.07) rotate(-90)"/>
      <rect class="cls-33" x="1697.87" y="799.25" width="157.33" height="34.25" transform="translate(960.16 2592.91) rotate(-90)"/>
      <rect class="cls-33" x="1816.71" y="799.25" width="157.33" height="34.25" transform="translate(1078.99 2711.75) rotate(-90)"/>
      <rect class="cls-33" x="1935.54" y="799.25" width="157.33" height="34.25" transform="translate(1197.83 2830.58) rotate(-90)"/>
    </g>
    <path class="cls-12" d="M2106.7,747.72c-34.12-28.17-65.89-36.15-92.49,0-14.14-12.44-28.27-20.44-42.4-24-16.41-4.14-32.81-2.3-49.21,5.53-9.08,4.32-18.15,10.48-27.23,18.47-5.98-4.68-11.93-8.68-17.85-11.99-34.03-19.05-67.15-15.49-99.37,10.65-.54,.45-1.08,.89-1.62,1.34-40.33-32.34-79.93-31.76-118.83,0-27.86-35.75-60.12-28-94.42,0,0-150.07,121.65-271.72,271.71-271.72,55.22,0,106.59,16.47,149.47,44.77,21.42,14.14,40.72,31.23,57.32,50.69,5.96,6.98,11.57,14.26,16.79,21.82,6.02,8.69,11.55,17.75,16.53,27.15,20.17,37.97,31.6,81.3,31.6,127.29Z"/>
    <path class="cls-25" d="M2041.78,571.46l-164.26,164.27c-34.03-19.05-67.15-15.49-99.37,10.65l-9.65-9.65,215.96-215.96c21.42,14.14,40.72,31.23,57.32,50.69Z"/>
    <path class="cls-25" d="M2075.1,620.43l-103.29,103.29c-16.41-4.14-32.81-2.3-49.21,5.53l135.97-135.97c6.02,8.69,11.55,17.75,16.53,27.15Z"/>
    <path class="cls-33" d="M2106.7,757.72c-2.28,0-4.54-.78-6.37-2.29-19.71-16.27-35.89-23.36-49.46-21.69-10.34,1.28-19.69,7.79-28.61,19.9-1.66,2.26-4.19,3.71-6.98,4.02-2.78,.3-5.57-.58-7.68-2.43-12.87-11.32-25.74-18.66-38.24-21.81-14.22-3.58-28.1-2-42.46,4.86-8.19,3.9-16.57,9.6-24.93,16.95-3.61,3.18-8.98,3.33-12.77,.37-5.57-4.36-11.14-8.1-16.57-11.14-30.35-16.99-59.19-13.83-88.16,9.66l-1.54,1.27c-3.65,3.05-8.95,3.1-12.67,.13-18.07-14.49-36.05-21.84-53.43-21.84-.08,0-.15,0-.23,0-17.27,.06-34.96,7.39-52.59,21.78-2.08,1.7-4.76,2.49-7.44,2.19-2.67-.3-5.12-1.67-6.77-3.79-9.5-12.19-19.39-18.71-30.22-19.93-13.96-1.56-30.31,5.47-49.98,21.53-2.99,2.44-7.12,2.94-10.61,1.29-3.49-1.66-5.71-5.17-5.71-9.03,0-75.25,29.3-146,82.51-199.21s123.95-82.51,199.2-82.51c55.37,0,108.96,16.05,154.98,46.42,22.17,14.63,42.16,32.31,59.42,52.54,6.2,7.26,12.06,14.88,17.41,22.63,6.27,9.05,12.04,18.53,17.14,28.15,21.43,40.35,32.76,85.98,32.76,131.97,0,3.87-2.24,7.4-5.74,9.05-1.36,.64-2.81,.95-4.26,.95Zm-389.86-44.04c19.89,0,39.89,7.18,59.56,21.38,34.19-25.59,69.82-28.31,106-8.05,4.17,2.33,8.39,5,12.61,7.98,7.73-6.13,15.54-11.08,23.29-14.77,18.47-8.82,37.3-10.9,55.95-6.2,12.91,3.25,25.85,9.84,38.59,19.62,10.6-11.5,22.53-18.13,35.57-19.75,14.61-1.81,30.27,2.63,47.5,13.54-2.78-35.77-12.89-70.78-29.64-102.32-4.73-8.94-10.09-17.73-15.92-26.15-4.98-7.21-10.42-14.28-16.17-21.02-16.05-18.81-34.62-35.24-55.22-48.84-42.74-28.21-92.52-43.12-143.96-43.12-69.91,0-135.63,27.22-185.06,76.65-44.66,44.66-71.19,102.62-75.9,164.96,17.21-10.77,32.97-15.21,47.79-13.55,13.57,1.53,26.08,8.24,37.29,19.99,18.83-13.45,38.11-20.3,57.43-20.37h.3Z"/>
    <path class="cls-27" d="M2154.01,1184.98c-53.28,97.89-150.44,168.45-265.07,185.27l-72.81-109.58,280.92-215.43h56.96v139.73"/>
    <polygon class="cls-31" points="1912.49 1220.29 1912.49 1260.68 1816.12 1260.68 1789.28 1220.29 1912.49 1220.29"/>
    <rect class="cls-27" x="1832.3" y="1220.29" width="113.48" height="7.88"/>
    <rect class="cls-31" x="1855.64" y="1173.62" width="106.35" height="46.67"/>
    <rect class="cls-31" x="1905.14" y="1128.73" width="104.43" height="44.89"/>
    <rect class="cls-31" x="1955.46" y="1088.34" width="106.17" height="40.39"/>
    <rect class="cls-31" x="2005.08" y="1045.25" width="100.66" height="43.09"/>
    <rect class="cls-31" x="2031.33" y="1012.24" width="122.68" height="33.01"/>
    <rect class="cls-31" x="2079.19" y="983.96" width="57.98" height="28.28"/>
    <line class="cls-4" x1="1835.95" y1="1589.28" x2="1835.95" y2="1709.04"/>
    <rect class="cls-27" x="1855.64" y="1173.62" width="113.48" height="7.88"/>
    <rect class="cls-27" x="1905.14" y="1128.73" width="113.48" height="7.88"/>
    <rect class="cls-27" x="1955.46" y="1088.34" width="123.73" height="7.88"/>
    <rect class="cls-27" x="2005.08" y="1045.25" width="123.73" height="7.88"/>
    <rect class="cls-27" x="2031.33" y="1012.24" width="122.68" height="7.88"/>
    <rect class="cls-27" x="2079.19" y="983.96" width="57.98" height="7.88"/>
    <rect class="cls-27" x="2129.29" y="985.29" width="7.88" height="29.93"/>
    <rect class="cls-27" x="2146.13" y="1019.26" width="7.88" height="29.93"/>
    <path class="cls-9" d="M2012.29,747.71c-22.55-132.58-85.6-218.62-177.3-271.71-91.7,53.09-154.74,139.13-177.3,271.71"/>
    <path class="cls-9" d="M1776.53,747.71c3.34-95.57,22.83-186.14,58.46-271.71"/>
    <path class="cls-9" d="M1893.45,747.71c-3.34-95.57-22.83-186.14-58.46-271.71"/>
  </g>
  <g id="Grande_maison" data-name="Grande maison">
    <polygon class="cls-19" points="942.99 1094.83 635.79 695.26 328.58 1094.83 328.58 1920 942.99 1920 942.99 1094.83"/>
    <rect class="cls-22" x="942.99" y="1094.83" width="506.26" height="825.17"/>
    <path class="cls-24" d="M1611.68,1094.83l-289.29-413.88c-11.23-16.06-29.58-25.63-49.18-25.63H635.79l307.2,439.5h668.68Z"/>
    <polygon class="cls-33" points="1279.12 1015.04 1181.29 875.08 968.34 875.08 1066.17 1015.04 1279.12 1015.04"/>
    <polygon class="cls-20" points="1279.12 1015.05 1247.11 1015.05 1149.28 875.08 1181.29 875.08 1279.12 1015.05"/>
    <circle class="cls-33" cx="658.24" cy="1106.15" r="97.87"/>
    <path class="cls-33" d="M756.12,1106.15c0,50.97-38.95,92.84-88.72,97.45-3.01,.29-6.07,.43-9.16,.43s-6.14-.14-9.16-.43c-49.76-4.61-88.71-46.48-88.71-97.45s38.95-92.83,88.71-97.44c3.02-.29,6.07-.43,9.16-.43s6.15,.14,9.16,.43c49.77,4.61,88.72,46.48,88.72,97.44Z"/>
    <path class="cls-20" d="M668.23,1203.52c-3.29,.34-6.62,.51-9.99,.51-54.05,0-97.87-43.82-97.87-97.88s43.82-97.87,97.87-97.87c3.37,0,6.7,.17,9.99,.51-49.35,5.01-87.86,46.69-87.86,97.36s38.51,92.36,87.86,97.37Z"/>
    <path class="cls-20" d="M667.4,1008.71v194.89c-3.01,.29-6.07,.43-9.16,.43s-6.14-.14-9.16-.43v-194.89c3.02-.29,6.07-.43,9.16-.43s6.15,.14,9.16,.43Z"/>
    <g>
      <rect class="cls-33" x="464.78" y="1392.32" width="181.77" height="181.76" rx="30" ry="30"/>
      <rect class="cls-20" x="546.5" y="1392.32" width="18.32" height="181.76"/>
      <rect class="cls-20" x="546.5" y="1392.32" width="18.32" height="181.76" transform="translate(-927.53 2038.86) rotate(-90)"/>
      <path class="cls-20" d="M514.78,1574.08h-20c-16.57,0-30-13.43-30-30v-121.76c0-16.57,13.43-30,30-30h20c-16.57,0-30,13.43-30,30v121.76c0,16.57,13.43,30,30,30Z"/>
    </g>
    <rect class="cls-33" x="699.05" y="1587.08" width="181.77" height="181.76" rx="30" ry="30"/>
    <rect class="cls-20" x="780.78" y="1587.08" width="18.32" height="181.76"/>
    <rect class="cls-20" x="780.78" y="1587.08" width="18.32" height="181.76" transform="translate(-888.02 2467.89) rotate(-90)"/>
    <path class="cls-20" d="M749.05,1768.84h-20c-16.57,0-30-13.43-30-30v-121.76c0-16.57,13.43-30,30-30h20c-16.57,0-30,13.43-30,30v121.76c0,16.57,13.43,30,30,30Z"/>
    <path class="cls-20" d="M328.55,1134.83c-8.51,0-17.08-2.7-24.35-8.29-17.51-13.46-20.79-38.58-7.33-56.09l307.2-399.57c7.57-9.85,19.29-15.62,31.71-15.62s24.14,5.77,31.71,15.62l295.2,383.95h540.63c22.09,0,40,17.91,40,40s-17.91,40-40,40H942.99c-12.42,0-24.14-5.77-31.71-15.62l-275.49-358.32-275.49,358.32c-7.88,10.25-19.74,15.62-31.74,15.62Z"/>
    <path class="cls-13" d="M689.7,670.88l295.19,383.95h-22.89l-295.19-383.95c-5.18-6.74-12.04-13.96-31.02-15.55,3.67-1.11,18.28-.07,22.2-.07,12.42,0,24.14,5.77,31.71,15.62Z"/>
    <path class="cls-16" d="M772.74,802.85h0c-2.82,0-5.48-1.31-7.19-3.54l-98.74-128.43c-5.18-6.74-12.04-13.96-31.02-15.55,3.67-1.11,18.28-.07,22.2-.07,12.42,0,24.14,5.77,31.71,15.62l90.23,117.37c4.59,5.97,.33,14.6-7.19,14.6Z"/>
    <line class="cls-3" x1="402.67" y1="1163.75" x2="402.67" y2="1220.29"/>
    <line class="cls-3" x1="674.23" y1="1307.63" x2="674.23" y2="1348.01"/>
    <line class="cls-3" x1="699.05" y1="1820.07" x2="699.05" y2="1860.46"/>
    <g>
      <path class="cls-33" d="M521.44,1677.96h0c44.85,0,81.26,36.41,81.26,81.26v160.78h-162.52v-160.78c0-44.85,36.41-81.26,81.26-81.26Z"/>
      <path class="cls-20" d="M531.44,1678.57c-40.15,4.93-71.25,39.16-71.25,80.65v160.78h-20v-160.78c0-44.88,36.38-81.26,81.25-81.26,3.39,0,6.72,.21,10,.61Z"/>
      <circle class="cls-30" cx="485.82" cy="1798.98" r="11.27"/>
      <line class="cls-8" x1="518.28" y1="1860.46" x2="518.28" y2="1880.65"/>
      <line class="cls-8" x1="521.44" y1="1714.09" x2="521.44" y2="1754.48"/>
      <line class="cls-8" x1="580.52" y1="1798.98" x2="580.52" y2="1828.09"/>
    </g>
    <line class="cls-3" x1="807.38" y1="1226.56" x2="807.38" y2="1299.83"/>
    <line class="cls-3" x1="402.67" y1="1507.41" x2="402.67" y2="1563.95"/>
    <line class="cls-4" x1="1048.52" y1="1318.01" x2="1048.52" y2="1520"/>
    <line class="cls-4" x1="990.34" y1="1646.88" x2="990.34" y2="1709.04"/>
    <line class="cls-5" x1="915.95" y1="823.2" x2="1018.96" y2="823.2"/>
    <line class="cls-5" x1="829.32" y1="724.37" x2="932.33" y2="724.37"/>
    <g>
      <g>
        <rect class="cls-21" x="1142.16" y="865.29" width="18.26" height="36.51"/>
        <rect class="cls-21" x="1146.72" y="901.81" width="9.13" height="112.76"/>
        <rect class="cls-21" x="1179.34" y="893.12" width="9.13" height="124.24" transform="translate(-319.01 719.93) rotate(-30)"/>
        <rect class="cls-21" x="1114.32" y="893.12" width="9.13" height="124.24" transform="translate(627.52 -431.46) rotate(30)"/>
      </g>
      <g>
        <rect class="cls-21" x="1065.36" y="860" width="149.02" height="23.66" rx="11.83" ry="11.83" transform="translate(-283.2 686.74) rotate(-30)"/>
        <rect class="cls-21" x="1062.45" y="894.52" width="25.42" height="14.25" rx="4.03" ry="4.03" transform="translate(1880.31 2050.84) rotate(-165)"/>
        <rect class="cls-23" x="1108.78" y="821.29" width="141.55" height="55.26" rx="27.63" ry="27.63" transform="translate(-266.43 703.51) rotate(-30)"/>
        <rect class="cls-18" x="1145.74" y="794.25" width="141.55" height="66.66" rx="33.33" ry="33.33" transform="translate(-250.81 719.13) rotate(-30)"/>
        <path class="cls-17" d="M1277.82,792.19c9.2,15.94,3.74,36.33-12.2,45.53l-64.86,37.45c-5.98,3.45-12.58,4.84-18.99,4.38-2.13-.15-4.24-.5-6.3-1.05-1.89-.51-3.72-1.18-5.49-2.01l7.52-4.34c6.41,.46,13.01-.93,18.99-4.38l64.86-37.45c14.68-8.47,20.47-26.45,14.09-41.68,.86,1.12,1.66,2.3,2.39,3.56Z"/>
        <path class="cls-21" d="M1181.77,879.55l-25.77,14.88c-6.6,3.81-14.14,4.59-20.96,2.75-6.84-1.83-12.96-6.26-16.78-12.86-.73-1.26-1.34-2.55-1.85-3.87,3.76,4.66,8.82,7.84,14.35,9.33,6.82,1.84,14.36,1.06,20.96-2.75l18.25-10.53c1.77,.84,3.6,1.51,5.49,2.01,2.06,.55,4.17,.9,6.3,1.05Z"/>
        <circle class="cls-15" cx="1248.95" cy="808.86" r="33.33"/>
        <path class="cls-14" d="M1275.07,793.72c-1.32,.73-2.96,.33-3.83-.89-3.82-5.36-9.28-8.99-15.29-10.6-6.8-1.82-14.31-1.04-20.89,2.76l-29.47,17.02c-1.36,.79-3.11,.32-3.89-1.04h0c-.79-1.36-.32-3.11,1.04-3.89l29.56-17.07c7.98-4.6,17.05-5.53,25.29-3.33,7.26,1.95,13.88,6.34,18.5,12.81,1.01,1.41,.51,3.4-1,4.24h0Z"/>
        <circle class="cls-32" cx="1248.95" cy="808.86" r="27.45"/>
        <path class="cls-29" d="M1272.72,795.14c7.58,13.12,3.08,29.91-10.04,37.49-5.11,2.95-10.77,4.06-16.23,3.56,1.53-.55,3.02-1.24,4.47-2.07,13.12-7.58,17.62-24.36,10.04-37.5-4.63-8.02-12.7-12.82-21.27-13.6,12.26-4.43,26.29,.43,33.04,12.12Z"/>
        <circle class="cls-28" cx="1240.49" cy="797.98" r="9.05"/>
        <circle class="cls-28" cx="1239.22" cy="822.91" r="4.52"/>
      </g>
    </g>
    <g>
      <line class="cls-10" x1="1117.45" y1="950.01" x2="1376.06" y2="950.01"/>
      <line class="cls-11" x1="997.01" y1="950.01" x2="1117.45" y2="950.01"/>
      <line class="cls-11" x1="1028.72" y1="1029.32" x2="1028.72" y2="955.63"/>
      <line class="cls-11" x1="1091.65" y1="1029.32" x2="1091.65" y2="955.63"/>
      <line class="cls-10" x1="1154.59" y1="1029.32" x2="1154.59" y2="955.63"/>
      <line class="cls-10" x1="1217.52" y1="1029.32" x2="1217.52" y2="955.63"/>
      <line class="cls-10" x1="1280.46" y1="1029.32" x2="1280.46" y2="955.63"/>
      <line class="cls-10" x1="1343.39" y1="1029.32" x2="1343.39" y2="955.63"/>
      <line class="cls-6" x1="997.01" y1="1034.93" x2="1376.06" y2="1034.93"/>
      <line class="cls-7" x1="1123.73" y1="1034.93" x2="1376.06" y2="1034.93"/>
    </g>
  </g>
  <g id="Petite_maison" data-name="Petite maison">
    <polygon class="cls-22" points="1902.57 1435.92 1675.91 1094.83 1449.25 1435.92 1449.25 1920 1902.57 1920 1902.57 1435.92"/>
    <rect class="cls-19" x="1109.82" y="1435.92" width="339.43" height="484.08"/>
    <polygon class="cls-20" points="1679.97 1055.35 1449.25 1435.92 1109.82 1435.92 1134.07 1395.92 1274.83 1163.75 1340.55 1055.35 1679.97 1055.35"/>
    <path class="cls-26" d="M1682.4,1677.96h0c44.85,0,81.26,36.41,81.26,81.26v160.78h-162.52v-160.78c0-44.85,36.41-81.26,81.26-81.26Z"/>
    <g>
      <path class="cls-33" d="M1682.4,1677.96h0c44.85,0,81.26,36.41,81.26,81.26v160.78h-162.52v-160.78c0-44.85,36.41-81.26,81.26-81.26Z"/>
      <path class="cls-30" d="M1672.41,1678.57c40.15,4.93,71.25,39.16,71.25,80.65v160.78s20,0,20,0v-160.78c0-44.88-36.38-81.26-81.25-81.26-3.39,0-6.72,.21-10,.61Z"/>
      <circle class="cls-30" cx="1646.77" cy="1798.98" r="11.27"/>
      <line class="cls-8" x1="1679.24" y1="1860.46" x2="1679.24" y2="1880.65"/>
      <line class="cls-8" x1="1682.4" y1="1714.09" x2="1682.4" y2="1754.48"/>
      <line class="cls-8" x1="1721.47" y1="1798.98" x2="1721.47" y2="1828.09"/>
    </g>
    <rect class="cls-26" x="1510.26" y="1527.41" width="123.74" height="123.74" rx="30" ry="30"/>
    <path class="cls-19" d="M1924.71,1541.49c-6.8,4.52-14.49,6.69-22.1,6.69-12.95,0-25.65-6.28-33.35-17.87l-193.35-290.96-193.34,290.96c-7.42,11.16-19.92,17.86-33.32,17.86h-339.43v-40l24.25-40h293.73l214.79-323.23c6.22-9.34,16-15.57,26.89-17.34,2.11-.34,4.26-.52,6.43-.52,13.39,0,25.9,6.71,33.31,17.86l226.67,341.09c12.23,18.4,7.22,43.23-11.18,55.46Z"/>
    <path class="cls-20" d="M1924.71,1469.24c-6.8,4.52-14.49,6.69-22.1,6.69-12.95,0-25.65-6.28-33.35-17.87l-193.35-290.96-193.34,290.96c-7.42,11.16-19.92,17.86-33.32,17.86h-339.43v-40l24.25-40h293.73l214.79-323.23c6.22-9.34,16-15.57,26.89-17.34,2.11-.34,4.26-.52,6.43-.52,13.39,0,25.9,6.71,33.31,17.86l226.67,341.09c12.23,18.4,7.22,43.23-11.18,55.46Z"/>
    <g>
      <path class="cls-13" d="M1920.36,1413.78c-2.79,0-5.39-1.4-6.94-3.72l-224.2-337.37c-5.52-8.31-13.87-14.15-23.31-16.59,1.17-.31,2.36-.56,3.57-.75,2.11-.34,4.26-.52,6.43-.52,13.39,0,25.9,6.71,33.31,17.86l218.07,328.15c3.68,5.54-.29,12.94-6.94,12.94h0Z"/>
      <line class="cls-13" x1="1913.42" y1="1410.06" x2="1689.22" y2="1072.69"/>
    </g>
    <path class="cls-16" d="M1689.22,1072.69l53.48,80.48c1.54,2.32,4.15,3.72,6.94,3.72h0c6.65,0,10.62-7.4,6.94-12.94l-47.36-71.26c-7.41-11.15-19.92-17.86-33.31-17.86-2.17,0-4.32,.18-6.43,.52-1.21,.19-2.4,.44-3.57,.75,9.44,2.44,17.79,8.28,23.31,16.59l55.96,84.2"/>
    <polyline class="cls-1" points="1274.83 1163.75 1134.07 1395.92 1109.82 1435.92"/>
    <line class="cls-3" x1="1208.26" y1="1729.38" x2="1208.26" y2="1769.77"/>
    <line class="cls-3" x1="1341.4" y1="1648.31" x2="1341.4" y2="1721.59"/>
    <line class="cls-3" x1="1763.66" y1="997.58" x2="1763.66" y2="1070.86"/>
    <line class="cls-3" x1="1859.56" y1="1051.7" x2="1859.56" y2="1124.97"/>
    <line class="cls-4" x1="1510.26" y1="1742.65" x2="1510.26" y2="1804.81"/>
    <line class="cls-4" x1="2005.08" y1="1423.67" x2="2005.08" y2="1485.83"/>
    <line class="cls-4" x1="2055.41" y1="1646.88" x2="2055.41" y2="1709.04"/>
    <line class="cls-4" x1="1801.99" y1="1637.71" x2="1801.99" y2="1699.87"/>
    <line class="cls-2" x1="1256.1" y1="1327.82" x2="1359.11" y2="1327.82"/>
    <line class="cls-2" x1="1324.56" y1="1245.63" x2="1427.57" y2="1245.63"/>
    <line class="cls-2" x1="1410.62" y1="1163.75" x2="1513.63" y2="1163.75"/>
    <g>
      <rect class="cls-33" x="1510.26" y="1529.16" width="123.74" height="123.73" rx="20.42" ry="20.42"/>
      <rect class="cls-20" x="1565.89" y="1529.16" width="12.47" height="123.73"/>
      <rect class="cls-20" x="1565.89" y="1529.16" width="12.47" height="123.73" transform="translate(-18.9 3163.15) rotate(-90)"/>
      <path class="cls-20" d="M1544.29,1652.89h-13.61c-11.28,0-20.42-9.14-20.42-20.42v-82.89c0-11.28,9.14-20.42,20.42-20.42h13.61c-11.28,0-20.42,9.14-20.42,20.42v82.89c0,11.28,9.14,20.42,20.42,20.42Z"/>
    </g>
    <g>
      <rect class="cls-33" x="1624.25" y="1372.01" width="103.32" height="103.31" rx="17.05" ry="17.05"/>
      <rect class="cls-20" x="1670.7" y="1372.01" width="10.41" height="103.31"/>
      <rect class="cls-20" x="1670.7" y="1372.01" width="10.41" height="103.31" transform="translate(252.24 3099.58) rotate(-90)"/>
      <path class="cls-20" d="M1652.67,1475.32h-11.37c-9.42,0-17.05-7.63-17.05-17.05v-69.21c0-9.42,7.63-17.05,17.05-17.05h11.37c-9.42,0-17.05,7.63-17.05,17.05v69.21c0,9.42,7.63,17.05,17.05,17.05Z"/>
    </g>
  </g>
</svg>